<svg xmlns="http://www.w3.org/2000/svg" xmlns:xlink="http://www.w3.org/1999/xlink" width="1920" height="1080" viewBox="0 0 1920 1080"><defs><style>.cls-1{fill:none;}.cls-2{clip-path:url(#clip-path);}.cls-3{fill:url(#linear-gradient);}.cls-4{fill:#1e1611;}.cls-5{fill:#4c2d18;}.cls-6{fill:#261106;}.cls-7{fill:#331406;}.cls-8{fill:#593b26;}.cls-9{fill:#543219;}.cls-10{fill:#0a0a09;}.cls-11{fill:#774406;}.cls-12{fill:#663908;}.cls-13{fill:#5b5753;}.cls-14{fill:#3f3d3b;}.cls-15{fill:#4c2e17;}.cls-16{fill:#382111;}.cls-17{fill:#633d1e;}.cls-18{fill:#19cad8;}.cls-19{fill:#1fbbbf;}.cls-20{fill:#fff;}.cls-21{fill:#cc2ec1;}.cls-22{fill:#b21bb2;}.cls-23{fill:#3a2212;}.cls-24{fill:#3a2b22;}.cls-25{fill:#d3d2d1;}.cls-26{fill:#3f2514;}</style><clipPath id="clip-path"><rect class="cls-1" y="1" width="1920" height="1079"/></clipPath><linearGradient id="linear-gradient" x1="-317.65" y1="898.79" x2="2151.5" y2="898.79" gradientUnits="userSpaceOnUse"><stop offset="0" stop-color="#a57244"/><stop offset="1" stop-color="#42210b"/></linearGradient></defs><g id="Layer_3" data-name="Layer 3"><rect x="0.5" y="0.5" width="1919" height="588"/></g><g id="Layer_2" data-name="Layer 2"><g class="cls-2"><path class="cls-3" d="M2151.5,861.86c1.61,234.89-661.77,491.88-1234.5,497.06-659.22,6-1245.32-313.91-1234.5-497.06,6.59-111.6,238.9-240.61,215-296.54-4.85-11.36-16.86-11.74-17-18.12-.88-41,426-79.73,426-79.73,321.53,0,688.26-46.23,1217-21.74,0,0,468.59,21.71,471,87,.44,12-15.66,14.17-19,35-9.19,57.4,109.06,91.51,157,227.09C2143,824.42,2151.39,845.46,2151.5,861.86Z"/><path class="cls-4" d="M1433.81.5C1418.5.5,1320.45,0,1320.45,0s-41,23.5-38,31.5,18,75.12,18,75.12l-8,21.88,23-31-15-40.11,12-30.89s20,3,39,5S1443,64.25,1443,64.25l70.57-28.1,32.07,28.1s49.95,53.48,67.4,42.37,127.52-10.73,127.52-10.73l11.28,99.16L1739,239.6s-13.38,21.77-21.42,26.34-50.27,28.56-50.27,28.56l-20.92,34.24L1634.49,365,1920,359.19,1919.5.5Z"/><path class="cls-5" d="M1476.5,380.5c-.12,6.87,45.86,13.71,68,16,24,2.48,56.87,3.45,56.87,3.45h0l97.5,38.62s140.64-3.92,161.64,0,59.49,0,59.49,0L1919.5.5,1626.83,0l19.53,43.81L1660.5,89.5l-8,36,.37,25.56s-.37,20.44-.37,16.44,8.56-32.68,14.78-34.84,26.17-26,26.17-26,1-23,0-27.58,21.91-17.92,22-25.73,31.32-35.54,31.32-35.54,29.14,25.35,43.44,35.54S1843,106.62,1843,106.62s-.6,27.77.44,39.83-24.92,50.24-25.44,55.15-21.35,41-14.93,46-1.73,32.95-5.15,46.95-22,24.32-33.23,25.16c-38.64,2.89-58.84,11.45-96,16.52-35.23,4.81-28.34,10.12-83.5,23C1517.24,375.06,1476.61,374.05,1476.5,380.5Z"/><path class="cls-6" d="M1620.19,380.19c55.16-12.89,48.27-18.2,83.5-23,37.17-5.07,57.37-13.63,96-16.52,11.2-.84,29.8-11.16,33.23-25.16s11.57-42,5.15-46.95,14.42-41.05,14.93-46,26.49-43.1,25.44-55.15-.44-39.83-.44-39.83-38.51-43.12-52.82-53.31-43.44-35.54-43.44-35.54-2.38,2.11-5.82,5.33c4.9,3.95,9.58,7.58,13.26,10.21C1803.5,64.5,1842,107.62,1842,107.62s-.6,27.77.44,39.83-24.92,50.24-25.44,55.15-21.35,41-14.93,46-1.73,32.95-5.15,46.95-22,24.32-33.23,25.16c-38.64,2.89-58.84,11.45-96,16.52-35.23,4.81-28.34,10.12-83.5,23-68,15.87-108.58,14.86-108.69,21.31-.09,5.64,30.87,11.26,54.22,14.36C1547.9,393.22,1579,389.8,1620.19,380.19Z"/><path class="cls-6" d="M1651.55,167.83a6.42,6.42,0,0,0,0,.67C1651.5,169.44,1651.52,169,1651.55,167.83Z"/><path class="cls-6" d="M1659.5,90.5l-8,36,.37,25.56s-.22,11.93-.32,15.77c.69-5.77,8.77-32.1,14.73-34.17,6.22-2.16,26.17-26,26.17-26s.11-2.63.21-6.28L1683,70l40-38,9-6a30.69,30.69,0,0,1,5-3,31.49,31.49,0,0,1,12-3l7-4,164,40q.49-29,1-58L1625.83,1l19.53,43.81Z"/><path class="cls-7" d="M271.09.5c0,1.8,0,4-.07,6.43-.8,23.39-6.83,72.71-11.91,79.77-5.61,7.8,36.58,44.69,36.49,59.75s-12.1,45.05-12.1,54.05,4.44,39.1,4.44,39.1l-28.83,62.51L110.23,239.6s-2.26-77.49,0-88.29S143.71,32.67,148.6,33.09,210.57,0,210.57,0l60.55,2.3"/><path class="cls-4" d="M393.64,377.59c4.86-8.59,21-108.27,22.94-113.43s-17.19-86.8-11.64-95,66.56-67.4,66.56-67.4,13.65,28.33,14.33,36.78,10.48,53.6,10.48,53.6S510.5,165,510.5,152s10-33.45,0-50.22,6.89-44.16,4.44-61-9.47-53.31-9.47-53.31L90.32-10,73.47,304.59s193.26,63.91,199.15,64.16S393.64,377.59,393.64,377.59Z"/><path class="cls-6" d="M373.3,22.31C369.44,5.5,358.35-31,358.35-31L-192-17.5v226l139-5a163.82,163.82,0,0,1,33.44,48.18c4.61,10.18,27.88,51.26,11.64,95-.17.47-.46,1.72-.85,3.6,13.11.44,190.61,8.83,190.61,8.83,7.67-8.59,33.19-108.27,36.22-113.43s-27.15-86.8-18.38-95,105.05-67.4,105.05-67.4,21.55,28.33,22.62,36.78,16.54,53.6,16.54,53.6,22.4-27.16,22.4-40.16,15.78-33.45,0-50.22S377.16,39.12,373.3,22.31Z"/><path class="cls-6" d="M234.88,278.54,265,206s13.55-24,15.28-23.51S323,216,323,216s26,4,27,7,13,52.07,12.5,55.54,23,59.91,23,59.91L389,365.5,240,323Z"/><path class="cls-8" d="M527.22,434.57S739,437.59,747,436.8s207-9.93,213-10.36,341.58,13.19,352.79,12.87S362.5,476.5,362.5,476.5l-45.67-42.93L416.58,414Z"/><path class="cls-9" d="M340.33,434.57l86.11-12s3.61-3.9,27.08,0,51.13,1.34,53.81,5.12,31.89,6.85,31.89,6.85-15.53-31-26.88-31.55-41.17-10.33-52.26-12.93-45-24.59-49.54-24.59-38.94-3.89-59.74-13.45-79.66-57.55-79.66-57.55L223.5,243,141,174.5s22.65-54.7,28.83-66.35S191.59,26,208.29,18.74,268.07,0,268.07,0L22,.5V428L207.47,479.2Z"/><path class="cls-7" d="M490.34,403c-8.7-.4-28.28-6.26-41.93-10.15-7.45.1-9,1.73-9,1.73l-86.11,12L220.47,451.2,35,400c8.94-11.29,19-28.1,18-48-.67-13.05-5.64-18.24-11-36-7.12-23.59-4.56-35-7-59.26-3.62-36-12-38.57-18-71.74C4.51,115.55,27.86,51.54,39,21,43.22,9.42,47.24.1,50-6L0,.5V428L185.47,479.2l132.86-44.63,86.11-12s3.61-3.9,27.08,0,51.13,1.34,53.81,5.12,31.89,6.85,31.89,6.85S501.69,403.54,490.34,403Z"/><ellipse class="cls-10" cx="1505" cy="473" rx="80" ry="12"/><path class="cls-11" d="M1584.77,375.57V452A20.88,20.88,0,0,1,1564,472.77H1443.57a20.87,20.87,0,0,1-20.8-20.81V375.57a20.86,20.86,0,0,1,20.8-20.8H1564A20.87,20.87,0,0,1,1584.77,375.57Z"/><path class="cls-12" d="M1578.19,454H1457.81A20.87,20.87,0,0,1,1437,433.19V356.81c0-.56,0-1.12.08-1.67A20.89,20.89,0,0,0,1423,374.81v76.38A20.87,20.87,0,0,0,1443.81,472h120.38a20.87,20.87,0,0,0,20.73-19.14A20.62,20.62,0,0,1,1578.19,454Z"/><path class="cls-13" d="M1553.17,472.77l1-118c-6.63-1.38-12.39-1.35-17.36,0l-1,118C1541.81,474.67,1547.62,474.83,1553.17,472.77Z"/><circle cx="1544.77" cy="462.77" r="3"/><circle cx="1544.77" cy="445.77" r="3"/><circle cx="1544.77" cy="428.77" r="3"/><circle cx="1544.77" cy="413.77" r="3"/><circle cx="1544.77" cy="398.77" r="3"/><circle cx="1544.77" cy="383.77" r="3"/><circle cx="1544.77" cy="370.77" r="3"/><circle cx="1544.77" cy="358.77" r="3"/><path class="cls-13" d="M1468.17,472.77l1-118c-6.63-1.38-12.39-1.35-17.36,0l-1,118C1456.81,474.67,1462.62,474.83,1468.17,472.77Z"/><circle cx="1459.77" cy="462.77" r="3"/><circle cx="1459.77" cy="445.77" r="3"/><circle cx="1459.77" cy="428.77" r="3"/><circle cx="1459.77" cy="413.77" r="3"/><circle cx="1459.77" cy="398.77" r="3"/><circle cx="1459.77" cy="383.77" r="3"/><circle cx="1459.77" cy="370.77" r="3"/><circle cx="1459.77" cy="358.77" r="3"/><path class="cls-14" d="M1461.49,353.79a46.64,46.64,0,0,1,7.7,1l-1,118a23.71,23.71,0,0,1-6.8,1.42,24,24,0,0,0,9.8-1.42l1-118A43.16,43.16,0,0,0,1461.49,353.79Z"/><path class="cls-14" d="M1544.49,353.79a46.64,46.64,0,0,1,7.7,1l-1,118a23.71,23.71,0,0,1-6.8,1.42,24,24,0,0,0,9.8-1.42l1-118A43.16,43.16,0,0,0,1544.49,353.79Z"/><path class="cls-11" d="M1660,439.32l-70.24,30a20.86,20.86,0,0,1-27.31-11l-6.52-15.24-40.79-95.46a20.86,20.86,0,0,1,11-27.31l70.24-30a20.86,20.86,0,0,1,27.31,11l40.12,93.89,7.18,16.8A20.88,20.88,0,0,1,1660,439.32Z"/><path class="cls-12" d="M1585.28,464.09l-6.52-15.24L1538,353.39a20.86,20.86,0,0,1,11-27.31l70.24-30c.51-.22,1-.4,1.56-.57a20.87,20.87,0,0,0-23.62-5.23l-70.24,30a20.86,20.86,0,0,0-10.95,27.31l40.79,95.46,6.51,15.24A20.86,20.86,0,0,0,1589,469.82,20.56,20.56,0,0,1,1585.28,464.09Z"/><path class="cls-13" d="M1558.19,448.45,1667.1,403c-1.34-6.64-3.64-11.92-6.83-16l-108.91,45.43C1552,438.76,1554.11,444.16,1558.19,448.45Z"/><circle cx="1564.08" cy="436.8" r="3"/><circle cx="1579.71" cy="430.12" r="3"/><circle cx="1595.34" cy="423.44" r="3"/><circle cx="1609.14" cy="417.54" r="3"/><circle cx="1622.93" cy="411.65" r="3"/><circle cx="1636.72" cy="405.75" r="3"/><circle cx="1648.68" cy="400.64" r="3"/><circle cx="1659.71" cy="395.93" r="3"/><path class="cls-13" d="M1524.79,370.29l108.9-45.43c-1.33-6.64-3.63-11.93-6.82-16L1518,354.33C1518.57,360.6,1520.71,366,1524.79,370.29Z"/><circle cx="1530.68" cy="358.63" r="3"/><circle cx="1546.31" cy="351.95" r="3"/><circle cx="1561.94" cy="345.27" r="3"/><circle cx="1575.74" cy="339.38" r="3"/><circle cx="1589.53" cy="333.48" r="3"/><circle cx="1603.32" cy="327.59" r="3"/><circle cx="1615.28" cy="322.48" r="3"/><circle cx="1626.31" cy="317.77" r="3"/><path class="cls-14" d="M1631.56,317.39a45.67,45.67,0,0,1,2.13,7.47l-108.9,45.43a23.58,23.58,0,0,1-4-5.69,23.87,23.87,0,0,0,5.16,8.45l108.91-45.43A43.57,43.57,0,0,0,1631.56,317.39Z"/><path class="cls-14" d="M1664.18,393.72a46.85,46.85,0,0,1,2.13,7.46L1557.4,446.61a23.62,23.62,0,0,1-4-5.69,23.87,23.87,0,0,0,5.16,8.45l108.91-45.43A43.48,43.48,0,0,0,1664.18,393.72Z"/><polygon class="cls-6" points="1857.3 337.94 1920 330.61 1920 328.75 1841.3 337.94 1797.93 365.5 1813.93 365.5 1857.3 337.94"/><polygon class="cls-6" points="1731.5 379.5 1782.23 365.5 1766.23 365.5 1715.5 379.5 1685.5 411.5 1715.5 428.01 1731.5 428.01 1701.5 411.5 1731.5 379.5"/><ellipse class="cls-15" cx="1707.51" cy="411.22" rx="4.18" ry="10.14" transform="translate(988.49 2013.63) rotate(-79.37)"/><ellipse class="cls-15" cx="1846.51" cy="356.22" rx="10.14" ry="4.18" transform="translate(-34.02 346.59) rotate(-10.63)"/><path class="cls-16" d="M1941,479c.28,5.68-11.88,14.08-19,19-1.72,1.19-6.7,4.44-20,10-15.17,6.34-22.76,9.51-28,10-19.58,1.85-22.25-13.85-48.53-17.33-15.37-2-15.59,3.18-33.47.33-9.46-1.51-17.23-4.21-27-1-6.07,2-8.54,4.84-12,7-16.73,10.44-35.62-8.23-73-13-23-2.93-25.43,2.9-49-2-6.92-1.44-15.61-4-33-9-16-4.63-24-7-24-8-.33-7.26,85.45-22,181.5-23C1852.45,451,1940.27,464,1941,479Z"/><path class="cls-17" d="M1920,489.6s-151,2.09-153.77,0-64.73-6.1-64.73-6.1H1636l-62.52-9,18-19,64-44h60.18l57.82-15h57.07l44.93-31,44.5,35.24Z"/><polygon class="cls-17" points="1715.5 379.5 1685.5 411.5 1715.5 428.01 1819.85 428.01 1920 428.01 1920 328.75 1841.3 337.94 1797.93 365.5 1766.23 365.5 1715.5 379.5"/><polygon class="cls-6" points="1609.5 472 1673.5 428 1703.5 428 1733.68 428 1791.5 413 1848.57 413 1893.5 382 1920 402.99 1920 401.25 1875.5 366 1830.57 397 1773.5 397 1715.68 412 1685.5 412 1655.5 412 1591.5 456 1573.5 475 1602.68 479.2 1609.5 472"/><path class="cls-18" d="M1702.41,410.7s-17.47-19.47-16-19.47-.09-19.29-.09-19.29l16.07,7.14,9,24.63v7Z"/><path class="cls-19" d="M1689.68,389c1.08,0,.55-10,.18-15.62l-3.77-1.68s1.59,19.3.09,19.3,16,19.46,16,19.46h9v-2h-5.49S1688.18,389,1689.68,389Z"/><path class="cls-19" d="M1699.16,389.49c7.13,10.95,12.33,21.26,12,21.46-.19.11-1.92-2.74-13-20-10.1-15.74-12.16-18.84-12-19S1692.92,379.89,1699.16,389.49Z"/><path class="cls-18" d="M1701.88,405.31s-6.05-32.35-4.46-31.43,12.33-21.4,12.33-21.4l12.5,17.85-6.31,32.82-4.5,7.73Z"/><path class="cls-19" d="M1702.32,373.41c1.15.67,7-10.75,10.25-17.18l-2.93-4.18s-10.73,22.33-12.32,21.4,4.46,31.43,4.46,31.43l9.56,5.57,1.28-2.21-5.84-3.4S1700.73,372.48,1702.32,373.41Z"/><path class="cls-19" d="M1712.09,379.83c.53,16.54-.57,31.16-1.07,31.17-.27,0-.29-4.23-1-30.13-.61-23.66-.81-28.37-.53-28.4C1710,352.42,1711.63,365.35,1712.09,379.83Z"/><path class="cls-18" d="M1707.14,403.06s8.34-24.79,9.08-23.49S1733,370,1733,370l1.7,17.49-17,20-6.08,3.44Z"/><path class="cls-19" d="M1719.77,381.29c.53.94,9-4.46,13.68-7.54l-.4-4.1s-16,10.88-16.74,9.58-9.07,23.49-9.07,23.49l4.42,7.82,1.74-1-2.7-4.77S1719,380,1719.77,381.29Z"/><path class="cls-19" d="M1724,389.79c-6,11.6-12.43,21.2-12.78,21-.19-.1,1.44-3,11-21.12,8.72-16.55,10.4-19.87,10.61-19.77S1729.28,379.62,1724,389.79Z"/><path class="cls-20" d="M1720.76,370.77l-8.37-11.58.25,7.09Z"/><path class="cls-21" d="M1841.44,356.48s-19.19-10.55-18-11S1818,330.3,1818,330.3l14.68,1.19,13.92,17,1.93,5.52Z"/><path class="cls-22" d="M1825.37,342.85c.85-.3-2.34-8.08-4.18-12.4l-3.44-.28s6.6,14.81,5.41,15.22,18,11,18,11l7.1-2.49-.56-1.57-4.33,1.52S1824.19,343.26,1825.37,342.85Z"/><path class="cls-22" d="M1833,340.61c8.67,6.69,15.63,13.39,15.42,13.65s-2.29-1.64-15.79-12.19c-12.34-9.64-14.83-11.52-14.72-11.67S1825.41,334.76,1833,340.61Z"/><path class="cls-21" d="M1839.54,352.37s-13.75-23.9-12.23-23.61,3.81-20.32,3.81-20.32l14.82,10.64,4.11,27.68-1.42,7.36Z"/><path class="cls-22" d="M1831.05,327c1.09.21,2.59-10.45,3.34-16.41l-3.47-2.5s-2.3,20.62-3.81,20.33,12.23,23.61,12.23,23.61l9.09,1.75.41-2.11-5.56-1.06S1829.53,326.74,1831.05,327Z"/><path class="cls-22" d="M1840.55,329.4c5,12.93,8.17,24.79,7.78,24.93-.21.08-1.39-3.26-9.09-23.55-7-18.53-8.51-22.2-8.29-22.3S1836.17,318.08,1840.55,329.4Z"/><path class="cls-21" d="M1843.07,349.13s-.28-21.9.67-21.08,10.58-12.21,10.58-12.21l6.19,13.36-7.92,20.48-3.86,4.4Z"/><path class="cls-22" d="M1847,328.43c.68.59,5.88-6,8.73-9.75l-1.45-3.13s-9.64,13-10.58,12.21-.67,21.07-.67,21.07l5.66,5,1.11-1.26-3.47-3S1846.08,327.6,1847,328.43Z"/><path class="cls-22" d="M1852.72,334c-1.54,10.84-4,20.2-4.28,20.13s.3-2.79,2.83-19.74c2.31-15.49,2.72-18.58,2.9-18.56S1854.08,324.48,1852.72,334Z"/><path class="cls-20" d="M1843.45,319.66l-6.84-5.14,1.4,4Z"/><path class="cls-20" d="M1856,321.9l.36,14.28,3.81-6Z"/><path class="cls-23" d="M356,511c.79,9-76.4,33.65-116.22,29.07,0,0-46.27-5.33-59.78,4.93a4,4,0,0,1-3,1c-2.82-.59-2.45-5.93-5-9-5.46-6.58-22.75-.76-25,0-11.61,3.91-12.64,8.5-24,11a37.25,37.25,0,0,1-15,.72c-10-1.76-10.88-7-20-10.72-8.7-3.59-12-.52-41,0,0,0-4.93.09-15,0-28.84-.25-78.25-10.54-78-17.5.44-12.11,151.22-15.14,208.5-16.5C222.3,502.58,355,499.42,356,511Z"/><polygon class="cls-17" points="-6.5 522.5 215.5 510.5 303.04 516.5 353.6 510.5 362.5 476.5 316.83 433.57 267.5 415.5 185.09 423.98 123.5 395.5 114.5 365.5 34.5 354.5 -6.5 378.89 -14 381.96 -6.5 522.5"/><polygon class="cls-7" points="316.83 433.57 267.5 415.5 185.09 423.98 123.5 395.5 114.5 365.5 34.5 354.5 -6.5 378.89 -14 381.96 -12.86 403.24 3.5 393.5 83.5 404.5 92.5 434.5 154.09 462.98 236.5 454.5 285.83 472.57 329.25 513.39 353.6 510.5 362.5 476.5 316.83 433.57"/><path class="cls-21" d="M166.35,435.57s-19.3-21.52-17.65-21.52-.1-21.31-.1-21.31l17.75,7.88,9.93,27.22v7.73Z"/><path class="cls-22" d="M152.29,411.57c1.19,0,.61-11.08.2-17.26l-4.16-1.85s1.75,21.32.1,21.32,17.65,21.51,17.65,21.51H176v-2.2h-6.07S150.63,411.57,152.29,411.57Z"/><path class="cls-22" d="M162.77,412.12c7.88,12.11,13.62,23.5,13.24,23.72-.21.12-2.13-3-14.34-22.06-11.16-17.39-13.45-20.82-13.24-21S155.87,401.52,162.77,412.12Z"/><path class="cls-21" d="M165.78,429.62s-6.69-35.76-4.93-34.74,13.62-23.65,13.62-23.65L188.28,391l-7,36.27-5,8.54Z"/><path class="cls-22" d="M166.26,394.36c1.27.73,7.79-11.89,11.33-19l-3.24-4.62s-11.86,24.68-13.62,23.66,4.93,34.73,4.93,34.73l10.57,6.15,1.42-2.44-6.46-3.76S164.5,393.33,166.26,394.36Z"/><path class="cls-22" d="M177.06,401.46c.59,18.27-.64,34.43-1.19,34.44-.3,0-.31-4.67-1.05-33.3-.68-26.15-.9-31.36-.59-31.39C174.75,371.16,176.54,385.45,177.06,401.46Z"/><path class="cls-21" d="M171.59,427.12s9.21-27.4,10-26,18.5-10.58,18.5-10.58L202,409.91l-18.8,22-6.72,3.8Z"/><path class="cls-22" d="M185.54,403.06c.59,1,10-4.92,15.12-8.33l-.44-4.53s-17.68,12-18.5,10.59-10,26-10,26l4.89,8.64,1.92-1.09-3-5.28S184.73,401.62,185.54,403.06Z"/><path class="cls-22" d="M190.22,412.45c-6.65,12.83-13.73,23.43-14.12,23.21-.2-.12,1.59-3.35,12.14-23.35,9.64-18.28,11.5-21.95,11.72-21.85C200.34,390.64,196.05,401.22,190.22,412.45Z"/><path class="cls-20" d="M199,400l-4.23,13.65,5.53-4.46C199.84,406.08,199.4,403,199,400Z"/><path class="cls-20" d="M180.89,383.77l2,14.15,3.1-6.38Q183.44,387.66,180.89,383.77Z"/><path class="cls-24" d="M1534.22,936.64c3.83,10.38.42,21.73-7.7,29l2.38,6.46a7,7,0,0,1-4.13,9l-8.25,3a7,7,0,0,1-9-4.14l-2.49-6.76c-10.58-.59-20.13-7-23.85-17.07-5.1-13.83,2.64-29.41,17.28-34.8S1529.13,922.82,1534.22,936.64Z"/><path class="cls-25" d="M1536.22,934.64c3.83,10.38.42,21.73-7.7,29l2.38,6.46a7,7,0,0,1-4.13,9l-8.25,3a7,7,0,0,1-9-4.14l-2.49-6.76c-10.58-.59-20.13-7-23.85-17.07-5.1-13.83,2.64-29.41,17.28-34.8S1531.13,920.82,1536.22,934.64Z"/><ellipse cx="1502.41" cy="945.01" rx="3.53" ry="7.85" transform="translate(-234.09 577.81) rotate(-20.23)"/><ellipse cx="1517.14" cy="939.59" rx="3.53" ry="7.85" transform="matrix(0.94, -0.35, 0.35, 0.94, -231.31, 582.57)"/><path class="cls-24" d="M713,768.94c-25.3,2.34-29.58,1.81-30.15.13a.86.86,0,0,1,0-.5c.44-1.9,8.52-.86,19-1.47,3-.18,5.34-.46,9.94-1,15.62-1.94,23.43-2.91,25.16-3.34,1.05-.25,4.24-1.07,4.63-.26.25.51-.73,1.48-.84,1.59a5.09,5.09,0,0,1-2.88,1.31c-5.3.69-10.49,2.17-15.81,2.65C717.09,768.45,721.77,768.13,713,768.94Z"/><circle class="cls-24" cx="739.19" cy="760.18" r="4"/><circle class="cls-24" cx="739.81" cy="766.15" r="4" transform="translate(-206.48 277.44) rotate(-18.69)"/><circle class="cls-24" cx="682.5" cy="766.08" r="4"/><circle class="cls-24" cx="683.02" cy="771.06" r="4"/><path class="cls-25" d="M712,765.94c-25.3,2.34-29.58,1.81-30.15.13a.86.86,0,0,1,0-.5c.44-1.9,8.52-.86,19-1.47,3-.18,5.34-.46,9.94-1,15.62-1.94,23.43-2.91,25.16-3.34,1.05-.25,4.24-1.07,4.63-.26.25.51-.73,1.48-.84,1.59a5.09,5.09,0,0,1-2.88,1.31c-5.3.69-10.49,2.17-15.81,2.65C716.09,765.45,720.77,765.13,712,765.94Z"/><circle class="cls-25" cx="738.19" cy="757.18" r="4"/><circle class="cls-25" cx="738.81" cy="763.15" r="4" transform="translate(-205.57 276.96) rotate(-18.69)"/><circle class="cls-25" cx="681.5" cy="763.08" r="4"/><circle class="cls-25" cx="682.02" cy="768.06" r="4"/><path class="cls-24" d="M1669.7,640.66c24.72-5.85,29-5.91,29.84-4.33a.87.87,0,0,1,.12.49c-.18,1.94-8.32,2-18.56,4.1-3,.6-5.22,1.2-9.7,2.41-15.2,4.1-22.8,6.16-24.45,6.82-1,.4-4,1.65-4.55.91-.32-.47.51-1.57.61-1.7a5,5,0,0,1,2.67-1.69c5.15-1.43,10.08-3.62,15.29-4.84C1665.68,641.73,1661.09,642.7,1669.7,640.66Z"/><circle class="cls-24" cx="1644.95" cy="653" r="4"/><circle class="cls-24" cx="1643.5" cy="647.18" r="4" transform="translate(-115.52 807.7) rotate(-26.71)"/><circle class="cls-24" cx="1700.26" cy="639.24" r="4"/><circle class="cls-24" cx="1699.06" cy="634.39" r="4"/><path class="cls-25" d="M1671.11,643.49c24.72-5.84,29-5.91,29.84-4.33a.87.87,0,0,1,.12.49c-.18,1.94-8.32,2-18.56,4.1-3,.6-5.23,1.2-9.71,2.41-15.19,4.11-22.79,6.16-24.44,6.82-1,.4-4,1.65-4.55.91-.32-.47.51-1.57.61-1.7a5,5,0,0,1,2.67-1.69c5.15-1.43,10.08-3.62,15.29-4.84C1667.09,644.56,1662.5,645.53,1671.11,643.49Z"/><circle class="cls-25" cx="1646.36" cy="655.83" r="4"/><circle class="cls-25" cx="1644.91" cy="650.01" r="4" transform="translate(-116.65 808.64) rotate(-26.71)"/><circle class="cls-25" cx="1701.67" cy="642.07" r="4"/><circle class="cls-25" cx="1700.46" cy="637.22" r="4"/><path class="cls-24" d="M1484.44,994.93c25.2,3.16,29.27,4.61,29.47,6.37a.92.92,0,0,1-.06.5c-.84,1.76-8.51-1-18.82-2.64-3-.49-5.32-.7-9.94-1.13-15.67-1.47-23.5-2.2-25.28-2.16-1.08,0-4.37.14-4.58-.73-.14-.56,1-1.3,1.16-1.38a5.05,5.05,0,0,1,3.09-.66c5.33.47,10.71.14,16,.82C1480.3,994.53,1475.65,993.83,1484.44,994.93Z"/><circle class="cls-24" cx="1456.93" cy="997.85" r="4"/><circle class="cls-24" cx="1457.61" cy="991.89" r="4" transform="translate(-99.43 164.8) rotate(-6.26)"/><circle class="cls-24" cx="1513.57" cy="1004.28" r="4"/><circle class="cls-24" cx="1514.13" cy="999.31" r="4"/><path class="cls-25" d="M1484.77,998.08c25.2,3.16,29.27,4.6,29.47,6.37a.9.9,0,0,1-.06.49c-.84,1.76-8.51-1-18.82-2.64-3-.48-5.32-.7-9.94-1.13-15.67-1.46-23.5-2.19-25.28-2.15-1.08,0-4.37.13-4.58-.74-.14-.55,1-1.29,1.16-1.38a5.11,5.11,0,0,1,3.1-.65c5.32.47,10.71.14,16,.81C1480.63,997.67,1476,997,1484.77,998.08Z"/><circle class="cls-25" cx="1457.26" cy="1000.99" r="4"/><circle class="cls-25" cx="1457.94" cy="995.03" r="4" transform="translate(-99.78 164.85) rotate(-6.26)"/><circle class="cls-25" cx="1513.9" cy="1007.43" r="4"/><circle class="cls-25" cx="1514.46" cy="1002.46" r="4"/><path class="cls-24" d="M1582.36,965.42c-18.09,17.83-21.74,20.12-23.25,19.19a.91.91,0,0,1-.36-.35c-.86-1.75,6-6.07,13.74-13.14,2.24-2.07,3.84-3.75,7-7.11,10.85-11.39,16.28-17.09,17.35-18.51.65-.87,2.6-3.51,3.41-3.14.52.24.38,1.61.36,1.76a5.05,5.05,0,0,1-1.4,2.84c-3.66,3.89-6.74,8.32-10.55,12.07C1585.24,962.42,1588.67,959.2,1582.36,965.42Z"/><circle class="cls-24" cx="1597.11" cy="942.02" r="4"/><circle class="cls-24" cx="1601.37" cy="946.24" r="4" transform="translate(-49.9 1802.44) rotate(-57.99)"/><circle class="cls-24" cx="1556.98" cy="982.5" r="4"/><circle class="cls-24" cx="1560.53" cy="986.02" r="4"/><path class="cls-25" d="M1579.69,963.73c-18.1,17.83-21.74,20.13-23.26,19.19a.89.89,0,0,1-.35-.35c-.86-1.75,6.05-6.07,13.73-13.14,2.24-2.06,3.84-3.74,7-7.1,10.86-11.4,16.29-17.1,17.35-18.52.65-.87,2.61-3.51,3.42-3.14.52.24.38,1.61.36,1.77a5,5,0,0,1-1.4,2.83c-3.67,3.89-6.74,8.32-10.56,12.07C1582.57,960.73,1586,957.51,1579.69,963.73Z"/><circle class="cls-25" cx="1594.44" cy="940.33" r="4"/><circle class="cls-25" cx="1598.7" cy="944.55" r="4" transform="matrix(0.53, -0.85, 0.85, 0.53, -49.72, 1799.38)"/><circle class="cls-25" cx="1554.3" cy="980.81" r="4"/><circle class="cls-25" cx="1557.85" cy="984.33" r="4"/><path class="cls-6" d="M384.45,0c2.05,24.5,20.49,83.64,20.49,83.64v62.81s28.89-32.65,28.72-38.3-3.83-24.2,0-34.93,32.77-47.79,32.77-47.79L481,0Z"/><path d="M418,120.45V57.64S409.45,30.23,403.35,5H385.5C387.56,29.5,406,88.64,406,88.64v62.81s28.88-32.65,28.72-38.3c-.06-2.19-.65-6.32-1.13-11.18C426,111.37,418,120.45,418,120.45Z"/><path d="M446.72,47.22C445.33,51.11,444.93,56,445,61c9.7-14.14,22.5-30.54,22.5-30.54L482,5H475.2C467,15.76,449.63,39.08,446.72,47.22Z"/><path class="cls-26" d="M526.91.5c.46,2.28,12.59,37,12.59,37s-15.17,40.28-12.59,46.14,12.59,23,12.59,23l7.33-33.4,23-19.66s-.31-14.06-.31-22.06S608.11,0,608.11,0L527.37,2.78"/><path class="cls-6" d="M532.86,2c-.25-.77-.4-1.3-.45-1.52L532.72,2Z"/><path class="cls-6" d="M613.61,0l-23.3.8C583.63,5,553,24.37,553,31.5c0,8,.31,22.06.31,22.06l-19,16.24c-1.74,6.51-2.75,12-1.92,13.84,2.59,5.86,12.59,23,12.59,23l7.33-33.4,23-19.66S575,39.5,575,31.5,613.61,0,613.61,0Z"/><path class="cls-26" d="M582.91-47.5c.46,2.28,12.59,37,12.59,37s-15.17,40.28-12.59,46.14,12.59,23,12.59,23l7.33-33.4,23-19.66S625.5-8.5,625.5-16.5,664.11-48,664.11-48l-80.74,2.78"/><path class="cls-6" d="M669.61-48l-23.3.8C639.63-43,609-23.63,609-16.5c0,8,.31,22.06.31,22.06l-19,16.24c-1.74,6.51-2.75,12-1.92,13.84,2.59,5.86,12.59,23,12.59,23l7.33-33.4,23-19.66S631-8.5,631-16.5,669.61-48,669.61-48Z"/><path class="cls-26" d="M1022.09-19.5c-.46,2.28-12.59,37-12.59,37s15.17,40.28,12.59,46.14-12.59,23-12.59,23l-7.33-33.4-23-19.66s.31-14.06.31-22.06S940.89-20,940.89-20l80.74,2.78"/><path class="cls-6" d="M935.39-20l23.3.8C965.37-15,996,4.37,996,11.5c0,8-.31,22.06-.31,22.06l19,16.24c1.74,6.51,2.75,12,1.92,13.84-2.59,5.86-12.59,23-12.59,23l-7.33-33.4-23-19.66S974,19.5,974,11.5,935.39-20,935.39-20Z"/><path class="cls-26" d="M1037,.5c5.46,11,27.46,56,27.46,65s6,26.85,0,31.93-12.4,16.85-12.4,16.85,22.14-1.55,24.77-7.66S1095,79,1095.26,73.22s.24-16.72.24-26.72,5-18,14-32l9-14Z"/><path class="cls-6" d="M1064.5,96.93c-6,5.07-12.4,16.85-12.4,16.85a97.83,97.83,0,0,0,15.41-2.45c2.22-3.73,6.7-10.78,11-14.4,6-5.08,0-22.93,0-31.93s-22-54-27.46-65h-14c5.46,11,27.46,56,27.46,65S1070.5,91.85,1064.5,96.93Z"/><path class="cls-26" d="M1414-2.29c5.46,15.69,27.46,79.88,27.46,92.72s6,38.3,0,45.53-12.4,24-12.4,24,22.14-2.2,24.77-10.93,18.14-39.46,18.39-47.63.24-23.85.24-38.11,5-25.68,14-45.65l9-20Z"/><path class="cls-6" d="M1441.5,135.25c-6,7.24-12.4,24-12.4,24a70.75,70.75,0,0,0,15.41-3.5c2.22-5.32,6.7-15.37,11-20.54,6-7.24,0-32.7,0-45.54s-22-77-27.46-92.71h-14c5.46,15.69,27.46,79.88,27.46,92.71S1447.5,128,1441.5,135.25Z"/><path class="cls-26" d="M1554.3,0s13.2,41.5,13.2,45.5-13.2,61.12-13.2,61.12,12.2-15.78,19.7-21.45,26.68-41.36,26.68-41.36l37.64-18L1693.45,0Z"/><path class="cls-6" d="M1582.68,74.32c1.65-7.71,2.82-13.63,2.82-14.82,0-4-13.2-45.5-13.2-45.5h91.2l30-14H1554.3s13.2,41.5,13.2,45.5-13.2,61.12-13.2,61.12,12.2-15.78,19.7-21.45C1576.17,83.53,1579.31,79.38,1582.68,74.32Z"/></g></g></svg>