<svg id="Layer_2" data-name="Layer 2" xmlns="http://www.w3.org/2000/svg" width="314.04" height="553.02" viewBox="0 0 314.04 553.02"><defs><style>.cls-1{fill:#58595b;}.cls-2{fill:#3c2415;}.cls-3{fill:#22130c;}.cls-4{fill:#f7d2a6;}.cls-5{fill:#f7941d;}.cls-6{fill:#e48225;}.cls-7{fill:#231f20;}.cls-8{fill:#d7df23;}.cls-9{fill:#b2b335;}.cls-10{fill:#282626;}.cls-11{fill:#3f3d3e;}.cls-12{fill:#ffdfb4;}.cls-13{fill:#e9c61d;}.cls-14{fill:#ffde17;}.cls-15{fill:#fff;}.cls-16{fill:#808285;}.cls-17{fill:#afaeaf;}.cls-18{fill:#bcbec0;}.cls-19{fill:#e0dae0;}</style></defs><ellipse class="cls-1" cx="124.76" cy="516.98" rx="108.49" ry="20.79"/><polygon points="198.28 517.49 131.91 507.55 131.91 497.62 198.28 497.62 198.28 517.49"/><rect class="cls-2" x="109.93" y="351.08" width="53" height="150.28" rx="12" transform="translate(-89.3 39.8) rotate(-12.54)"/><path class="cls-3" d="M152.69,504a12,12,0,0,1-14.32-9.11L111,371.6a12,12,0,0,1,6.39-13.35l-10.43,2.33A12,12,0,0,0,97.8,374.9l27.42,123.26a12,12,0,0,0,14.32,9.11l28.31-6.3a11.66,11.66,0,0,0,2.71-1Z"/><polygon points="218.7 501.71 198.28 517.49 198.28 493.42 217.92 491.27 218.7 501.71"/><path d="M192.75,513.13l-59.92-8.22c-2.48-.34.23-2.83,5.69-5.37l32-14.91c3.08-1.43,6.7-2.27,8.22-1.94L217.29,491c1.2.26,1,1.63-.64,3.12L200.8,509C198.21,511.47,194.54,513.37,192.75,513.13Z"/><rect class="cls-2" x="34.12" y="356.56" width="53" height="150.28" rx="12"/><path class="cls-3" d="M42,497.14V370.86a12,12,0,0,1,12-12H82.37a11.92,11.92,0,0,0-7-2.3h-29a12,12,0,0,0-12,12V494.84a12,12,0,0,0,12,12H47A12,12,0,0,1,42,497.14Z"/><path d="M95.35,527.2l-56.93,4.06c-2.37.17-4.18-3.15-4-7.18l.8-23.35c.09-2.56,1.59-4.54,3.34-4.54H82.09c1.44,0,3.42,1.78,4.45,4.07l9.24,20.37C97.33,524.05,97.18,527.07,95.35,527.2Z"/><rect class="cls-4" x="81.08" y="147.76" width="24.2" height="62.94" transform="translate(-22.21 13.42) rotate(-7.36)"/><path class="cls-5" d="M151.26,364.05,33.9,369l3.51-150.94c.62-27,21.41-39.55,44-30.05l31.12,13.13c17.13,7.22,30.83,29.06,32.07,50Z"/><path class="cls-6" d="M47.86,220.62c.35-23.63,16.35-36.11,35.24-31.71l-1.86-.78c-22.55-9.51-43.36,3-44,30L33.72,369.23l11.92-.51Z"/><polygon class="cls-7" points="150.33 347.76 34.49 346.62 33.92 369.71 151.3 364.62 150.33 347.76"/><path class="cls-8" d="M63.73,185c-2.18,20.95-4,44.41-5.08,70.5-1.31,30.33-1.57,60.69-1,90.53l18.92.21a828.67,828.67,0,0,1-4.06-88.66A630.89,630.89,0,0,1,77,186.48a36.61,36.61,0,0,0-7-1.42A32,32,0,0,0,63.73,185Z"/><path class="cls-9" d="M61,342.22c-.59-29.44-.41-59.41.8-89.34,1-25.06,2.64-47.67,4.66-67.93a26.54,26.54,0,0,0-2.79.14c-2.18,20.95-4,44.42-5.08,70.51-1.3,30.33-1.57,60.7-1,90.54l18.92.21-.36-3.81Z"/><path class="cls-8" d="M115.51,202.61c1.72,18.39,3.13,38.2,4,59.45,1.25,29,1.43,57.29.84,84.7l10.46.12c0-28.71-.77-57.94-2.46-87.59-1-17.55-2.26-34.2-3.72-50a42.81,42.81,0,0,0-4.6-3.89A36.26,36.26,0,0,0,115.51,202.61Z"/><path class="cls-8" d="M119.55,262.06c-.08,3.77-47.11-13.29-46.87-15.35L72.45,263c17.68,7.71,33.54,12.55,47.66,14.25Z"/><path class="cls-7" d="M88.39,253.83c0,2.48.14,5.15.35,8s.48,5.4.8,7.89a97.48,97.48,0,0,0,10.5,3.62,81.05,81.05,0,0,0,9.47,2.06c0-2.38,0-5-.25-7.91-.18-2.47-.45-4.78-.77-6.89q-4.53-1.33-9.49-3Q93.63,255.82,88.39,253.83Z"/><path class="cls-10" d="M90.83,256.27c0,2,.12,4.06.28,6.3s.39,4.24.64,6.19a75.29,75.29,0,0,0,8.24,2.88,62.16,62.16,0,0,0,7.51,1.67c0-1.88,0-4-.18-6.27-.15-2-.36-3.8-.61-5.48q-3.61-1.05-7.54-2.35C96.34,258.28,93.56,257.29,90.83,256.27Z"/><path class="cls-7" d="M93.09,258.62c0,1.43.09,3,.22,4.62s.28,3.1.47,4.53a57,57,0,0,0,6,2.13,46.49,46.49,0,0,0,5.56,1.26c0-1.39,0-2.94-.13-4.64-.11-1.45-.26-2.81-.45-4.06q-2.69-.76-5.59-1.71C97.13,260.07,95.09,259.35,93.09,258.62Z"/><path class="cls-11" d="M73.66,200c-.2,1.65-1.66,2.32-3.27,1.49A4.89,4.89,0,0,1,67.82,197c.21-1.65,1.69-2.29,3.3-1.44A4.93,4.93,0,0,1,73.66,200Z"/><path class="cls-7" d="M74.28,199.53c-.2,1.64-1.65,2.31-3.25,1.48a4.9,4.9,0,0,1-2.57-4.53c.21-1.65,1.69-2.28,3.3-1.43A4.91,4.91,0,0,1,74.28,199.53Z"/><path class="cls-11" d="M123.68,221.39c-.09,1.48-1.16,2.15-2.4,1.49A4.41,4.41,0,0,1,119.2,219c.1-1.48,1.18-2.13,2.42-1.46A4.43,4.43,0,0,1,123.68,221.39Z"/><path class="cls-7" d="M124.13,220.92c-.09,1.47-1.15,2.14-2.39,1.49a4.44,4.44,0,0,1-2.08-3.89c.1-1.48,1.18-2.12,2.42-1.45A4.44,4.44,0,0,1,124.13,220.92Z"/><path class="cls-11" d="M128.35,339.63c-.09,1.82-1.24,3.09-2.58,2.82s-2.36-2-2.26-3.85,1.27-3.09,2.6-2.79S128.44,337.81,128.35,339.63Z"/><path class="cls-7" d="M128.83,338.87c-.08,1.82-1.23,3.08-2.56,2.81s-2.36-2-2.26-3.85,1.26-3.08,2.59-2.78S128.92,337.05,128.83,338.87Z"/><path class="cls-11" d="M70.07,337.85c-.23,2.14-1.88,3.62-3.71,3.29s-3.15-2.36-2.91-4.53,1.94-3.61,3.76-3.25A4,4,0,0,1,70.07,337.85Z"/><path class="cls-7" d="M70.78,337c-.23,2.13-1.87,3.6-3.7,3.28a4,4,0,0,1-2.89-4.52c.24-2.16,1.92-3.6,3.74-3.24A4,4,0,0,1,70.78,337Z"/><path class="cls-11" d="M70.11,254.16a2.47,2.47,0,0,1-3.48,2.16,4.54,4.54,0,0,1-2.73-4.57,2.48,2.48,0,0,1,3.53-2.13A4.55,4.55,0,0,1,70.11,254.16Z"/><path class="cls-7" d="M70.78,253.51a2.46,2.46,0,0,1-3.47,2.16,4.55,4.55,0,0,1-2.72-4.57A2.46,2.46,0,0,1,68.1,249,4.56,4.56,0,0,1,70.78,253.51Z"/><path class="cls-11" d="M127.49,272.13c-.09,1.61-1.18,2.52-2.44,2a4,4,0,0,1-2.15-3.86c.09-1.63,1.2-2.52,2.47-2A4.06,4.06,0,0,1,127.49,272.13Z"/><path class="cls-7" d="M127.94,271.54c-.08,1.61-1.17,2.52-2.43,2a4,4,0,0,1-2.14-3.85c.1-1.62,1.2-2.51,2.46-2A4,4,0,0,1,127.94,271.54Z"/><path class="cls-4" d="M35.66,97.29H138.49a1.84,1.84,0,0,1,1.84,1.84v56.75A32.09,32.09,0,0,1,108.23,188H65.92a32.09,32.09,0,0,1-32.09-32.09V99.13a1.84,1.84,0,0,1,1.84-1.84Z" transform="translate(-17.56 12.34) rotate(-7.36)"/><path class="cls-12" d="M60.6,97.76h77.22a1.84,1.84,0,0,1,1.84,1.84v54.72a32.09,32.09,0,0,1-32.09,32.09H90.85a32.09,32.09,0,0,1-32.09-32.09V99.6a1.84,1.84,0,0,1,1.84-1.84Z" transform="translate(-17.39 13.89) rotate(-7.36)"/><path class="cls-13" d="M71,30.81H85.81a45.84,45.84,0,0,1,45.84,45.84V105.7a3,3,0,0,1-3,3H25.14a0,0,0,0,1,0,0v-32A45.84,45.84,0,0,1,71,30.81Z" transform="translate(-8.29 10.62) rotate(-7.36)"/><path class="cls-14" d="M85.44,31.26h0A45.84,45.84,0,0,1,131.28,77.1V97.83a3,3,0,0,1-3,3H39.6a0,0,0,0,1,0,0V77.1A45.84,45.84,0,0,1,85.44,31.26Z" transform="translate(-7.76 11.5) rotate(-7.36)"/><rect class="cls-13" x="14.24" y="96.91" width="137.26" height="15" rx="7.5" transform="translate(-12.7 11.48) rotate(-7.36)"/><path class="cls-14" d="M144.61,104l-88,11.37a6.29,6.29,0,0,1-6.91-5.54h0A6.27,6.27,0,0,1,55,102.67L143,91.3a6.29,6.29,0,0,1,6.91,5.54h0A6.28,6.28,0,0,1,144.61,104Z"/><path class="cls-7" d="M97.9,130.24c-.19,4.79-2.8,9.52-6.5,10-3.54.5-6.63-3.06-7.58-7.39-1.32-6,1.49-13.4,5.9-14.23S98.15,123.89,97.9,130.24Z"/><ellipse class="cls-15" cx="91.27" cy="125.73" rx="2.09" ry="3.83"/><path class="cls-7" d="M98.33,119.75c-.09.65-3.68-1.06-9.08.4-4.91,1.34-7.63,4.3-7.86,3.73s2.84-5.53,7.26-6.91C93.68,115.41,98.43,119,98.33,119.75Z"/><path class="cls-7" d="M132.64,125.74c-.22,4.79-3.21,9.51-7.43,10-4,.5-7.57-3.06-8.66-7.39-1.51-6,1.7-13.41,6.73-14.24S132.92,119.38,132.64,125.74Z"/><ellipse class="cls-15" cx="125.06" cy="121.22" rx="2.38" ry="3.83"/><path class="cls-7" d="M133.13,115.24c-.1.65-4.2-1.06-10.37.41-5.62,1.33-8.73,4.29-9,3.73s3.25-5.53,8.3-6.91C127.81,110.9,133.24,114.49,133.13,115.24Z"/><path class="cls-7" d="M128.5,147.43c1.37,4.7-4.37,20.46-13.58,23.79-11.24,4.06-25-11.35-25.49-16.55-.27-3.16,4.51-1.29,19-4.1C123.07,147.73,127.5,144,128.5,147.43Z"/><path class="cls-15" d="M125.37,150.11c1.08,2.56-4.33,12-12.15,14.14-9,2.42-19.1-5.49-19-8.36,0-1.75,3.8-.93,15.17-3.08C121,150.61,124.61,148.33,125.37,150.11Z"/><ellipse class="cls-13" cx="97.81" cy="44.69" rx="7.68" ry="13.03" transform="translate(-4.92 12.91) rotate(-7.36)"/><ellipse class="cls-13" cx="97.81" cy="44.69" rx="3.8" ry="6.44" transform="translate(-4.92 12.91) rotate(-7.36)"/><ellipse class="cls-16" cx="103.47" cy="30.98" rx="11.89" ry="22.63"/><ellipse class="cls-17" cx="102.89" cy="33.19" rx="5.88" ry="11.19"/><ellipse class="cls-18" cx="103.47" cy="30.98" rx="5.88" ry="11.19"/><ellipse class="cls-19" cx="103.47" cy="30.98" rx="2.25" ry="4.28"/></svg>