<svg xmlns="http://www.w3.org/2000/svg" width="248" height="316" viewBox="0 0 248 316"><defs><style>.cls-1{fill:#331406;}.cls-2{fill:#2d1e13;}.cls-3{fill:#3f2514;}.cls-4{fill:#633d1e;}.cls-5{fill:#4c2e17;}.cls-6{fill:#19cad8;}.cls-7{fill:#1fbbbf;}.cls-8{fill:#fff;}.cls-9{fill:#261106;}</style></defs><g id="Layer_2" data-name="Layer 2"><polygon class="cls-1" points="126.98 234.3 170.98 194.3 192.69 160.4 236.98 135.3 248.48 105.5 248.48 29.12 219.14 51.49 183.98 78.3 161.98 135.3 117.69 160.4 95.98 194.3 51.98 234.3 40.98 272.3 4.33 320.8 79.33 320.8 115.98 272.3 126.98 234.3"/><ellipse class="cls-2" cx="181.98" cy="147.3" rx="141.5" ry="19.5"/><polygon class="cls-3" points="234.14 36.49 184.78 14.12 141.4 46.29 126.98 84.3 106.65 84.3 75.98 104.3 67.98 126.3 28.98 153.3 127.64 153.3 191.98 130.3 216.95 83.71 234.14 36.49"/><polygon class="cls-4" points="113.98 104.8 144.65 84.8 164.98 84.8 179.4 46.79 208.36 25.31 184.78 14.62 141.4 46.79 126.98 84.8 106.65 84.8 75.98 104.8 67.98 126.8 28.98 153.8 66.98 153.8 105.98 126.8 113.98 104.8"/><ellipse class="cls-5" cx="58.46" cy="162.67" rx="18" ry="3.87" transform="matrix(0.98, -0.18, 0.18, 0.98, -28.99, 13.57)"/><path class="cls-6" d="M68.4,157.56S82,119.43,79.88,120.31s-11.17-27.7-11.17-27.7L49.88,112.25l1.55,40.56,4.09,10Z"/><path class="cls-7" d="M73.92,119c-1.55.63-6.67-14-9.41-22.28l4.41-4.6s9,28.57,11.17,27.69-11.48,37.25-11.48,37.25l-12.87,5.27-1.17-2.86,7.86-3.22S76.06,118.11,73.92,119Z"/><path class="cls-7" d="M60.62,125.26C56.82,145.14,55.41,162.94,56,163c.33.05,1.15-5.06,6.9-36.21C68.18,98.36,69.33,92.7,69,92.63,68.41,92.5,64,107.85,60.62,125.26Z"/><path class="cls-6" d="M66,149.53S55.71,99.62,54,101.89,23.78,78.44,23.78,78.44l-7.46,32.89,28.26,43.33,11,8.45Z"/><path class="cls-7" d="M46.68,104.07c-1.26,1.63-16.4-11.27-24.75-18.6l1.74-7.71s28.46,25.71,30.2,23.45,12,47.64,12,47.64L55.45,162.43,52.31,160l6.38-8.29S48.42,101.81,46.68,104.07Z"/><path class="cls-7" d="M36.44,119c8.93,24,19.07,44.31,19.79,44,.39-.15-2.07-6.22-16.28-43.73C27,85,24.5,78.17,24.08,78.29,23.38,78.49,28.62,98,36.44,119Z"/><path class="cls-6" d="M57.13,149.38S30.67,118.74,30.38,121,.77,117.12.77,117.12l7.81,26.06,36.06,18.63,10.73,1.37Z"/><path class="cls-7" d="M26.29,125.58c-.21,1.66-15.5-1.11-24-2.79l-1.83-6.1s29.31,6.22,29.6,3.92S56.8,149,56.8,149L55,162.75l-3.07-.4,1.08-8.43S26.58,123.28,26.29,125.58Z"/><path class="cls-7" d="M25.2,140.24c15.42,13.1,30.23,23.1,30.61,22.6.2-.26-3.84-3.49-28.12-23.84C5.51,120.41,1.15,116.63.92,116.89.52,117.32,11.69,128.77,25.2,140.24Z"/><path class="cls-8" d="M46,105.24,34.6,96.66l2.34,6.7Z"/><polygon class="cls-9" points="248.48 29.12 219.14 51.49 183.98 78.3 161.98 135.3 117.69 160.4 95.98 194.3 51.98 234.3 40.98 272.3 4.33 320.8 248.48 320.8 248.48 29.12"/></g></svg>