<svg xmlns="http://www.w3.org/2000/svg" xmlns:xlink="http://www.w3.org/1999/xlink" width="1920" height="1080" viewBox="0 0 1920 1080"><defs><style>.cls-1{fill:none;}.cls-2{clip-path:url(#clip-path);}.cls-3{fill:#010101;}.cls-4{clip-path:url(#clip-path-2);}.cls-5{fill:url(#linear-gradient);}.cls-6{fill:#1f1712;}.cls-7{fill:#4c2e1a;}.cls-8{fill:#27150e;}.cls-9{fill:#33180f;}.cls-10{fill:#593c27;}.cls-11{fill:#55331b;}.cls-12{fill:#0c0d0c;}.cls-13{fill:#77461c;}.cls-14{fill:#653b16;}.cls-15{fill:#5c5854;}.cls-16{fill:#403e3c;}.cls-17{fill:#372214;}.cls-18{fill:#643e1f;}.cls-19{fill:#3a2315;}.cls-20{fill:#b1499b;}.cls-21{fill:#a13d97;}.cls-22{fill:#fff;}.cls-23{fill:#3a2b22;}.cls-24{fill:#d3d2d1;}.cls-25{fill:#3f2616;}.cls-26{fill:#4158a7;}.cls-27{fill:#e9c61d;}.cls-28{fill:#e48225;}.cls-29{fill:#f7941d;}.cls-30{fill:#ffdfb4;}.cls-31{fill:#f7d2a6;}.cls-32{fill:#3c2415;}.cls-33{fill:#22130c;}.cls-34{fill:#ffde17;}.cls-35{fill:#808285;}.cls-36{fill:#afaeaf;}.cls-37{fill:#bcbec0;}.cls-38{fill:#231f20;}.cls-39{fill:#00aeef;}.cls-40{fill:#0ea0cc;}.cls-41{fill:#aee2fa;}.cls-42{fill:#d7df23;}.cls-43{fill:#b2b335;}.cls-44{fill:#e0dae0;}.cls-45{fill:#282626;}.cls-46{fill:#3f3d3e;}.cls-47{fill:#f6b632;}.cls-48{fill:#4c4c44;}.cls-49{fill:#a0958a;}.cls-50{fill:#5d9944;}.cls-51{fill:#4e7739;}.cls-52{fill:#c02026;}.cls-53{fill:#bfb5aa;}</style><clipPath id="clip-path"><rect class="cls-1" x="-1.51" y="-169" width="1923.03" height="1558.68"/></clipPath><clipPath id="clip-path-2"><rect class="cls-1" x="-173.73" y="-79.53" width="2529.26" height="1421.39"/></clipPath><linearGradient id="linear-gradient" x1="-698.98" y1="1083.24" x2="2660.49" y2="1083.24" gradientUnits="userSpaceOnUse"><stop offset="0" stop-color="#a57244"/><stop offset="1" stop-color="#412312"/></linearGradient></defs><g id="Layer_4" data-name="Layer 4"><g class="cls-2"><rect class="cls-3" x="-266.12" y="-138.95" width="2610.95" height="800.02"/><g class="cls-4"><path class="cls-5" d="M2660.49,1033c2.19,319.58-900.39,669.24-1679.64,676.29C83.94,1717.4-713.51,1282.19-698.78,1033c9-151.84,325-327.37,292.52-403.47-6.6-15.45-22.94-16-23.13-24.65-1.2-55.81,579.61-108.47,579.61-108.47,437.47,0,936.43-62.91,1655.83-29.58,0,0,637.55,29.53,640.83,118.32.6,16.3-21.31,19.29-25.85,47.67-12.51,78.09,148.38,124.5,213.61,309C2648.88,982.06,2660.34,1010.69,2660.49,1033Z"/><path class="cls-6" d="M1684-138.95c-20.83,0-154.23-.68-154.23-.68s-55.72,32-51.63,42.86,24.53,102.2,24.53,102.2l-10.93,29.78L1523-7l-20.36-54.58,16.28-42s27.21,4.08,53.07,6.8,124.49,44.56,124.49,44.56l96-38.23,43.64,38.23s67.95,72.77,91.7,57.64,173.5-14.59,173.5-14.59l15.36,134.91-17.53,60.62S2081,216,2070.06,222.2s-68.39,38.86-68.39,38.86l-28.47,46.59L1957.06,357l388.45-7.88-.68-488Z"/><path class="cls-7" d="M1742.1,378.07c-.16,9.35,62.39,18.65,92.52,21.77,32.61,3.38,77.37,4.7,77.37,4.7h0l132.66,52.55s191.35-5.34,219.92,0,80.94,0,80.94,0l-.68-596-398.2-.68L1973.2-80l19.24,62.16-10.88,49,.51,34.77s-.51,27.82-.51,22.38,11.64-44.47,20.11-47.4,35.6-35.44,35.6-35.44,1.3-31.33,0-37.51,29.82-24.39,29.91-35,42.61-48.36,42.61-48.36S2149.44-81,2168.9-67.1s71.87,72.53,71.87,72.53-.82,37.79.6,54.19-33.91,68.37-34.61,75-29.06,55.8-20.32,62.53-2.36,44.82-7,63.87-30,33.1-45.2,34.24c-52.58,3.93-80.06,15.57-130.64,22.47-47.93,6.54-38.56,13.77-113.6,31.3C1797.53,370.67,1742.25,369.29,1742.1,378.07Z"/><path class="cls-8" d="M1937.6,377.64c75-17.53,65.67-24.76,113.6-31.3,50.58-6.9,78.06-18.54,130.64-22.47,15.24-1.14,40.54-15.19,45.2-34.24s15.75-57.14,7-63.87,19.62-55.86,20.32-62.53,36-58.63,34.61-75-.6-54.2-.6-54.2-52.4-58.66-71.87-72.53-59.11-48.35-59.11-48.35-3.24,2.87-7.92,7.25c6.67,5.37,13,10.32,18.05,13.89,19.47,13.87,71.87,72.53,71.87,72.53s-.82,37.8.6,54.19-33.91,68.37-34.61,75-29.06,55.8-20.32,62.53-2.36,44.82-7,63.87-30,33.1-45.2,34.24c-52.58,3.93-80.07,15.57-130.64,22.47-47.93,6.54-38.56,13.77-113.6,31.3-92.45,21.6-147.74,20.22-147.88,29-.13,7.68,42,15.32,73.77,19.54C1839.24,395.38,1881.6,390.73,1937.6,377.64Z"/><path class="cls-9" d="M102-138.95c0,2.46,0,5.41-.1,8.75-1.08,31.82-9.29,98.93-16.2,108.54C78.11-11,135.51,39.14,135.38,59.62s-16.45,61.3-16.45,73.55,6,53.2,6,53.2L85.74,271.42l-202.55-85.05s-3.09-105.43,0-120.14S-71.27-95.18-64.61-94.61s84.31-45,84.31-45l82.39,3.14"/><path class="cls-6" d="M268.78,374.12c6.61-11.69,28.61-147.32,31.22-154.34S276.6,101.69,284.16,90.56,374.72-1.15,374.72-1.15s18.57,38.55,19.49,50,14.26,72.93,14.26,72.93,19.31-36.95,19.31-54.64,13.6-45.51,0-68.33,9.37-60.09,6.05-83-12.9-72.53-12.9-72.53l-564.84,3.33-22.93,428.1s263,87,271,87.3S268.78,374.12,268.78,374.12Z"/><path class="cls-8" d="M241.11-109.28c-5.25-22.87-20.35-72.53-20.35-72.53L-528-163.44V144.05l189.12-6.8a222.87,222.87,0,0,1,45.5,65.55c6.27,13.85,37.93,69.74,15.84,129.23-.23.64-.63,2.34-1.16,4.9,17.84.6,259.34,12,259.34,12,10.44-11.7,45.16-147.32,49.28-154.34S-7,76.52,4.89,65.38s142.92-91.7,142.92-91.7,29.33,38.55,30.77,50,22.51,72.93,22.51,72.93S231.57,59.7,231.57,42s21.47-45.51,0-68.33S246.36-86.41,241.11-109.28Z"/><path class="cls-8" d="M52.78,239.34l41-98.69s18.44-32.69,20.78-32,58.13,45.6,58.13,45.6,35.37,5.44,36.74,9.52,17.68,70.85,17,75.56,31.3,81.52,31.3,81.52l4.82,36.8L59.74,299.84Z"/><path class="cls-10" d="M450.53,451.64s288.14,4.11,299,3,281.64-13.5,289.8-14.1,464.75,17.95,480,17.52-1292.95,50.6-1292.95,50.6l-62.14-58.41L300,423.65Z"/><path class="cls-11" d="M196.25,451.64l117.16-16.29s4.91-5.3,36.85,0,69.57,1.83,73.2,7,43.4,9.32,43.4,9.32-21.14-42.22-36.57-42.93-56-14.06-71.11-17.59-61.22-33.46-67.4-33.46-53-5.3-81.29-18.29-108.38-78.31-108.38-78.31L37.29,190.93-75,97.79S-44.13,23.37-35.73,7.52-6.12-104.27,16.6-114.12s81.34-25.51,81.34-25.51l-334.8.68V442.72L15.49,512.36Z"/><path class="cls-9" d="M400.36,408.71c-11.85-.54-38.48-8.52-57.06-13.8-10.13.12-12.2,2.35-12.2,2.35L213.94,413.55,33.17,474.27l-252.35-69.65c12.16-15.36,25.89-38.23,24.49-65.32-.91-17.76-7.67-24.83-15-49-9.69-32.1-6.21-47.61-9.53-80.62-4.92-48.95-16.37-52.48-24.49-97.61-17-94.5,14.78-181.59,29.94-223.14,5.74-15.75,11.21-28.43,15-36.73l-68,8.84V442.72l252.35,69.64,180.77-60.72,117.16-16.29s4.9-5.3,36.85,0,69.56,1.83,73.2,7,43.4,9.32,43.4,9.32S415.79,409.42,400.36,408.71Z"/><ellipse class="cls-12" cx="1780.87" cy="503.93" rx="108.85" ry="16.33"/><path class="cls-13" d="M1889.4,371.37V475.3a28.39,28.39,0,0,1-28.31,28.31H1697.3A28.39,28.39,0,0,1,1669,475.3V371.37a28.39,28.39,0,0,1,28.31-28.31h163.79A28.39,28.39,0,0,1,1889.4,371.37Z"/><path class="cls-14" d="M1880.46,478.07H1716.67a28.39,28.39,0,0,1-28.31-28.31V345.84c0-.77.05-1.52.11-2.27a28.4,28.4,0,0,0-19.16,26.76V474.25a28.39,28.39,0,0,0,28.31,28.31h163.79a28.4,28.4,0,0,0,28.2-26.05A28.07,28.07,0,0,1,1880.46,478.07Z"/><path class="cls-15" d="M1846.41,503.61l1.39-160.55c-9-1.88-16.86-1.83-23.62,0l-1.39,160.55C1831,506.2,1838.86,506.41,1846.41,503.61Z"/><circle class="cls-3" cx="1834.98" cy="490" r="4.08"/><circle class="cls-3" cx="1834.98" cy="466.87" r="4.08"/><circle class="cls-3" cx="1834.98" cy="443.74" r="4.08"/><circle class="cls-3" cx="1834.98" cy="423.33" r="4.08"/><circle class="cls-3" cx="1834.98" cy="402.92" r="4.08"/><circle class="cls-3" cx="1834.98" cy="382.52" r="4.08"/><circle class="cls-3" cx="1834.98" cy="364.83" r="4.08"/><circle class="cls-3" cx="1834.98" cy="348.5" r="4.08"/><path class="cls-15" d="M1730.76,503.61l1.39-160.55c-9-1.88-16.86-1.83-23.62,0l-1.39,160.55C1715.31,506.2,1723.21,506.41,1730.76,503.61Z"/><circle class="cls-3" cx="1719.33" cy="490" r="4.08"/><circle class="cls-3" cx="1719.33" cy="466.87" r="4.08"/><circle class="cls-3" cx="1719.33" cy="443.74" r="4.08"/><circle class="cls-3" cx="1719.33" cy="423.33" r="4.08"/><circle class="cls-3" cx="1719.33" cy="402.92" r="4.08"/><circle class="cls-3" cx="1719.33" cy="382.52" r="4.08"/><circle class="cls-3" cx="1719.33" cy="364.83" r="4.08"/><circle class="cls-3" cx="1719.33" cy="348.5" r="4.08"/><path class="cls-16" d="M1721.67,341.73a63.41,63.41,0,0,1,10.48,1.33l-1.39,160.55a32.37,32.37,0,0,1-9.24,1.94,32.7,32.7,0,0,0,13.33-1.94l1.39-160.55A59.91,59.91,0,0,0,1721.67,341.73Z"/><path class="cls-16" d="M1834.6,341.73a63.54,63.54,0,0,1,10.48,1.33l-1.39,160.55a32.43,32.43,0,0,1-9.25,1.94,32.66,32.66,0,0,0,13.33-1.94l1.39-160.55A59.79,59.79,0,0,0,1834.6,341.73Z"/><path class="cls-13" d="M1991.73,458.1l-95.56,40.83A28.39,28.39,0,0,1,1859,484l-8.86-20.73-55.51-129.88a28.39,28.39,0,0,1,14.91-37.16l95.57-40.84a28.39,28.39,0,0,1,37.16,14.91l54.59,127.75,9.77,22.87A28.4,28.4,0,0,1,1991.73,458.1Z"/><path class="cls-14" d="M1890.1,491.8l-8.87-20.74-55.5-129.87A28.39,28.39,0,0,1,1840.64,304l95.57-40.84c.7-.3,1.41-.55,2.12-.79a28.4,28.4,0,0,0-32.13-7.1l-95.56,40.83a28.4,28.4,0,0,0-14.91,37.16l55.5,129.88,8.86,20.74a28.4,28.4,0,0,0,35,15.69A27.83,27.83,0,0,1,1890.1,491.8Z"/><path class="cls-15" d="M1853.24,470.53l148.18-61.81c-1.82-9-5-16.23-9.28-21.72L1844,448.81C1844.78,457.34,1847.69,464.69,1853.24,470.53Z"/><circle class="cls-3" cx="1861.26" cy="454.67" r="4.08"/><circle class="cls-3" cx="1882.53" cy="445.58" r="4.08"/><circle class="cls-3" cx="1903.8" cy="436.49" r="4.08"/><circle class="cls-3" cx="1922.56" cy="428.47" r="4.08"/><path class="cls-15" d="M1807.79,364.18,1956,302.37c-1.82-9-4.94-16.23-9.28-21.72l-148.18,61.81C1799.33,351,1802.24,358.34,1807.79,364.18Z"/><circle class="cls-3" cx="1815.81" cy="348.32" r="4.08"/><circle class="cls-3" cx="1837.08" cy="339.23" r="4.08"/><circle class="cls-3" cx="1858.35" cy="330.14" r="4.08"/><circle class="cls-3" cx="1877.12" cy="322.12" r="4.08"/><circle class="cls-3" cx="1895.88" cy="314.1" r="4.08"/><circle class="cls-3" cx="1914.65" cy="306.08" r="4.08"/><path class="cls-16" d="M1953.08,292.21a64.11,64.11,0,0,1,2.89,10.16l-148.18,61.81a32.35,32.35,0,0,1-5.42-7.74,32.72,32.72,0,0,0,7,11.5l148.18-61.82A59.94,59.94,0,0,0,1953.08,292.21Z"/><path class="cls-16" d="M1997.45,396.05a64.4,64.4,0,0,1,2.9,10.16L1852.17,468a32,32,0,0,1-5.42-7.75,32.52,32.52,0,0,0,7,11.5L2002,410A59.4,59.4,0,0,0,1997.45,396.05Z"/><path class="cls-17" d="M2374.09,512.09c.37,7.72-16.17,19.16-25.85,25.85-2.34,1.61-9.12,6-27.22,13.61-20.64,8.62-31,12.93-38.09,13.6-26.64,2.52-30.27-18.84-66-23.58-20.91-2.78-21.21,4.32-45.54.45-12.88-2-23.44-5.73-36.73-1.36-8.27,2.72-11.63,6.59-16.33,9.53-22.76,14.21-48.46-11.2-99.32-17.69-31.27-4-34.6,3.94-66.67-2.72-9.42-2-21.24-5.39-44.9-12.25-21.73-6.3-32.59-9.48-32.66-10.88-.44-9.89,116.27-29.88,246.95-31.3C2253.61,473.93,2373.09,491.72,2374.09,512.09Z"/><path class="cls-18" d="M2345.51,526.51s-205.49,2.85-209.21,0-88.07-8.3-88.07-8.3h-89.09L1874.07,506l24.49-25.85,87.08-59.87h81.88l78.67-20.41h77.65L2285,357.66l60.54,48Z"/><polygon class="cls-8" points="1923.06 502.56 2010.13 442.7 2050.95 442.7 2092.01 442.7 2170.68 422.29 2248.34 422.29 2309.46 380.11 2345.51 408.67 2345.51 406.3 2284.97 358.34 2223.84 400.52 2146.19 400.52 2067.52 420.93 2026.46 420.93 1985.64 420.93 1898.57 480.8 1874.07 506.65 1913.77 512.36 1923.06 502.56"/><path class="cls-19" d="M217.57,555.63c1.08,12.25-103.95,45.77-158.13,39.54,0,0-63-7.24-81.33,6.72-.39.29-2.17,1.76-4.08,1.36-3.84-.8-3.34-8.07-6.81-12.25-7.43-9-30.95-1-34,0-15.8,5.33-17.2,11.57-32.66,15a50.79,50.79,0,0,1-20.41,1c-13.66-2.39-14.79-9.46-27.21-14.59-11.84-4.88-16.27-.71-55.78,0,0,0-6.71.12-20.41,0C-262.5,592-329.73,578-329.38,568.55c.6-16.47,205.75-20.59,283.68-22.45C35.66,544.17,216.18,539.87,217.57,555.63Z"/><polygon class="cls-18" points="-275.64 571.27 26.41 554.95 145.52 563.11 214.3 554.95 226.41 508.69 164.28 450.28 97.16 425.69 -14.97 437.23 -98.77 398.48 -111.01 357.66 -219.86 342.7 -275.64 375.89 -285.85 380.06 -275.64 571.27"/><polygon class="cls-9" points="164.28 450.28 97.16 425.69 -14.97 437.23 -98.77 398.48 -111.01 357.66 -219.86 342.7 -275.64 375.89 -285.85 380.06 -284.3 409.01 -262.04 395.76 -153.19 410.73 -140.94 451.54 -57.15 490.29 54.98 478.75 122.1 503.35 181.18 558.88 214.3 554.95 226.41 508.69 164.28 450.28"/><path class="cls-20" d="M-33.34,441.51s12.54-37.28,13.65-35.32S5.48,391.78,5.48,391.78L8,418.09l-25.58,30-9.14,5.17Z"/><path class="cls-21" d="M-14.35,408.77c.8,1.41,13.53-6.7,20.57-11.34l-.6-6.16s-24.06,16.37-25.17,14.41S-33.19,441-33.19,441l6.65,11.76,2.61-1.48L-28,444.09S-15.46,406.81-14.35,408.77Z"/><path class="cls-21" d="M-8,421.55C-17,439-26.67,453.42-27.19,453.12c-.28-.16,2.16-4.55,16.51-31.77C2.43,396.48,5,391.48,5.27,391.63,5.78,391.87,0,406.27-8,421.55Z"/><path class="cls-22" d="M3.92,404.54-1.83,423.1,5.68,417Q4.81,410.79,3.92,404.54Z"/><path class="cls-23" d="M703.24,906.58c-34.42,3.18-40.24,2.46-41,.17a1.12,1.12,0,0,1-.07-.68c.6-2.58,11.59-1.17,25.78-2,4.13-.24,7.27-.63,13.53-1.41,21.25-2.64,31.88-4,34.22-4.54,1.44-.35,5.77-1.46,6.31-.37.34.7-1,2-1.14,2.18a6.92,6.92,0,0,1-3.92,1.77c-7.21.94-14.27,2.95-21.51,3.61C708.86,905.91,715.23,905.47,703.24,906.58Z"/><circle class="cls-23" cx="738.93" cy="894.65" r="5.44"/><circle class="cls-23" cx="739.78" cy="902.77" r="5.44" transform="translate(-250.26 284.64) rotate(-18.69)"/><circle class="cls-23" cx="661.79" cy="902.69" r="5.44"/><circle class="cls-23" cx="662.5" cy="909.46" r="5.44"/><path class="cls-24" d="M701.88,902.5c-34.42,3.18-40.24,2.46-41,.17a1.12,1.12,0,0,1-.07-.68c.6-2.58,11.59-1.18,25.78-2,4.13-.24,7.27-.63,13.53-1.41,21.25-2.64,31.88-4,34.22-4.54,1.44-.36,5.77-1.46,6.31-.37.34.7-1,2-1.14,2.17a6.88,6.88,0,0,1-3.92,1.78c-7.21.94-14.27,3-21.51,3.61C707.5,901.83,713.87,901.39,701.88,902.5Z"/><circle class="cls-24" cx="737.57" cy="890.57" r="5.44"/><circle class="cls-24" cx="738.42" cy="898.69" r="5.44" transform="translate(-249.03 283.98) rotate(-18.69)"/><circle class="cls-24" cx="660.43" cy="898.61" r="5.44"/><circle class="cls-24" cx="661.14" cy="905.37" r="5.44"/><path class="cls-8" d="M256.27-139.63c2.8,33.34,27.89,113.8,27.89,113.8V59.62s39.3-44.42,39.08-52.1S318-25.41,323.24-40s44.58-65,44.58-65l19.78-34.6Z"/><path class="cls-3" d="M301.92,24.25V-61.21S290.3-98.5,282-132.83H257.71C260.51-99.49,285.6-19,285.6-19V66.43S324.9,22,324.67,14.32c-.08-3-.88-8.6-1.53-15.21C312.84,11.91,301.92,24.25,301.92,24.25Z"/><path class="cls-25" d="M450.11-138.95c.62,3.1,17.13,50.34,17.13,50.34s-20.64,54.8-17.13,62.78S467.24,5.43,467.24,5.43l10-45.43,31.26-26.76s-.42-19.13-.42-30,52.53-42.86,52.53-42.86l-109.85,3.78"/><path class="cls-8" d="M568.06-139.63l-31.7,1.09c-9.09,5.65-50.76,32.07-50.76,41.77,0,10.88.42,30,.42,30l-25.81,22.1c-2.38,8.86-3.75,16.26-2.61,18.83,3.51,8,17.12,31.26,17.12,31.26l10-45.43L516-66.76s-.42-19.13-.42-30S568.06-139.63,568.06-139.63Z"/><path class="cls-25" d="M1144.18-138.95c7.43,15,37.36,76.19,37.36,88.44s8.16,36.53,0,43.44-16.87,22.92-16.87,22.92,30.13-2.09,33.7-10.42,24.68-37.64,25-45.43.34-22.76.34-36.36,6.8-24.49,19-43.54l12.24-19Z"/><path class="cls-8" d="M1181.54-7.75c-8.16,6.9-16.87,22.92-16.87,22.92a131.82,131.82,0,0,0,21-3.33c3-5.07,9.11-14.66,14.95-19.59,8.16-6.91,0-31.2,0-43.44s-29.94-73.47-37.36-88.44h-19c7.43,15,37.36,76.19,37.36,88.44S1189.7-14.66,1181.54-7.75Z"/><path class="cls-25" d="M1657.12-142.74c7.42,21.35,37.36,108.68,37.36,126.14s8.16,52.11,0,62-16.87,32.7-16.87,32.7,30.13-3,33.7-14.86,24.68-53.7,25-64.81.34-32.45.34-51.86,6.8-34.93,19-62.1L1768-142.74Z"/><path class="cls-8" d="M1694.48,44.39c-8.17,9.85-16.87,32.7-16.87,32.7a95.91,95.91,0,0,0,21-4.75c3-7.24,9.11-20.91,15-27.95,8.16-9.85,0-44.49,0-62s-29.94-104.79-37.36-126.14h-19.05c7.42,21.35,37.36,108.68,37.36,126.14S1702.64,34.54,1694.48,44.39Z"/><path class="cls-25" d="M1848-139.63s18,56.47,18,61.91-18,83.15-18,83.15,16.59-21.46,26.79-29.18S1911.06-80,1911.06-80l51.2-24.55,75-35.06Z"/><path class="cls-8" d="M1886.57-38.51c2.24-10.49,3.83-18.54,3.83-20.16,0-5.45-18-61.91-18-61.91h124.07l40.75-19H1848s18,56.47,18,61.91-18,83.15-18,83.15,16.59-21.46,26.79-29.18C1877.7-26,1882-31.62,1886.57-38.51Z"/></g><path class="cls-26" d="M-1.51-169V1389.68h1923V-169Zm1853.1,1477.78H68.41V-88.1H1851.59Z"/><path class="cls-27" d="M634.85,60.71v64.4h36.33c2.9,0,5.12.71,6.67,2.11a6.89,6.89,0,0,1,2.33,5.32,6.71,6.71,0,0,1-2.3,5.28q-2.29,2-6.7,2H627.91c-3.91,0-6.71-.87-8.42-2.6s-2.57-4.52-2.57-8.39V60.71q0-5.43,2.45-8.15a8.23,8.23,0,0,1,6.42-2.72,8.54,8.54,0,0,1,6.55,2.69Q634.85,55.22,634.85,60.71Z"/><path class="cls-27" d="M736.79,111.89H704.56a21.85,21.85,0,0,0,2.27,9.9,15.12,15.12,0,0,0,13.91,8.63,19.85,19.85,0,0,0,5.4-.69,17.7,17.7,0,0,0,4.74-2.17,36.58,36.58,0,0,0,4.22-3.17q1.93-1.69,5-4.59a5.46,5.46,0,0,1,3.63-1.09,6,6,0,0,1,4.1,1.39,5,5,0,0,1,1.57,3.93,10.84,10.84,0,0,1-1.75,5.22,20.83,20.83,0,0,1-5.28,5.73,30.18,30.18,0,0,1-8.88,4.56,38.38,38.38,0,0,1-12.28,1.81q-15.87,0-24.69-9.06t-8.81-24.56a40.92,40.92,0,0,1,2.18-13.55,29.83,29.83,0,0,1,6.33-10.72,27.64,27.64,0,0,1,10.26-6.85A36.88,36.88,0,0,1,720,74.23a32.13,32.13,0,0,1,16.57,4.07,26.77,26.77,0,0,1,10.35,10.54A27.59,27.59,0,0,1,750.37,102c0,4.15-1.18,6.83-3.56,8.06S741.1,111.89,736.79,111.89Zm-32.23-9.35h29.88q-.6-8.46-4.56-12.65a13.64,13.64,0,0,0-10.41-4.19A13.22,13.22,0,0,0,709.36,90Q705.42,94.21,704.56,102.54Z"/><path class="cls-27" d="M772.83,84.61,786.17,122l14.36-39a23.49,23.49,0,0,1,3.32-6.67,6.07,6.07,0,0,1,4.95-2,7.43,7.43,0,0,1,5.34,2.11,6.59,6.59,0,0,1,2.21,4.89,9.59,9.59,0,0,1-.4,2.54,23.9,23.9,0,0,1-.9,2.71c-.34.85-.73,1.81-1.18,2.9l-15.81,39.23c-.44,1.13-1,2.56-1.72,4.29a22,22,0,0,1-2.36,4.43,9.2,9.2,0,0,1-3.19,2.87,9.56,9.56,0,0,1-4.62,1,9,9,0,0,1-5.59-1.6,10.83,10.83,0,0,1-3.07-3.5c-.67-1.27-1.78-3.77-3.35-7.52l-15.7-38.81c-.36-1-.73-1.93-1.11-2.89a24.36,24.36,0,0,1-1-3,10.64,10.64,0,0,1-.39-2.6,6.37,6.37,0,0,1,1-3.35,8,8,0,0,1,2.84-2.71,7.63,7.63,0,0,1,3.93-1.06q4.1,0,5.64,2.35A38,38,0,0,1,772.83,84.61Z"/><path class="cls-27" d="M872.54,111.89H840.31a21.85,21.85,0,0,0,2.26,9.9,15.15,15.15,0,0,0,13.92,8.63,19.85,19.85,0,0,0,5.4-.69,17.7,17.7,0,0,0,4.74-2.17,37.47,37.47,0,0,0,4.22-3.17q1.93-1.69,5-4.59a5.43,5.43,0,0,1,3.62-1.09,6,6,0,0,1,4.11,1.39,5,5,0,0,1,1.57,3.93,10.84,10.84,0,0,1-1.75,5.22,20.83,20.83,0,0,1-5.28,5.73,30.31,30.31,0,0,1-8.88,4.56A38.38,38.38,0,0,1,857,141.35q-15.87,0-24.69-9.06t-8.81-24.56a40.92,40.92,0,0,1,2.17-13.55A29.85,29.85,0,0,1,832,83.46a27.64,27.64,0,0,1,10.26-6.85,36.84,36.84,0,0,1,13.52-2.38,32.13,32.13,0,0,1,16.57,4.07,26.77,26.77,0,0,1,10.35,10.54A27.59,27.59,0,0,1,886.12,102c0,4.15-1.18,6.83-3.56,8.06S876.85,111.89,872.54,111.89Zm-32.23-9.35h29.88c-.41-5.64-1.92-9.85-4.56-12.65a13.67,13.67,0,0,0-10.41-4.19A13.21,13.21,0,0,0,845.11,90Q841.15,94.21,840.31,102.54Z"/><path class="cls-27" d="M900,131.33V59.86q0-4.95,2.21-7.48a7.48,7.48,0,0,1,5.94-2.54,7.8,7.8,0,0,1,6,2.51q2.29,2.51,2.29,7.51v71.47q0,5-2.32,7.51a7.83,7.83,0,0,1-6,2.51,7.44,7.44,0,0,1-5.88-2.6Q900,136.16,900,131.33Z"/><path class="cls-27" d="M1040.94,111.89a23.57,23.57,0,0,1-2.08,9.15,32.83,32.83,0,0,1-6.55,9.65,33.39,33.39,0,0,1-11.41,7.7,41,41,0,0,1-16.17,3A56.83,56.83,0,0,1,992,140a35.69,35.69,0,0,1-10.41-4.13,35.17,35.17,0,0,1-8.6-7.4,43.53,43.53,0,0,1-6-9.32,49,49,0,0,1-3.71-11,60.36,60.36,0,0,1-1.24-12.43,55.24,55.24,0,0,1,3.11-19.14,40.67,40.67,0,0,1,8.91-14.45A38.62,38.62,0,0,1,987.65,53a44,44,0,0,1,16.59-3.14,41.46,41.46,0,0,1,19.14,4.29,34.76,34.76,0,0,1,12.86,10.59q4.46,6.32,4.46,11.92a7.77,7.77,0,0,1-2.17,5.44,6.92,6.92,0,0,1-5.25,2.35,7.21,7.21,0,0,1-5.16-1.63,22.66,22.66,0,0,1-3.84-5.61,26.9,26.9,0,0,0-8.24-9.84,20,20,0,0,0-11.67-3.26q-11.05,0-17.6,8.39t-6.55,23.84q0,10.32,2.9,17.17a21.65,21.65,0,0,0,8.21,10.23,22.58,22.58,0,0,0,12.43,3.38,21.8,21.8,0,0,0,13.07-3.83,23.14,23.14,0,0,0,8.06-11.26,19.19,19.19,0,0,1,2.83-5.7q1.69-2.2,5.44-2.2a7.59,7.59,0,0,1,5.49,2.23A7.43,7.43,0,0,1,1040.94,111.89Z"/><path class="cls-27" d="M1055.91,131.33V59.86q0-4.95,2.21-7.48a7.46,7.46,0,0,1,5.94-2.54,7.8,7.8,0,0,1,6,2.51q2.3,2.51,2.29,7.51v71.47q0,5-2.32,7.51a7.83,7.83,0,0,1-6,2.51,7.44,7.44,0,0,1-5.88-2.6Q1055.92,136.16,1055.91,131.33Z"/><path class="cls-27" d="M1135.41,111.89h-32.24a21.85,21.85,0,0,0,2.27,9.9,15.12,15.12,0,0,0,13.91,8.63,19.85,19.85,0,0,0,5.4-.69,17.7,17.7,0,0,0,4.74-2.17,37.6,37.6,0,0,0,4.23-3.17q1.92-1.69,5-4.59a5.42,5.42,0,0,1,3.62-1.09,6,6,0,0,1,4.1,1.39A5,5,0,0,1,1148,124a10.74,10.74,0,0,1-1.75,5.22A20.83,20.83,0,0,1,1141,135a30.24,30.24,0,0,1-8.87,4.56,38.49,38.49,0,0,1-12.29,1.81q-15.87,0-24.68-9.06t-8.82-24.56a40.92,40.92,0,0,1,2.18-13.55,29.83,29.83,0,0,1,6.33-10.72,27.59,27.59,0,0,1,10.27-6.85,36.8,36.8,0,0,1,13.52-2.38,32.09,32.09,0,0,1,16.56,4.07,26.86,26.86,0,0,1,10.36,10.54A27.71,27.71,0,0,1,1149,102c0,4.15-1.19,6.83-3.57,8.06S1139.71,111.89,1135.41,111.89Zm-32.24-9.35h29.88q-.6-8.46-4.56-12.65a13.64,13.64,0,0,0-10.41-4.19A13.22,13.22,0,0,0,1108,90Q1104,94.21,1103.17,102.54Z"/><path class="cls-27" d="M1204.52,132.05a50.82,50.82,0,0,1-11.56,7,32.31,32.31,0,0,1-12.53,2.33,23.72,23.72,0,0,1-11.13-2.51,18.32,18.32,0,0,1-7.4-6.79,17.58,17.58,0,0,1-2.59-9.29,16.67,16.67,0,0,1,4.28-11.53,21.45,21.45,0,0,1,11.77-6.4c1.05-.24,3.64-.78,7.79-1.63s7.7-1.62,10.65-2.32,6.17-1.56,9.63-2.57q-.3-6.51-2.63-9.56t-9.62-3q-6.29,0-9.45,1.75a15.33,15.33,0,0,0-5.43,5.25q-2.27,3.49-3.2,4.62c-.62.74-2,1.11-4,1.11a7,7,0,0,1-4.8-1.78,5.77,5.77,0,0,1-2-4.56,14,14,0,0,1,3.07-8.45c2.06-2.73,5.25-5,9.6-6.76s9.76-2.65,16.24-2.65q10.86,0,17.08,2.56a15.9,15.9,0,0,1,8.78,8.12q2.57,5.55,2.57,14.73,0,5.79,0,9.84t-.09,9a33,33,0,0,0,1.54,9.69,30.68,30.68,0,0,1,1.53,6.49,6.07,6.07,0,0,1-2.38,4.62,8,8,0,0,1-5.4,2.08,7.29,7.29,0,0,1-5-2.39A35.28,35.28,0,0,1,1204.52,132.05Zm-1.09-23.84A82.85,82.85,0,0,1,1192.9,111c-4.61,1-7.8,1.71-9.57,2.17a13,13,0,0,0-5.07,2.72,7,7,0,0,0-2.41,5.64,8.35,8.35,0,0,0,2.83,6.37,10.5,10.5,0,0,0,7.43,2.62,19.29,19.29,0,0,0,9-2.14,14.33,14.33,0,0,0,6.07-5.52q2.23-3.75,2.23-12.31Z"/><path class="cls-27" d="M1252.68,117.57v13.76q0,5-2.35,7.51a7.85,7.85,0,0,1-6,2.51,7.55,7.55,0,0,1-5.85-2.54q-2.3-2.53-2.3-7.48V85.46q0-11.11,8-11.11,4.11,0,5.92,2.6t2,7.66a28.62,28.62,0,0,1,6.07-7.66,12.52,12.52,0,0,1,8.3-2.6,21.26,21.26,0,0,1,10.08,2.6q4.88,2.6,4.88,6.88a6.91,6.91,0,0,1-6.57,6.94,20.31,20.31,0,0,1-4.38-1.12,20.56,20.56,0,0,0-6.13-1.12,9,9,0,0,0-5.91,1.91,12.07,12.07,0,0,0-3.56,5.64,38.94,38.94,0,0,0-1.75,8.9Q1252.67,110.14,1252.68,117.57Z"/><path class="cls-27" d="M1295.9,101.51,1294,72.6q-.54-8.44-.55-12.13,0-5,2.63-7.82a9,9,0,0,1,6.91-2.81c3.46,0,5.78,1.2,6.94,3.6s1.75,5.84,1.75,10.35a79.26,79.26,0,0,1-.42,8.08l-2.59,29.76a23.4,23.4,0,0,1-1.82,8.15,4.73,4.73,0,0,1-4.58,2.84,4.57,4.57,0,0,1-4.53-2.75A27.43,27.43,0,0,1,1295.9,101.51Zm6.7,39.72a9.49,9.49,0,0,1-6.43-2.39,8.36,8.36,0,0,1-2.75-6.67,9,9,0,0,1,9.06-9,9,9,0,0,1,6.49,2.63,8.56,8.56,0,0,1,2.68,6.36,8.42,8.42,0,0,1-2.71,6.64A9.26,9.26,0,0,1,1302.6,141.23Z"/><rect class="cls-28" x="655.58" y="726.84" width="70.34" height="241.67" rx="12" transform="translate(990.74 1899.19) rotate(-156.75)"/><path class="cls-29" d="M664.11,708.46H713.9a19.91,19.91,0,0,1,19.91,19.91V930.22a19.91,19.91,0,0,1-19.91,19.91H683.39a19.91,19.91,0,0,1-19.91-19.91V709.09a.63.63,0,0,1,.63-.63Z" transform="translate(1013.15 1867.05) rotate(-156.75)"/><path class="cls-30" d="M584.13,1011.3l8,3.44,3.75-8.73,11.51-26.79a23.67,23.67,0,0,1,12-12.05,20.61,20.61,0,0,1,16.34-.12l6.35,2.73c10.71,4.6,15.5,17.61,10.65,28.9l-11.45,26.65-3.81,8.87,8,3.45c7.29,3.13,16-.6,19.26-8.29l13.15-30.61c7.1-16.52.09-35.53-15.57-42.26l-30.87-13.27C615.75,936.49,597.13,944.5,590,961l-13.15,30.62C573.57,999.31,576.84,1008.17,584.13,1011.3Z"/><path class="cls-31" d="M583.42,995.46l13.15-30.61c7.09-16.52,25.71-24.53,41.37-17.8l30.61,13.15a29,29,0,0,0-6.27-3.71l-30.87-13.27C615.75,936.49,597.13,944.5,590,961l-13.15,30.62c-3.31,7.68,0,16.54,7.25,19.67l2.38,1A15.21,15.21,0,0,1,583.42,995.46Z"/><path class="cls-31" d="M647.78,1029.16q5.72-13.32,11.45-26.65c4.85-11.29.06-24.3-10.65-28.9l-1.37-.59a22.3,22.3,0,0,1,5.48,25.66Q647,1012,641.24,1025.33l-3.81,8.87,6.91,3Q646.05,1033.17,647.78,1029.16Z"/><rect class="cls-28" x="920.95" y="527.22" width="70.34" height="241.67" rx="12" transform="translate(191.66 -217.82) rotate(14.43)"/><path class="cls-29" d="M936.06,545.92h38.42a12,12,0,0,1,12,12V767.67a19.91,19.91,0,0,1-19.91,19.91H936.06a19.91,19.91,0,0,1-19.91-19.91V565.83a19.91,19.91,0,0,1,19.91-19.91Z" transform="translate(196.16 -216.03) rotate(14.43)"/><path class="cls-30" d="M1036.39,470l-8.44-2.17-2.37,9.2-7.27,28.25a23.68,23.68,0,0,1-10,13.73,20.59,20.59,0,0,1-16.13,2.63l-6.7-1.72c-11.28-2.91-18-15-14.95-26.93l7.23-28.09,2.4-9.35-8.44-2.18c-7.68-2-15.68,3-17.76,11.14l-8.3,32.27c-4.48,17.41,5.36,35.13,21.86,39.37l32.55,8.38c16.51,4.25,33.68-6.52,38.16-23.93l8.3-32.27C1048.65,480.24,1044.07,472,1036.39,470Z"/><rect class="cls-32" x="904.51" y="928.47" width="93.59" height="265.38" rx="12" transform="translate(-207.74 231.92) rotate(-12.54)"/><path class="cls-33" d="M979.29,1185.67A21.25,21.25,0,0,1,954,1169.59L905.58,951.92a21.24,21.24,0,0,1,11.29-23.57l-18.43,4.1a21.25,21.25,0,0,0-16.08,25.29l48.42,217.67a21.26,21.26,0,0,0,25.29,16.08l50-11.12a20.67,20.67,0,0,0,4.79-1.72Z"/><rect class="cls-32" x="737.96" y="936.78" width="93.59" height="265.38" rx="12"/><path class="cls-33" d="M751.93,1185V962a21.25,21.25,0,0,1,21.19-21.19h50a21,21,0,0,0-12.4-4.06H759.56A21.25,21.25,0,0,0,738.37,958v223a21.25,21.25,0,0,0,21.19,21.19h1.16A21.17,21.17,0,0,1,751.93,1185Z"/><rect class="cls-31" x="788.99" y="593.41" width="42.74" height="77.1" transform="translate(-74.32 109.09) rotate(-7.36)"/><path class="cls-31" d="M707.9,472.48H892.3a1.84,1.84,0,0,1,1.84,1.84V600.53A32.09,32.09,0,0,1,862,632.62H738.16a32.09,32.09,0,0,1-32.09-32.09V474.32a1.84,1.84,0,0,1,1.84-1.84Z" transform="translate(-64.23 107.12) rotate(-7.36)"/><path class="cls-30" d="M726.13,475H891.22a1.84,1.84,0,0,1,1.84,1.84V599.43A32.09,32.09,0,0,1,861,631.53H756.39a32.09,32.09,0,0,1-32.09-32.09V476.82A1.84,1.84,0,0,1,726.13,475Z" transform="translate(-64.25 108.23) rotate(-7.36)"/><path class="cls-29" d="M758.58,648.92H907.39a48.28,48.28,0,0,1,48.28,48.28V965a0,0,0,0,1,0,0H710.3a0,0,0,0,1,0,0V697.2a48.28,48.28,0,0,1,48.28-48.28Z" transform="translate(-96.57 113.43) rotate(-7.36)"/><path class="cls-27" d="M736.56,355.09H833a45.84,45.84,0,0,1,45.84,45.84v88.7a3,3,0,0,1-3,3H690.72a0,0,0,0,1,0,0V400.93a45.84,45.84,0,0,1,45.84-45.84Z" transform="translate(-47.86 104.09) rotate(-7.36)"/><path class="cls-34" d="M751.32,352h76.32a45.84,45.84,0,0,1,45.84,45.84v74a3,3,0,0,1-3,3h-165a0,0,0,0,1,0,0v-77A45.84,45.84,0,0,1,751.32,352Z" transform="translate(-46.48 104.61) rotate(-7.36)"/><rect class="cls-27" x="671.48" y="471.81" width="242.38" height="26.49" rx="7.5" transform="matrix(0.99, -0.13, 0.13, 0.99, -55.64, 105.61)"/><path class="cls-34" d="M898.38,484.68,695,511c-7.75,1-14.74-3.21-15.53-9.35h0c-.8-6.14,4.89-12,12.64-13l203.42-26.29c7.75-1,14.73,3.2,15.53,9.35h0C911.81,477.83,906.12,483.68,898.38,484.68Z"/><circle class="cls-27" cx="772.19" cy="364.97" r="35.2"/><circle class="cls-27" cx="772.19" cy="364.97" r="17.4"/><circle class="cls-35" cx="775.95" cy="355.66" r="40.13"/><circle class="cls-36" cx="773.96" cy="359.56" r="19.84"/><circle class="cls-37" cx="775.95" cy="355.66" r="19.84"/><path class="cls-38" d="M840.4,575.94c1.44,4.31-11.79,19.37-28.51,23-20.43,4.44-41.36-9.18-41.08-14,.17-2.94,8.12-1.46,33.91-4.91C830.87,576.53,839.35,572.78,840.4,575.94Z"/><polygon class="cls-39" points="1065.99 460.16 996.17 518.84 985.51 527.79 982.36 514.24 961.68 425.4 1002.41 405.03 1045.62 419.43 1065.99 460.16"/><polyline class="cls-40" points="1012.35 408.15 1002.96 405.02 962.22 425.39 982.9 514.23 986.05 527.79 993.37 521.64 992.55 518.14 971.88 429.3 1012.61 408.93 1046.58 420.25 1046.16 419.42 1012.35 408.15"/><ellipse class="cls-41" cx="1050.36" cy="442.7" rx="3.04" ry="7.1" transform="translate(-76.52 271.29) rotate(-14.21)"/><ellipse class="cls-41" cx="1047.55" cy="469.73" rx="10.8" ry="3.04" transform="translate(-36.41 847.95) rotate(-43.39)"/><path class="cls-38" d="M776.81,538.63c-.49,8.45-7.21,16.8-16.72,17.73-9.11.88-17.05-5.4-19.5-13.05-3.4-10.61,3.83-23.68,15.16-25.14S777.46,527.4,776.81,538.63Z"/><ellipse class="cls-22" cx="759.74" cy="530.66" rx="5.37" ry="6.76"/><path class="cls-38" d="M777.91,520.1c-.22,1.14-9.45-1.88-23.35.71-12.63,2.36-19.63,7.58-20.23,6.58s7.32-9.76,18.69-12.19C766,512.43,778.17,518.76,777.91,520.1Z"/><path class="cls-38" d="M861.21,527.05c-.48,8.45-7.21,16.8-16.72,17.73-9.11.89-17-5.4-19.5-13-3.4-10.61,3.83-23.68,15.17-25.14S861.86,515.82,861.21,527.05Z"/><ellipse class="cls-22" cx="844.15" cy="519.08" rx="5.37" ry="6.76"/><path class="cls-38" d="M862.32,508.52c-.22,1.14-9.46-1.88-23.35.71-12.64,2.36-19.64,7.59-20.23,6.59s7.31-9.76,18.68-12.2C850.36,500.85,862.57,507.18,862.32,508.52Z"/><path class="cls-22" d="M833.94,582.92c1.37,2.33-10,11.49-24.05,13.91-16.19,2.77-32.18-4-31.47-6.73.43-1.63,6.81-1.09,27.08-3.74C826.28,583.64,833,581.3,833.94,582.92Z"/><path class="cls-28" d="M720.09,747.16a85.27,85.27,0,0,1,59.37-92.37l-4.09.53a85.27,85.27,0,0,0-73.63,95.49l29.59,228.93,18.52-2.39Z"/><rect class="cls-38" x="728.46" y="931.64" width="244.71" height="31.82" transform="matrix(0.99, -0.13, 0.13, 0.99, -114.44, 116.88)"/><path class="cls-42" d="M739.74,668.28c1.14,41.4,3.54,85.11,7.63,130.88,4.53,50.71,10.64,98.6,17.74,143.42l34.07-4.4a1156.48,1156.48,0,0,1-32.93-281.42A84,84,0,0,0,752,661.61,86.14,86.14,0,0,0,739.74,668.28Z"/><path class="cls-43" d="M770.26,936c-7.1-44.82-13.21-92.71-17.74-143.41-4-44.5-6.34-87-7.51-127.4-1.93,1.08-3.7,2.16-5.28,3.2,1.13,41.39,3.54,85.11,7.62,130.88C751.88,850,758,897.88,765.09,942.71l34.08-4.41c-.48-1.93-.94-3.88-1.41-5.83Z"/><path class="cls-42" d="M857.79,644.77c7.68,38.24,14.61,78.94,20.33,121.93,7.52,56.47,12,109.81,14.35,159.42l25.85-3.34c-3.51-53.44-9.16-110.13-17.65-169.6q-7.81-54.64-17.59-105.12a71.37,71.37,0,0,0-25.29-3.29Z"/><path class="cls-42" d="M878.12,766.7c.38,7.68-106.63,11.48-106.62,7.64l3.11,28.75c37.16,2.17,73,.37,107.24-6.54Z"/><circle class="cls-44" cx="775.95" cy="355.66" r="7.59"/><path class="cls-38" d="M804.76,775.65c.57,4.56,1.34,9.4,2.35,14.5,1,4.91,2.08,9.52,3.25,13.81a219.34,219.34,0,0,0,45.46-3.16,137.42,137.42,0,0,0-1.93-15c-.86-4.66-1.9-8.94-3-12.82q-10.85,1-22.35,1.71Q816.31,775.38,804.76,775.65Z"/><path class="cls-45" d="M810.42,778.35c.45,3.6,1.05,7.43,1.86,11.45s1.64,7.53,2.57,10.92a173.48,173.48,0,0,0,35.92-2.5,108.52,108.52,0,0,0-1.52-11.89c-.68-3.68-1.51-7.07-2.38-10.14q-8.57.81-17.66,1.36Q819.54,778.14,810.42,778.35Z"/><path class="cls-38" d="M815.74,781c.33,2.65.78,5.47,1.37,8.43s1.21,5.54,1.89,8a130.26,130.26,0,0,0,13.63-.25,127.83,127.83,0,0,0,12.82-1.59,80.27,80.27,0,0,0-1.12-8.76c-.5-2.71-1.11-5.2-1.75-7.46q-6.32.59-13,1Q822.46,780.86,815.74,781Z"/><circle class="cls-46" cx="756.61" cy="686.9" r="6.09"/><circle class="cls-38" cx="757.74" cy="685.32" r="6.09"/><circle class="cls-46" cx="876.28" cy="676.38" r="6.09"/><circle class="cls-38" cx="877.4" cy="674.8" r="6.09"/><circle class="cls-46" cx="905.02" cy="910.49" r="6.09"/><circle class="cls-38" cx="906.15" cy="908.92" r="6.09"/><circle class="cls-46" cx="779.46" cy="926.91" r="6.09"/><circle class="cls-38" cx="780.59" cy="925.33" r="6.09"/><circle class="cls-46" cx="762.13" cy="789.3" r="6.09"/><circle class="cls-38" cx="763.26" cy="787.72" r="6.09"/><circle class="cls-46" cx="893.97" cy="780.59" r="6.09"/><circle class="cls-38" cx="895.1" cy="779.01" r="6.09"/><polygon class="cls-47" points="995.07 352.88 979.83 351.27 969.86 362.91 966.68 347.92 952.53 342.04 965.8 334.39 967.02 319.11 978.41 329.37 993.31 325.81 987.07 339.81 995.07 352.88"/><polygon class="cls-47" points="1082.96 340.81 1064.97 334.66 1049.7 346 1049.99 326.99 1034.48 315.98 1052.66 310.37 1058.34 292.22 1069.29 307.77 1088.3 307.57 1076.9 322.79 1082.96 340.81"/><polygon class="cls-47" points="1130.07 431.92 1117.99 425.59 1105.93 431.95 1108.22 418.51 1098.44 409.01 1111.93 407.03 1117.95 394.8 1124 407.01 1137.49 408.96 1127.74 418.49 1130.07 431.92"/><path class="cls-40" d="M1066,460.16c-.1.27-18-6.28-52.15-17.68s-52.24-16.81-52.16-17.08,24.64,6.38,53.45,16C1043.09,450.74,1066.1,459.85,1066,460.16Z"/><path class="cls-40" d="M1013.85,441c-5.48,14.38-7,20.43-17,52.19-7.14,22.62-11.11,34.51-10.8,34.62s3.7-9.21,6.9-17.94c7.41-20.23,13.12-36.74,24-69,7.53-22.32,9.18-27.44,8.84-27.57C1025.2,413.1,1019.05,427.33,1013.85,441Z"/><path class="cls-40" d="M1036.37,447.15c-.87,4.61-5.28,26.49-21.83,49.8-13,18.38-27.48,29-27.84,28.65-.6-.61,43.79-29.72,51.36-76.23,2.58-15.89.62-32.31.39-32.32A142.15,142.15,0,0,1,1036.37,447.15Z"/><path class="cls-40" d="M988.14,432.8a49.78,49.78,0,0,0-2.33,5.87c-2.84,8.83-2.38,16.13-2.13,20.85.48,9,.14,17.94.7,26.89.88,14.14,2.35,39.19,2.32,39.19a491,491,0,0,1-.86-59c.68-15.37,1.8-23.66,6.21-32.79,8.09-16.73,21.29-24,20.56-24.85S995.88,416.51,988.14,432.8Z"/><ellipse class="cls-48" cx="346.84" cy="823.36" rx="219.48" ry="24.61"/><path class="cls-49" d="M220.82,658.56h12.38a8.08,8.08,0,0,1,8.08,8.08v81.89a8.08,8.08,0,0,1-8.08,8.08H212.84a.1.1,0,0,1-.1-.1V666.64a8.08,8.08,0,0,1,8.08-8.08Z" transform="translate(-515.76 729.9) rotate(-73.93)"/><path class="cls-50" d="M164,675.35l-1,3.4,3.71,1.07,11.37,3.27a9.59,9.59,0,0,1,5.45,4.2,8.32,8.32,0,0,1,.88,6.57l-.78,2.7a8.86,8.86,0,0,1-11.09,5.75l-11.31-3.26L157.49,698l-1,3.4a6,6,0,0,0,4.31,7.33l13,3.74c7,2,14.31-1.77,16.22-8.41l3.78-13.1c1.91-6.65-2.26-13.74-9.27-15.75l-13-3.74A6,6,0,0,0,164,675.35Z"/><path class="cls-51" d="M170.34,674.26l13,3.74c7,2,11.18,9.11,9.26,15.75l-3.74,13A11.53,11.53,0,0,0,190,704l3.78-13.1c1.91-6.65-2.26-13.74-9.27-15.75l-13-3.74a6,6,0,0,0-7.55,3.91l-.29,1A6.2,6.2,0,0,1,170.34,674.26Z"/><path class="cls-51" d="M160,701.88l11.31,3.26a8.86,8.86,0,0,0,11.09-5.76l.17-.58a9.05,9.05,0,0,1-10.05,3.51l-11.31-3.26L157.49,698l-.85,2.93Z"/><ellipse class="cls-52" cx="271.51" cy="720.51" rx="6.35" ry="15.05" transform="translate(-37.23 15.15) rotate(-2.99)"/><ellipse class="cls-22" cx="271.51" cy="720.51" rx="2.47" ry="7.62" transform="translate(-37.23 15.15) rotate(-2.99)"/><rect class="cls-51" x="267.08" y="732.16" width="22.91" height="41.34" transform="translate(-419.97 1148.35) rotate(-99.22)"/><path class="cls-51" d="M194.23,716.78H278.1a8.48,8.48,0,0,1,8.48,8.48v48.82A28.55,28.55,0,0,1,258,802.64H214.3a28.55,28.55,0,0,1-28.55-28.55V725.26a8.48,8.48,0,0,1,8.48-8.48Z" transform="translate(-475.91 1114.5) rotate(-99.22)"/><path class="cls-50" d="M200.18,703.89H269.6a1.16,1.16,0,0,1,1.16,1.16V767.5a20.31,20.31,0,0,1-20.31,20.31H219.33A20.31,20.31,0,0,1,199,767.5V705A1.16,1.16,0,0,1,200.18,703.89Z" transform="translate(-463.71 1097.16) rotate(-99.22)"/><path class="cls-38" d="M260.9,721.58c-2.33-.7-10.17,6.65-11.83,15.68-2,11,5.64,22,8.22,21.76,1.57-.14.64-4.37,2-18.25C260.75,726.69,262.61,722.08,260.9,721.58Z"/><path class="cls-22" d="M257.27,725.16c-1.27-.69-6,5.55-7,13.13C249,747,253,755.46,254.39,755c.87-.26.46-3.66,1.53-14.57C257,729.28,258.16,725.64,257.27,725.16Z"/><path class="cls-38" d="M171.1,710.37c-3.43-5.75-7.32-9-10.93-8.41-7.46,1.21-10.91,18.26-7.69,38.08l.09.5a113.31,113.31,0,0,0,.92,32.19,131.63,131.63,0,0,0,2.81,13.11l.15,1c3.91,24.09,21.19,41.32,38.6,38.5s28.36-24.64,24.45-48.73c-2.63-16.19-11.3-29.28-22-35.26l.27-.9c5.65-19.29,4.36-36.62-2.9-38.7-2.12-.61-4.52.16-7,2-1.46-2.33-3.22-3.75-5.25-4C178.66,699.32,174.5,703.43,171.1,710.37Z"/><rect x="227.93" y="748.51" width="2.72" height="22.84" rx="0.77" transform="translate(-538.43 558.26) rotate(-58.49)"/><rect x="227.93" y="748.51" width="2.72" height="22.84" rx="0.77" transform="translate(27.62 1527.65) rotate(-148.49)"/><rect x="220.87" y="714.81" width="2.72" height="22.84" rx="0.77" transform="translate(-513.07 536.16) rotate(-58.49)"/><rect x="220.87" y="714.81" width="2.72" height="22.84" rx="0.77" transform="translate(32.16 1461.54) rotate(-148.49)"/><path class="cls-53" d="M258.58,618.72H298.5a26.06,26.06,0,0,1,26.06,26.06V788.19a0,0,0,0,1,0,0H232.51a0,0,0,0,1,0,0V644.78A26.06,26.06,0,0,1,258.58,618.72Z"/><path class="cls-49" d="M286.72,619.39a46.08,46.08,0,0,0-7.76-.67h-.63a45.71,45.71,0,0,0-45.72,45.71V788.19h16.17V664.43A45.71,45.71,0,0,1,286.72,619.39Z"/><path class="cls-33" d="M331.57,769.43l68.12,10.37,4-40.13-66-10a11.4,11.4,0,0,0-12.9,9.58l-2.89,19.51A11.39,11.39,0,0,0,331.57,769.43Z"/><path class="cls-32" d="M329.54,779.68,397.66,790l4-40.13-66-10a11.4,11.4,0,0,0-12.9,9.58L319.86,769A11.4,11.4,0,0,0,329.54,779.68Z"/><polygon class="cls-51" points="330.32 734.32 335.99 738.96 329.22 741.76 335.6 746.99 327.2 750.47 332.81 755.07 326.89 757.52 331.08 760.96 325.3 763.36 333.59 770.16 325.24 773.62 332.92 779.92 306 775.94 313.35 726.26 340.18 730.23 330.32 734.32"/><rect x="258.06" y="723.68" width="85.11" height="25.63" rx="3.53" transform="translate(-471.95 926.08) rotate(-81.58)"/><ellipse class="cls-52" cx="399.56" cy="764.66" rx="25.36" ry="8.39" transform="translate(-399.96 1088.9) rotate(-84.49)"/><ellipse class="cls-22" cx="399.56" cy="764.66" rx="12.84" ry="3.27" transform="translate(-399.96 1088.9) rotate(-84.49)"/><path class="cls-33" d="M300.86,802.75l-68.11,10.36-4-40.13,66-10a11.39,11.39,0,0,1,12.9,9.57L310.55,792A11.41,11.41,0,0,1,300.86,802.75Z"/><path class="cls-32" d="M302.9,813l-68.12,10.37-4-40.14,66-10a11.39,11.39,0,0,1,12.9,9.58l2.88,19.51A11.39,11.39,0,0,1,302.9,813Z"/><polygon class="cls-51" points="302.11 767.63 296.45 772.27 303.21 775.08 296.84 780.3 305.24 783.78 299.62 788.38 305.55 790.84 301.35 794.27 307.14 796.67 298.85 803.48 307.19 806.94 299.51 813.24 326.44 809.25 319.09 759.58 292.26 763.55 302.11 767.63"/><rect x="289.28" y="756.99" width="85.11" height="25.63" rx="3.53" transform="translate(-381.13 1210.72) rotate(-98.42)"/><ellipse class="cls-52" cx="232.88" cy="797.98" rx="8.39" ry="25.36" transform="translate(-75.59 26.07) rotate(-5.51)"/><ellipse class="cls-22" cx="232.88" cy="797.98" rx="3.27" ry="12.84" transform="translate(-75.59 26.07) rotate(-5.51)"/><path class="cls-33" d="M423.59,669l68.12,10.36,4-40.13-66-10a11.4,11.4,0,0,0-12.9,9.58l-2.89,19.51A11.41,11.41,0,0,0,423.59,669Z"/><path class="cls-32" d="M421.56,679.27l68.11,10.36,4-40.13-66-10a11.39,11.39,0,0,0-12.9,9.57l-2.89,19.51A11.41,11.41,0,0,0,421.56,679.27Z"/><polygon class="cls-51" points="422.34 633.91 428.01 638.55 421.24 641.35 427.62 646.58 419.22 650.06 424.83 654.66 418.91 657.11 423.1 660.55 417.31 662.95 425.61 669.75 417.26 673.22 424.94 679.51 398.02 675.53 405.37 625.86 432.2 629.83 422.34 633.91"/><rect x="350.07" y="623.27" width="85.11" height="25.63" rx="3.53" transform="matrix(0.15, -0.99, 0.99, 0.15, -294.07, 931.4)"/><ellipse class="cls-52" cx="491.58" cy="664.26" rx="25.36" ry="8.39" transform="translate(-216.84 1089.74) rotate(-84.49)"/><ellipse class="cls-22" cx="491.58" cy="664.26" rx="12.84" ry="3.27" transform="translate(-216.84 1089.74) rotate(-84.49)"/><path class="cls-33" d="M289.34,727.42l-60.6-32.79-17.31,36.43,58.7,31.75a11.39,11.39,0,0,0,15.38-4.65l9.32-17.38A11.41,11.41,0,0,0,289.34,727.42Z"/><path class="cls-32" d="M294.72,718.47l-60.6-32.79-17.31,36.43,58.7,31.75a11.39,11.39,0,0,0,15.38-4.65l9.32-17.38A11.41,11.41,0,0,0,294.72,718.47Z"/><polygon class="cls-51" points="278.64 760.89 274.88 754.61 282.19 754.26 277.96 747.18 287.04 746.75 283.31 740.52 289.72 740.21 286.93 735.56 293.19 735.26 287.69 726.05 296.71 725.62 291.61 717.1 315.6 729.95 291.89 774.21 267.99 761.4 278.64 760.89"/><rect x="264.79" y="756.08" width="85.11" height="25.63" rx="3.53" transform="translate(1130.24 861.08) rotate(118.18)"/><ellipse class="cls-52" cx="223.75" cy="708.92" rx="25.36" ry="8.39" transform="translate(-512.83 608.52) rotate(-64.72)"/><ellipse class="cls-22" cx="223.75" cy="708.92" rx="12.84" ry="3.27" transform="translate(-512.83 608.52) rotate(-64.72)"/><path class="cls-49" d="M437.71,676.84h16.36a10.68,10.68,0,0,1,10.68,10.68V795.73a10.68,10.68,0,0,1-10.68,10.68h-26.9a.13.13,0,0,1-.13-.13V687.52a10.68,10.68,0,0,1,10.68-10.68Z" transform="translate(1187.99 296.53) rotate(90.06)"/><path class="cls-50" d="M537.67,759.61v-4.67h-5.09l-15.64,0a12.64,12.64,0,0,1-8.46-3.34,11.06,11.06,0,0,1-3.51-8v-3.71c0-6.25,5.4-11.35,12-11.34H537.7v-4.68a8,8,0,0,0-8.15-7.74l-17.87,0c-9.63,0-17.53,7.46-17.54,16.6l0,18c0,9.14,7.87,16.63,17.51,16.64l17.86,0A8,8,0,0,0,537.67,759.61Z"/><path class="cls-51" d="M530,763.31l-17.86,0c-9.64,0-17.52-7.5-17.51-16.64l0-17.86a15.58,15.58,0,0,0-.51,3.88l0,18c0,9.14,7.87,16.63,17.51,16.64l17.86,0a8,8,0,0,0,8.17-7.73v-1.39A8.18,8.18,0,0,1,530,763.31Z"/><path class="cls-51" d="M533,724.47l-15.55,0c-6.59,0-12,5.1-12,11.35v.8A12,12,0,0,1,517,728.49H537.7v-4Z"/><ellipse class="cls-52" cx="384.65" cy="741.42" rx="8.39" ry="19.89" transform="translate(-220.38 165.58) rotate(-19)"/><ellipse class="cls-22" cx="384.65" cy="741.42" rx="3.27" ry="10.07" transform="translate(-220.38 165.58) rotate(-19)"/><path class="cls-49" d="M399.9,727.4h16.36a10.68,10.68,0,0,1,10.68,10.68V846.3A10.68,10.68,0,0,1,416.26,857h-26.9a.13.13,0,0,1-.13-.13V738.08A10.68,10.68,0,0,1,399.9,727.4Z" transform="translate(1200.71 384.96) rotate(90.06)"/><path class="cls-50" d="M499.86,810.18V805.5h-5.09l-15.64,0a12.65,12.65,0,0,1-8.45-3.35,11,11,0,0,1-3.52-8V790.4c0-6.25,5.4-11.36,12-11.35l15.55,0h5.18V774.4a8,8,0,0,0-8.15-7.75H473.89c-9.64,0-17.53,7.45-17.54,16.59l0,18c0,9.14,7.86,16.62,17.5,16.63l17.86,0A8,8,0,0,0,499.86,810.18Z"/><path class="cls-51" d="M492.2,813.87l-17.86,0c-9.64,0-17.52-7.49-17.51-16.63l0-17.86a15.49,15.49,0,0,0-.5,3.87l0,18c0,9.14,7.86,16.62,17.5,16.63l17.86,0a8,8,0,0,0,8.17-7.72v-1.39A8.17,8.17,0,0,1,492.2,813.87Z"/><path class="cls-51" d="M495.22,775l-15.55,0c-6.59,0-12,5.1-12,11.35v.8a11.94,11.94,0,0,1,11.48-8.12l15.55,0h5.18c0-1.34,0-2.69,0-4Z"/><ellipse class="cls-52" cx="346.84" cy="791.98" rx="8.39" ry="19.89" transform="translate(-238.9 156.03) rotate(-19)"/><ellipse class="cls-22" cx="346.84" cy="791.98" rx="3.27" ry="10.07" transform="translate(-238.9 156.03) rotate(-19)"/><path class="cls-49" d="M266.57,622.38h16.36a10.68,10.68,0,0,1,10.68,10.68V741.27a10.68,10.68,0,0,1-10.68,10.68H256a.13.13,0,0,1-.13-.13V633.05a10.68,10.68,0,0,1,10.68-10.68Z" transform="translate(492.87 -20.02) rotate(38.93)"/><path class="cls-50" d="M346.35,627l-3.63-2.94-3.2,4-9.83,12.16a12.64,12.64,0,0,1-7.91,4.49,11.05,11.05,0,0,1-8.46-2.31L310.44,640c-4.86-3.92-5.45-11.33-1.31-16.46l9.78-12.09,3.25-4-3.64-2.94A8,8,0,0,0,307.38,606l-11.22,13.89c-6.06,7.5-5.2,18.33,1.91,24.07l14,11.33c7.11,5.74,17.88,4.3,23.94-3.19l11.22-13.9A8,8,0,0,0,346.35,627Z"/><path class="cls-51" d="M344.42,635.28,333.2,649.17c-6.06,7.5-16.83,8.93-23.94,3.19l-13.89-11.22a15.62,15.62,0,0,0,2.7,2.82l14,11.33c7.11,5.74,17.88,4.3,23.94-3.19l11.22-13.9a8,8,0,0,0-.89-11.2l-1.08-.88A8.16,8.16,0,0,1,344.42,635.28Z"/><path class="cls-51" d="M316.09,608.55l-9.78,12.1c-4.14,5.12-3.55,12.53,1.31,16.46l.62.5a12,12,0,0,1,.89-14l9.78-12.09,3.25-4L319,604.92Z"/><ellipse class="cls-52" cx="236.15" cy="734.71" rx="8.39" ry="19.89" transform="translate(-535.08 706.99) rotate(-70.12)"/><ellipse class="cls-22" cx="236.15" cy="734.71" rx="3.27" ry="10.07" transform="translate(-535.08 706.99) rotate(-70.12)"/><rect class="cls-51" x="363.02" y="702.77" width="22.91" height="41.34" transform="translate(-89.64 53.97) rotate(-7.36)"/><path class="cls-51" d="M327,637.94h83.86a8.48,8.48,0,0,1,8.48,8.48v48.82a28.55,28.55,0,0,1-28.55,28.55H347.11a28.55,28.55,0,0,1-28.55-28.55V646.42a8.48,8.48,0,0,1,8.48-8.48Z" transform="translate(-84.23 52.91) rotate(-7.36)"/><path class="cls-50" d="M348.15,638.07h69.42a1.16,1.16,0,0,1,1.16,1.16v62.45A20.31,20.31,0,0,1,398.42,722H367.3A20.31,20.31,0,0,1,347,701.69V639.24a1.16,1.16,0,0,1,1.16-1.16Z" transform="translate(-84.01 54.69) rotate(-7.36)"/><path class="cls-38" d="M406.29,706.82c.77-2.31-6.33-10.38-15.29-12.33-11-2.38-22.17,4.92-22,7.51.09,1.58,4.36.79,18.18,2.63C401.17,706.51,405.72,708.51,406.29,706.82Z"/><path class="cls-22" d="M402.82,703.08c.73-1.25-5.36-6.16-12.9-7.46-8.67-1.49-17.25,2.17-16.86,3.61.23.88,3.65.58,14.51,2C398.71,702.69,402.31,704,402.82,703.08Z"/><path class="cls-38" d="M420.38,617.42c5.86-3.23,9.23-7,8.76-10.65-1-7.49-17.9-11.48-37.81-8.91l-.5.07a113.81,113.81,0,0,0-32.2-.12,128.39,128.39,0,0,0-13.19,2.39l-1,.12c-24.2,3.12-42,19.84-39.73,37.33s23.72,29.14,47.92,26c16.26-2.1,29.62-10.35,36-20.84l.89.3c19.1,6.28,36.46,5.54,38.78-1.65.67-2.1,0-4.52-1.81-7.05,2.37-1.38,3.85-3.1,4.17-5.11C431.19,625.34,427.21,621.05,420.38,617.42Z"/><rect x="367.61" y="662.56" width="2.72" height="22.84" rx="0.77" transform="translate(431.41 -91.85) rotate(33.36)"/><rect x="367.61" y="662.56" width="2.72" height="22.84" rx="0.77" transform="matrix(0.55, -0.84, 0.84, 0.55, -396.86, 611.55)"/><rect x="401.52" y="656.6" width="2.72" height="22.84" rx="0.77" transform="translate(433.72 -111.47) rotate(33.36)"/><rect x="401.52" y="656.6" width="2.72" height="22.84" rx="0.77" transform="translate(-376.62 637.18) rotate(-56.64)"/><rect class="cls-51" x="364.4" y="703.41" width="22.91" height="41.34" transform="translate(1087.41 325.02) rotate(88.15)"/><path class="cls-51" d="M376.83,679.76h83.86a8.48,8.48,0,0,1,8.48,8.48v48.82a28.55,28.55,0,0,1-28.55,28.55H396.89a28.55,28.55,0,0,1-28.55-28.55V688.25a8.48,8.48,0,0,1,8.48-8.48Z" transform="translate(1127.55 280.8) rotate(88.15)"/><path class="cls-50" d="M383.54,694.63H453a1.16,1.16,0,0,1,1.16,1.16v62.45a20.31,20.31,0,0,1-20.31,20.31H402.69a20.31,20.31,0,0,1-20.31-20.31V695.79a1.16,1.16,0,0,1,1.16-1.16Z" transform="translate(1140.95 294.77) rotate(88.15)"/><path class="cls-38" d="M389.34,757.33c2.23,1,10.94-5.29,13.74-14,3.42-10.67-2.76-22.54-5.36-22.64-1.57-.06-1.2,4.26-4.36,17.84C390.14,752.28,387.71,756.61,389.34,757.33Z"/><path class="cls-22" d="M393.4,754.25c1.17.84,6.65-4.74,8.66-12.13,2.31-8.49-.5-17.37-2-17.13-.89.14-.93,3.58-3.39,14.25C394.18,750.19,392.58,753.66,393.4,754.25Z"/><path class="cls-38" d="M477,780c2.66,6.14,6.1,9.86,9.76,9.74,7.56-.25,13.15-16.71,12.51-36.78l0-.5a113.36,113.36,0,0,0,3.21-32A128,128,0,0,0,501.31,707c0-.35,0-.69,0-1-.79-24.39-15.72-43.7-33.35-43.13s-31.28,20.8-30.49,45.19c.53,16.4,7.45,30.48,17.29,37.79l-.39.85c-8.08,18.41-9,35.77-2.08,38.76,2,.88,4.5.42,7.19-1.11,1.15,2.49,2.72,4.12,4.7,4.63C468.05,790,472.7,786.41,477,780Z"/><rect x="424.25" y="711.93" width="2.72" height="22.84" rx="0.77" transform="translate(1255.87 845.97) rotate(128.87)"/><rect x="424.25" y="711.93" width="2.72" height="22.84" rx="0.77" transform="translate(548.23 -106.92) rotate(38.87)"/><rect x="426.92" y="746.25" width="2.72" height="22.84" rx="0.77" transform="translate(1286.95 899.75) rotate(128.87)"/><rect x="426.92" y="746.25" width="2.72" height="22.84" rx="0.77" transform="translate(570.36 -100.99) rotate(38.87)"/><path class="cls-34" d="M629.48,56.88v64.4h36.33q4.35,0,6.67,2.11a6.87,6.87,0,0,1,2.32,5.31,6.68,6.68,0,0,1-2.29,5.28q-2.29,2-6.7,2H622.53q-5.85,0-8.42-2.6T611.55,125V56.88c0-3.63.81-6.34,2.44-8.15A8.25,8.25,0,0,1,620.42,46,8.54,8.54,0,0,1,627,48.7C628.64,50.49,629.48,53.21,629.48,56.88Z"/><path class="cls-34" d="M731.42,108.06H699.19a21.88,21.88,0,0,0,2.26,9.9,15.15,15.15,0,0,0,13.92,8.63,19.85,19.85,0,0,0,5.4-.69,17.74,17.74,0,0,0,4.74-2.18,36,36,0,0,0,4.22-3.17q1.93-1.68,5-4.58a5.38,5.38,0,0,1,3.62-1.09,6,6,0,0,1,4.11,1.39,5,5,0,0,1,1.57,3.92,10.78,10.78,0,0,1-1.75,5.22,20.61,20.61,0,0,1-5.29,5.74,29.87,29.87,0,0,1-8.87,4.55,38.09,38.09,0,0,1-12.28,1.82q-15.87,0-24.69-9.06t-8.81-24.56a41,41,0,0,1,2.17-13.56,29.89,29.89,0,0,1,6.34-10.71,27.52,27.52,0,0,1,10.26-6.85,36.84,36.84,0,0,1,13.52-2.38,32,32,0,0,1,16.57,4.07A26.81,26.81,0,0,1,741.56,85,27.66,27.66,0,0,1,745,98.16c0,4.15-1.19,6.83-3.56,8.06S735.73,108.06,731.42,108.06ZM699.19,98.7h29.88c-.41-5.63-1.92-9.84-4.56-12.64a13.64,13.64,0,0,0-10.41-4.2A13.16,13.16,0,0,0,704,86.12Q700,90.38,699.19,98.7Z"/><path class="cls-34" d="M767.46,80.78l13.33,37.42,14.37-39a23.23,23.23,0,0,1,3.32-6.67,6.07,6.07,0,0,1,4.95-2,7.43,7.43,0,0,1,5.34,2.11,6.58,6.58,0,0,1,2.2,4.89,9.89,9.89,0,0,1-.39,2.53,24.08,24.08,0,0,1-.9,2.72c-.35.84-.74,1.81-1.18,2.9L792.69,124.9q-.68,1.69-1.72,4.29a22,22,0,0,1-2.36,4.43,9.14,9.14,0,0,1-3.2,2.87,9.62,9.62,0,0,1-4.62,1,9,9,0,0,1-5.58-1.6,11,11,0,0,1-3.08-3.5q-1-1.9-3.35-7.52L753.09,86.09c-.36-1-.73-1.93-1.12-2.9a24.93,24.93,0,0,1-1-3,10.57,10.57,0,0,1-.39-2.59,6.34,6.34,0,0,1,1-3.35,8,8,0,0,1,2.84-2.72,7.68,7.68,0,0,1,3.92-1q4.11,0,5.65,2.35A38,38,0,0,1,767.46,80.78Z"/><path class="cls-34" d="M867.17,108.06H834.94a21.88,21.88,0,0,0,2.26,9.9,15.15,15.15,0,0,0,13.91,8.63,19.92,19.92,0,0,0,5.41-.69,17.68,17.68,0,0,0,4.73-2.18,35.33,35.33,0,0,0,4.23-3.17q1.93-1.68,5-4.58a5.36,5.36,0,0,1,3.62-1.09,5.92,5.92,0,0,1,4.1,1.39,5,5,0,0,1,1.57,3.92,10.67,10.67,0,0,1-1.75,5.22,20.41,20.41,0,0,1-5.28,5.74,29.87,29.87,0,0,1-8.87,4.55,38.14,38.14,0,0,1-12.28,1.82q-15.89,0-24.69-9.06T818.1,103.9a41,41,0,0,1,2.17-13.56,29.89,29.89,0,0,1,6.34-10.71,27.36,27.36,0,0,1,10.26-6.85,36.8,36.8,0,0,1,13.52-2.38A32,32,0,0,1,867,74.47,26.81,26.81,0,0,1,877.31,85a27.78,27.78,0,0,1,3.44,13.16c0,4.15-1.19,6.83-3.56,8.06S871.47,108.06,867.17,108.06ZM834.94,98.7h29.88q-.62-8.45-4.56-12.64a13.64,13.64,0,0,0-10.41-4.2,13.16,13.16,0,0,0-10.11,4.26Q835.78,90.38,834.94,98.7Z"/><path class="cls-34" d="M894.63,127.5V56c0-3.3.74-5.79,2.2-7.48A7.48,7.48,0,0,1,902.78,46a7.82,7.82,0,0,1,6,2.51c1.52,1.67,2.29,4.17,2.29,7.51V127.5c0,3.34-.78,5.84-2.32,7.51a7.84,7.84,0,0,1-6,2.51,7.43,7.43,0,0,1-5.88-2.6Q894.64,132.32,894.63,127.5Z"/><path class="cls-34" d="M1035.57,108.06a23.48,23.48,0,0,1-2.08,9.14,32.87,32.87,0,0,1-6.55,9.66,33.39,33.39,0,0,1-11.41,7.7,41.05,41.05,0,0,1-16.18,3,56.81,56.81,0,0,1-12.73-1.33,35.87,35.87,0,0,1-10.41-4.14,34.91,34.91,0,0,1-8.6-7.39,43.85,43.85,0,0,1-6-9.33,48.37,48.37,0,0,1-3.71-11,59.7,59.7,0,0,1-1.24-12.44,55.19,55.19,0,0,1,3.11-19.13,40.92,40.92,0,0,1,8.9-14.46,38.91,38.91,0,0,1,13.58-9.14A44,44,0,0,1,998.87,46,41.49,41.49,0,0,1,1018,50.3a34.63,34.63,0,0,1,12.85,10.59q4.47,6.3,4.47,11.92a7.81,7.81,0,0,1-2.17,5.43,6.9,6.9,0,0,1-5.26,2.36,7.29,7.29,0,0,1-5.16-1.63,22.86,22.86,0,0,1-3.83-5.62,26.94,26.94,0,0,0-8.24-9.83A20.06,20.06,0,0,0,999,60.26q-11,0-17.59,8.39t-6.55,23.84q0,10.32,2.9,17.17a21.63,21.63,0,0,0,8.2,10.23,22.73,22.73,0,0,0,12.44,3.38,21.87,21.87,0,0,0,13.07-3.83,23.17,23.17,0,0,0,8-11.26,19.19,19.19,0,0,1,2.84-5.7q1.7-2.2,5.43-2.21a7.6,7.6,0,0,1,5.5,2.24A7.43,7.43,0,0,1,1035.57,108.06Z"/><path class="cls-34" d="M1050.54,127.5V56q0-5,2.2-7.48a7.48,7.48,0,0,1,6-2.54,7.8,7.8,0,0,1,6,2.51Q1067,51,1067,56V127.5q0,5-2.33,7.51a7.82,7.82,0,0,1-6,2.51,7.45,7.45,0,0,1-5.89-2.6Q1050.53,132.32,1050.54,127.5Z"/><path class="cls-34" d="M1130,108.06H1097.8a21.88,21.88,0,0,0,2.26,9.9,15.15,15.15,0,0,0,13.92,8.63,19.85,19.85,0,0,0,5.4-.69,17.74,17.74,0,0,0,4.74-2.18,35.21,35.21,0,0,0,4.22-3.17q1.94-1.68,5-4.58a5.38,5.38,0,0,1,3.62-1.09,6,6,0,0,1,4.11,1.39,5,5,0,0,1,1.57,3.92,10.78,10.78,0,0,1-1.75,5.22,20.71,20.71,0,0,1-5.28,5.74,30.06,30.06,0,0,1-8.88,4.55,38.09,38.09,0,0,1-12.28,1.82q-15.87,0-24.69-9.06T1081,103.9a41,41,0,0,1,2.17-13.56,29.89,29.89,0,0,1,6.34-10.71,27.52,27.52,0,0,1,10.26-6.85,36.84,36.84,0,0,1,13.52-2.38,32,32,0,0,1,16.57,4.07A26.81,26.81,0,0,1,1140.17,85a27.66,27.66,0,0,1,3.44,13.16c0,4.15-1.18,6.83-3.56,8.06S1134.34,108.06,1130,108.06ZM1097.8,98.7h29.88q-.6-8.45-4.56-12.64a13.63,13.63,0,0,0-10.41-4.2,13.18,13.18,0,0,0-10.11,4.26Q1098.64,90.38,1097.8,98.7Z"/><path class="cls-34" d="M1199.14,128.22a50.75,50.75,0,0,1-11.56,7,32.26,32.26,0,0,1-12.52,2.33,23.73,23.73,0,0,1-11.14-2.51,18.35,18.35,0,0,1-7.39-6.79,17.62,17.62,0,0,1-2.6-9.3,16.62,16.62,0,0,1,4.29-11.52A21.39,21.39,0,0,1,1170,101c1-.24,3.64-.79,7.79-1.63s7.69-1.62,10.65-2.33,6.17-1.55,9.63-2.56c-.2-4.35-1.08-7.53-2.63-9.57s-4.76-3-9.63-3c-4.18,0-7.33.59-9.44,1.75a15.28,15.28,0,0,0-5.43,5.26q-2.27,3.5-3.2,4.61c-.63.75-2,1.12-4,1.12a7,7,0,0,1-4.8-1.78,5.83,5.83,0,0,1-2-4.56,14,14,0,0,1,3.08-8.45q3.08-4.09,9.6-6.76t16.23-2.65q10.88,0,17.09,2.56a15.9,15.9,0,0,1,8.78,8.12q2.57,5.55,2.56,14.73,0,5.79,0,9.84t-.09,9a33.35,33.35,0,0,0,1.54,9.69,30.29,30.29,0,0,1,1.54,6.49,6,6,0,0,1-2.38,4.61,8,8,0,0,1-5.41,2.09,7.29,7.29,0,0,1-5-2.39A35.28,35.28,0,0,1,1199.14,128.22Zm-1.08-23.84a84.83,84.83,0,0,1-10.54,2.81c-4.6,1-7.79,1.71-9.56,2.17a13.08,13.08,0,0,0-5.07,2.71,7,7,0,0,0-2.42,5.65,8.38,8.38,0,0,0,2.84,6.37,10.5,10.5,0,0,0,7.42,2.62,19.33,19.33,0,0,0,9-2.14,14.3,14.3,0,0,0,6.06-5.52q2.23-3.75,2.24-12.32Z"/><path class="cls-34" d="M1247.31,113.73V127.5q0,5-2.35,7.51a7.85,7.85,0,0,1-6,2.51,7.53,7.53,0,0,1-5.85-2.54q-2.3-2.53-2.3-7.48V81.62q0-11.1,8-11.1,4.11,0,5.92,2.59c1.2,1.73,1.87,4.29,2,7.67a28.87,28.87,0,0,1,6.06-7.67,12.55,12.55,0,0,1,8.3-2.59,21.24,21.24,0,0,1,10.08,2.59c3.26,1.73,4.89,4,4.89,6.88a6.91,6.91,0,0,1-6.58,6.94,20.8,20.8,0,0,1-4.37-1.11A20.25,20.25,0,0,0,1259,84.7a9,9,0,0,0-5.92,1.9,12.24,12.24,0,0,0-3.56,5.65,40,40,0,0,0-1.75,8.9Q1247.31,106.31,1247.31,113.73Z"/><path class="cls-34" d="M1290.53,97.68l-1.93-28.91q-.55-8.46-.55-12.14,0-5,2.63-7.81a9,9,0,0,1,6.91-2.81q5.19,0,6.94,3.59T1306.28,60a79.31,79.31,0,0,1-.42,8.09l-2.6,29.76a23.2,23.2,0,0,1-1.81,8.15,4.73,4.73,0,0,1-4.59,2.83,4.55,4.55,0,0,1-4.52-2.74A27.13,27.13,0,0,1,1290.53,97.68Zm6.7,39.71a9.49,9.49,0,0,1-6.43-2.38,8.36,8.36,0,0,1-2.75-6.67,9,9,0,0,1,9.06-9,8.93,8.93,0,0,1,6.48,2.62,8.59,8.59,0,0,1,2.69,6.37,8.43,8.43,0,0,1-2.72,6.64A9.22,9.22,0,0,1,1297.23,137.39Z"/></g></g></svg>