<svg id="Layer_1" data-name="Layer 1" xmlns="http://www.w3.org/2000/svg" width="792" height="260" viewBox="0 0 792 260"><defs><style>.cls-1{fill:#666566;}.cls-2{fill:#9b9a9a;}.cls-3{fill:#231f20;}.cls-4{fill:#4b56a6;}</style></defs><path class="cls-1" d="M750.16,71.87H127.41V200.41H750.16c7.15,0,13-5.4,13-12V83.87C763.15,77.27,757.31,71.87,750.16,71.87Z"/><path class="cls-1" d="M113.08,42.89a93.25,93.25,0,1,0,93.25,93.25A93.25,93.25,0,0,0,113.08,42.89Zm0,177.38a84.13,84.13,0,1,1,84.13-84.13A84.13,84.13,0,0,1,113.08,220.27Z"/><circle class="cls-1" cx="113.08" cy="136.14" r="87.39"/><path class="cls-2" d="M758.48,61.84H135.72V190.38H758.48c7.14,0,13-5.4,13-12V73.84C771.47,67.24,765.62,61.84,758.48,61.84Z"/><path class="cls-3" d="M121.4,32.86a93.25,93.25,0,1,0,93.25,93.25A93.25,93.25,0,0,0,121.4,32.86Zm0,177.37a84.13,84.13,0,1,1,84.12-84.12A84.13,84.13,0,0,1,121.4,210.23Z"/><circle class="cls-4" cx="121.4" cy="126.11" r="87.39"/></svg>