<svg id="Layer_1" data-name="Layer 1" xmlns="http://www.w3.org/2000/svg" width="792" height="612" viewBox="0 0 792 612"><defs><style>.cls-1{fill:#554da0;}.cls-2{fill:#d8b191;}.cls-3{fill:#006838;}.cls-4{fill:#0a7d42;}.cls-5{fill:#afb0ae;}.cls-6{fill:#8c8e8a;}.cls-7{fill:#ed1c24;}.cls-8{fill:#fff;}.cls-9{fill:#020202;}.cls-10{fill:#b03837;}</style></defs><rect class="cls-1" x="92.52" y="134.57" width="606.97" height="385.56" rx="12"/><rect class="cls-2" x="108.15" y="146.83" width="575.7" height="361.05" rx="12"/><path class="cls-3" d="M299.11,553.09c-1.17-.22-2.4-.43-3.63-.57a1.93,1.93,0,0,1,1.16-1.13C297.39,551.22,298.22,551.87,299.11,553.09Z"/><path class="cls-4" d="M697,558.66c-.89.53-2.44-.82-3.81-2.07-13.39-12.15-16-19.43-21.55-23.21-10.87-7.34-30.52.43-41.28,13.17a47.46,47.46,0,0,0-9.9,21.05c-12.06,9.27-17.72,9-20.66,7.14-6.58-4.13-1-17.07-9.39-27.57a24.72,24.72,0,0,0-12.1-8,110,110,0,0,0-1.74,20.34c.14,6.54.92,10.86-.46,11.47s-4.42-3.43-6.66-6.94a85.58,85.58,0,0,0-5.55-19.32c-.95-2.26-1.95-4.36-3-6.29a38.79,38.79,0,0,0-10.82,4.64c-1,.69-1.86,1.32-2.43,1.77,0,0-4.14,10.29-12,15.32-2.14,1.37-6.14,3.95-8.68,2.3-3.82-2.47.44-11.29-3.8-16.78-1.66-2.15-3.62-2.5-10.62-3.14-5.66.44-13.39,1.12-23.35,2.18-3.2,3.62-6,6.67-8.49,9.21,0,1.58-.07,3.33-.1,5.28-.09,5.57.12,10.2.34,13.46-1.29,2.58-2.8,4.8-4.23,4.6-3-.44-2.84-11.49-4.85-15.18a2.05,2.05,0,0,0-1.25-1.16c-1.25-.28-2.69,1.45-4.26,4.29-5.32,9.56-12.28,31.63-19.46,30.94a3.58,3.58,0,0,1-2.48-1.23c-2.78-3.56,5-11.19,4.6-20.73-.25-6.42-4.07-11-8.07-15.72a47.54,47.54,0,0,0-21.38-14.4c-29.47-9.79-57.32,11.6-63.21,2.21-2.16-3.43,1.38-6.58-.63-10.89a7.2,7.2,0,0,0-.76-1.28,46.34,46.34,0,0,0-13.12,2.3,42.26,42.26,0,0,0-19,12.77c-3.54,4.22-6.93,8.25-7.15,13.94-.32,8.46,6.54,15.22,4.07,18.38a3.15,3.15,0,0,1-2.2,1.09c-7,.68-13.7-22.88-18.55-29.54-.89-1.22-1.72-1.87-2.47-1.7a1.93,1.93,0,0,0-1.16,1.13c-1.72,3.37-1.6,13-4.25,13.36-1.26.18-2.61-1.79-3.75-4.08.15-2.3.3-5.37.32-9a8,8,0,0,0-4,2.39c-5.33,6,1.15,18.55-2.35,21.11-2.56,1.86-9.74-2.13-28-22.81l-6.76-.7-5-.49c-7.57-.73-13.54-1.21-18-1.54-8.44-.62-16.06-1-22.19-7.11a23.76,23.76,0,0,1-4.1-5.48,11,11,0,0,0-3-2.66,19.18,19.18,0,0,0-3.87,3.68c-7.43,9.31-2.5,20.78-8.33,24.45-2.35,1.48-6.64,1.82-15.26-4.11a98.11,98.11,0,0,0-4,15.75c-2.52,4-5.84,8.57-7.51,7.83s-.67-5.56-.51-12.94a125.32,125.32,0,0,0-2-23.15c-1.58-8.33-3.84-11.85-5.65-15.47-9.47-6.7-21.42-9.57-28.8-4.58-5,3.34-7.23,9.8-19.1,20.57-1.22,1.11-2.59,2.31-3.38,1.84-2.51-1.5,3.26-18.2,8.74-32.6a64,64,0,0,0,2.79-23.49c-1-1.41-1-2.28-.87-2.82.11-.37.4-.86.21-1.3s-.48-.35-.52-.51c-.16-.69,5.19-3.47,12.53-4.77,1.49-.27,2.74-.41,3.6-.5s1.94-.37,3.43-.63a184.22,184.22,0,0,1,62.5.07l1.24.19c30.14-3.81,53.83,2.63,61.5,4.53,9,2.23,44.68-3.91,112.19-2.78,78.45-3.7,118.73,3.82,127.93,1.54,7.8-1.93,34.26-9.14,66.61-1.9,3.39.76,6.5,1.6,9.28,2.44,9.28-.91,17.86-2,25.61-3.23a207.84,207.84,0,0,1,70.49-.08c1.69.3,3.06.56,3.87.71,1,.1,2.38.26,4.07.56,8.28,1.47,14.31,4.61,14.13,5.38,0,.18-.41.16-.59.57s.11,1.06.24,1.47c.18.62.13,1.6-1,3.19a72,72,0,0,0,3.15,26.49C693.32,538.13,699.83,557,697,558.66Z"/><path class="cls-4" d="M241.67,552.28l5,.49C245.24,553.65,243.35,553.11,241.67,552.28Z"/><path class="cls-4" d="M471.92,562.12c-2.44,1.9-4.22,2.85-5.51,3.13,1.57-2.84,3-4.57,4.26-4.29A2.05,2.05,0,0,1,471.92,562.12Z"/><path class="cls-3" d="M303.13,551.38c-.86-1.08-1.65-1.66-2.37-1.51a1.84,1.84,0,0,0-1.12,1,8.92,8.92,0,0,0-.71,2l.18.24c4.85,6.66,11.58,30.22,18.55,29.54a3.15,3.15,0,0,0,2.2-1.09c.79-1,.62-2.4,0-4.08C313.58,576.06,307.54,557,303.13,551.38Z"/><path class="cls-3" d="M439.17,556.18a46.17,46.17,0,0,0-20.5-12.75c-28.26-8.67-55,10.27-60.61,2-2.07-3,1.33-5.83-.6-9.65a5.89,5.89,0,0,0-.73-1.13l-1.36.06a8,8,0,0,1,.41.76c2,4.31-1.53,7.46.63,10.89,5.89,9.39,33.74-12,63.21-2.21A47.54,47.54,0,0,1,441,558.51c1.3,1.55,2.58,3.07,3.73,4.64A44.48,44.48,0,0,0,439.17,556.18Z"/><path class="cls-3" d="M259.31,551.72l-6.48-.62c-1.35.78-3.17.3-4.78-.44-7.26-.64-13-1.07-17.26-1.36-8.09-.55-15.39-.92-21.27-6.3a21.08,21.08,0,0,1-3.93-4.85,10.51,10.51,0,0,0-2.9-2.36,18.13,18.13,0,0,0-3.71,3.26c-.21.25-.42.5-.61.75a23,23,0,0,0,3.11,3.83c6.13,6.07,13.75,6.49,22.19,7.11,4.46.33,10.43.81,18,1.54l5,.49,6.76.7c18.28,20.68,25.46,24.67,28,22.81,1.06-.77,1.2-2.46,1-4.6C278.48,570,271.44,564.4,259.31,551.72Z"/><path class="cls-3" d="M176.36,557.07c-.83,2.25-1.52,4.43-2.09,6.5,3.93,1.49,6.34,1,7.89,0a5.79,5.79,0,0,0,2.22-2.65A32.4,32.4,0,0,1,176.36,557.07Z"/><path class="cls-3" d="M163,546c-1.51-7.38-3.68-10.5-5.42-13.7-6.54-4.28-14.31-6.78-20.8-6.19a41.83,41.83,0,0,1,10.53,5.43c1.81,3.62,4.07,7.14,5.65,15.47a125.32,125.32,0,0,1,2,23.15c-.16,7.38-1,12.24.51,12.94s5-3.87,7.51-7.83c.45-2.74,1.08-5.79,1.94-9.07A103,103,0,0,0,163,546Z"/><path class="cls-3" d="M292,559.09c.15-2,.29-4.75.31-8a7.84,7.84,0,0,0-3.85,2.11,6.71,6.71,0,0,0-.64.79c0,3.11-.18,5.75-.31,7.79,1.14,2.29,2.49,4.26,3.75,4.08s1.78-2.07,2.26-4.45A15,15,0,0,1,292,559.09Z"/><path class="cls-3" d="M577.8,542.2a27.21,27.21,0,0,0-7-3.12,90.1,90.1,0,0,0-1.67,18c.07,2.88.28,5.27.33,7,2.23,3.5,5.17,7.56,6.63,6.9s.6-4.93.46-11.47A110.88,110.88,0,0,1,577.8,542.2Z"/><path class="cls-3" d="M620.72,545.59a40.59,40.59,0,0,0-9.49,18.64c-6.39,4.53-10.89,6.48-14.13,7a6.7,6.7,0,0,0,2.7,3.47c2.94,1.85,8.6,2.13,20.66-7.14a47.46,47.46,0,0,1,9.9-21.05,47.94,47.94,0,0,1,23.28-14.93C643.1,530.17,629.1,536.43,620.72,545.59Z"/><path class="cls-3" d="M687.14,521.89A72,72,0,0,1,684,495.4c1.11-1.59,1.16-2.57,1-3.19-.13-.41-.45-1-.24-1.47s.55-.39.59-.57c.18-.77-5.85-3.91-14.13-5.38-1.69-.3-3.1-.46-4.07-.56-.81-.15-2.18-.41-3.87-.71a207.84,207.84,0,0,0-70.49.08c-7.75,1.24-16.33,2.32-25.61,3.23-2.78-.84-5.89-1.68-9.28-2.44-32.35-7.24-58.81,0-66.61,1.9-9.2,2.28-49.48-5.24-127.93-1.54-67.51-1.13-103.15,5-112.19,2.78-7.67-1.9-31.36-8.34-61.5-4.53l-1.24-.19a184.22,184.22,0,0,0-62.5-.07c-1.49.26-2.7.49-3.43.63s-2.11.23-3.6.5c-7.34,1.3-12.69,4.08-12.53,4.77,0,.16.37.14.52.51s-.1.93-.21,1.3c-.16.54-.11,1.41.87,2.82a64,64,0,0,1-2.79,23.49c-5.48,14.4-11.25,31.1-8.74,32.6.79.47,2.16-.73,3.38-1.84a99.47,99.47,0,0,0,11-11.64c1.72-5.07,4.08-11.07,6.39-16.67a52.72,52.72,0,0,0,2.67-20.8c-.94-1.25-1-2-.83-2.5s.38-.76.2-1.15-.46-.31-.5-.45c-.15-.61,5-3.07,12-4.23,1.43-.24,2.63-.36,3.46-.44s1.86-.33,3.28-.56a191.11,191.11,0,0,1,59.93.07l1.19.16a167.6,167.6,0,0,1,59,4c8.67,2,42.84-3.46,107.57-2.46,75.22-3.27,113.84,3.39,122.66,1.37,7.47-1.71,32.84-8.1,63.86-1.69,3.25.68,6.23,1.42,8.9,2.17,8.9-.81,17.12-1.77,24.55-2.87a215.87,215.87,0,0,1,67.59-.07l3.71.63c.93.09,2.28.23,3.9.5,7.94,1.3,13.72,4.08,13.55,4.76,0,.16-.4.14-.57.51s.11.94.23,1.3c.18.55.13,1.42-.94,2.82a59.17,59.17,0,0,0,3,23.46c3.33,8.08,6.76,16.88,8.64,23.31a113.56,113.56,0,0,0,9.39,9.53c1.37,1.25,2.92,2.6,3.81,2.07C699.83,557,693.32,538.13,687.14,521.89Z"/><path class="cls-3" d="M554.15,538.42a38.93,38.93,0,0,0-10.37,4.11c-1,.61-1.78,1.17-2.33,1.57,0,0-4,9.11-11.49,13.57a21.61,21.61,0,0,1-4.49,2.17,3.79,3.79,0,0,0,1.55,2.65c2.54,1.65,6.54-.93,8.68-2.3,7.84-5,12-15.32,12-15.32.57-.45,1.4-1.08,2.43-1.77a36.75,36.75,0,0,1,5.12-2.68C554.88,539.74,554.52,539.06,554.15,538.42Z"/><path class="cls-3" d="M469.54,561.21a8.1,8.1,0,0,0-.73-1.83,15.18,15.18,0,0,1-5.28,2.77c-5.1,8.46-11.77,28-18.66,27.4l-.14,0c-.88,2.28-1.28,4.13-.26,5.43a3.58,3.58,0,0,0,2.48,1.23c7.18.69,14.14-21.38,19.46-30.94C467.53,563.23,468.58,561.78,469.54,561.21Z"/><path class="cls-3" d="M507.82,542.06c-5.43.39-12.84,1-22.39,1.93-3.07,3.21-5.77,5.91-8.14,8.16,0,1.4-.07,3-.1,4.68-.08,4.93.12,9,.33,11.92-1,1.82-2.11,3.42-3.22,3.91.53,2.5,1.23,4.46,2.47,4.64,1.43.2,2.94-2,4.23-4.6-.22-3.26-.43-7.89-.34-13.46,0-2,.06-3.7.1-5.28,2.47-2.54,5.29-5.59,8.49-9.21,10-1.06,17.69-1.74,23.35-2.18l.47,0C511.74,542.41,510.05,542.25,507.82,542.06Z"/><path class="cls-5" d="M415.34,122.83H376.69a12,12,0,0,1-12-12V33.72c0-6.6,5.52-2.85,12.12-2.85h38.66c6.6,0,11.87-3.75,11.87,2.85v77.11A12,12,0,0,1,415.34,122.83Z"/><path class="cls-6" d="M422.26,113.77H383.6a12,12,0,0,1-12-12L372,31.42c0-.82-.16.77,0,0-4.14,1.9-7.16-3.07-7.16,1.76v77.1a12,12,0,0,0,12,12h38.66a12,12,0,0,0,11.75-9.6A11.76,11.76,0,0,1,422.26,113.77Z"/><polygon class="cls-3" points="385.55 87.77 375.12 114.32 395.99 114.32 385.55 87.77"/><polygon class="cls-3" points="372.02 86.4 361.59 112.96 382.45 112.96 372.02 86.4"/><polygon class="cls-3" points="393.72 87.77 383.29 114.32 404.15 114.32 393.72 87.77"/><polygon class="cls-3" points="407.61 82.32 397.18 108.87 418.04 108.87 407.61 82.32"/><polygon class="cls-3" points="414.59 86.06 404.15 112.62 425.02 112.62 414.59 86.06"/><polygon class="cls-3" points="421.74 90.83 411.3 117.38 432.17 117.38 421.74 90.83"/><rect class="cls-4" x="355.13" y="105.6" width="81.7" height="68.43" rx="12"/><path class="cls-3" d="M433.64,157.45h-57.7a12,12,0,0,1-12-12V105.82a12,12,0,0,0-8.78,11.55v44.42a12,12,0,0,0,12,12h57.71a12,12,0,0,0,12-12V157A11.89,11.89,0,0,1,433.64,157.45Z"/><ellipse class="cls-7" cx="396.08" cy="31.15" rx="31.27" ry="6.88"/><ellipse class="cls-8" cx="396.08" cy="31.15" rx="11.55" ry="2.15"/><path class="cls-9" d="M263.47,194.14a26.77,26.77,0,0,1,13.39,3.17,20.52,20.52,0,0,1,8.46,9A30.71,30.71,0,0,1,288.19,220a33.36,33.36,0,0,1-1.58,10.56,22.76,22.76,0,0,1-4.71,8.24,20.53,20.53,0,0,1-7.73,5.33A27.89,27.89,0,0,1,263.68,246a27.57,27.57,0,0,1-10.53-1.9,20.78,20.78,0,0,1-7.76-5.35,22.92,22.92,0,0,1-4.7-8.3,33.56,33.56,0,0,1-1.59-10.49,32.51,32.51,0,0,1,1.66-10.6,22.85,22.85,0,0,1,4.8-8.2,20.67,20.67,0,0,1,7.66-5.18A27.51,27.51,0,0,1,263.47,194.14Zm14.43,25.78a23.44,23.44,0,0,0-1.78-9.54,13.28,13.28,0,0,0-5.07-6.1,14,14,0,0,0-7.58-2.07,13.77,13.77,0,0,0-5.62,1.14,12.41,12.41,0,0,0-4.44,3.34,16,16,0,0,0-2.94,5.59,25.13,25.13,0,0,0-1.08,7.64,25.81,25.81,0,0,0,1.08,7.72,15.82,15.82,0,0,0,3,5.72,12.91,12.91,0,0,0,4.51,3.41,14.32,14.32,0,0,0,12.75-.82,13.5,13.5,0,0,0,5.2-6A23.36,23.36,0,0,0,277.9,219.92Z"/><path class="cls-9" d="M316.32,225.59H307v14.18a6.63,6.63,0,0,1-1.44,4.62,5.05,5.05,0,0,1-7.31,0,6.55,6.55,0,0,1-1.4-4.56V201.22q0-3.34,1.54-4.79t4.88-1.43h13a33.72,33.72,0,0,1,8.88.89,13.25,13.25,0,0,1,5.32,2.83,12.92,12.92,0,0,1,3.4,4.86,17.14,17.14,0,0,1,1.16,6.46q0,7.65-4.72,11.6T316.32,225.59Zm-2.46-23H307v15.31h6.84a20.39,20.39,0,0,0,6-.75,7,7,0,0,0,3.68-2.46,7.36,7.36,0,0,0,1.26-4.48,7.59,7.59,0,0,0-2-5.4C321.39,203.36,318.39,202.62,313.86,202.62Z"/><path class="cls-9" d="M376.1,203.37H365v36.4a6.67,6.67,0,0,1-1.4,4.67A4.7,4.7,0,0,1,360,246a4.76,4.76,0,0,1-3.68-1.54,6.67,6.67,0,0,1-1.41-4.65v-36.4H343.83a5.62,5.62,0,0,1-3.86-1.14,3.91,3.91,0,0,1-1.27-3,3.82,3.82,0,0,1,1.32-3.07,5.66,5.66,0,0,1,3.81-1.13H376.1a5.71,5.71,0,0,1,3.91,1.16,3.93,3.93,0,0,1,1.28,3,3.83,3.83,0,0,1-1.3,3A5.74,5.74,0,0,1,376.1,203.37Z"/><path class="cls-9" d="M387.72,239.77V200.3a6.65,6.65,0,0,1,1.4-4.62,4.69,4.69,0,0,1,3.62-1.54,4.85,4.85,0,0,1,3.71,1.52,6.59,6.59,0,0,1,1.42,4.64v39.47a6.62,6.62,0,0,1-1.42,4.65,4.8,4.8,0,0,1-3.71,1.54,4.64,4.64,0,0,1-3.6-1.56A6.63,6.63,0,0,1,387.72,239.77Z"/><path class="cls-9" d="M431.26,194.14a26.77,26.77,0,0,1,13.39,3.17,20.44,20.44,0,0,1,8.45,9A30.58,30.58,0,0,1,456,220a33.36,33.36,0,0,1-1.58,10.56,22.91,22.91,0,0,1-4.71,8.24,20.61,20.61,0,0,1-7.73,5.33A27.89,27.89,0,0,1,431.47,246a27.57,27.57,0,0,1-10.53-1.9,20.78,20.78,0,0,1-7.76-5.35,22.92,22.92,0,0,1-4.7-8.3,33.56,33.56,0,0,1-1.59-10.49,32.51,32.51,0,0,1,1.66-10.6,22.85,22.85,0,0,1,4.8-8.2,20.67,20.67,0,0,1,7.66-5.18A27.51,27.51,0,0,1,431.26,194.14Zm14.43,25.78a23.61,23.61,0,0,0-1.78-9.54,13.3,13.3,0,0,0-5.08-6.1,13.94,13.94,0,0,0-7.57-2.07,13.77,13.77,0,0,0-5.62,1.14,12.41,12.41,0,0,0-4.44,3.34,16,16,0,0,0-2.94,5.59,25.13,25.13,0,0,0-1.08,7.64,25.81,25.81,0,0,0,1.08,7.72,15.82,15.82,0,0,0,3,5.72,12.82,12.82,0,0,0,4.51,3.41,14.32,14.32,0,0,0,12.75-.82,13.5,13.5,0,0,0,5.2-6A23.36,23.36,0,0,0,445.69,219.92Z"/><path class="cls-9" d="M477.88,200.23l19.52,29.53V200a6.53,6.53,0,0,1,1.25-4.35,4.21,4.21,0,0,1,3.37-1.46,4.36,4.36,0,0,1,3.45,1.46,6.47,6.47,0,0,1,1.26,4.35v39.41q0,6.6-5.47,6.6a7.3,7.3,0,0,1-2.46-.39,6.4,6.4,0,0,1-2.05-1.25,12.38,12.38,0,0,1-1.78-2c-.54-.76-1.09-1.54-1.64-2.34l-19-29.19v29.36a6.26,6.26,0,0,1-1.34,4.34,4.73,4.73,0,0,1-6.87,0,6.41,6.41,0,0,1-1.3-4.32V201.49a11,11,0,0,1,.55-3.86,5.48,5.48,0,0,1,2.15-2.51,5.89,5.89,0,0,1,3.25-1,5.38,5.38,0,0,1,4.05,1.64,13.68,13.68,0,0,1,1.51,1.95C476.81,198.53,477.34,199.36,477.88,200.23Z"/><path class="cls-9" d="M555.92,230.07a14.75,14.75,0,0,1-2.34,8.17,15.66,15.66,0,0,1-6.86,5.67A25.63,25.63,0,0,1,536,246q-7.41,0-12.23-2.8a16.38,16.38,0,0,1-5.56-5.39,12.21,12.21,0,0,1-2.13-6.54,4.44,4.44,0,0,1,4.54-4.48,3.84,3.84,0,0,1,2.72,1,8.06,8.06,0,0,1,1.9,3,20.05,20.05,0,0,0,2.07,4,8.44,8.44,0,0,0,3.12,2.65,11.65,11.65,0,0,0,5.3,1,12,12,0,0,0,7.33-2.1,6.32,6.32,0,0,0,2.82-5.25,5.57,5.57,0,0,0-1.52-4,9.76,9.76,0,0,0-3.93-2.38c-1.61-.54-3.75-1.12-6.44-1.74a46.73,46.73,0,0,1-9-3,14.48,14.48,0,0,1-5.78-4.61,12,12,0,0,1-2.14-7.26,12.5,12.5,0,0,1,2.26-7.35,14.21,14.21,0,0,1,6.53-4.94,26.76,26.76,0,0,1,10-1.73,25,25,0,0,1,8,1.15,16.93,16.93,0,0,1,5.59,3,12.7,12.7,0,0,1,3.24,4,9.12,9.12,0,0,1,1,4.07,4.8,4.8,0,0,1-1.28,3.26,4.1,4.1,0,0,1-3.2,1.46,3.7,3.7,0,0,1-2.65-.87,12,12,0,0,1-2-2.86,13,13,0,0,0-3.28-4.43q-1.92-1.58-6.16-1.58a10.67,10.67,0,0,0-6.34,1.72,5,5,0,0,0-2.41,4.15,4.24,4.24,0,0,0,.82,2.6,6.87,6.87,0,0,0,2.26,1.88,14.58,14.58,0,0,0,2.91,1.23c1,.3,2.59.73,4.85,1.3a75.61,75.61,0,0,1,7.67,2.19,23.47,23.47,0,0,1,5.85,2.9,12,12,0,0,1,3.76,4.33A13.84,13.84,0,0,1,555.92,230.07Z"/><path class="cls-10" d="M262,190a26.87,26.87,0,0,1,13.39,3.16,20.52,20.52,0,0,1,8.45,9,30.58,30.58,0,0,1,2.88,13.69,33.36,33.36,0,0,1-1.58,10.56,22.76,22.76,0,0,1-4.71,8.24,20.53,20.53,0,0,1-7.73,5.33,27.89,27.89,0,0,1-10.49,1.85,27.57,27.57,0,0,1-10.53-1.9,20.78,20.78,0,0,1-7.76-5.35,22.92,22.92,0,0,1-4.7-8.3,33.58,33.58,0,0,1-1.59-10.5,32.49,32.49,0,0,1,1.66-10.59,22.85,22.85,0,0,1,4.8-8.2,20.67,20.67,0,0,1,7.66-5.18A27.51,27.51,0,0,1,262,190Zm14.43,25.77a23.59,23.59,0,0,0-1.78-9.53,13.24,13.24,0,0,0-5.08-6.1A13.91,13.91,0,0,0,262,198a13.77,13.77,0,0,0-5.62,1.14,12.41,12.41,0,0,0-4.44,3.34,16,16,0,0,0-2.94,5.59,25.11,25.11,0,0,0-1.08,7.63,25.83,25.83,0,0,0,1.08,7.73,15.82,15.82,0,0,0,3,5.72,12.82,12.82,0,0,0,4.51,3.41,14.29,14.29,0,0,0,12.75-.83,13.41,13.41,0,0,0,5.2-6A23.37,23.37,0,0,0,276.39,215.74Z"/><path class="cls-10" d="M314.81,221.42h-9.3V235.6a6.63,6.63,0,0,1-1.44,4.62,5.05,5.05,0,0,1-7.31,0,6.55,6.55,0,0,1-1.4-4.56V197.05q0-3.35,1.54-4.79t4.88-1.43h13a33.72,33.72,0,0,1,8.88.89,13.32,13.32,0,0,1,5.32,2.83,12.92,12.92,0,0,1,3.4,4.86,17.14,17.14,0,0,1,1.16,6.46q0,7.65-4.72,11.6T314.81,221.42Zm-2.47-23h-6.83v15.31h6.83a20.42,20.42,0,0,0,6-.75,7,7,0,0,0,3.68-2.46,7.36,7.36,0,0,0,1.26-4.48,7.59,7.59,0,0,0-1.95-5.4Q319.15,198.45,312.34,198.45Z"/><path class="cls-10" d="M374.59,199.2H363.51v36.4a6.74,6.74,0,0,1-1.4,4.67,4.7,4.7,0,0,1-3.62,1.52,4.76,4.76,0,0,1-3.68-1.54,6.67,6.67,0,0,1-1.42-4.65V199.2H342.32a5.62,5.62,0,0,1-3.86-1.14,3.88,3.88,0,0,1-1.27-3,3.82,3.82,0,0,1,1.32-3.07,5.66,5.66,0,0,1,3.81-1.13h32.27A5.71,5.71,0,0,1,378.5,192a3.92,3.92,0,0,1,1.28,3,3.83,3.83,0,0,1-1.3,3A5.74,5.74,0,0,1,374.59,199.2Z"/><path class="cls-10" d="M386.21,235.6V196.13a6.63,6.63,0,0,1,1.4-4.62,4.69,4.69,0,0,1,3.62-1.54,4.85,4.85,0,0,1,3.71,1.52,6.64,6.64,0,0,1,1.42,4.64V235.6a6.67,6.67,0,0,1-1.42,4.65,4.8,4.8,0,0,1-3.71,1.54,4.67,4.67,0,0,1-3.61-1.56A6.68,6.68,0,0,1,386.21,235.6Z"/><path class="cls-10" d="M429.75,190a26.81,26.81,0,0,1,13.38,3.16,20.49,20.49,0,0,1,8.46,9,30.58,30.58,0,0,1,2.87,13.69,33.36,33.36,0,0,1-1.57,10.56,22.91,22.91,0,0,1-4.71,8.24,20.61,20.61,0,0,1-7.73,5.33A27.89,27.89,0,0,1,430,241.79a27.57,27.57,0,0,1-10.53-1.9,20.78,20.78,0,0,1-7.76-5.35,22.92,22.92,0,0,1-4.7-8.3,33.58,33.58,0,0,1-1.59-10.5A32.22,32.22,0,0,1,407,205.15a22.85,22.85,0,0,1,4.8-8.2,20.67,20.67,0,0,1,7.66-5.18A27.47,27.47,0,0,1,429.75,190Zm14.43,25.77a23.59,23.59,0,0,0-1.78-9.53,13.3,13.3,0,0,0-5.08-6.1,13.94,13.94,0,0,0-7.57-2.07,13.74,13.74,0,0,0-5.62,1.14,12.41,12.41,0,0,0-4.44,3.34,15.67,15.67,0,0,0-2.94,5.59,25.11,25.11,0,0,0-1.08,7.63,25.83,25.83,0,0,0,1.08,7.73,15.66,15.66,0,0,0,3,5.72,12.82,12.82,0,0,0,4.51,3.41,14.29,14.29,0,0,0,12.75-.83,13.41,13.41,0,0,0,5.2-6A23.37,23.37,0,0,0,444.18,215.74Z"/><path class="cls-10" d="M476.37,196.06l19.52,29.53V195.78a6.53,6.53,0,0,1,1.25-4.35A4.2,4.2,0,0,1,500.5,190a4.36,4.36,0,0,1,3.46,1.46,6.47,6.47,0,0,1,1.26,4.35v39.41q0,6.6-5.47,6.6a7.3,7.3,0,0,1-2.46-.39,6.4,6.4,0,0,1-2.05-1.25,12.38,12.38,0,0,1-1.78-2c-.54-.76-1.09-1.54-1.64-2.34l-19-29.19V236a6.26,6.26,0,0,1-1.34,4.34,4.73,4.73,0,0,1-6.87,0,6.41,6.41,0,0,1-1.3-4.32V197.32a10.78,10.78,0,0,1,.55-3.86A5.48,5.48,0,0,1,466,191a5.89,5.89,0,0,1,3.25-1,5.38,5.38,0,0,1,4,1.64,13.13,13.13,0,0,1,1.51,1.95C475.3,194.36,475.83,195.19,476.37,196.06Z"/><path class="cls-10" d="M554.41,225.9a14.7,14.7,0,0,1-2.35,8.16,15.53,15.53,0,0,1-6.85,5.68,25.63,25.63,0,0,1-10.7,2q-7.41,0-12.23-2.8a16.38,16.38,0,0,1-5.56-5.39,12.21,12.21,0,0,1-2.13-6.54,4.44,4.44,0,0,1,4.54-4.48,3.84,3.84,0,0,1,2.72,1,8.06,8.06,0,0,1,1.9,3,20.06,20.06,0,0,0,2.06,4,8.48,8.48,0,0,0,3.13,2.65,11.65,11.65,0,0,0,5.3,1,12,12,0,0,0,7.33-2.1,6.34,6.34,0,0,0,2.82-5.25,5.57,5.57,0,0,0-1.52-4.05,9.76,9.76,0,0,0-3.93-2.38c-1.61-.54-3.75-1.12-6.44-1.74a46.73,46.73,0,0,1-9-3,14.48,14.48,0,0,1-5.78-4.61,12,12,0,0,1-2.14-7.26,12.5,12.5,0,0,1,2.26-7.35,14.21,14.21,0,0,1,6.53-4.94,26.76,26.76,0,0,1,10-1.73,24.71,24.71,0,0,1,8,1.15,17,17,0,0,1,5.59,3,12.59,12.59,0,0,1,3.24,4,9.12,9.12,0,0,1,1,4.07,4.8,4.8,0,0,1-1.28,3.26,4.1,4.1,0,0,1-3.2,1.46,3.66,3.66,0,0,1-2.65-.88,11.66,11.66,0,0,1-2-2.85,13.16,13.16,0,0,0-3.28-4.43c-1.28-1.06-3.33-1.58-6.16-1.58a10.67,10.67,0,0,0-6.34,1.72,5,5,0,0,0-2.41,4.15,4.24,4.24,0,0,0,.82,2.6,6.87,6.87,0,0,0,2.26,1.88,14.5,14.5,0,0,0,2.9,1.23q1.47.45,4.86,1.3a75.61,75.61,0,0,1,7.67,2.19,23.47,23.47,0,0,1,5.85,2.9,12,12,0,0,1,3.76,4.33A13.84,13.84,0,0,1,554.41,225.9Z"/></svg>