<svg id="Layer_1" data-name="Layer 1" xmlns="http://www.w3.org/2000/svg" xmlns:xlink="http://www.w3.org/1999/xlink" width="306" height="145" viewBox="0 0 306 145"><defs><style>.cls-1{filter:url(#AI_BevelShadow_1);}.cls-2{fill:#d30d0d;}.cls-3{fill:#20231f;}</style><filter id="AI_BevelShadow_1" x="-20%" y="-20%" width="140%" height="140%" name="AI_BevelShadow_1"><feGaussianBlur result="blur" stdDeviation="4" in="SourceAlpha"/><feOffset result="offsetBlur" dx="4" dy="4" in="blur"/><feSpecularLighting result="specOut" surfaceScale="5" specularExponent="10" in="blur"><fePointLight x="-5000" y="-10000" z="-20000"/></feSpecularLighting><feComposite result="specOut" operator="in" in="specOut" in2="SourceAlpha"/><feComposite result="litPaint" operator="arithmetic" k2="1" k3="1" in="SourceGraphic" in2="specOut"/><feMerge><feMergeNode in="offsetBlur"/><feMergeNode in="litPaint"/></feMerge></filter></defs><g class="cls-1"><rect class="cls-2" x="6.47" y="6.31" width="289.02" height="131.74"/><path class="cls-3" d="M91,78.89a12.69,12.69,0,0,1-2,7,13.33,13.33,0,0,1-5.88,4.86A22,22,0,0,1,74,92.51a20.67,20.67,0,0,1-10.49-2.4,14,14,0,0,1-4.76-4.62,10.46,10.46,0,0,1-1.83-5.61A3.81,3.81,0,0,1,60.79,76a3.34,3.34,0,0,1,2.33.88,7,7,0,0,1,1.62,2.61A17.31,17.31,0,0,0,66.52,83a7.11,7.11,0,0,0,2.68,2.27,10,10,0,0,0,4.54.89A10.23,10.23,0,0,0,80,84.32a5.43,5.43,0,0,0,2.42-4.5,4.8,4.8,0,0,0-1.3-3.47,8.47,8.47,0,0,0-3.37-2q-2.07-.69-5.53-1.49a41,41,0,0,1-7.75-2.53,12.55,12.55,0,0,1-4.95-4,10.25,10.25,0,0,1-1.83-6.22,10.67,10.67,0,0,1,1.94-6.3,12.19,12.19,0,0,1,5.59-4.24,23,23,0,0,1,8.62-1.48,21.18,21.18,0,0,1,6.84,1,14.48,14.48,0,0,1,4.79,2.6,11,11,0,0,1,2.78,3.42,7.8,7.8,0,0,1,.88,3.48,4.13,4.13,0,0,1-1.1,2.8,3.51,3.51,0,0,1-2.74,1.25A3.14,3.14,0,0,1,83,61.88a10,10,0,0,1-1.68-2.45,11.15,11.15,0,0,0-2.82-3.79q-1.64-1.37-5.27-1.36a9.12,9.12,0,0,0-5.44,1.48,4.3,4.3,0,0,0-2.06,3.55,3.59,3.59,0,0,0,.7,2.23,5.91,5.91,0,0,0,1.94,1.61,13.4,13.4,0,0,0,2.49,1.06c.84.25,2.22.62,4.16,1.11a64.26,64.26,0,0,1,6.57,1.88,19.52,19.52,0,0,1,5,2.49,10.28,10.28,0,0,1,3.23,3.7A11.93,11.93,0,0,1,91,78.89Z"/><path class="cls-3" d="M126.3,56h-9.5V87.21a5.72,5.72,0,0,1-1.2,4,4,4,0,0,1-3.1,1.31,4.08,4.08,0,0,1-3.15-1.32,5.71,5.71,0,0,1-1.22-4V56H98.64a4.78,4.78,0,0,1-3.31-1,3.66,3.66,0,0,1,0-5.23,4.93,4.93,0,0,1,3.27-1H126.3a4.88,4.88,0,0,1,3.35,1,3.38,3.38,0,0,1,1.1,2.61A3.29,3.29,0,0,1,129.64,55,4.92,4.92,0,0,1,126.3,56Z"/><path class="cls-3" d="M159.61,86.91l-2.05-5.39H140.1L138,87a19,19,0,0,1-2,4.35,3.25,3.25,0,0,1-2.78,1.13,4.09,4.09,0,0,1-2.9-1.2,3.68,3.68,0,0,1-1.26-2.73,6.21,6.21,0,0,1,.29-1.81c.2-.63.52-1.5,1-2.61l11-27.89c.31-.8.69-1.76,1.12-2.89a14.85,14.85,0,0,1,1.41-2.8,5.75,5.75,0,0,1,2-1.8,7,7,0,0,1,6,0,5.8,5.8,0,0,1,2,1.78,12.07,12.07,0,0,1,1.26,2.32c.34.83.78,1.94,1.31,3.33l11.22,27.71a14.14,14.14,0,0,1,1.31,4.6,3.8,3.8,0,0,1-1.24,2.74,4.09,4.09,0,0,1-3,1.25,3.81,3.81,0,0,1-1.76-.37,3.5,3.5,0,0,1-1.23-1,9.27,9.27,0,0,1-1.07-1.94C160.21,88.34,159.88,87.58,159.61,86.91ZM142.38,75h12.83l-6.47-17.73Z"/><path class="cls-3" d="M187,73.41h-3.05v13.8a5.74,5.74,0,0,1-1.2,4,4.07,4.07,0,0,1-3.13,1.29,4,4,0,0,1-3.23-1.35,6,6,0,0,1-1.14-4v-33a5.57,5.57,0,0,1,1.26-4.07,5.59,5.59,0,0,1,4.07-1.26H194.7a41.94,41.94,0,0,1,5,.25,12.3,12.3,0,0,1,3.75,1,10.86,10.86,0,0,1,5.94,6.1,12.44,12.44,0,0,1,.8,4.44,10.7,10.7,0,0,1-2.71,7.68q-2.7,2.86-8.21,4.07A16,16,0,0,1,203.7,76a36.6,36.6,0,0,1,3.76,5.12A35.8,35.8,0,0,1,210,86a9.5,9.5,0,0,1,.92,3,3.09,3.09,0,0,1-.54,1.69A3.77,3.77,0,0,1,208.94,92a4.53,4.53,0,0,1-2.16.49,4.25,4.25,0,0,1-2.47-.69,6.74,6.74,0,0,1-1.71-1.74c-.48-.71-1.13-1.74-1.95-3.11l-3.48-5.8a31.35,31.35,0,0,0-3.36-4.86,8.29,8.29,0,0,0-3-2.29A10.37,10.37,0,0,0,187,73.41Zm5-18h-8V67.17h7.8a21.36,21.36,0,0,0,5.27-.55,6.19,6.19,0,0,0,3.27-1.84,5.32,5.32,0,0,0,1.12-3.59A5.41,5.41,0,0,0,198,56,18.48,18.48,0,0,0,192,55.36Z"/><path class="cls-3" d="M243.34,56h-9.49V87.21a5.67,5.67,0,0,1-1.21,4,4,4,0,0,1-3.1,1.31,4.08,4.08,0,0,1-3.15-1.32,5.71,5.71,0,0,1-1.22-4V56h-9.49a4.78,4.78,0,0,1-3.31-1,3.66,3.66,0,0,1,0-5.23,4.94,4.94,0,0,1,3.27-1h27.66a4.88,4.88,0,0,1,3.35,1,3.38,3.38,0,0,1,1.1,2.61A3.29,3.29,0,0,1,246.68,55,4.9,4.9,0,0,1,243.34,56Z"/></g></svg>