<svg id="Layer_1" data-name="Layer 1" xmlns="http://www.w3.org/2000/svg" width="384" height="242" viewBox="0 0 384 242"><defs><style>.cls-1{fill:#d30d0d;}.cls-2{fill:#20231f;}</style></defs><rect class="cls-1" x="47.49" y="55.13" width="289.02" height="131.74"/><path class="cls-2" d="M132,127.7a12.59,12.59,0,0,1-2,7,13.42,13.42,0,0,1-5.88,4.87,22,22,0,0,1-9.17,1.75,20.63,20.63,0,0,1-10.48-2.4,14,14,0,0,1-4.77-4.61,10.51,10.51,0,0,1-1.83-5.61,3.81,3.81,0,0,1,3.9-3.84,3.3,3.3,0,0,1,2.33.88,6.89,6.89,0,0,1,1.63,2.61,16.7,16.7,0,0,0,1.77,3.42,7.09,7.09,0,0,0,2.68,2.27,9.82,9.82,0,0,0,4.54.9,10.23,10.23,0,0,0,6.28-1.8,5.44,5.44,0,0,0,2.42-4.5,4.74,4.74,0,0,0-1.3-3.47,8.47,8.47,0,0,0-3.37-2,56.15,56.15,0,0,0-5.52-1.49,40.69,40.69,0,0,1-7.75-2.54,12.55,12.55,0,0,1-5-3.95,10.29,10.29,0,0,1-1.83-6.23,10.71,10.71,0,0,1,1.94-6.3,12.24,12.24,0,0,1,5.59-4.23,22.88,22.88,0,0,1,8.62-1.48,21.48,21.48,0,0,1,6.84,1,14.5,14.5,0,0,1,4.79,2.61,10.89,10.89,0,0,1,2.78,3.41,7.84,7.84,0,0,1,.88,3.49,4.15,4.15,0,0,1-1.1,2.8,3.49,3.49,0,0,1-2.74,1.24,3.16,3.16,0,0,1-2.27-.75,9.7,9.7,0,0,1-1.68-2.44,11.06,11.06,0,0,0-2.82-3.8c-1.09-.9-2.85-1.36-5.27-1.36a9.14,9.14,0,0,0-5.43,1.48,4.3,4.3,0,0,0-2.07,3.56,3.61,3.61,0,0,0,.7,2.23,6,6,0,0,0,1.94,1.61,12.71,12.71,0,0,0,2.49,1c.84.26,2.22.63,4.16,1.12a64.36,64.36,0,0,1,6.57,1.87,20.19,20.19,0,0,1,5,2.49,10.21,10.21,0,0,1,3.23,3.71A11.86,11.86,0,0,1,132,127.7Z"/><path class="cls-2" d="M167.32,104.82h-9.49V136a5.7,5.7,0,0,1-1.21,4,4,4,0,0,1-3.1,1.3,4.11,4.11,0,0,1-3.15-1.31,5.72,5.72,0,0,1-1.22-4v-31.2h-9.49a4.83,4.83,0,0,1-3.31-1,3.34,3.34,0,0,1-1.08-2.59,3.26,3.26,0,0,1,1.13-2.64,4.84,4.84,0,0,1,3.26-1h27.66a4.83,4.83,0,0,1,3.35,1,3.35,3.35,0,0,1,1.1,2.61,3.3,3.3,0,0,1-1.11,2.59A5,5,0,0,1,167.32,104.82Z"/><path class="cls-2" d="M200.63,135.73l-2-5.39H181.12l-2.05,5.51a19.92,19.92,0,0,1-2,4.35,3.28,3.28,0,0,1-2.79,1.12,4.09,4.09,0,0,1-2.9-1.2,3.68,3.68,0,0,1-1.26-2.72,6.27,6.27,0,0,1,.29-1.82c.2-.62.52-1.49,1-2.61l11-27.89,1.13-2.88a14.28,14.28,0,0,1,1.4-2.8,5.75,5.75,0,0,1,2-1.8,7,7,0,0,1,6,0,5.88,5.88,0,0,1,2,1.77,12.15,12.15,0,0,1,1.26,2.33c.34.83.78,1.94,1.31,3.33l11.22,27.71a13.9,13.9,0,0,1,1.32,4.6,3.81,3.81,0,0,1-1.25,2.74,4.08,4.08,0,0,1-3,1.24,4,4,0,0,1-1.76-.36,3.64,3.64,0,0,1-1.23-1,9.15,9.15,0,0,1-1.07-1.93C201.23,137.16,200.9,136.39,200.63,135.73ZM183.4,123.8h12.83l-6.47-17.72Z"/><path class="cls-2" d="M228,122.22h-3.05V136a5.71,5.71,0,0,1-1.2,4,4.07,4.07,0,0,1-3.13,1.29,4,4,0,0,1-3.22-1.34,5.94,5.94,0,0,1-1.15-4V103a4.57,4.57,0,0,1,5.34-5.33h14.15a44.42,44.42,0,0,1,5,.25,12.76,12.76,0,0,1,3.75,1,11.1,11.1,0,0,1,3.57,2.43,10.65,10.65,0,0,1,2.36,3.68,12.22,12.22,0,0,1,.8,4.44,10.69,10.69,0,0,1-2.71,7.67q-2.7,2.88-8.21,4.08a16,16,0,0,1,4.42,3.63,36.5,36.5,0,0,1,3.76,5.11,37,37,0,0,1,2.58,4.89,9.65,9.65,0,0,1,.93,3,3,3,0,0,1-.55,1.68,3.72,3.72,0,0,1-1.48,1.32,4.65,4.65,0,0,1-2.16.48,4.27,4.27,0,0,1-2.46-.68,6.52,6.52,0,0,1-1.72-1.75c-.48-.7-1.13-1.74-2-3.1l-3.48-5.8a32,32,0,0,0-3.36-4.87,8.2,8.2,0,0,0-3-2.28A10.36,10.36,0,0,0,228,122.22Zm5-18h-8V116h7.8a21.84,21.84,0,0,0,5.27-.54,6.16,6.16,0,0,0,3.27-1.85,5.28,5.28,0,0,0,1.13-3.58,5.44,5.44,0,0,0-3.43-5.19A18.19,18.19,0,0,0,233,104.18Z"/><path class="cls-2" d="M284.36,104.82h-9.49V136a5.74,5.74,0,0,1-1.2,4,4,4,0,0,1-3.11,1.3,4.11,4.11,0,0,1-3.15-1.31,5.72,5.72,0,0,1-1.22-4v-31.2H256.7a4.83,4.83,0,0,1-3.31-1,3.34,3.34,0,0,1-1.08-2.59,3.26,3.26,0,0,1,1.13-2.64,4.84,4.84,0,0,1,3.26-1h27.66a4.83,4.83,0,0,1,3.35,1,3.61,3.61,0,0,1,0,5.2A5,5,0,0,1,284.36,104.82Z"/></svg>