<svg id="Layer_3" data-name="Layer 3" xmlns="http://www.w3.org/2000/svg" width="321.7" height="529.02" viewBox="0 0 321.7 529.02"><defs><style>.cls-1{fill:#4c4c44;}.cls-2{fill:#a0958a;}.cls-3{fill:#5d9944;}.cls-4{fill:#4e7739;}.cls-5{fill:#231f20;}.cls-6{fill:#fff;}.cls-7{fill:#3c2415;}.cls-8{fill:#22130c;}.cls-9{fill:#bfb5aa;}.cls-10{fill:#f9ed32;}</style></defs><ellipse class="cls-1" cx="185.47" cy="509.67" rx="124.28" ry="13.94"/><rect class="cls-2" x="100.47" y="152.27" width="39.83" height="136.85" rx="12" transform="translate(336.16 91.71) rotate(87.74)"/><path class="cls-3" d="M12.24,243.86l-.19-4.93,5.37-.21,16.5-.65a13.41,13.41,0,0,0,8.8-3.88,11.68,11.68,0,0,0,3.38-8.61l-.16-3.92c-.26-6.59-6.16-11.76-13.11-11.49l-16.42.65L11,211l-.2-4.93A8.44,8.44,0,0,1,19,197.6l18.85-.74c10.17-.4,18.81,7.16,19.19,16.8l.75,19c.38,9.64-7.63,17.86-17.81,18.26l-18.85.74A8.42,8.42,0,0,1,12.24,243.86Z"/><path class="cls-4" d="M20.47,247.45l18.85-.74c10.18-.4,18.19-8.62,17.81-18.27l-.75-18.85a16.68,16.68,0,0,1,.7,4.07l.75,19c.38,9.64-7.63,17.86-17.81,18.26l-18.85.74a8.42,8.42,0,0,1-8.93-7.82l-.06-1.46A8.64,8.64,0,0,0,20.47,247.45Z"/><path class="cls-4" d="M15.71,206.59l16.42-.65c6.95-.28,12.85,4.9,13.11,11.49l0,.84a12.65,12.65,0,0,0-12.45-8.1l-16.42.65L11,211c-.06-1.41-.11-2.83-.17-4.25Z"/><rect class="cls-4" x="182.23" y="121.84" width="24.2" height="43.66" transform="matrix(-0.99, -0.13, 0.13, -0.99, 368.64, 311.07)"/><path class="cls-4" d="M189.94,53.37h20.4a43,43,0,0,1,43,43v34.84A12.79,12.79,0,0,1,240.6,144H159.69a12.79,12.79,0,0,1-12.79-12.79V96.42a43,43,0,0,1,43-43Z" transform="translate(385.98 222.26) rotate(-172.64)"/><path class="cls-3" d="M179.67,53.51h11.6A32.09,32.09,0,0,1,223.36,85.6v54.72a1.84,1.84,0,0,1-1.84,1.84H149.42a1.84,1.84,0,0,1-1.84-1.84V85.6a32.09,32.09,0,0,1,32.09-32.09Z" transform="translate(356.87 218.64) rotate(-172.64)"/><path class="cls-5" d="M160.73,126.13c-.81-2.45,6.68-11,16.15-13,11.57-2.51,23.42,5.2,23.26,7.93-.09,1.67-4.6.83-19.2,2.78C166.13,125.79,161.33,127.91,160.73,126.13Z"/><path class="cls-6" d="M164.39,122.17c-.77-1.32,5.66-6.51,13.62-7.87,9.17-1.58,18.22,2.28,17.82,3.81-.24.92-3.86.61-15.33,2.11C168.73,121.76,164.93,123.09,164.39,122.17Z"/><path class="cls-4" d="M52.05,220.47H33.18a8.51,8.51,0,0,0-8.52,7h-.1v-4.94a8.43,8.43,0,0,1,8.62-8.17H52.05c10.17,0,18.5,7.9,18.5,17.55V238C70.55,228.37,62.22,220.47,52.05,220.47Z"/><rect class="cls-7" x="126.33" y="325.06" width="53" height="150.28" rx="12" transform="translate(215.09 824.03) rotate(-167.46)"/><path class="cls-8" d="M137,470.71a12,12,0,0,0,14.32-9.11l27.42-123.26A12,12,0,0,0,172.33,325l10.43,2.32a12,12,0,0,1,9.11,14.32L164.45,464.89A12,12,0,0,1,150.13,474l-28.31-6.3a11.81,11.81,0,0,1-2.71-1Z"/><polygon class="cls-4" points="160.6 460.25 158 452.97 152.81 458.7 149.88 450.5 143.43 457.61 140.85 450.39 136.31 455.4 134.38 450.01 129.93 454.91 126.12 444.24 119.71 451.31 116.18 441.43 110.55 469.62 162.56 480 168.17 451.91 160.6 460.25"/><rect x="77.1" y="465.46" width="89.89" height="27.07" rx="3.53" transform="translate(137.15 973.05) rotate(-167.46)"/><path class="cls-7" d="M225.64,481l28.44-5.67a12,12,0,0,0,9.42-14.12L235.43,317.58a12,12,0,0,0-14.12-9.42l-28.44,5.68A12,12,0,0,0,183.45,328L211.53,471.6A12,12,0,0,0,225.64,481Z"/><path class="cls-8" d="M239.15,475.39a12,12,0,0,0,9.42-14.12L221,320.38a12,12,0,0,0-11.24-9.63l10.48-2.09a12,12,0,0,1,14.12,9.42L261.93,459a12,12,0,0,1-9.42,14.12l-28.44,5.68a12.24,12.24,0,0,1-2.88.21Z"/><polygon class="cls-4" points="216.57 466.96 219.17 459.68 224.37 465.41 227.29 457.21 233.75 464.32 236.32 457.1 240.87 462.11 242.79 456.72 247.24 461.62 251.05 450.95 257.47 458.02 260.99 448.14 266.62 476.32 214.61 486.71 209 458.62 216.57 466.96"/><rect x="184.38" y="482.2" width="89.89" height="27.07" rx="3.53" transform="translate(551.28 936.97) rotate(168.71)"/><path class="cls-9" d="M140.46,151.9h97.23a0,0,0,0,1,0,0V282.62a48.28,48.28,0,0,1-48.28,48.28h-.67a48.28,48.28,0,0,1-48.28-48.28V151.9A0,0,0,0,1,140.46,151.9Z" transform="translate(378.15 482.81) rotate(180)"/><path class="cls-2" d="M180.43,152.61a49.22,49.22,0,0,1,8.2-.71h.67a48.29,48.29,0,0,1,48.28,48.29V330.9H220.51V200.19A48.3,48.3,0,0,0,180.43,152.61Z"/><path class="cls-5" d="M145.84,31.7c-6.18-3.41-9.74-7.41-9.25-11.25,1-7.92,18.91-12.13,39.94-9.41l.53.07a119.86,119.86,0,0,1,34-.12A136.91,136.91,0,0,1,225,13.51l1.1.12c25.56,3.31,44.34,21,42,39.44S243,83.84,217.45,80.54c-17.18-2.22-31.29-10.93-38-22l-.93.31c-20.18,6.63-38.51,5.85-41-1.74-.72-2.22,0-4.78,1.9-7.45-2.5-1.46-4.06-3.27-4.39-5.4C134.43,40.07,138.63,35.54,145.84,31.7Z"/><ellipse class="cls-6" cx="247.68" cy="32.58" rx="4.12" ry="10.25" transform="translate(82.68 220.15) rotate(-56.16)"/><path class="cls-10" d="M205.45,85.42c-8.31,4.06-17.68,2-20.92-4.66l30.11-14.7C217.88,72.7,213.77,81.37,205.45,85.42Z"/><circle class="cls-5" cx="197.36" cy="80.36" r="1.81"/><path class="cls-10" d="M152.53,85.39c8.74,3,17.78-.19,20.19-7.17L141.05,67.28C138.64,74.26,143.78,82.37,152.53,85.39Z"/><circle class="cls-5" cx="151.16" cy="75.25" r="1.81"/><rect class="cls-9" x="113.62" y="172.98" width="39.83" height="136.85" rx="12" transform="translate(374.94 107.87) rotate(90)"/><path class="cls-2" d="M77.11,252.91H190a12,12,0,0,0,12-12v8.41a12,12,0,0,1-12,12H77.11a12,12,0,0,1-12-12v-8.41A12,12,0,0,0,77.11,252.91Z"/><polygon class="cls-4" points="84.04 256.92 90.67 253.89 84.04 250.87 91.5 247.47 83.27 243.72 89.84 240.72 84.04 238.07 88.95 235.83 83.27 233.25 92.99 228.81 84.8 225.08 93.8 220.98 65.06 220.98 65.06 261.32 93.7 261.32 84.04 256.92"/><path class="cls-3" d="M24.56,260.3v-4.94h21.9a13.36,13.36,0,0,0,8.94-3.52,11.69,11.69,0,0,0,3.71-8.48v-3.91c0-6.6-5.69-12-12.65-12H24.56v-4.94a8.43,8.43,0,0,1,8.62-8.17H52.05c10.17,0,18.5,7.9,18.5,17.55v19c0,9.65-8.33,17.55-18.5,17.55H33.18A8.43,8.43,0,0,1,24.56,260.3Z"/></svg>