<svg id="Layer_3" data-name="Layer 3" xmlns="http://www.w3.org/2000/svg" width="321.7" height="529.02" viewBox="0 0 321.7 529.02"><defs><style>.cls-1{fill:#bfb5aa;}.cls-2{fill:#a0958a;}.cls-3{fill:#4e7739;}.cls-4{fill:#5d9944;}.cls-5{fill:#231f20;}.cls-6{fill:#fff;}.cls-7{fill:#22130c;}.cls-8{fill:#3c2415;}.cls-9{fill:#c02026;}.cls-10{fill:#345729;}.cls-11{fill:#4c4c44;}</style></defs><rect class="cls-1" x="71.16" y="168.82" width="29.38" height="100.95" rx="12" transform="translate(-138.15 146.61) rotate(-50.64)"/><path class="cls-2" d="M59.05,186.34l64.37,52.79a8.87,8.87,0,0,1,1.23,12.45l3.93-4.79a8.87,8.87,0,0,0-1.23-12.46L63,181.54a8.88,8.88,0,0,0-12.46,1.23l-3.94,4.8A8.88,8.88,0,0,1,59.05,186.34Z"/><polygon class="cls-3" points="64.88 187.29 67.25 192.12 62.05 190.74 64.72 196.18 58.27 194.47 60.62 199.25 56.06 198.04 57.82 201.62 53.37 200.44 56.84 207.51 50.43 205.81 53.64 212.36 37.25 198.91 56.12 175.91 72.45 189.3 64.88 187.29"/><path class="cls-4" d="M32.54,157.54l-2.31,2.82,3.07,2.52,9.42,7.72a9.92,9.92,0,0,1,3.45,6.19,8.6,8.6,0,0,1-1.85,6.58l-1.83,2.23a9.13,9.13,0,0,1-12.83.92l-9.37-7.68-3.12-2.56-2.31,2.82a6.21,6.21,0,0,0,1.1,8.69l10.76,8.82c5.8,4.76,14.25,4.16,18.76-1.35l8.9-10.85c4.52-5.51,3.46-13.91-2.34-18.67l-10.76-8.82A6.22,6.22,0,0,0,32.54,157.54Z"/><path class="cls-5" d="M162.06,92.48c1-4.36.62-7.73-1.4-9.12-4.18-2.86-13.72,3.8-21.33,14.88l-.18.28a75.82,75.82,0,0,0-14.43,16,87.25,87.25,0,0,0-4.7,7.65l-.41.57c-9.24,13.47-8.84,29.8.9,36.48s25.11,1.18,34.35-12.29c6.22-9.05,8.06-19.4,5.66-27.24l.54-.3c11.66-6.73,19-15.72,16.49-20.08-.75-1.28-2.27-2-4.33-2.25a5.09,5.09,0,0,0-.69-4.36C170.83,90.63,166.92,90.7,162.06,92.48Z"/><ellipse class="cls-6" cx="118.52" cy="144.87" rx="2.61" ry="6.49" transform="translate(-22.77 22.11) rotate(-9.73)"/><path class="cls-7" d="M67.4,411l31.16-34L77.73,359.79,47.55,392.73a7.62,7.62,0,0,0,.52,10.74l9.77,8.88A7.62,7.62,0,0,0,67.4,411Z"/><path class="cls-8" d="M72.34,415.91l31.15-34L82.66,364.74,52.49,397.68A7.62,7.62,0,0,0,53,408.42l9.77,8.88A7.63,7.63,0,0,0,72.34,415.91Z"/><polygon class="cls-3" points="47.41 398.57 52.11 397.15 51.14 401.95 56.42 400.36 55.23 406.32 59.88 404.92 59.03 409.13 62.51 408.07 61.69 412.19 68.56 410.11 67.37 416.04 73.73 414.12 61.49 427.6 36.61 405 48.82 391.57 47.41 398.57"/><rect x="9.07" y="407.32" width="56.96" height="17.15" rx="3.53" transform="translate(-214.34 748.96) rotate(-137.74)"/><ellipse class="cls-9" cx="90.09" cy="371.39" rx="5.62" ry="16.98" transform="translate(-254.21 205.54) rotate(-50.64)"/><ellipse class="cls-6" cx="90.09" cy="371.39" rx="2.19" ry="8.59" transform="translate(-254.21 205.54) rotate(-50.64)"/><path class="cls-7" d="M260.83,373.42l-48-50.81,20.83-17.16,47,49.74a7.62,7.62,0,0,1-.52,10.74l-9.77,8.87A7.63,7.63,0,0,1,260.83,373.42Z"/><path class="cls-8" d="M255.89,378.37l-47.95-50.81,20.83-17.16,47,49.74a7.63,7.63,0,0,1-.51,10.74l-9.77,8.88A7.65,7.65,0,0,1,255.89,378.37Z"/><polygon class="cls-3" points="280.81 361.02 276.12 359.6 277.09 364.41 271.81 362.81 273 368.78 268.35 367.37 269.19 371.58 265.72 370.53 266.54 374.64 259.67 372.57 260.86 378.5 254.49 376.57 266.74 390.06 291.62 367.46 279.41 354.02 280.81 361.02"/><rect x="262.2" y="369.78" width="56.96" height="17.15" rx="3.53" transform="translate(-178.89 293.8) rotate(-42.26)"/><ellipse class="cls-9" cx="221.1" cy="316.6" rx="17.12" ry="5.62" transform="translate(-155.44 230.96) rotate(-42.26)"/><ellipse class="cls-6" cx="221.1" cy="316.6" rx="8.66" ry="2.19" transform="translate(-155.44 230.96) rotate(-42.26)"/><path class="cls-3" d="M253.31,278.17a21.39,21.39,0,0,0-3.43-4.72c-6.1-4.81-13.79-3.86-21.15-3.88,3-1.05,5.74-2.44,7.52-5.3a10.41,10.41,0,0,0,1.17-5.68,13.79,13.79,0,0,0-2.46-3.33c-3.11-3.28-7.7-6.54-9.48-10.79a11.39,11.39,0,0,0-3.81-3.22,19.32,19.32,0,0,1-3.83-1.49c-.2-5.26-1.9-9.88-7.25-12.84-.46-.15-.94-.3-1.42-.43-.08-.82-.12-1.65-.12-2.5.58-12.53,15.79-13.79,22.76-22.66,2.54-3.17-3.8-8.88-5.7-8.24-9.68,4.2-21.59,9.8-33.14,11.24-.59-4.6-1.59-9-5-12.27-2.64-2.47-5.75-1.48-8.9.57-1.58,1-3.16,2.31-4.72,3.55a37.84,37.84,0,0,1-3.66,2.46,25,25,0,0,1-3.12-3.83c-6.1-8.06-5.46-20.73-14.34-27.07-.63,11.41-7,29.15-20.27,22.81-9.51-4.43-17.11-10.14-27.89-8.24-6.33,1.27-10.14,7.61-9.5,13.95.63,11.29,9.94,21.34,7.69,32.61l-.09,0C91.58,230.38,82.35,220,71,218.33c-6.25-1.21-12.91,2-14.74,8.2C53.43,237.09,58.42,245.18,62,255c5.1,13.83-13.14,18.53-24.56,18.13,5.51,9.41,18.19,9.93,25.66,16.73a24.7,24.7,0,0,1,3.67,3.63l.17.21a40,40,0,0,1-2.76,3.39c-1.38,1.44-2.81,2.9-4,4.38-2.33,2.95-3.59,6-1.38,8.81,2.87,3.59,7,5,11.4,6-2.53,11.28-9.12,22.53-14.15,31.71-.8,1.84,4.31,8.67,7.69,6.43,9.47-6.14,12.11-21.17,24.64-20.62a27,27,0,0,1,2.74.4c.11.59.22,1.18.36,1.76,2.43,5.52,6.79,7.65,11.93,8.36a19.35,19.35,0,0,1,1,3.62,11.36,11.36,0,0,0,2.86,4.08c4.07,2.16,6.9,7,9.89,10.42a13.68,13.68,0,0,0,3.09,2.75,10.31,10.31,0,0,0,5.76-.65c3.35-1.68,5-4.71,6.4-8-.54,7.75-2.66,15.85,1.84,22.75a21.4,21.4,0,0,0,4.39,3.85c1.9,1.26,3.81-1.25,5.81-2.34a26.14,26.14,0,0,0,8.46-11c.63-1.4,1.19-2.85,1.72-4.33a60.61,60.61,0,0,1,2.68-8c8,8.08,18.3,13.62,28.91,7.1a11.13,11.13,0,0,1,4.64.1c9,2.07,16.2,14.3,25,17,8.06,2.11,10-8.23,10.5-17.5,9.36.36,20.11-.54,18.72-8.86-1.9-9-13.43-17.34-14.67-26.46a10.93,10.93,0,0,1,.32-4.63c7.56-10.11,2.72-21-4.77-29.78a58.89,58.89,0,0,1,8.24-1.94c1.52-.4,3-.82,4.47-1.32a26.24,26.24,0,0,0,11.75-7.43C251.72,281.86,254.4,280.18,253.31,278.17Z"/><path class="cls-10" d="M217.37,277.33a14.54,14.54,0,0,0-2.29-3.15c-4.07-3.2-9.19-2.57-14.1-2.58a8.9,8.9,0,0,0,5-3.54,6.88,6.88,0,0,0,.78-3.79,9.22,9.22,0,0,0-1.64-2.21c-2.07-2.19-5.13-4.37-6.32-7.2a7.67,7.67,0,0,0-2.53-2.15,12.74,12.74,0,0,1-2.56-1c-.14-3.5-1.27-6.58-4.83-8.55-.31-.11-.63-.21-.95-.3-.05-.54-.08-1.1-.08-1.66.39-8.35,10.53-9.19,15.17-15.11,1.69-2.11-2.53-5.91-3.8-5.49-6.45,2.8-14.39,6.54-22.09,7.49-.39-3.06-1.06-6-3.33-8.18-1.76-1.64-3.84-1-5.94.38-1.05.69-2.1,1.55-3.14,2.37a26.74,26.74,0,0,1-2.44,1.64,16.43,16.43,0,0,1-2.08-2.55c-4.07-5.37-3.64-13.82-9.56-18-.42,7.61-4.64,19.43-13.51,15.21-6.34-3-11.41-6.76-18.59-5.49-4.23.84-6.76,5.07-6.34,9.29.42,7.53,6.63,14.23,5.13,21.74l-.06,0c-7.72,1-13.88-6-21.42-7.06-4.16-.8-8.6,1.34-9.83,5.47-1.91,7,1.42,12.43,3.79,19,3.4,9.22-8.76,12.35-16.37,12.09,3.67,6.27,12.12,6.61,17.1,11.15A16,16,0,0,1,93,287.56l.11.15A25.4,25.4,0,0,1,91.27,290c-.91,1-1.87,1.93-2.64,2.91-1.55,2-2.4,4-.92,5.88,1.92,2.39,4.67,3.34,7.6,4-1.69,7.52-6.08,15-9.43,21.15-.54,1.22,2.87,5.77,5.12,4.28,6.31-4.09,8.07-14.11,16.43-13.75a17.71,17.71,0,0,1,1.82.27q.1.6.24,1.17c1.62,3.68,4.53,5.1,8,5.58a12.31,12.31,0,0,1,.67,2.41,7.57,7.57,0,0,0,1.91,2.72c2.71,1.44,4.6,4.68,6.59,6.94a9.16,9.16,0,0,0,2.06,1.84,7,7,0,0,0,3.84-.43c2.23-1.12,3.32-3.14,4.26-5.33-.35,5.17-1.77,10.56,1.23,15.16a14.19,14.19,0,0,0,2.93,2.57c1.26.84,2.54-.83,3.87-1.56a17.46,17.46,0,0,0,5.64-7.35c.42-.94.79-1.9,1.15-2.89a38.74,38.74,0,0,1,1.79-5.36c5.36,5.39,12.19,9.08,19.26,4.74a7.34,7.34,0,0,1,3.1.06c6,1.38,10.8,9.53,16.68,11.34,5.37,1.41,6.65-5.49,7-11.67,6.25.25,13.41-.35,12.49-5.9-1.27-6-8.95-11.56-9.79-17.64a7.36,7.36,0,0,1,.22-3.08c5-6.74,1.82-14-3.18-19.86a39.09,39.09,0,0,1,5.49-1.29c1-.27,2-.55,3-.88a17.44,17.44,0,0,0,7.83-4.95C216.31,279.79,218.09,278.67,217.37,277.33Z"/><path class="cls-3" d="M217.38,283.32a13.48,13.48,0,0,0-2.15-2.94c-3.81-3-8.61-2.42-13.22-2.43a8.39,8.39,0,0,0,4.71-3.32,6.41,6.41,0,0,0,.72-3.54,8.34,8.34,0,0,0-1.53-2.08c-1.95-2.05-4.81-4.09-5.92-6.74a7.3,7.3,0,0,0-2.38-2,12,12,0,0,1-2.4-.93c-.13-3.29-1.19-6.17-4.53-8-.29-.1-.59-.19-.88-.27-.05-.51-.08-1-.08-1.56.36-7.83,9.87-8.62,14.22-14.17,1.59-2-2.37-5.54-3.56-5.14-6,2.63-13.49,6.12-20.71,7-.37-2.87-1-5.62-3.12-7.67-1.65-1.54-3.6-.92-5.57.36-1,.64-2,1.44-2.95,2.22a23.3,23.3,0,0,1-2.28,1.53,15,15,0,0,1-1.95-2.39c-3.81-5-3.42-12.95-9-16.91-.4,7.12-4.36,18.21-12.67,14.25-5.94-2.77-10.69-6.33-17.42-5.15-4,.8-6.34,4.76-5.94,8.72.39,7.05,6.21,13.33,4.8,20.37l0,0c-7.24.92-13-5.57-20.08-6.61-3.91-.76-8.07,1.25-9.21,5.12-1.8,6.6,1.32,11.65,3.55,17.82,3.19,8.64-8.21,11.58-15.35,11.33,3.44,5.88,11.37,6.2,16,10.45a15,15,0,0,1,2.3,2.27,1.13,1.13,0,0,1,.1.13,24.26,24.26,0,0,1-1.72,2.12c-.86.9-1.75,1.81-2.48,2.74-1.45,1.84-2.25,3.72-.86,5.5,1.79,2.24,4.38,3.13,7.12,3.76-1.58,7.05-5.7,14.08-8.84,19.81-.5,1.15,2.69,5.42,4.8,4,5.92-3.84,7.57-13.23,15.4-12.88a16,16,0,0,1,1.71.24c.07.38.14.74.23,1.1,1.52,3.46,4.24,4.79,7.45,5.23a11.68,11.68,0,0,1,.63,2.26,7.3,7.3,0,0,0,1.79,2.55c2.55,1.35,4.31,4.39,6.18,6.51a8.69,8.69,0,0,0,1.93,1.72,6.45,6.45,0,0,0,3.6-.41c2.09-1,3.12-2.94,4-5-.33,4.85-1.66,9.9,1.15,14.22a13.19,13.19,0,0,0,2.74,2.4c1.19.79,2.39-.78,3.63-1.46a16.35,16.35,0,0,0,5.29-6.89c.39-.88.74-1.78,1.08-2.71a36.44,36.44,0,0,1,1.67-5c5,5.05,11.44,8.51,18.06,4.44a6.73,6.73,0,0,1,2.9.06C184,338.66,188.49,346.3,194,348c5,1.32,6.24-5.15,6.56-10.94,5.85.23,12.56-.33,11.7-5.53-1.19-5.65-8.39-10.84-9.17-16.54a7,7,0,0,1,.2-2.89c4.72-6.32,1.7-13.11-3-18.61a37.05,37.05,0,0,1,5.15-1.21c.95-.25,1.88-.52,2.79-.83a16.36,16.36,0,0,0,7.34-4.64C216.38,285.63,218.06,284.58,217.38,283.32Z"/><path class="cls-10" d="M214.14,283.62a12.49,12.49,0,0,0-2-2.81c-3.63-2.86-8.2-2.29-12.58-2.31a7.89,7.89,0,0,0,4.47-3.15,6.18,6.18,0,0,0,.7-3.38,8.12,8.12,0,0,0-1.47-2c-1.85-1.95-4.57-3.89-5.63-6.42a7,7,0,0,0-2.27-1.92,11,11,0,0,1-2.28-.88c-.12-3.13-1.13-5.88-4.31-7.64l-.84-.26a14.36,14.36,0,0,1-.08-1.48c.35-7.45,9.4-8.21,13.54-13.49,1.51-1.88-2.26-5.27-3.39-4.9-5.76,2.51-12.84,5.84-19.71,6.69-.35-2.73-.95-5.35-3-7.3-1.57-1.47-3.42-.88-5.29.34-.94.61-1.88,1.38-2.81,2.11A22.32,22.32,0,0,1,165,236.3a14,14,0,0,1-1.86-2.27c-3.63-4.8-3.25-12.34-8.53-16.1-.38,6.78-4.15,17.34-12.06,13.57-5.66-2.64-10.18-6-16.59-4.9-3.77.75-6,4.52-5.66,8.29.38,6.72,5.92,12.7,4.58,19.4l0,0c-6.9.88-12.39-5.3-19.12-6.29-3.72-.72-7.67,1.19-8.77,4.88-1.7,6.28,1.27,11.09,3.38,17,3,8.23-7.82,11-14.61,10.78,3.28,5.6,10.82,5.91,15.27,10a14.77,14.77,0,0,1,2.18,2.15,1.13,1.13,0,0,1,.1.13,25.55,25.55,0,0,1-1.64,2c-.82.85-1.67,1.72-2.36,2.6-1.39,1.76-2.14,3.55-.82,5.24,1.71,2.14,4.17,3,6.78,3.58-1.5,6.71-5.43,13.4-8.42,18.86-.47,1.1,2.56,5.16,4.58,3.83,5.63-3.65,7.2-12.6,14.65-12.27a14.21,14.21,0,0,1,1.63.24c.07.35.13.7.22,1,1.44,3.28,4,4.55,7.1,5a11.67,11.67,0,0,1,.59,2.15,7,7,0,0,0,1.71,2.43c2.42,1.28,4.1,4.18,5.88,6.2a7.87,7.87,0,0,0,1.84,1.63,6.26,6.26,0,0,0,3.43-.38c2-1,3-2.8,3.8-4.75-.32,4.61-1.58,9.42,1.1,13.53a12.51,12.51,0,0,0,2.61,2.29c1.13.75,2.27-.75,3.46-1.39a15.66,15.66,0,0,0,5-6.56q.56-1.26,1-2.58a35.89,35.89,0,0,1,1.6-4.79c4.78,4.81,10.88,8.11,17.19,4.23a6.56,6.56,0,0,1,2.76.06c5.33,1.23,9.64,8.51,14.89,10.12,4.79,1.25,5.94-4.9,6.24-10.41,5.57.21,12-.32,11.14-5.27-1.13-5.37-8-10.32-8.73-15.74a6.62,6.62,0,0,1,.19-2.75c4.5-6,1.62-12.49-2.83-17.73a36,36,0,0,1,4.9-1.15c.9-.23,1.79-.49,2.66-.78a15.62,15.62,0,0,0,7-4.42C213.2,285.81,214.79,284.81,214.14,283.62Z"/><path class="cls-2" d="M242,172.38h1.2a12,12,0,0,1,12,12v62.68a12,12,0,0,1-12,12H230.15A.15.15,0,0,1,230,259V184.4a12,12,0,0,1,12-12Z" transform="translate(299.32 -103.94) rotate(58.41)"/><path class="cls-4" d="M303.66,190.77,302,188.11l-2.91,1.79-8.91,5.48a8.51,8.51,0,0,1-6,1.06,7.4,7.4,0,0,1-4.82-3.34l-1.3-2.11a7.84,7.84,0,0,1,2.85-10.68l8.87-5.45,2.95-1.82-1.64-2.66a5.33,5.33,0,0,0-7.36-1.55l-10.19,6.26c-5.49,3.38-7.37,10.4-4.16,15.61L275.72,201c3.21,5.21,10.32,6.71,15.82,3.33L301.72,198A5.34,5.34,0,0,0,303.66,190.77Z"/><path class="cls-3" d="M300.6,195.57l-10.19,6.26c-5.49,3.38-12.61,1.88-15.81-3.33l-6.26-10.18a10.12,10.12,0,0,0,1.07,2.38L275.72,201c3.21,5.21,10.32,6.71,15.82,3.33L301.72,198a5.34,5.34,0,0,0,1.94-7.27l-.48-.79A5.48,5.48,0,0,1,300.6,195.57Z"/><path class="cls-3" d="M288.68,172.38l-8.87,5.45A7.84,7.84,0,0,0,277,188.51l.28.46a8,8,0,0,1,3.69-8.66l8.87-5.45,2.95-1.82-1.41-2.3Z"/><ellipse class="cls-9" cx="207.65" cy="237.13" rx="5.62" ry="13.31" transform="translate(-107.38 247.32) rotate(-50.64)"/><ellipse class="cls-6" cx="207.65" cy="237.13" rx="2.19" ry="6.74" transform="translate(-107.38 247.32) rotate(-50.64)"/><ellipse class="cls-11" cx="160.85" cy="478.99" rx="124.28" ry="13.94"/><path class="cls-4" d="M185.27,26.69V44.08H202v4.44H185.27V66.06h-4.73V48.52H163.81V44.08h16.73V26.69Z"/><path class="cls-4" d="M237,23.44H218.65L216.8,35.79a26.85,26.85,0,0,1,3.92-.29,20.29,20.29,0,0,1,10.36,2.59A13.71,13.71,0,0,1,238,50.45c0,9.4-7.47,16.43-17.91,16.43a23.58,23.58,0,0,1-12-3l1.63-5A21.6,21.6,0,0,0,220,61.62c6.14,0,11.39-4,11.39-10.43-.07-6.22-4.21-10.66-13.83-10.66a50.25,50.25,0,0,0-6.67.52L214,18h23Z"/><path class="cls-4" d="M278.22,41.49c0,16.36-6.07,25.39-16.73,25.39-9.4,0-15.76-8.81-15.91-24.72,0-16.13,7-25,16.73-25C272.44,17.14,278.22,26.17,278.22,41.49Zm-26.13.74c0,12.51,3.85,19.61,9.77,19.61,6.66,0,9.84-7.77,9.84-20.05,0-11.84-3-19.61-9.77-19.61C256.24,22.18,252.09,29.13,252.09,42.23Z"/></svg>