<svg id="Layer_2" data-name="Layer 2" xmlns="http://www.w3.org/2000/svg" width="242" height="608.17" viewBox="0 0 242 608.17"><defs><style>.cls-1{fill:#f7941d;}.cls-2{fill:#ffdfb4;}.cls-3{fill:#f7d2a6;}</style></defs><rect class="cls-1" x="79.39" y="214.26" width="39.83" height="136.85" rx="12" transform="translate(391.68 217.18) rotate(96.73)"/><rect class="cls-2" x="162.63" y="269.37" width="48.85" height="40.75" rx="12" transform="matrix(1, 0.02, -0.02, 1, 6.12, -3.86)"/><path class="cls-3" d="M207.62,295.08l-24.85-.52A12,12,0,0,1,171,282.31l.27-13a12,12,0,0,0-8.48,11.21l-.35,16.74a12,12,0,0,0,11.75,12.25l24.84.53a12,12,0,0,0,12.25-11.75l.08-3.78A11.78,11.78,0,0,1,207.62,295.08Z"/></svg>