<svg id="Layer_1" data-name="Layer 1" xmlns="http://www.w3.org/2000/svg" width="352" height="546" viewBox="0 0 352 546"><defs><style>.cls-1{fill:#4c4c44;}.cls-2{fill:#3c2415;}.cls-3{fill:#22130c;}.cls-4{fill:#4e7739;}.cls-5{fill:#5c9b45;}.cls-6{fill:#f7941d;}.cls-7{fill:#e9c61d;}.cls-8{fill:#ffde17;}.cls-9{fill:#808285;}.cls-10{fill:#afaeaf;}.cls-11{fill:#bcbec0;}.cls-12{fill:#e48225;}.cls-13{fill:#231f20;}.cls-14{fill:#d7df23;}.cls-15{fill:#b2b335;}.cls-16{fill:#e0dae0;}.cls-17{fill:#282626;}.cls-18{fill:#3f3d3e;}.cls-19{fill:#fff;}.cls-20{fill:#f9ed32;}</style></defs><ellipse class="cls-1" cx="180.66" cy="410.01" rx="124.28" ry="13.94"/><path class="cls-2" d="M304.83,486.89,274.7,501.27c-7.77,3.71-17.62,3-21.53-1.79l-74.89-91.23c-3.91-4.77,1.32-9.65,11.18-10.81L227.72,393c7.71-.9,16.44,1.63,19.7,5.6l62.34,75.93C313,478.46,310.9,484,304.83,486.89Z"/><path class="cls-3" d="M289.13,491.76c-7,3.3-16.06,2.41-19.77-2.11l-70.94-86.41c-3.15-3.84-.28-7.71,6.17-9.39l-14.94,1.68c-9.82,1.1-15,5.93-11.13,10.68l74.58,90.84c3.89,4.75,13.7,5.53,21.44,1.89l30-14.11a14.49,14.49,0,0,0,2.48-1.47Z"/><path d="M308.23,494.38,256.18,506a3,3,0,0,1-3.74-3.3l.95-49.44a4.51,4.51,0,0,1,3.76-4.34l50.37-6.16c1.67-.21,3,1.19,3.07,3.12l.69,44.15A4.43,4.43,0,0,1,308.23,494.38Z"/><path class="cls-2" d="M101.74,501.34,55.26,493.9c-6.92-1.11-9.15-6.12-5-11.1l69.66-84.57c3.24-3.93,11-6.66,17.42-6.09l42.65,3.8c6.77.61,9.93,4.45,6.95,8.58l-64.63,89.33C118.44,499.13,109.15,502.53,101.74,501.34Z"/><path class="cls-3" d="M59.14,486.13l69.26-85.61c3.22-4,12.45-6.59,20.62-5.86l36,3.25a19.66,19.66,0,0,0-8-2.23l-36.43-3.24c-8.06-.72-17.23,1.88-20.46,5.81l-69.64,84.6c-4.1,5-.4,10.23,8.36,11.63l.88.14C57.11,492.29,56.69,489.16,59.14,486.13Z"/><path d="M109.05,502.55l-59.82-9.82a3.66,3.66,0,0,1-3-3.21l-2.85-42.38a2.71,2.71,0,0,1,2.67-3h62.72c2.38,0,4.33,1.67,4.33,3.73v52C113.14,501.73,111.3,502.92,109.05,502.55Z"/><rect class="cls-4" x="170.65" y="195.12" width="24.2" height="43.66"/><path class="cls-4" d="M131.33,126.27H234.16A1.84,1.84,0,0,1,236,128.1v56.75a32.09,32.09,0,0,1-32.09,32.09H161.58a32.09,32.09,0,0,1-32.09-32.09V128.1a1.84,1.84,0,0,1,1.84-1.84Z"/><path class="cls-5" d="M141.56,128.3h91.89a1.84,1.84,0,0,1,1.84,1.84v54.72a32.09,32.09,0,0,1-32.09,32.09H171.82a32.09,32.09,0,0,1-32.09-32.09V130.13a1.84,1.84,0,0,1,1.84-1.84Z"/><path class="cls-6" d="M161.58,227.37H204a48.28,48.28,0,0,1,48.28,48.28V406.37a0,0,0,0,1,0,0H113.3a0,0,0,0,1,0,0V275.65a48.28,48.28,0,0,1,48.28-48.28Z"/><path class="cls-7" d="M176,59.28h14.83a45.84,45.84,0,0,1,45.84,45.84v29.05a3,3,0,0,1-3,3H130.2a0,0,0,0,1,0,0v-32A45.84,45.84,0,0,1,176,59.28Z"/><path class="cls-8" d="M185.14,57.89h3.46a45.84,45.84,0,0,1,45.84,45.84v20.74a3,3,0,0,1-3,3H139.3a0,0,0,0,1,0,0V103.73a45.84,45.84,0,0,1,45.84-45.84Z"/><rect class="cls-7" x="114.83" y="125.66" width="137.26" height="15" rx="7.5"/><path class="cls-8" d="M242.86,140.61l-116.15,0c-4.43,0-8-2.87-8-6.38h0c0-3.51,3.62-6.38,8-6.38l116.15,0c4.43,0,8.05,2.87,8.05,6.38h0C250.9,137.74,247.28,140.61,242.86,140.61Z"/><circle class="cls-7" cx="180.66" cy="64.24" r="19.93"/><circle class="cls-7" cx="180.66" cy="64.24" r="9.85"/><circle class="cls-9" cx="183.44" cy="59.28" r="22.72"/><circle class="cls-10" cx="182.05" cy="61.33" r="11.23"/><circle class="cls-11" cx="183.44" cy="59.28" r="11.23"/><path class="cls-12" d="M123.71,275.11a48.29,48.29,0,0,1,40-47.58h-2.34a48.29,48.29,0,0,0-48.27,48.29l0,130.72h10.57Z"/><rect class="cls-13" x="113.14" y="389.11" width="139.13" height="18.02"/><path class="cls-14" d="M140.46,232.23c-2.36,23.33-4.18,48.06-5.2,74.06-1.13,28.8-1.17,56.14-.43,81.83h19.46a654.78,654.78,0,0,1,1.89-160.43,47.85,47.85,0,0,0-15.72,4.55Z"/><path class="cls-15" d="M138.2,384.81c-.74-25.69-.7-53,.43-81.83,1-25.28,2.74-49.34,5-72.09-1.16.46-2.23.94-3.2,1.41-2.36,23.33-4.18,48.05-5.2,74.06-1.13,28.8-1.17,56.14-.43,81.83h19.46c-.13-1.11-.25-2.24-.37-3.38Z"/><path class="cls-14" d="M208.46,227.58c1.54,22,2.49,45.39,2.59,69.95.13,32.26-1.22,62.54-3.5,90.57h14.76c1.9-30.27,2.84-62.51,2.38-96.53q-.44-31.26-2.26-60.31a39.94,39.94,0,0,0-14-3.68Z"/><path class="cls-14" d="M211.05,297.53c-.35,4.34-60.73-1.28-60.44-3.43l-.33,16.37c20.71,3.91,41,5.5,60.7,4.09Z"/><circle class="cls-16" cx="183.44" cy="59.28" r="4.3"/><path class="cls-13" d="M169.2,297.24c0,2.6.06,5.38.27,8.31s.48,5.5.82,8a123.43,123.43,0,0,0,25.76,1.51,81.7,81.7,0,0,0,0-8.59c-.15-2.67-.42-5.16-.77-7.42q-6.15-.21-12.67-.65Q175.71,297.92,169.2,297.24Z"/><path class="cls-17" d="M172.18,299.17c0,2.05,0,4.25.21,6.56s.38,4.35.65,6.32a95.78,95.78,0,0,0,10.43,1.15,97.38,97.38,0,0,0,9.93.05,61.24,61.24,0,0,0,0-6.79c-.12-2.11-.34-4.08-.61-5.86q-4.86-.18-10-.52C179.14,299.83,175.6,299.52,172.18,299.17Z"/><path class="cls-13" d="M175,301.06c0,1.51,0,3.13.16,4.83s.28,3.2.48,4.65a71.7,71.7,0,0,0,15,.89,46.24,46.24,0,0,0,0-5c-.08-1.56-.24-3-.44-4.32q-3.58-.12-7.38-.38C180.1,301.55,177.5,301.32,175,301.06Z"/><circle class="cls-18" cx="148.59" cy="243.91" r="3.45"/><circle class="cls-13" cx="149.33" cy="243.1" r="3.45"/><circle class="cls-18" cx="216.55" cy="246.67" r="3.45"/><circle class="cls-13" cx="217.3" cy="245.86" r="3.45"/><circle class="cls-18" cx="215.73" cy="380.24" r="3.45"/><circle class="cls-13" cx="216.48" cy="379.43" r="3.45"/><circle class="cls-18" cx="144.03" cy="380.36" r="3.45"/><circle class="cls-13" cx="144.78" cy="379.55" r="3.45"/><circle class="cls-18" cx="144.27" cy="301.82" r="3.45"/><circle class="cls-13" cx="145.02" cy="301.01" r="3.45"/><circle class="cls-18" cx="218.94" cy="306.48" r="3.45"/><circle class="cls-13" cx="219.69" cy="305.67" r="3.45"/><path class="cls-6" d="M239.62,261.09l40.95-19.32a20,20,0,0,1,26.75,8.83h0a20,20,0,0,1-8.83,26.74l-48,22.88"/><path class="cls-6" d="M115.77,261.75,76,254.38c-9.56-2.06-19.28,5-21.58,15.73h0C52.1,280.81,58,291.26,67.6,293.32l46.69,8.86"/><path class="cls-12" d="M63.52,274.11l13.62,8.06A12,12,0,0,0,93.58,278l38.94-63.29a12,12,0,0,0-4.22-16.44l-13.62-8.06a12,12,0,0,0-16.44,4.22L59.3,257.67A12,12,0,0,0,63.52,274.11Z"/><path class="cls-5" d="M158.39,168.92l-4.25-2.52L151.4,171,143,185.25a13.41,13.41,0,0,1-7.59,5.9,11.68,11.68,0,0,1-9.18-1.12l-3.37-2c-5.68-3.36-7.43-11-3.89-17l8.36-14.14,2.79-4.71-4.25-2.51a8.43,8.43,0,0,0-11.42,3.26l-9.6,16.23c-5.19,8.77-2.63,20,5.68,24.87l16.38,9.69c8.3,4.91,19.34,1.76,24.52-7L161,180.49A8.42,8.42,0,0,0,158.39,168.92Z"/><path class="cls-4" d="M123.94,154.27l-8.36,14.14c-3.55,6-1.8,13.64,3.88,17l.73.43A12.61,12.61,0,0,1,119,171l8.36-14.14,2.79-4.71L126.45,150C125.61,151.44,124.78,152.86,123.94,154.27Z"/><path class="cls-4" d="M157.64,177.87,148,194.1c-5.18,8.77-16.22,11.91-24.53,7l-16.23-9.6a16.68,16.68,0,0,0,3.25,2.54l16.38,9.69c8.3,4.91,19.34,1.76,24.52-7L161,180.49a8.42,8.42,0,0,0-2.65-11.57l-1.26-.75A8.62,8.62,0,0,1,157.64,177.87Z"/><path class="cls-6" d="M64.57,287.88h0a20,20,0,0,0,27.28-7l30.88-49.66a20,20,0,0,0-7-27.28l-16.6-9.82a.64.64,0,0,0-.86.22L57.56,260.6A20,20,0,0,0,64.57,287.88Z"/><path class="cls-12" d="M287.38,271l13.37-8.48A12,12,0,0,0,304.46,246l-33.7-51a12,12,0,0,0-16.56-3.71l-13.37,8.48a12,12,0,0,0-3.71,16.56l33.7,51A12,12,0,0,0,287.38,271Z"/><path class="cls-6" d="M299.92,276h0a20,20,0,0,0,6.15-27.48l-29.46-44.28a12,12,0,0,0-16.56-3.71l-6.68,4.23a20,20,0,0,0-6.16,27.48l25.22,37.61A20,20,0,0,0,299.92,276Z"/><path class="cls-5" d="M241.76,151.19l-4.17,2.64,2.88,4.55,8.85,14a13.39,13.39,0,0,1,1.8,9.43,11.66,11.66,0,0,1-5.16,7.68l-3.31,2.1c-5.57,3.53-13.18,1.61-16.91-4.27L217,173.4,214,168.78l-4.17,2.64a8.42,8.42,0,0,0-2.29,11.65L217.66,199c5.45,8.6,16.58,11.4,24.73,6.23l16.08-10.18c8.15-5.17,10.36-16.43,4.91-25l-10.1-15.94A8.43,8.43,0,0,0,241.76,151.19Z"/><path class="cls-4" d="M249.32,172.33a13.39,13.39,0,0,1,1.8,9.43,11.85,11.85,0,0,1-3,5.84l.35-.23a11.63,11.63,0,0,0,5.17-7.67,13.41,13.41,0,0,0-1.81-9.44q-4.43-7-8.84-13.95l-2.68-4.22-2.76,1.74,2.88,4.55Z"/><path class="cls-4" d="M261,193,245,203.18c-8.16,5.17-19.29,2.36-24.74-6.24L210.11,181a8.61,8.61,0,0,1,.48-10.06l-.74.47a8.42,8.42,0,0,0-2.29,11.65L217.66,199c5.45,8.6,16.58,11.4,24.73,6.23l16.08-10.18a16.76,16.76,0,0,0,2.81-2.26Z"/><path class="cls-13" d="M205.06,204.51c.5-2.53-8-10-17.68-10.85-11.8-1-22.56,8.16-22,10.86.31,1.64,4.66.23,19.4.29C199.67,204.87,204.7,206.35,205.06,204.51Z"/><path class="cls-19" d="M200.93,201.05c.59-1.4-6.45-5.72-14.52-6.05-9.29-.39-17.78,4.6-17.18,6.06.36.89,3.9.12,15.47.13C196.57,201.21,200.51,202,200.93,201.05Z"/><path class="cls-20" d="M159.56,164.43c8.71,3.12,17.79,0,20.27-6.93l-31.54-11.3C145.8,153.15,150.85,161.31,159.56,164.43Z"/><circle class="cls-13" cx="174.87" cy="159.46" r="1.81"/><path class="cls-20" d="M214.62,165.63c-8.75,3-17.79-.19-20.2-7.17l31.67-10.94C228.5,154.5,223.36,162.61,214.62,165.63Z"/><circle class="cls-13" cx="199.6" cy="159.87" r="1.81"/></svg>