<svg id="Layer_2" data-name="Layer 2" xmlns="http://www.w3.org/2000/svg" width="242" height="611.16" viewBox="0 0 242 611.16"><defs><style>.cls-1{fill:#ed1c24;}.cls-2{fill:#ec7123;}.cls-3{fill:#e62425;}.cls-4{fill:#f2b3b6;}</style></defs><polygon class="cls-1" points="151.62 303.95 150.66 304.87 150.64 304.88 143.64 311.49 148.37 314.94 141.51 316.96 143.27 328.32 135.46 324.06 135.23 325.48 133.35 323.49 130.45 332.31 124.89 324.19 123.89 322.73 119.52 320.68 118.93 320.4 116.86 319.43 113.83 318 111.73 317.01 111.33 316.82 111.1 316.71 90.38 306.99 107.79 298.81 112.81 296.44 113.22 296.25 113.6 296.06 114.91 295.45 120.03 293.05 121.27 292.46 126.72 281.85 129.84 288.44 131.33 287.74 131.33 288.31 135.84 283.81 137.01 292.81 137.39 292.54 137.32 295.13 137.3 295.69 137.39 295.71 147.31 297.31 143.31 301.1 147.64 303.31 151.62 303.95"/><polygon class="cls-2" points="147.47 304.4 146.64 305.18 146.62 305.19 140.57 310.85 144.66 313.82 138.73 315.55 140.25 325.28 133.5 321.62 133.3 322.84 131.68 321.13 129.17 328.7 124.36 321.73 123.5 320.48 119.72 318.73 119.21 318.5 117.42 317.65 114.8 316.44 112.99 315.59 112.64 315.43 112.44 315.33 94.53 307 109.58 299.99 113.92 297.97 114.27 297.8 114.6 297.64 115.73 297.12 120.16 295.06 121.23 294.56 125.94 285.46 128.64 291.11 129.93 290.51 129.93 291 133.83 287.14 134.84 294.85 135.17 294.62 135.11 296.85 135.09 297.33 135.17 297.34 143.75 298.71 140.29 301.95 144.03 303.86 147.47 304.4"/><polygon class="cls-3" points="144.81 304.83 144.09 305.49 144.07 305.49 138.85 310.25 142.38 312.74 137.26 314.19 138.58 322.36 132.75 319.29 132.58 320.31 131.18 318.88 129.01 325.23 124.87 319.38 124.12 318.33 120.86 316.86 120.42 316.66 118.88 315.96 116.62 314.94 115.05 314.22 114.75 314.09 114.58 314.01 99.13 307.01 112.11 301.13 115.86 299.43 116.16 299.29 116.44 299.16 117.42 298.72 121.24 296.99 122.17 296.57 126.23 288.94 128.56 293.67 129.67 293.17 129.67 293.58 133.03 290.34 133.91 296.82 134.19 296.62 134.14 298.49 134.12 298.89 134.19 298.91 141.59 300.06 138.61 302.78 141.84 304.37 144.81 304.83"/><polygon class="cls-4" points="138.98 305.88 138.59 306.23 138.59 306.23 135.8 308.77 137.68 310.1 134.96 310.87 135.66 315.23 132.55 313.59 132.46 314.13 131.71 313.37 130.56 316.76 128.34 313.64 127.94 313.08 126.21 312.29 125.97 312.19 125.15 311.81 123.94 311.27 123.11 310.89 122.95 310.82 122.86 310.77 114.61 307.04 121.54 303.91 123.54 303 123.7 302.93 123.85 302.86 124.37 302.62 126.41 301.7 126.9 301.48 129.07 297.4 130.31 299.93 130.91 299.66 130.91 299.88 132.7 298.15 133.16 301.61 133.32 301.5 133.29 302.5 133.28 302.71 133.32 302.72 137.26 303.33 135.67 304.79 137.39 305.64 138.98 305.88"/></svg>