<svg id="Layer_1" data-name="Layer 1" xmlns="http://www.w3.org/2000/svg" width="792" height="260" viewBox="0 0 792 260"><defs><style>.cls-1{fill:#f6d1a5;}.cls-2{fill:#ffdeb3;}.cls-3{fill:#e7c51e;}.cls-4{fill:#fedd10;}.cls-5{fill:#231f20;}.cls-6{fill:#fff;}.cls-7{fill:#808184;}.cls-8{fill:#aeafb0;}.cls-9{fill:#bbbdbf;}.cls-10{fill:#e0d8df;}</style></defs><path class="cls-1" d="M69.87,103.11H172.7a1.84,1.84,0,0,1,1.84,1.84V161.7a32.09,32.09,0,0,1-32.09,32.09H100.13A32.09,32.09,0,0,1,68,161.7V104.95a1.84,1.84,0,0,1,1.84-1.84Z" transform="translate(-18.03 16.77) rotate(-7.36)"/><path class="cls-2" d="M94.81,103.58H172a1.84,1.84,0,0,1,1.84,1.84v54.72a32.09,32.09,0,0,1-32.09,32.09H125.07A32.09,32.09,0,0,1,93,160.14V105.42a1.84,1.84,0,0,1,1.84-1.84Z" transform="translate(-17.86 18.32) rotate(-7.36)"/><path class="cls-3" d="M105.19,36.63H120a45.84,45.84,0,0,1,45.84,45.84v29.05a3,3,0,0,1-3,3H59.35a0,0,0,0,1,0,0v-32a45.84,45.84,0,0,1,45.84-45.84Z" transform="translate(-8.76 15.06) rotate(-7.36)"/><path class="cls-4" d="M119.65,37.08h0a45.84,45.84,0,0,1,45.84,45.84v20.74a3,3,0,0,1-3,3H73.82a0,0,0,0,1,0,0V82.92a45.84,45.84,0,0,1,45.84-45.84Z" transform="translate(-8.22 15.93) rotate(-7.36)"/><rect class="cls-3" x="48.45" y="102.73" width="137.26" height="15" rx="7.5" transform="translate(-13.16 15.92) rotate(-7.36)"/><path class="cls-4" d="M178.83,109.77l-88,11.37A6.29,6.29,0,0,1,84,115.6h0a6.29,6.29,0,0,1,5.28-7.11l88-11.37a6.29,6.29,0,0,1,6.91,5.54h0A6.28,6.28,0,0,1,178.83,109.77Z"/><path class="cls-5" d="M132.11,136.07c-.19,4.78-2.8,9.51-6.5,10-3.54.51-6.62-3-7.58-7.38-1.32-6,1.49-13.41,5.9-14.24S132.36,129.71,132.11,136.07Z"/><ellipse class="cls-6" cx="125.48" cy="131.55" rx="2.09" ry="3.83"/><path class="cls-5" d="M132.54,125.57c-.09.65-3.67-1.06-9.08.41-4.91,1.33-7.63,4.29-7.86,3.72s2.84-5.52,7.26-6.9C127.89,121.23,132.64,124.81,132.54,125.57Z"/><path class="cls-5" d="M166.85,131.56c-.22,4.79-3.21,9.52-7.43,10-4,.5-7.57-3.06-8.66-7.39-1.51-6,1.7-13.41,6.74-14.24S167.14,125.2,166.85,131.56Z"/><ellipse class="cls-6" cx="159.27" cy="127.05" rx="2.38" ry="3.83"/><path class="cls-5" d="M167.34,121.07c-.1.64-4.2-1.07-10.37.4-5.61,1.34-8.72,4.3-9,3.73s3.25-5.53,8.3-6.91C162,116.72,167.45,120.31,167.34,121.07Z"/><path class="cls-5" d="M162.71,153.25c1.38,4.71-4.37,20.46-13.58,23.79-11.24,4.06-25-11.35-25.49-16.55-.27-3.16,4.51-1.29,19-4.09C157.28,153.55,161.71,149.82,162.71,153.25Z"/><path class="cls-6" d="M159.58,155.93c1.08,2.56-4.33,12-12.15,14.14-9,2.42-19.1-5.48-19-8.36,0-1.74,3.79-.93,15.17-3.07C155.24,156.43,158.83,154.15,159.58,155.93Z"/><ellipse class="cls-3" cx="132.02" cy="50.51" rx="7.68" ry="13.03" transform="translate(-5.39 17.34) rotate(-7.36)"/><ellipse class="cls-3" cx="132.02" cy="50.51" rx="3.8" ry="6.44" transform="translate(-5.39 17.34) rotate(-7.36)"/><ellipse class="cls-7" cx="137.69" cy="36.81" rx="11.89" ry="22.63"/><ellipse class="cls-8" cx="137.1" cy="39.01" rx="5.88" ry="11.19"/><ellipse class="cls-9" cx="137.69" cy="36.81" rx="5.88" ry="11.19"/><ellipse class="cls-10" cx="137.69" cy="36.81" rx="2.25" ry="4.28"/></svg>