<svg id="Layer_1" data-name="Layer 1" xmlns="http://www.w3.org/2000/svg" width="792" height="260" viewBox="0 0 792 260"><defs><style>.cls-1{fill:#f6d1a5;}.cls-2{fill:#ffdeb3;}.cls-3{fill:#e7c51e;}.cls-4{fill:#fedd10;}.cls-5{fill:#231f20;}.cls-6{fill:#fff;}.cls-7{fill:#808184;}.cls-8{fill:#aeafb0;}.cls-9{fill:#bbbdbf;}.cls-10{fill:#e0d8df;}</style></defs><path class="cls-1" d="M68.38,102.18H171.21A1.84,1.84,0,0,1,173,104v56.75A32.09,32.09,0,0,1,141,192.86H98.64a32.09,32.09,0,0,1-32.09-32.09V104a1.84,1.84,0,0,1,1.84-1.84Z" transform="translate(-17.92 16.57) rotate(-7.36)"/><path class="cls-2" d="M93.32,102.65h77.22a1.84,1.84,0,0,1,1.84,1.84v54.72a32.09,32.09,0,0,1-32.09,32.09H123.57a32.09,32.09,0,0,1-32.09-32.09V104.49a1.84,1.84,0,0,1,1.84-1.84Z" transform="translate(-17.75 18.12) rotate(-7.36)"/><path class="cls-3" d="M103.69,35.71h14.83a45.84,45.84,0,0,1,45.84,45.84v29.05a3,3,0,0,1-3,3H57.86a0,0,0,0,1,0,0v-32A45.84,45.84,0,0,1,103.69,35.71Z" transform="translate(-8.65 14.86) rotate(-7.36)"/><path class="cls-4" d="M118.16,36.15h0A45.84,45.84,0,0,1,164,82v20.74a3,3,0,0,1-3,3H72.32a0,0,0,0,1,0,0V82a45.84,45.84,0,0,1,45.84-45.84Z" transform="translate(-8.12 15.73) rotate(-7.36)"/><rect class="cls-3" x="46.96" y="101.8" width="137.26" height="15" rx="7.5" transform="translate(-13.06 15.72) rotate(-7.36)"/><path class="cls-4" d="M177.33,108.84l-88,11.37a6.29,6.29,0,0,1-6.91-5.54h0a6.29,6.29,0,0,1,5.27-7.11l88-11.37a6.28,6.28,0,0,1,6.9,5.54h0A6.27,6.27,0,0,1,177.33,108.84Z"/><path class="cls-5" d="M130.62,135.14c-.19,4.78-2.81,9.51-6.5,10s-6.63-3-7.58-7.38c-1.32-6,1.49-13.41,5.89-14.24S130.87,128.78,130.62,135.14Z"/><ellipse class="cls-6" cx="123.98" cy="130.62" rx="2.09" ry="3.83"/><path class="cls-5" d="M131.05,124.64c-.09.65-3.68-1.06-9.08.41-4.91,1.33-7.63,4.29-7.86,3.72s2.84-5.52,7.26-6.9C126.4,120.3,131.14,123.88,131.05,124.64Z"/><path class="cls-5" d="M165.35,130.63c-.21,4.79-3.2,9.52-7.42,10-4.05.5-7.57-3.06-8.66-7.39-1.51-6,1.7-13.41,6.73-14.23S165.64,124.28,165.35,130.63Z"/><ellipse class="cls-6" cx="157.77" cy="126.12" rx="2.38" ry="3.83"/><path class="cls-5" d="M165.85,120.14c-.1.65-4.2-1.06-10.38.4-5.61,1.34-8.72,4.3-9,3.73s3.25-5.53,8.3-6.91C160.53,115.8,166,119.38,165.85,120.14Z"/><path class="cls-5" d="M161.22,175.41c1.37-4.7-4.37-20.46-13.58-23.79-11.24-4.06-25,11.35-25.49,16.55-.28,3.16,4.5,1.29,19,4.09C155.78,175.11,160.21,178.84,161.22,175.41Z"/><path class="cls-6" d="M158.08,172.73c1.08-2.56-4.32-12-12.14-14.14-9-2.42-19.1,5.48-19,8.36,0,1.74,3.8.93,15.17,3.08C153.74,172.23,157.33,174.51,158.08,172.73Z"/><ellipse class="cls-3" cx="130.53" cy="49.58" rx="7.68" ry="13.03" transform="translate(-5.28 17.14) rotate(-7.36)"/><ellipse class="cls-3" cx="130.53" cy="49.58" rx="3.8" ry="6.44" transform="translate(-5.28 17.14) rotate(-7.36)"/><ellipse class="cls-7" cx="136.19" cy="35.88" rx="11.89" ry="22.63"/><ellipse class="cls-8" cx="135.6" cy="38.08" rx="5.88" ry="11.19"/><ellipse class="cls-9" cx="136.19" cy="35.88" rx="5.88" ry="11.19"/><ellipse class="cls-10" cx="136.19" cy="35.88" rx="2.25" ry="4.28"/></svg>