<svg id="Layer_1" data-name="Layer 1" xmlns="http://www.w3.org/2000/svg" width="394" height="192" viewBox="0 0 394 192"><defs><style>.cls-1{fill:#4e7739;}.cls-2{fill:#5d9944;}.cls-3{fill:#231f20;}.cls-4{fill:#f9ed32;}</style></defs><path class="cls-1" d="M355.06,152c0,13.79-2.1,22.14-5.88,4.93C345.4,176,340,167,333.23,152c-3.36-14.81-7,11.73-11-6.24-3.94-1.51-8.13-.53-12.54-4.23-4.41-12.19-9,3.88-13.8,4.27-4.78,4.65-9.71,7.93-14.75,6.2-5-1.05-10.18-13.72-15.38-5.11-5.19,2.88-10.44,2.09-15.69,3.28-5.24-2.15-10.49,3.28-15.69,4.71-5.19-2.12-10.33,8.33-15.37-2.88-5-14.85-10-5.3-14.75-4.29-4.77,3.09-9.39-8.26-13.8,3.62-4.41,13-8.61-8.26-12.54-2-2-13-3.87-15.29-5.7-12.19-1.83,4.78-3.59,14.07-5.27,14.91-6.72,19.23-12.18-17.7-15.95-4.25-3.78,18.78-5.88-1.13-5.88,4.25-3.11-15-6.07,17.88-8.77,4.78-2.7-12.48-5.13-18.73-7.18-10.27-4.09,4-6.63,7.87-6.63-13.19V61.93c0-3.88.64-3.09,1.78-14.18.58,18.17,1.28,4.65,2.09-3.22.41,8.72.84,0,1.3-3.35.47-17.29,1-.25,1.46,7.56,1-14,2.15-15.7,3.35-17.82,1.2,2.85,2.48-11.11,3.83,3a37.84,37.84,0,0,1,8.77,9.31c0-7.77.13,6.33.39,19.73.25-.84.63,1.14,1.13-6.63,1,1.23,2.47,30.4,4.36-11.7C152,31,153,41.48,154.17,40c1.15,10.89,2.39,18.74,3.73,14.14,1.34-4.88,2.77-7.65,4.28,8.24.76,11.34,1.54,10,2.34-.07.8,8.89,1.62,6.23,2.46-19,1.68,4.35,3.44-20.83,5.27-18.45,1.83,12.35,3.73,11.49,5.7,12.58,3.93,14.39,8.13,7.64,12.54,4.42,2.2,14.91,4.46,22.26,6.76,8,2.3-19.65,4.65-20.46,7-9.9C209.07,40,214,29.24,219,43.25c1.26,2.71,2.52-2.84,3.79,10.55,1.28,16.44,2.55-2.53,3.84,6.29,1.28-5.67,2.57,7.73,3.86,8.22q1.93-8.67,3.88-17.32c5.2.39,10.45-15.69,15.69-5.3,5.25-14.08,10.5,4.78,15.69-13.14,5.2,2.8,10.34,13.81,15.38,10.7,2.52-12.85,5,8.67,7.47-4,2.46-3.75,4.89,16.07,7.28,12.4,4.77,6.68,9.39-9.79,13.8-6.13,2.2-8.9,4.35-6,6.45-12.12,2.09-19.28,4.12-7.15,6.09,6.3,3.94-7.7,7.61-2.15,11,3.59,6.72,13,12.17-1.14,15.95,4.43,3.78-2.92,5.88,20.31,5.88-4.43,6.21-2,11.85,9.18,15.94,5.49,4.09-1.39,6.63,5.1,6.63,13.19v71.41c0,7.79-.63,4.32-1.78,7.32-1.14,1.3-2.8-18.38-4.85,5.87-2,3.41-4.48-6.89-7.18,5.27-1.34-4.23-2.76-7.59-4.23-12C358.13,141.2,356.61,158.61,355.06,152Z"/><path class="cls-1" d="M44,76.7h80.92a12.79,12.79,0,0,1,12.79,12.79v34.84a43,43,0,0,1-43,43H74.28a43,43,0,0,1-43-43V89.49A12.79,12.79,0,0,1,44,76.7Z" transform="translate(-14.95 11.84) rotate(-7.36)"/><path class="cls-2" d="M63.1,76.84h72.11A1.84,1.84,0,0,1,137,78.68V133.4A32.09,32.09,0,0,1,105,165.49H93.36A32.09,32.09,0,0,1,61.26,133.4V78.68a1.84,1.84,0,0,1,1.84-1.84Z" transform="translate(-14.71 13.71) rotate(-7.36)"/><path class="cls-3" d="M123.89,149.45c.82-2.44-6.67-11-16.14-13-11.57-2.52-23.42,5.19-23.26,7.93.09,1.67,4.59.83,19.2,2.78C118.5,149.12,123.3,151.24,123.89,149.45Z"/><path class="cls-3" d="M138.78,55c6.19-3.42,9.75-7.42,9.25-11.25-1-7.92-18.9-12.13-39.93-9.41l-.53.07a119.51,119.51,0,0,0-34-.12,136.41,136.41,0,0,0-13.93,2.52l-1.1.12c-25.56,3.3-44.35,21-42,39.44s25,30.77,50.61,27.47c17.18-2.22,31.29-10.93,38-22l.94.31c20.17,6.63,38.51,5.85,41-1.74.71-2.22,0-4.78-1.91-7.45,2.5-1.46,4.07-3.27,4.4-5.4C150.19,63.4,146,58.86,138.78,55Z"/><path class="cls-4" d="M79.17,108.75c8.32,4.06,17.68,2,20.92-4.66L70,89.39C66.74,96,70.86,104.69,79.17,108.75Z"/><circle class="cls-3" cx="87.26" cy="103.69" r="1.81"/><path class="cls-4" d="M132.1,108.72c-8.74,3-17.79-.19-20.2-7.17l31.67-10.94C146,97.59,140.85,105.69,132.1,108.72Z"/><circle class="cls-3" cx="133.47" cy="98.58" r="1.81"/></svg>