<svg id="Layer_1" data-name="Layer 1" xmlns="http://www.w3.org/2000/svg" width="513.96" height="212.17" viewBox="0 0 513.96 212.17"><defs><style>.cls-1{fill:#4e7739;}.cls-2{fill:#5d9944;}.cls-3{fill:#231f20;}.cls-4{fill:#f9ed32;}</style></defs><path class="cls-1" d="M474.88,183.1c0,19-2.9,30.52-8.11,6.8-5.2,26.2-12.73,13.89-22-6.8-4.63-20.42-9.69,16.18-15.12-8.61-5.42-2.08-11.21-.72-17.29-5.82-6.08-16.81-12.44,5.34-19,5.89C386.76,181,380,185.49,373,183.1c-6.95-1.44-14-18.92-21.2-7-7.16,4-14.4,2.89-21.63,4.53-7.24-3-14.47,4.53-21.63,6.49-7.17-2.92-14.26,11.48-21.2-4-6.95-20.48-13.75-7.3-20.33-5.91-6.58,4.25-12.95-11.39-19,5-6.07,18-11.86-11.37-17.29-2.82-2.71-18-5.33-21.08-7.86-16.8-2.52,6.59-4.94,19.4-7.26,20.55-9.26,26.52-16.78-24.4-22-5.85-5.21,25.89-8.1-1.57-8.1,5.85-4.28-20.7-8.37,24.66-12.09,6.59-3.72-17.2-7.07-25.82-9.89-14.15-5.64,5.51-9.15,10.84-9.15-18.18V58.9c0-5.35.88-4.26,2.46-19.54.79,25,1.76,6.41,2.88-4.44.56,12,1.16,0,1.79-4.62.64-23.84,1.31-.34,2,10.42,1.41-19.32,2.95-21.64,4.61-24.57,1.65,3.93,3.42-15.31,5.28,4.17A51.81,51.81,0,0,1,185.5,33.16c0-10.72.18,8.72.53,27.19.35-1.16.88,1.58,1.57-9.14,1.37,1.7,3.4,41.92,6-16.12,1.3-18.86,2.75-4.37,4.33-6.45,1.58,15,3.3,25.84,5.15,19.5,1.84-6.72,3.81-10.55,5.9,11.36,1.05,15.63,2.12,13.76,3.22-.1,1.1,12.26,2.24,8.59,3.39-26.24,2.32,6,4.74-28.72,7.26-25.44,2.53,17,5.15,15.83,7.86,17.34,5.43,19.84,11.22,10.53,17.29,6.09,3,20.56,6.15,30.69,9.33,11C260.5,15.07,263.74,14,267,28.51c6.58.11,13.38-14.68,20.33,4.65,1.74,3.73,3.48-3.92,5.23,14.53,1.76,22.67,3.52-3.48,5.29,8.68,1.76-7.82,3.54,10.65,5.32,11.33q2.67-11.94,5.36-23.88c7.16.54,14.39-21.63,21.63-7.3,7.23-19.42,14.47,6.58,21.63-18.12C359,22.26,366.07,37.45,373,33.16c3.47-17.72,6.9,12,10.3-5.57,3.39-5.18,6.73,22.15,10,17.09,6.59,9.21,13-13.5,19-8.45,3-12.27,6-8.28,8.89-16.71,2.89-26.58,5.69-9.86,8.4,8.68,5.43-10.62,10.49-2.95,15.12,5,9.26,17.84,16.79-1.58,22,6.11,5.21-4,8.11,28,8.11-6.11,8.56-2.82,16.34,12.65,22,7.56,5.64-1.91,9.14,7,9.14,18.18v98.46c0,10.72-.87,5.95-2.46,10.08-1.58,1.79-3.86-25.34-6.68,8.1-2.82,4.7-6.18-9.51-9.9,7.25-1.86-5.82-3.81-10.46-5.83-16.52C479.11,168.18,477,192.19,474.88,183.1Z"/><path class="cls-1" d="M41.25,79.26H162.48a12.79,12.79,0,0,1,12.79,12.79v69.17a43,43,0,0,1-43,43H71.5a43,43,0,0,1-43-43V92.05A12.79,12.79,0,0,1,41.25,79.26Z" transform="translate(-17.33 14.23) rotate(-7.36)"/><path class="cls-2" d="M71.69,79.46h100.8a1.84,1.84,0,0,1,1.84,1.84v88.28a32.09,32.09,0,0,1-32.09,32.09H101.95a32.09,32.09,0,0,1-32.09-32.09V81.3a1.84,1.84,0,0,1,1.84-1.84Z" transform="matrix(0.99, -0.13, 0.13, 0.99, -17.01, 16.81)"/><path class="cls-3" d="M156.19,179.57c1.13-3.37-9.2-15.13-22.26-18-15.94-3.47-32.28,7.16-32.06,10.93.13,2.3,6.34,1.15,26.47,3.84C148.75,179.11,155.37,182,156.19,179.57Z"/><path class="cls-3" d="M176.72,49.39c8.53-4.71,13.44-10.22,12.75-15.51-1.41-10.91-26.06-16.72-55.05-13l-.73.1c-13.34-2.19-29.59-2.41-46.89-.17a188.53,188.53,0,0,0-19.21,3.48l-1.51.16C30.84,29,5,53.38,8.24,78.85S42.77,121.28,78,116.72c23.68-3.06,43.13-15.07,52.35-30.34l1.29.43c27.81,9.14,53.09,8.06,56.46-2.4,1-3.06,0-6.59-2.62-10.27,3.45-2,5.6-4.51,6.06-7.45C192.45,60.93,186.67,54.68,176.72,49.39Z"/><path class="cls-4" d="M94.54,123.46c11.47,5.59,24.38,2.71,28.84-6.44L81.87,96.76C77.41,105.91,83.08,117.86,94.54,123.46Z"/><circle class="cls-3" cx="105.7" cy="116.47" r="2.49"/><path class="cls-4" d="M167.51,123.4c-12.06,4.17-24.52-.26-27.85-9.88l43.66-15.08C186.65,108.06,179.57,119.24,167.51,123.4Z"/><circle class="cls-3" cx="169.4" cy="109.43" r="2.49"/></svg>