<svg xmlns="http://www.w3.org/2000/svg" xmlns:xlink="http://www.w3.org/1999/xlink" width="1920" height="1080" viewBox="0 0 1920 1080"><defs><style>.cls-1,.cls-31{fill:none;}.cls-2{clip-path:url(#clip-path);}.cls-3{fill:#385b24;}.cls-4{fill:#1d7011;}.cls-5{fill:#565053;}.cls-6{fill:#3b2314;}.cls-7{fill:#22130b;}.cls-8{fill:#f6d1a5;}.cls-9{fill:#e48225;}.cls-10{fill:#f6921e;}.cls-11{fill:#231f20;}.cls-12{fill:#d6de23;}.cls-13{fill:#b2b335;}.cls-14{fill:#282626;}.cls-15{fill:#3f3d3e;}.cls-16{fill:#ffdeb3;}.cls-17{fill:#e8c51d;}.cls-18{fill:#ffdd15;}.cls-19{fill:#fff;}.cls-20{fill:#808184;}.cls-21{fill:#adaeaf;}.cls-22{fill:#bbbdbf;}.cls-23{fill:#e0d9df;}.cls-24{fill:#2a2627;}.cls-25{fill:#6d696a;}.cls-26{fill:#686263;}.cls-27{fill:#353132;}.cls-28{fill:#5b595a;}.cls-29{fill:#f9f9f9;}.cls-30{fill:#23540e;}.cls-31{stroke:#fff;stroke-miterlimit:10;stroke-width:2px;}.cls-32{fill:#9e9489;}.cls-33{fill:#5d9844;}.cls-34{fill:#4e7839;}.cls-35{fill:#beb4a9;}.cls-36{fill:#f9ec31;}</style><clipPath id="clip-path"><rect class="cls-1" width="1920" height="1080"/></clipPath></defs><g id="Layer_2" data-name="Layer 2"><rect width="1920" height="1080"/></g><g id="Layer_3" data-name="Layer 3"><g class="cls-2"><path class="cls-3" d="M1590,133a11.88,11.88,0,0,1-2.27,7H1590Z"/><path class="cls-3" d="M1590,133a11.88,11.88,0,0,1-2.27,7H1590Z"/><path class="cls-3" d="M1558,133v20.9a12,12,0,0,0,7-10A12,12,0,0,1,1558,133Z"/><path class="cls-3" d="M1558,133v20.9a12,12,0,0,0,7-10A12,12,0,0,1,1558,133Z"/><path class="cls-3" d="M1429-301V76a12,12,0,0,0,12,12h8a12,12,0,0,0,12-12V-2a12,12,0,0,0,12,12h8a11.8,11.8,0,0,0,4-.69V21a12,12,0,0,0,12,12h4V83a12,12,0,0,0,12,12h8a12,12,0,0,0,12-12v60a12,12,0,0,0,12,12h8a11.8,11.8,0,0,0,5-1.1V133a12,12,0,0,0,7,10.88,12,12,0,0,1-7,10V360a12,12,0,0,0,12,12h8a12,12,0,0,0,12-12V140h-2.27a11.88,11.88,0,0,0,2.27-7v7h4a12,12,0,0,0,12-12v71a12,12,0,0,0,12,12h4v35a12,12,0,0,0,12,12h8a12,12,0,0,0,12-12V162a8.27,8.27,0,0,0,1,.05h8a12,12,0,0,0,12-12V-227a12,12,0,0,0-12-12h-8a8.27,8.27,0,0,0-1,.05V-279a12,12,0,0,0-12-12h-8a12,12,0,0,0-12,12v10a12,12,0,0,0-12-12h-8a12,12,0,0,0-12,12v25a12,12,0,0,0-12-12h-8a12,12,0,0,0-12,11.12,11.81,11.81,0,0,0-5-1.12h-8a12,12,0,0,0-12,12v-60a12,12,0,0,0-12-12h-4v-50a12,12,0,0,0-12-12h-8a11.8,11.8,0,0,0-4,.69V-379a12,12,0,0,0-12-12h-8a12,12,0,0,0-12,12v78a12,12,0,0,0-12-12h-8A12,12,0,0,0,1429-301Z"/><path class="cls-3" d="M1724,282a11.88,11.88,0,0,1-2.27,7H1724Z"/><path class="cls-3" d="M1724,282a11.88,11.88,0,0,1-2.27,7H1724Z"/><path class="cls-3" d="M1692,282v20.9a12,12,0,0,0,7-10A12,12,0,0,1,1692,282Z"/><path class="cls-3" d="M1692,282v20.9a12,12,0,0,0,7-10A12,12,0,0,1,1692,282Z"/><path class="cls-3" d="M1563-152V225a12,12,0,0,0,12,12h8a12,12,0,0,0,12-12V147a12,12,0,0,0,12,12h8a11.8,11.8,0,0,0,4-.69V170a12,12,0,0,0,12,12h4v50a12,12,0,0,0,12,12h8a12,12,0,0,0,12-12v60a12,12,0,0,0,12,12h8a11.8,11.8,0,0,0,5-1.1V282a12,12,0,0,0,7,10.88,12,12,0,0,1-7,10V509a12,12,0,0,0,12,12h8a12,12,0,0,0,12-12V289h-2.27a11.88,11.88,0,0,0,2.27-7v7h4a12,12,0,0,0,12-12v71a12,12,0,0,0,12,12h4v35a12,12,0,0,0,12,12h8a12,12,0,0,0,12-12V311a8.27,8.27,0,0,0,1,.05h8a12,12,0,0,0,12-12V-78a12,12,0,0,0-12-12h-8a8.27,8.27,0,0,0-1,0v-40a12,12,0,0,0-12-12h-8a12,12,0,0,0-12,12v10a12,12,0,0,0-12-12h-8a12,12,0,0,0-12,12v25a12,12,0,0,0-12-12h-8a12,12,0,0,0-12,11.12,11.81,11.81,0,0,0-5-1.12h-8a12,12,0,0,0-12,12v-60a12,12,0,0,0-12-12h-4v-50a12,12,0,0,0-12-12h-8a11.8,11.8,0,0,0-4,.69V-230a12,12,0,0,0-12-12h-8a12,12,0,0,0-12,12v78a12,12,0,0,0-12-12h-8A12,12,0,0,0,1563-152Z"/><path class="cls-4" d="M1725,205a11.88,11.88,0,0,1-2.27,7H1725Z"/><path class="cls-4" d="M1725,205a11.88,11.88,0,0,1-2.27,7H1725Z"/><path class="cls-4" d="M1693,205v20.9a12,12,0,0,0,7-10A12,12,0,0,1,1693,205Z"/><path class="cls-4" d="M1693,205v20.9a12,12,0,0,0,7-10A12,12,0,0,1,1693,205Z"/><path class="cls-4" d="M1564-229V148a12,12,0,0,0,12,12h8a12,12,0,0,0,12-12V70a12,12,0,0,0,12,12h8a11.8,11.8,0,0,0,4-.69V93a12,12,0,0,0,12,12h4v50a12,12,0,0,0,12,12h8a12,12,0,0,0,12-12v60a12,12,0,0,0,12,12h8a11.8,11.8,0,0,0,5-1.1V205a12,12,0,0,0,7,10.88,12,12,0,0,1-7,10V432a12,12,0,0,0,12,12h8a12,12,0,0,0,12-12V212h-2.27a11.88,11.88,0,0,0,2.27-7v7h4a12,12,0,0,0,12-12v71a12,12,0,0,0,12,12h4v35a12,12,0,0,0,12,12h8a12,12,0,0,0,12-12V234a8.27,8.27,0,0,0,1,.05h8a12,12,0,0,0,12-12V-155a12,12,0,0,0-12-12h-8a8.27,8.27,0,0,0-1,.05V-207a12,12,0,0,0-12-12h-8a12,12,0,0,0-12,12v10a12,12,0,0,0-12-12h-8a12,12,0,0,0-12,12v25a12,12,0,0,0-12-12h-8a12,12,0,0,0-12,11.12,11.81,11.81,0,0,0-5-1.12h-8a12,12,0,0,0-12,12v-60a12,12,0,0,0-12-12h-4v-50a12,12,0,0,0-12-12h-8a11.8,11.8,0,0,0-4,.69V-307a12,12,0,0,0-12-12h-8a12,12,0,0,0-12,12v78a12,12,0,0,0-12-12h-8A12,12,0,0,0,1564-229Z"/><path class="cls-3" d="M1847,282a11.88,11.88,0,0,1-2.27,7H1847Z"/><path class="cls-3" d="M1847,282a11.88,11.88,0,0,1-2.27,7H1847Z"/><path class="cls-3" d="M1815,282v20.9a12,12,0,0,0,7-10A12,12,0,0,1,1815,282Z"/><path class="cls-3" d="M1815,282v20.9a12,12,0,0,0,7-10A12,12,0,0,1,1815,282Z"/><path class="cls-3" d="M1686-152V225a12,12,0,0,0,12,12h8a12,12,0,0,0,12-12V147a12,12,0,0,0,12,12h8a11.8,11.8,0,0,0,4-.69V170a12,12,0,0,0,12,12h4v50a12,12,0,0,0,12,12h8a12,12,0,0,0,12-12v60a12,12,0,0,0,12,12h8a11.8,11.8,0,0,0,5-1.1V282a12,12,0,0,0,7,10.88,12,12,0,0,1-7,10V509a12,12,0,0,0,12,12h8a12,12,0,0,0,12-12V289h-2.27a11.88,11.88,0,0,0,2.27-7v7h4a12,12,0,0,0,12-12v71a12,12,0,0,0,12,12h4v35a12,12,0,0,0,12,12h8a12,12,0,0,0,12-12V311a8.27,8.27,0,0,0,1,.05h8a12,12,0,0,0,12-12V-78a12,12,0,0,0-12-12h-8a8.27,8.27,0,0,0-1,0v-40a12,12,0,0,0-12-12h-8a12,12,0,0,0-12,12v10a12,12,0,0,0-12-12h-8a12,12,0,0,0-12,12v25a12,12,0,0,0-12-12h-8a12,12,0,0,0-12,11.12,11.81,11.81,0,0,0-5-1.12h-8a12,12,0,0,0-12,12v-60a12,12,0,0,0-12-12h-4v-50a12,12,0,0,0-12-12h-8a11.8,11.8,0,0,0-4,.69V-230a12,12,0,0,0-12-12h-8a12,12,0,0,0-12,12v78a12,12,0,0,0-12-12h-8A12,12,0,0,0,1686-152Z"/><path class="cls-4" d="M1842,205a11.88,11.88,0,0,1-2.27,7H1842Z"/><path class="cls-4" d="M1842,205a11.88,11.88,0,0,1-2.27,7H1842Z"/><path class="cls-4" d="M1810,205v20.9a12,12,0,0,0,7-10A12,12,0,0,1,1810,205Z"/><path class="cls-4" d="M1810,205v20.9a12,12,0,0,0,7-10A12,12,0,0,1,1810,205Z"/><path class="cls-4" d="M1681-229V148a12,12,0,0,0,12,12h8a12,12,0,0,0,12-12V70a12,12,0,0,0,12,12h8a11.8,11.8,0,0,0,4-.69V93a12,12,0,0,0,12,12h4v50a12,12,0,0,0,12,12h8a12,12,0,0,0,12-12v60a12,12,0,0,0,12,12h8a11.8,11.8,0,0,0,5-1.1V205a12,12,0,0,0,7,10.88,12,12,0,0,1-7,10V432a12,12,0,0,0,12,12h8a12,12,0,0,0,12-12V212h-2.27a11.88,11.88,0,0,0,2.27-7v7h4a12,12,0,0,0,12-12v71a12,12,0,0,0,12,12h4v35a12,12,0,0,0,12,12h8a12,12,0,0,0,12-12V234a8.27,8.27,0,0,0,1,.05h8a12,12,0,0,0,12-12V-155a12,12,0,0,0-12-12h-8a8.27,8.27,0,0,0-1,.05V-207a12,12,0,0,0-12-12h-8a12,12,0,0,0-12,12v10a12,12,0,0,0-12-12h-8a12,12,0,0,0-12,12v25a12,12,0,0,0-12-12h-8a12,12,0,0,0-12,11.12,11.81,11.81,0,0,0-5-1.12h-8a12,12,0,0,0-12,12v-60a12,12,0,0,0-12-12h-4v-50a12,12,0,0,0-12-12h-8a11.8,11.8,0,0,0-4,.69V-307a12,12,0,0,0-12-12h-8a12,12,0,0,0-12,12v78a12,12,0,0,0-12-12h-8A12,12,0,0,0,1681-229Z"/><ellipse class="cls-5" cx="358" cy="994.5" rx="117" ry="32.5"/><polygon points="439.61 988.56 373.24 978.62 373.24 968.69 439.61 968.69 439.61 988.56"/><rect class="cls-6" x="351.26" y="822.15" width="53" height="150.28" rx="12" transform="translate(-185.85 103.45) rotate(-12.54)"/><path class="cls-7" d="M394,975a12,12,0,0,1-14.32-9.1L352.28,842.67a12,12,0,0,1,6.39-13.34l-10.43,2.32A12,12,0,0,0,339.13,846l27.42,123.26a12,12,0,0,0,14.32,9.11l28.31-6.3a11.88,11.88,0,0,0,2.72-1Z"/><polygon points="460.03 972.78 439.61 988.56 439.61 964.49 459.25 962.34 460.03 972.78"/><path d="M434.08,984.2,374.16,976c-2.48-.34.23-2.82,5.69-5.37l32-14.91c3.08-1.43,6.7-2.27,8.22-1.94L458.62,962c1.2.26.95,1.63-.64,3.12L442.13,980.1C439.54,982.54,435.87,984.44,434.08,984.2Z"/><rect class="cls-6" x="275.45" y="827.63" width="53" height="150.28" rx="12"/><path class="cls-7" d="M283.36,968.21V841.93a12,12,0,0,1,12-12H323.7a11.89,11.89,0,0,0-7-2.3h-29a12,12,0,0,0-12,12V965.91a12,12,0,0,0,12,12h.66A12,12,0,0,1,283.36,968.21Z"/><path d="M336.68,998.28l-56.93,4.05c-2.37.17-4.18-3.15-4-7.18l.8-23.35c.09-2.56,1.59-4.54,3.34-4.54h43.57c1.44,0,3.42,1.78,4.46,4.07l9.23,20.37C338.67,995.13,338.51,998.15,336.68,998.28Z"/><rect class="cls-8" x="322.41" y="618.83" width="24.2" height="62.94" transform="translate(-80.6 48.24) rotate(-7.36)"/><rect class="cls-9" x="368.77" y="624.8" width="39.83" height="136.85" rx="12" transform="translate(1069.9 283.85) rotate(88.28)"/><path class="cls-10" d="M392.6,835.12l-117.37,5,3.51-150.93c.62-27,21.42-39.56,44-30l31.11,13.12c17.13,7.22,30.83,29.07,32.07,50Z"/><path class="cls-9" d="M289.19,691.7c.35-23.64,16.35-36.12,35.24-31.72l-1.85-.78c-22.56-9.51-43.37,3-44,29.95l-3.53,151.16,11.92-.52Z"/><polygon class="cls-11" points="391.66 818.83 275.82 817.7 275.25 840.79 392.63 835.69 391.66 818.83"/><path class="cls-12" d="M305.06,656.1c-2.18,20.95-4,44.42-5.08,70.5-1.31,30.33-1.57,60.7-1,90.53l18.92.21a826,826,0,0,1-4.05-88.66,631.14,631.14,0,0,1,4.53-71.13,36.61,36.61,0,0,0-7-1.42A32,32,0,0,0,305.06,656.1Z"/><path class="cls-13" d="M302.37,813.29c-.59-29.43-.41-59.4.8-89.34,1-25.06,2.65-47.66,4.66-67.93-1,0-1.94.06-2.78.14-2.18,21-4,44.42-5.09,70.51-1.3,30.33-1.56,60.7-1,90.54l18.92.21-.36-3.81Z"/><path class="cls-12" d="M356.84,673.68c1.73,18.39,3.13,38.2,4.05,59.46,1.24,29,1.42,57.28.83,84.7l10.46.11c0-28.71-.77-57.94-2.46-87.59-1-17.55-2.26-34.19-3.72-50a41.84,41.84,0,0,0-4.6-3.89A36.26,36.26,0,0,0,356.84,673.68Z"/><path class="cls-12" d="M360.89,733.14c-.09,3.77-47.12-13.3-46.88-15.35L313.78,734c17.68,7.71,33.54,12.56,47.66,14.25Z"/><path class="cls-11" d="M329.72,724.91c0,2.47.14,5.15.35,8s.48,5.41.8,7.89a94.82,94.82,0,0,0,10.51,3.62,78.51,78.51,0,0,0,9.46,2.06c0-2.37,0-5-.25-7.91-.18-2.47-.45-4.78-.77-6.89q-4.53-1.33-9.49-3C336.75,727.49,333.21,726.22,329.72,724.91Z"/><path class="cls-14" d="M332.16,727.34c0,1.95.12,4.06.28,6.3s.39,4.25.64,6.19a76,76,0,0,0,8.24,2.89,63.63,63.63,0,0,0,7.52,1.66c0-1.88,0-4-.19-6.27-.15-2-.36-3.8-.61-5.48q-3.62-1.05-7.54-2.35C337.68,729.35,334.89,728.36,332.16,727.34Z"/><path class="cls-11" d="M334.42,729.69c0,1.43.09,3,.22,4.62s.28,3.1.47,4.53a54.83,54.83,0,0,0,6,2.13,46.49,46.49,0,0,0,5.56,1.26c0-1.39,0-2.94-.13-4.63-.11-1.46-.26-2.82-.45-4.06q-2.69-.78-5.58-1.72Q337.42,730.8,334.42,729.69Z"/><path class="cls-15" d="M315,671.1c-.2,1.64-1.66,2.31-3.27,1.48a4.88,4.88,0,0,1-2.57-4.53c.21-1.66,1.69-2.3,3.3-1.44A4.91,4.91,0,0,1,315,671.1Z"/><path class="cls-11" d="M315.61,670.61c-.19,1.64-1.65,2.3-3.25,1.47a4.91,4.91,0,0,1-2.57-4.52c.21-1.66,1.69-2.29,3.3-1.44A4.92,4.92,0,0,1,315.61,670.61Z"/><path class="cls-15" d="M365,692.46c-.09,1.48-1.16,2.15-2.39,1.5a4.42,4.42,0,0,1-2.09-3.89c.1-1.49,1.19-2.14,2.42-1.47A4.44,4.44,0,0,1,365,692.46Z"/><path class="cls-11" d="M365.46,692c-.09,1.47-1.15,2.14-2.39,1.49a4.41,4.41,0,0,1-2.07-3.89c.09-1.47,1.17-2.12,2.41-1.45A4.44,4.44,0,0,1,365.46,692Z"/><path class="cls-15" d="M369.68,810.7c-.09,1.83-1.24,3.09-2.57,2.82s-2.37-2-2.27-3.85,1.27-3.09,2.6-2.79S369.77,808.88,369.68,810.7Z"/><path class="cls-11" d="M370.16,809.94c-.08,1.82-1.23,3.08-2.56,2.81s-2.36-2-2.26-3.85,1.26-3.08,2.59-2.78S370.25,808.12,370.16,809.94Z"/><path class="cls-15" d="M311.4,808.92c-.22,2.14-1.88,3.62-3.71,3.3a4,4,0,0,1-2.91-4.53c.25-2.16,1.94-3.62,3.77-3.26A4,4,0,0,1,311.4,808.92Z"/><path class="cls-11" d="M312.11,808c-.22,2.13-1.87,3.61-3.69,3.28a4,4,0,0,1-2.9-4.52c.24-2.16,1.93-3.6,3.74-3.24A4,4,0,0,1,312.11,808Z"/><path class="cls-15" d="M311.44,725.23a2.47,2.47,0,0,1-3.48,2.16,4.53,4.53,0,0,1-2.73-4.57,2.47,2.47,0,0,1,3.53-2.12A4.53,4.53,0,0,1,311.44,725.23Z"/><path class="cls-11" d="M312.11,724.59a2.46,2.46,0,0,1-3.47,2.15,4.56,4.56,0,0,1-2.72-4.57,2.47,2.47,0,0,1,3.52-2.11A4.57,4.57,0,0,1,312.11,724.59Z"/><path class="cls-15" d="M368.82,743.2c-.09,1.61-1.18,2.52-2.44,2a4,4,0,0,1-2.15-3.86c.1-1.62,1.2-2.51,2.47-2A4.07,4.07,0,0,1,368.82,743.2Z"/><path class="cls-11" d="M369.28,742.62c-.09,1.6-1.17,2.51-2.44,2a4,4,0,0,1-2.14-3.85c.1-1.62,1.2-2.51,2.46-2A4.07,4.07,0,0,1,369.28,742.62Z"/><path class="cls-8" d="M267.08,567.79H369.9a1.84,1.84,0,0,1,1.84,1.84v56.75a32.09,32.09,0,0,1-32.09,32.09H297.33a32.09,32.09,0,0,1-32.09-32.09V569.63a1.84,1.84,0,0,1,1.84-1.84Z" transform="translate(-176.05 130.65) rotate(-18.26)"/><path class="cls-16" d="M291.69,566h77.22a1.84,1.84,0,0,1,1.84,1.84v54.72a32.09,32.09,0,0,1-32.09,32.09H321.95a32.09,32.09,0,0,1-32.09-32.09V567.81a1.84,1.84,0,0,1,1.84-1.84Z" transform="translate(-174.57 134.2) rotate(-18.26)"/><path class="cls-17" d="M288.77,504.27H303.6a45.84,45.84,0,0,1,45.84,45.84v29.05a3,3,0,0,1-3,3H242.94a0,0,0,0,1,0,0v-32a45.84,45.84,0,0,1,45.84-45.84Z" transform="matrix(0.95, -0.31, 0.31, 0.95, -155.27, 120.14)"/><path class="cls-18" d="M302.41,503.45h0a45.84,45.84,0,0,1,45.84,45.84V570a3,3,0,0,1-3,3H256.57a0,0,0,0,1,0,0V549.28A45.84,45.84,0,0,1,302.41,503.45Z" transform="translate(-153.4 121.84) rotate(-18.26)"/><rect class="cls-17" x="238.51" y="568.89" width="137.26" height="15" rx="7.5" transform="translate(-165.12 125.24) rotate(-18.26)"/><path class="cls-18" d="M367.68,564.27l-84.22,27.79a6.28,6.28,0,0,1-7.83-4.13h0a6.28,6.28,0,0,1,3.83-8l84.22-27.79a6.27,6.27,0,0,1,7.83,4.13h0A6.27,6.27,0,0,1,367.68,564.27Z"/><path class="cls-11" d="M326.78,598.92c.71,4.74-1,9.87-4.49,11.09s-7.08-1.76-8.84-5.83c-2.43-5.65-1.07-13.44,3.1-15.09S325.82,592.63,326.78,598.92Z"/><ellipse class="cls-19" cx="319.41" cy="595.74" rx="2.09" ry="3.83" transform="translate(-106.82 71.09) rotate(-10.89)"/><path class="cls-11" d="M325.21,588.53c0,.55-3,1.1-8.83,2.12A28.15,28.15,0,0,1,306,591c-1.39-.25-3-.53-3-1,0-1,6.39-2.14,12.19-2.36C319.6,587.47,325.17,587.8,325.21,588.53Z"/><path class="cls-11" d="M360,587.93c.69,4.74-1.35,10-5.4,11.26-3.88,1.26-8-1.57-9.9-5.61-2.62-5.62-.86-13.49,3.92-15.26S359.12,581.64,360,587.93Z"/><ellipse class="cls-19" cx="351.74" cy="584.93" rx="2.38" ry="3.83" transform="translate(-104.2 77.01) rotate(-10.89)"/><path class="cls-11" d="M340.88,583.28c.29.46,3.12-.89,8.41-3.43a27.93,27.93,0,0,0,8.64-5.76c1-1,2.12-2.17,1.86-2.56-.52-.79-6.44,2-11.28,5.18C344.82,579.14,340.49,582.65,340.88,583.28Z"/><path class="cls-11" d="M321.19,636.25c-2.79-6,6.28-19,17.68-20.92,11.8-1.94,22.56,15.72,22.05,20.92a2.23,2.23,0,0,1-.38,1c-.66,1.28-3.15,4.72-18.54,3.75C329.22,640.2,322.83,639.79,321.19,636.25Z"/><path class="cls-19" d="M324.76,634.18c-1.19-3.43,6.31-11,14.52-11.68,9.29-.74,17.77,8.87,17.18,11.68a1.28,1.28,0,0,1-.17.37c-1.71,3-8.23,3-15.29,2.45C330.56,636.26,325.35,635.89,324.76,634.18Z"/><ellipse class="cls-17" cx="310.52" cy="514.92" rx="7.68" ry="13.03" transform="translate(-145.69 123.21) rotate(-18.26)"/><ellipse class="cls-17" cx="310.52" cy="514.92" rx="3.8" ry="6.44" transform="translate(-145.69 123.21) rotate(-18.26)"/><ellipse class="cls-20" cx="313.49" cy="500.4" rx="11.89" ry="22.63" transform="translate(-88.91 68.26) rotate(-10.89)"/><ellipse class="cls-21" cx="313.33" cy="502.67" rx="5.88" ry="11.19" transform="translate(-89.35 68.27) rotate(-10.89)"/><ellipse class="cls-22" cx="313.49" cy="500.4" rx="5.88" ry="11.19" transform="translate(-88.91 68.26) rotate(-10.89)"/><ellipse class="cls-23" cx="313.49" cy="500.4" rx="2.25" ry="4.28" transform="translate(-88.91 68.26) rotate(-10.89)"/><path class="cls-24" d="M447,699.45l-5.94,1c-5.48.91-6.21-14.55-7.25-20.64l-6-35.09c-.58-3.4,1.43-6.56,4.48-7.06l10.06,1.75c3.06-.5,9.16-2.1,9.74,1.3l6.81,40C460.47,689.66,455.11,698.11,447,699.45Z"/><path class="cls-25" d="M518.64,612.45,431,641.65a16.83,16.83,0,0,0-11,19.44,6.92,6.92,0,0,0,8.18,3.21l97-32.32a7,7,0,0,0,4.33-8.82l-2.08-6.24A7,7,0,0,0,518.64,612.45Z"/><path class="cls-24" d="M427.1,631.68h99.81a4.73,4.73,0,0,1,4.73,4.73v17.24a2.06,2.06,0,0,1-2.06,2.06H420.33A4.73,4.73,0,0,1,415.6,651v-7.81a11.5,11.5,0,0,1,11.5-11.5Z" transform="translate(-179.14 182.65) rotate(-18.42)"/><rect class="cls-26" x="453.58" y="632.3" width="48.6" height="17.15" rx="5.79" transform="translate(-178.03 183.85) rotate(-18.42)"/><path class="cls-27" d="M461.49,642.48l30.11-10a8.47,8.47,0,0,1,9.59,3.25,8.86,8.86,0,0,0-.07-2.57c-1.49-4.47-3.54-7.85-7.94-6.39l-35.39,11.79c-4.4,1.46-4.63,5.61-3.14,10.08a8.57,8.57,0,0,0,1.12,2.22A8.46,8.46,0,0,1,461.49,642.48Z"/><rect class="cls-10" x="341.63" y="642.38" width="39.83" height="136.85" rx="12" transform="translate(973.73 199.74) rotate(77.1)"/><rect class="cls-16" x="422.14" y="667.61" width="48.85" height="40.75" rx="12" transform="translate(-194.52 176.37) rotate(-18.42)"/><path class="cls-8" d="M467.72,686.1,444.15,694A12,12,0,0,1,429,686.36l-4.1-12.3a12,12,0,0,0-4.22,13.4l5.3,15.89a12,12,0,0,0,15.17,7.59l23.58-7.85a12,12,0,0,0,7.59-15.18l-1.19-3.58A11.71,11.71,0,0,1,467.72,686.1Z"/><path class="cls-28" d="M618.65,389.34v51.37a8.36,8.36,0,0,0,3.61,7.4q2.46,1.61,2.46,3.79v4.26c0,1.46-.82,2.18-2.46,2.18H592.68c-1.39,0-2.08-.66-2.08-2V451.9c0-1.39.82-2.66,2.46-3.79a8.52,8.52,0,0,0,3.6-7.4V328.48a8.27,8.27,0,0,0-3.6-7.3,4.62,4.62,0,0,1-2.46-3.89v-4.17c0-1.45.82-2.18,2.46-2.18H617.9q21,0,32,9.48t11,27.4q0,28.53-26.45,36.87,7.78,3.8,11.81,8.58t6.21,14.08l6.92,30q1.32,5.79,2.6,7.82a12.69,12.69,0,0,0,4.22,3.84,2,2,0,0,1,.85,1.8v5.41a1.83,1.83,0,0,1-2.07,2.08h-18.9c-1.83,0-3-1-3.5-3l-13-52.12q-2.08-8.61-4.6-11.18A8.85,8.85,0,0,0,618.65,389.34Zm0-66.93v55.65q10.25,0,15.08-6.45t4.83-22.94q0-16.11-4.88-21.19T618.65,322.41Z"/><path class="cls-28" d="M762.44,458.34H697.51a2,2,0,0,1-2.28-2.27V451.9c0-1.33,1-2.78,3.13-4.36,1.83-1.46,2.75-3.73,2.75-6.83V328.48a8.42,8.42,0,0,0-3.51-7.39,4.6,4.6,0,0,1-2.37-3.8v-4.55q0-1.8,2.28-1.8h48.72c.88,0,2.56-.09,5-.28,2.22-.19,3.61-.29,4.17-.29,2.09,0,3.13.57,3.13,1.71V340q0,2.18-.42,2.61a4.14,4.14,0,0,1-2.42.42H752.2c-1.51,0-2.37-.88-2.56-2.65a39.74,39.74,0,0,0-3.74-12.66q-2.7-5.25-10.86-5.26H723.1v53.65h4.36q4.08,0,5.59-1.56t3.8-9.81a11.85,11.85,0,0,1,1-2.94,3,3,0,0,1,1.7-.28h4.18q2.46,0,2.46,2.37v35.73a2,2,0,0,1-2.27,2.28h-4.37a2.44,2.44,0,0,1-2-.71,16.59,16.59,0,0,1-1.51-4.41q-1.71-6.74-3.7-8.2a9.1,9.1,0,0,0-5.5-1.47H723.1v60h12.8q7.11,0,9.86-3.36t6.82-18.44q.95-3.4,3.41-3.41h4.08a2.09,2.09,0,0,1,2.37,2.37Z"/><path class="cls-28" d="M800.72,458.34H796c-1.58,0-2.37-.85-2.37-2.56V420.05c0-2.4.86-3.6,2.56-3.6h4.08a2.12,2.12,0,0,1,2.13,1.09q.52,1.08,1.47,7.53,3.89,24.84,17.73,24.84a12.89,12.89,0,0,0,11.32-6.26A27,27,0,0,0,837,428.48a34.35,34.35,0,0,0-4.41-17.06q-4.41-7.86-17-21.23a177.78,177.78,0,0,1-13.88-15.88,49.08,49.08,0,0,1-6.64-12.75,46.77,46.77,0,0,1-2.51-15.64q0-15.74,7.91-25.88t19.29-10.14a25.37,25.37,0,0,1,11.19,3,10.55,10.55,0,0,0,3.6,1.34,3.8,3.8,0,0,0,2.09-.78,5.48,5.48,0,0,1,2.84-.68H843c1.83,0,2.75.86,2.75,2.56v31.38c0,1.58-.7,2.37-2.09,2.37H839.3a2.37,2.37,0,0,1-2.23-.9,41.71,41.71,0,0,1-1.84-6.87q-4.47-20.58-14.51-20.57a10.16,10.16,0,0,0-8.67,4.55,17.55,17.55,0,0,0-3.27,10.52A30.16,30.16,0,0,0,812.62,350q3.84,7.24,15.31,19,14.69,15.06,20.33,26.49a55.24,55.24,0,0,1,5.64,24.79q0,18-9.43,29.29t-22.42,11.28a37.94,37.94,0,0,1-13.56-3.06,10.7,10.7,0,0,0-3.5-1.05,5,5,0,0,0-2.47,1A3.9,3.9,0,0,1,800.72,458.34Z"/><path class="cls-28" d="M912.09,440.71a8.38,8.38,0,0,0,3.6,7.4q2.46,1.61,2.46,3.79v4.26c0,1.46-.82,2.18-2.46,2.18H886.11c-1.39,0-2.08-.66-2.08-2V451.9c0-1.39.82-2.66,2.46-3.79a8.53,8.53,0,0,0,3.61-7.4V328.48a8.28,8.28,0,0,0-3.61-7.3,4.62,4.62,0,0,1-2.46-3.89v-4.17c0-1.45.82-2.18,2.46-2.18h29.58c1.39,0,2.08.67,2.08,2v4.36c0,1.46-.82,2.75-2.46,3.89a8.42,8.42,0,0,0-3.6,7.3Z"/><path class="cls-28" d="M948.28,317.29v-4.93c0-.94.73-1.42,2.18-1.42h24.65q20.85,0,35.17,17t14.31,55.21a161.11,161.11,0,0,1-4.31,37.68q-4.32,18-13.84,27.73t-32.09,9.76H950c-1.14,0-1.71-.53-1.71-1.61V451.9c0-1.39.79-2.66,2.37-3.79a8.76,8.76,0,0,0,3.51-7.4V328.48q0-4.83-3.13-7Q948.29,319.48,948.28,317.29Zm27.78,4.93V447.35q9.48,0,14.69-4.55t7.58-19.91a233.36,233.36,0,0,0,2.37-35.26q0-21.53-1.8-34.13t-4.5-19q-2.7-6.4-6.68-9.05T976.06,322.22Z"/><path class="cls-28" d="M1124.39,458.34h-64.93a2,2,0,0,1-2.28-2.27V451.9c0-1.33,1-2.78,3.13-4.36,1.84-1.46,2.75-3.73,2.75-6.83V328.48a8.42,8.42,0,0,0-3.51-7.39,4.6,4.6,0,0,1-2.37-3.8v-4.55q0-1.8,2.28-1.8h48.72c.89,0,2.56-.09,5-.28,2.21-.19,3.6-.29,4.17-.29,2.08,0,3.13.57,3.13,1.71V340a4.64,4.64,0,0,1-.43,2.61,4.14,4.14,0,0,1-2.42.42h-3.51c-1.51,0-2.37-.88-2.56-2.65a39.74,39.74,0,0,0-3.74-12.66q-2.7-5.25-10.85-5.26h-12v53.65h4.36c2.72,0,4.58-.52,5.6-1.56s2.27-4.31,3.79-9.81a11.85,11.85,0,0,1,1-2.94,3,3,0,0,1,1.71-.28h4.17q2.46,0,2.46,2.37v35.73a2,2,0,0,1-2.27,2.28h-4.36a2.43,2.43,0,0,1-2-.71,16.08,16.08,0,0,1-1.52-4.41q-1.71-6.74-3.7-8.2a9.06,9.06,0,0,0-5.49-1.47h-3.8v60h12.8q7.11,0,9.86-3.36t6.82-18.44q.95-3.4,3.42-3.41H1122a2.09,2.09,0,0,1,2.37,2.37Z"/><path class="cls-28" d="M1209,390.74V328.52a8.29,8.29,0,0,0-3.61-7.32,4.62,4.62,0,0,1-2.46-3.89v-4.18q0-2.19,2.46-2.19h21.43c1.39,0,2.08.67,2.08,2v4.36a4.81,4.81,0,0,1-2.37,3.89,8.36,8.36,0,0,0-3.69,7.3V456c0,2-.92,3-2.76,3h-4.18q-2.85,0-4-3l-39.31-103.32v88.06a8.34,8.34,0,0,0,3.64,7.4,4.57,4.57,0,0,1,2.42,3.79v4.26c0,1.46-.81,2.18-2.44,2.18h-21.17c-1.38,0-2.08-.66-2.08-2V451.9c0-1.39.83-2.66,2.47-3.79a8.52,8.52,0,0,0,3.6-7.4V328.48a8.27,8.27,0,0,0-3.6-7.3,4.63,4.63,0,0,1-2.47-3.89v-4.17c0-1.45.82-2.18,2.46-2.18h20a5.58,5.58,0,0,1,2.93.53,5.5,5.5,0,0,1,1.51,2.51Z"/><path class="cls-28" d="M1304,321.94V440.71a8.36,8.36,0,0,0,3.61,7.4q2.46,1.61,2.46,3.79v4.26c0,1.46-.82,2.18-2.46,2.18H1278c-1.39,0-2.08-.66-2.08-2V451.9c0-1.39.82-2.66,2.46-3.79a8.52,8.52,0,0,0,3.6-7.4V321.94h-4.17a7.55,7.55,0,0,0-6.87,3.51q-2.24,3.49-4,15.45a1.73,1.73,0,0,1-2,1.61h-3.7c-2.15,0-3.22-.92-3.22-2.75V312.18q0-3.23,3-3.23a52.37,52.37,0,0,1,6.73.76,82,82,0,0,0,11.76,1.23h33.55q2.57-.37,6.26-1,5.69-.86,6.26-.85c1.7,0,2.56.79,2.56,2.37v28.34c0,1.83-.83,2.75-2.47,2.75h-3.6c-1.46,0-2.32-.41-2.61-1.23a62.79,62.79,0,0,1-1.37-6.17q-1.71-8.14-3.51-10.66t-6.35-2.51Z"/><path class="cls-29" d="M613.18,383v50.59a8.21,8.21,0,0,0,3.55,7.28,4.5,4.5,0,0,1,2.42,3.74v4.2c0,1.43-.8,2.14-2.42,2.14H587.6c-1.37,0-2.05-.65-2.05-2v-4.38q0-2.06,2.43-3.74a8.38,8.38,0,0,0,3.54-7.28V323.11a8.16,8.16,0,0,0-3.54-7.19,4.54,4.54,0,0,1-2.43-3.82V308c0-1.43.81-2.15,2.43-2.15h24.45q20.73,0,31.55,9.34t10.83,27q0,28.11-26,36.31,7.65,3.74,11.62,8.45t6.12,13.86l6.81,29.6q1.3,5.69,2.57,7.7a12.38,12.38,0,0,0,4.15,3.78,2,2,0,0,1,.84,1.77v5.32a1.81,1.81,0,0,1-2,2.05h-18.6q-2.7,0-3.45-3L624,396.67q-2.06-8.49-4.53-11A8.76,8.76,0,0,0,613.18,383Zm0-65.9v54.79q10.08,0,14.84-6.35T632.78,343q0-15.86-4.8-20.86T613.18,317.14Z"/><path class="cls-29" d="M754.77,451H690.83a2,2,0,0,1-2.24-2.24v-4.1q0-2,3.08-4.3,2.72-2.14,2.71-6.72V323.11a8.31,8.31,0,0,0-3.46-7.28,4.52,4.52,0,0,1-2.33-3.73v-4.48c0-1.19.75-1.78,2.24-1.78h48c.87,0,2.52-.09,5-.28,2.18-.18,3.55-.28,4.11-.28,2,0,3.08.56,3.08,1.68v27.45c0,1.43-.14,2.28-.42,2.56a4,4,0,0,1-2.38.42h-3.46q-2.24,0-2.52-2.61a38.9,38.9,0,0,0-3.69-12.46q-2.65-5.19-10.68-5.18H716V370h4.3q4,0,5.51-1.54t3.73-9.66a11.6,11.6,0,0,1,1-2.89c.18-.19.74-.28,1.68-.28h4.1c1.62,0,2.43.77,2.43,2.33v35.19a2,2,0,0,1-2.24,2.24h-4.29a2.36,2.36,0,0,1-2-.7,15.4,15.4,0,0,1-1.5-4.34q-1.68-6.63-3.64-8.07a8.89,8.89,0,0,0-5.41-1.45H716v59.09h12.61q7,0,9.7-3.32t6.72-18.15q.95-3.36,3.37-3.36h4a2.06,2.06,0,0,1,2.33,2.33Z"/><path class="cls-29" d="M792.47,451H787.8c-1.55,0-2.33-.84-2.33-2.52V413.28q0-3.54,2.52-3.54h4a2.08,2.08,0,0,1,2.1,1.07q.52,1.08,1.45,7.42,3.83,24.47,17.46,24.46a12.69,12.69,0,0,0,11.15-6.16,26.53,26.53,0,0,0,4.06-14.94,33.74,33.74,0,0,0-4.34-16.8q-4.33-7.76-16.75-20.91a174.16,174.16,0,0,1-13.68-15.64,48.31,48.31,0,0,1-6.53-12.55,45.93,45.93,0,0,1-2.48-15.4q0-15.5,7.8-25.49t19-10a25,25,0,0,1,11,2.92,10.24,10.24,0,0,0,3.55,1.32,3.75,3.75,0,0,0,2.05-.77,5.45,5.45,0,0,1,2.8-.66h3.45c1.81,0,2.71.84,2.71,2.52V341c0,1.56-.69,2.34-2,2.34h-4.3a2.33,2.33,0,0,1-2.19-.89,40.56,40.56,0,0,1-1.82-6.77q-4.4-20.25-14.28-20.25a10,10,0,0,0-8.54,4.48,17.25,17.25,0,0,0-3.22,10.36,29.71,29.71,0,0,0,3.78,13.95Q808,351.39,819.26,363q14.47,14.83,20,26.09a54.3,54.3,0,0,1,5.56,24.41q0,17.73-9.29,28.84t-22.08,11.11a37.26,37.26,0,0,1-13.34-3,10.49,10.49,0,0,0-3.46-1,4.91,4.91,0,0,0-2.43.95A3.81,3.81,0,0,1,792.47,451Z"/><path class="cls-29" d="M902.14,433.63a8.21,8.21,0,0,0,3.55,7.28q2.41,1.59,2.42,3.74v4.2c0,1.43-.81,2.14-2.42,2.14H876.56c-1.37,0-2-.65-2-2v-4.38q0-2.06,2.43-3.74a8.38,8.38,0,0,0,3.54-7.28V323.11a8.16,8.16,0,0,0-3.54-7.19,4.54,4.54,0,0,1-2.43-3.82V308c0-1.43.81-2.15,2.43-2.15h29.12c1.37,0,2.05.66,2.05,2v4.3q0,2.14-2.42,3.82a8.28,8.28,0,0,0-3.55,7.19Z"/><path class="cls-29" d="M937.78,312.1v-4.86c0-.93.72-1.4,2.15-1.4H964.2q20.53,0,34.63,16.76t14.1,54.37a158.56,158.56,0,0,1-4.25,37.11q-4.24,17.69-13.63,27.3T963.45,451h-24c-1.12,0-1.68-.52-1.68-1.58v-4.76q0-2.06,2.34-3.74a8.61,8.61,0,0,0,3.45-7.28V323.11q0-4.75-3.08-6.91C938.69,314.9,937.78,313.53,937.78,312.1ZM965.13,317V440.17q9.35,0,14.47-4.48t7.47-19.61a230.52,230.52,0,0,0,2.33-34.72q0-21.19-1.77-33.61T983.2,329q-2.67-6.3-6.58-8.92T965.13,317Z"/><path class="cls-29" d="M1111.21,451h-64a2,2,0,0,1-2.24-2.24v-4.1q0-2,3.08-4.3,2.72-2.14,2.71-6.72V323.11a8.32,8.32,0,0,0-3.45-7.28,4.51,4.51,0,0,1-2.34-3.73v-4.48c0-1.19.75-1.78,2.24-1.78h48c.88,0,2.52-.09,5-.28,2.18-.18,3.55-.28,4.11-.28,2,0,3.08.56,3.08,1.68v27.45c0,1.43-.14,2.28-.42,2.56a4,4,0,0,1-2.38.42h-3.46q-2.23,0-2.52-2.61a39.15,39.15,0,0,0-3.68-12.46q-2.67-5.19-10.69-5.18h-11.76V370h4.29c2.68,0,4.51-.51,5.51-1.54s2.24-4.25,3.73-9.66a11.6,11.6,0,0,1,1-2.89,2.9,2.9,0,0,1,1.68-.28h4.11c1.62,0,2.42.77,2.42,2.33v35.19a2,2,0,0,1-2.24,2.24h-4.29a2.37,2.37,0,0,1-2-.7,15.88,15.88,0,0,1-1.49-4.34c-1.12-4.42-2.34-7.11-3.64-8.07a9,9,0,0,0-5.42-1.45h-3.73v59.09h12.6q7,0,9.71-3.32t6.72-18.15q.93-3.36,3.36-3.36h4a2.07,2.07,0,0,1,2.34,2.33Z"/><path class="cls-29" d="M1194.55,384.42V323.15A8.15,8.15,0,0,0,1191,316a4.57,4.57,0,0,1-2.42-3.84V308c0-1.43.8-2.15,2.42-2.15h21.1c1.37,0,2.05.66,2.05,2v4.3a4.74,4.74,0,0,1-2.33,3.82,8.22,8.22,0,0,0-3.64,7.19V448.66c0,2-.91,3-2.71,3h-4.12a4,4,0,0,1-3.93-3l-38.71-101.75v86.72a8.19,8.19,0,0,0,3.58,7.28,4.52,4.52,0,0,1,2.39,3.74v4.2c0,1.43-.8,2.14-2.41,2.14h-20.85c-1.36,0-2-.65-2-2v-4.38q0-2.06,2.43-3.74a8.38,8.38,0,0,0,3.55-7.28V323.11a8.17,8.17,0,0,0-3.55-7.19,4.54,4.54,0,0,1-2.43-3.82V308c0-1.43.81-2.15,2.42-2.15h19.72a3.52,3.52,0,0,1,4.37,3Z"/><path class="cls-29" d="M1288.07,316.67v117a8.21,8.21,0,0,0,3.55,7.28q2.42,1.59,2.42,3.74v4.2c0,1.43-.81,2.14-2.42,2.14h-29.13c-1.37,0-2-.65-2-2v-4.38q0-2.06,2.43-3.74a8.38,8.38,0,0,0,3.54-7.28v-117h-4.1a7.46,7.46,0,0,0-6.77,3.45q-2.19,3.47-4,15.22a1.7,1.7,0,0,1-2,1.59H1246c-2.12,0-3.17-.91-3.17-2.71V307.06q0-3.18,3-3.18a50.29,50.29,0,0,1,6.63.75,80.36,80.36,0,0,0,11.58,1.21h33c1.68-.25,3.74-.59,6.16-1,3.74-.56,5.79-.83,6.16-.83,1.68,0,2.52.77,2.52,2.33v27.91c0,1.8-.81,2.71-2.42,2.71h-3.55c-1.43,0-2.29-.41-2.57-1.22a60.43,60.43,0,0,1-1.35-6.06q-1.68-8-3.46-10.51c-1.18-1.64-3.26-2.47-6.25-2.47Z"/><path class="cls-30" d="M659.17,663.43q.68,1.83,1.53,4.23t2,5.5a8.42,8.42,0,0,1,.8,1.76,5.34,5.34,0,0,1,.23,1.48,137.61,137.61,0,0,1-14.37,7.2q-7.53,3.24-15.86,6.06c-1.44.47-3.17,1-5.18,1.48s-4.32,1.2-6.9,2.05q-3.09,1.41-7.59,3.31t-10.43,3.88q-3.76,1.27-7.59,2.4c-2.55.75-5.07,1.46-7.58,2.11a77.68,77.68,0,0,1-8.61,2.12,38.91,38.91,0,0,1-6.67.71q-7.19,0-10.78-3.39t-3.59-10.15a43.25,43.25,0,0,1,2-13.19,41.7,41.7,0,0,1,6.1-11.92,49.45,49.45,0,0,1,3-5.08c1.25-1.88,2.71-4,4.39-6.35a53.41,53.41,0,0,0,4.45-5.28q2.73-3.6,6.61-10,2.63-3.95,5.42-8.32t5.41-8.6q1.26-2,3.14-5.22c1.26-2.16,2.68-4.66,4.28-7.48,1-1.13,2.11-2.54,3.36-4.23s2.64-3.71,4.16-6.06q3.2-5.09,6.79-11.64t7.58-14.46q6.39-12.12,9.53-19.81T638,545.66a5.54,5.54,0,0,0-1.82-3.74,22,22,0,0,0-5.59-3.88,48.18,48.18,0,0,0-5.65-2.61,16.35,16.35,0,0,0-4.16-1.06l-8.67-.42-3.07-1.2q-1.61-.63-3.54-1.2l-5.59,2.26a29.39,29.39,0,0,0-3.93-1.27,15.06,15.06,0,0,0-3.48-.43q-6.84.57-12.66,1.41l-3.08-1.41a4.12,4.12,0,0,1-.86-2.18c-.19-1.08-.47-2.52-.85-4.3.53-1.22,1.22-2.8,2-4.73s1.75-4.11,2.74-6.56c.3-1.31.49-2.3.57-3a14.21,14.21,0,0,1,4.62-7.55c2.17-1.73,5.11-2.6,8.84-2.6a39.33,39.33,0,0,1,5,.28c1.48.19,2.83.37,4.05.56l1.59,1.55a37.84,37.84,0,0,0,3.77-1.34,6.41,6.41,0,0,1,2.28-.63L624,504.89c1.29.1,2.89.31,4.79.64s4.07.77,6.5,1.34a33,33,0,0,0,4,2.68q2.45,1.41,5.76,3.24a24.78,24.78,0,0,1,7.64,5.43,28,28,0,0,1,5.24,7.69,33.44,33.44,0,0,1,2.63,7,27,27,0,0,1,.8,6.28,38.06,38.06,0,0,1-.92,8.6A27.22,27.22,0,0,1,657.8,555l-1.49,5.5a16.61,16.61,0,0,1-1.08,3.11,28.1,28.1,0,0,1-2.11,3.95q-1.93,3.24-4.22,6.63a16.77,16.77,0,0,1-2,3.88,37.31,37.31,0,0,1-3.77,4.58,4.22,4.22,0,0,0-1.08,1.27,14.87,14.87,0,0,0-1.2,2.4,51.19,51.19,0,0,1-3.87,7.61q-2.62,4.38-6.5,10.16-5.14,7.34-8,11.78t-4,6.27c-.92.94-1.83,1.93-2.74,3s-1.9,2.26-3,3.67L611.15,633a41.64,41.64,0,0,1-4,7.27q-3.42,5.43-9.58,14.59a130.15,130.15,0,0,0-8.89,13.83c-1.91,3.57-2.86,6-2.86,7.33a1.45,1.45,0,0,0,.92,1.41l4.44-1c1.07.29,2.09.52,3.08.71a39.59,39.59,0,0,1,5.71-.71l4,1.41a34,34,0,0,1,5.64-1.76,21.57,21.57,0,0,1,4.16-.49,56.06,56.06,0,0,0,10.84-1,36.28,36.28,0,0,0,9.24-3.1,44,44,0,0,0,5.7-1.2q3.42-.91,7.87-2.33a24.4,24.4,0,0,1,2.62-1.27,23.43,23.43,0,0,0,2.85-1.41q1.83-.42,3.48-.84A15.81,15.81,0,0,0,659.17,663.43Z"/><path class="cls-30" d="M696.67,612.37a14,14,0,0,1,.85-4.37,40.31,40.31,0,0,1,2.57-5.79c1.6-2.82,2.79-5,3.59-6.63a14.65,14.65,0,0,0,1.31-3.1c.38-1,.9-2.4,1.54-4.09s1.39-3.62,2.23-5.78c.76-1,1.63-3.27,2.62-6.7s2.13-8,3.42-13.61c.61-1.5,1.26-3.32,1.94-5.43s1.52-4.63,2.51-7.55a55.65,55.65,0,0,1,1.71-7.61q1.26-4.38,3.19-9.74,2.4-5.07,5-10a16.7,16.7,0,0,1,7.53-7.34,13.91,13.91,0,0,1,3,3.11,5.35,5.35,0,0,1,1,3c0,2.35-.85,5.48-2.57,9.38s-2.56,6.56-2.56,8a2.9,2.9,0,0,0,1,2.11,19.38,19.38,0,0,0,3.31-3.38q2.4-2.82,6.27-7.62a72.82,72.82,0,0,1,5.76-6,11.65,11.65,0,0,1,4.85-2.89,19.75,19.75,0,0,1,3.76-1.27,31.5,31.5,0,0,0,5.14-1.84,13.14,13.14,0,0,0,2.39-2,8.68,8.68,0,0,1,2.51-1.69l1.71.42c.69.85,2.58,1.72,5.7,2.61a30.94,30.94,0,0,0,5.93,1.34,13.55,13.55,0,0,1,2.4,2.26,34.55,34.55,0,0,0,3.53,3.38,33.85,33.85,0,0,1,8.5,9.94,81.31,81.31,0,0,1,7.13,16.3,132,132,0,0,1,4.5,16.92,82.17,82.17,0,0,1,1.54,15.52q0,23.55-4.79,40.9t-14.48,28.49L790,654.33c-.88,1.08-2,2.38-3.26,3.88v1.55a7.81,7.81,0,0,1-1.31,3,31.53,31.53,0,0,1-3,3.74q-4.21,4.8-8.55,9.66t-8.9,9.52a68.16,68.16,0,0,1-10.83,9.59,35.14,35.14,0,0,1-9.92,4.94,13.47,13.47,0,0,1-5.08,3.46,20,20,0,0,1-7.36,1.19,41.94,41.94,0,0,1-10.37-1,11.21,11.21,0,0,1-5.71-3,24.15,24.15,0,0,0-2.39-2.53c-.91-.85-2-1.93-3.19-3.25s-2.51-3.45-3.65-6.7a81.81,81.81,0,0,1-3.08-12.62q-.92-5.79-1.43-11.21c-.34-3.62-.51-7-.51-10.09a30.73,30.73,0,0,1,.57-4.65,22.78,22.78,0,0,0,.46-4.94c0-2.16-.08-4-.23-5.64a40.52,40.52,0,0,1,1.25-8,41.52,41.52,0,0,0,1.26-8.75,5.48,5.48,0,0,0-.69-2.11,20.82,20.82,0,0,0-2.62,4.65,5.88,5.88,0,0,1-1.6,2.12,2.86,2.86,0,0,1-1.71.7,2.22,2.22,0,0,1-2-1.27,7.62,7.62,0,0,1-.74-3.8,30.2,30.2,0,0,1,.62-5.08A30.83,30.83,0,0,0,696.67,612.37Zm68.43-69a19.37,19.37,0,0,0-5.59.85,32.68,32.68,0,0,0-5.82,2.39l-11.06,6.07a13,13,0,0,0-2.57,2.25,31.37,31.37,0,0,0-3.13,4.24l-5.25,8q-2.5,3.66-4.45,13.39T723.81,606q-1.14,12-1.59,22.36t-.46,19.11q0,17.91,4.45,26.73T739.66,683a20.69,20.69,0,0,0,9.47-2.75,55.52,55.52,0,0,0,11.4-8.39,93.88,93.88,0,0,0,9.24-9.66,57.44,57.44,0,0,0,6.62-9.94A74.92,74.92,0,0,0,780,644q2.44-6.35,6.78-17.34a112.48,112.48,0,0,0,4.45-16.3,88.75,88.75,0,0,0,1.6-17q-.69-4.23-1.48-8.32l.79-6.07c-.76-1.13-1.4-2.16-1.93-3.1l-.57-1.84q-3.54-15.22-9.58-22.92T765.1,543.4Z"/><path class="cls-30" d="M861.79,565.68q-.35-2.82-.8-5.92c0,.85.12.19.34-2s.53-5.88.92-11.15a15.46,15.46,0,0,0,1.31-2.75c.26-.8.51-1.52.74-2.18a23.5,23.5,0,0,1-1.54-2.61,4.28,4.28,0,0,1-.51-1.77q.9-8.6,1.71-16.36a9.52,9.52,0,0,1,2-4.79,39.12,39.12,0,0,1,5.19-5.79,42.26,42.26,0,0,1,5.13-4.51,32.91,32.91,0,0,1,4.79-3c2.06-.85,3.27-1.55,3.65-2.12A1.57,1.57,0,0,1,886,500q1.81,0,2.79,2.25a18,18,0,0,1,1,6.77,31.49,31.49,0,0,1-1,6.63,31,31,0,0,0-1,6.21c0,.56.06,2.73.17,6.49s.29,9.16.52,16.22a93.29,93.29,0,0,0,1.76,16.22q1.66,8.6,4.28,17.91,3.54,12.14,7.65,18.12t9,6q3.87,0,10.27-6.21T936.52,578q6.62-9.59,11.81-17.91a140.3,140.3,0,0,0,8.39-15.23,56.17,56.17,0,0,1,7-11.14,59.11,59.11,0,0,1,9.13-9l2.62-1.83a3.28,3.28,0,0,1,1.6-.71q2,0,3.09,3.81a44.26,44.26,0,0,1,1.07,11.28q-.68,6.91-1.13,13.68-1,10.59-3,22t-5.19,23.69q-1.59,6.21-2.73,10.86t-1.59,7.9q-.22,1.83-.63,4.59c-.26,1.83-.55,4-.85,6.41-.76,2.35-1.6,4.71-2.51,7a36.5,36.5,0,0,0-1.88,6.78c-.49,2.63-.93,5.69-1.31,9.16,0,.66,0,1.51-.11,2.54s-.15,2.12-.23,3.25Q957.4,669.5,954.66,683a16.64,16.64,0,0,1-1,3.25,10.61,10.61,0,0,0-3.36,2.39,28.37,28.37,0,0,0-3.92,5.08,34.65,34.65,0,0,1-3.42,4.16c-.91.9-1.6,1.34-2,1.34a1.81,1.81,0,0,1-1.48-.7,3.88,3.88,0,0,1-.57-2.4,8.82,8.82,0,0,1,.34-1.83A80.12,80.12,0,0,0,942,680.49q1.2-9,2.23-22.28.1-2.82,1.82-15.23t5-34.42q.45-3.52,1.2-8.67t1.88-11.78q.79-3.39,1.31-5.85a20.2,20.2,0,0,0,.51-3.6,4,4,0,0,0-.4-2,1.31,1.31,0,0,0-1.2-.63c-.45,0-1.29.73-2.51,2.19a62.37,62.37,0,0,0-4.56,6.55c-1.07,1.6-2.15,3.3-3.26,5.08s-2.26,3.53-3.48,5.22q-3.07,3.94-5.7,7.48l-8.45,10.43-2.8,2.12c-1.1.85-2.41,1.83-3.93,3a19,19,0,0,1-6.91,7.26q-4.74,3-8.73,3a14,14,0,0,1-9.19-3.74q-4.39-3.74-8.5-11.5-1.81-3.8-3.59-7.61c-1.18-2.54-2.46-5.08-3.82-7.62l-.57.14q-.58.85-2.11,11.43t-3.94,31q-2.62,21-4,33T866.92,689a20.81,20.81,0,0,1-1.42,7.4,4.86,4.86,0,0,1-3.71,3,25.78,25.78,0,0,0-3.54.78q-2.28.63-5.47,1.62a2.8,2.8,0,0,1-1-.49,1.27,1.27,0,0,1-.45-1.06L852,695l-1.14-5.36c.46-2.91.91-5.73,1.37-8.46q.45-8.46.8-15.94a47.91,47.91,0,0,1,.85-5.22,30,30,0,0,0,.74-5.5,17.51,17.51,0,0,0-.34-2.89,17.51,17.51,0,0,1-.34-2.89,191.33,191.33,0,0,1,2-23,193.5,193.5,0,0,0,2-23.13c-.23-2.16-.49-4.33-.8-6.49q.57-5.08,1.83-12.69T861.79,565.68Z"/><path class="cls-30" d="M1014.25,704.19c.69-.75,1.65-1.76,2.91-3s2.87-2.8,4.85-4.59a14.06,14.06,0,0,0,3.3-3.53,6.63,6.63,0,0,0,1-3.53q0-6.63-.06-8.47c0-1.22,0-2.16,0-2.82q0-13.54.57-21.18t1.48-9.45l-.23-4.24-.68-1c0-1,0-2,.05-2.75s.06-1.48.06-2.05q0-7.75-5.53-9.88t-5.53-8.61c0-1.31,1.06-2.94,3.19-4.86a83.07,83.07,0,0,1,9.35-7q.8-6.9,1.71-15.08t2.17-18c-.3-1.22-.53-2.23-.68-3a11,11,0,0,1-.23-2.18,41.3,41.3,0,0,1,.91-9,42.32,42.32,0,0,1,2.51-7.75,41.16,41.16,0,0,1,2.62-4.3q1.6-2.33,3.88-5.14a23.93,23.93,0,0,0,2.74-3.74,5.88,5.88,0,0,0,.91-2.61,2.43,2.43,0,0,0-.74-1.83,3,3,0,0,0-2.11-.7q-4.23,0-12.43,3.31t-12.32,3.32a3.6,3.6,0,0,1-2-.43,1.59,1.59,0,0,1-.62-1.41,44.49,44.49,0,0,1,.23-4.93,12.4,12.4,0,0,1,.57-3,19.54,19.54,0,0,0,3-3.52,6.27,6.27,0,0,0,1.08-3.39q0-.7,1.2-1.83a10.27,10.27,0,0,1,3.82-2q10.48-3.66,16-5.64l6.33-2.25a88.73,88.73,0,0,1,12.2-2.9,70,70,0,0,1,10.84-.91,14.82,14.82,0,0,1,2.28.35,4.08,4.08,0,0,0,2.28.07c1.52-.28,3.12-.61,4.79-1a27.78,27.78,0,0,1,4,.78l9.24,2.18c.84-.18,1.75-.42,2.74-.7a11,11,0,0,1,5.53,1.27,9.06,9.06,0,0,1,3.48,3.52,12.09,12.09,0,0,0,3.08.43,8.26,8.26,0,0,1,5.41,2,17,17,0,0,1,4.28,5.85,47.78,47.78,0,0,1,2.51,7.26,29.82,29.82,0,0,1,.91,7.4,39,39,0,0,1-2.57,14.16,40.65,40.65,0,0,1-7.69,12.48c-.38.28-2.23,2-5.53,5s-8.12,7.31-14.43,12.76a23.11,23.11,0,0,0-2.4,2.39,34,34,0,0,1-3.3,3.24q-9.36,6.91-18,13.25a104.27,104.27,0,0,0-11.06,8.32c-2.51,2.26-3.77,3.85-3.77,4.79a7.36,7.36,0,0,0,1.94,5,16.21,16.21,0,0,0,5.93,3.88q5.82,2.55,13.12,5.79t15.62,7.76a9.16,9.16,0,0,1,2,1.13c.79.57,1.69,1.18,2.68,1.84q9.8,4.51,14.54,11.08a25.3,25.3,0,0,1,4.73,15.17q0,12.57-18.3,23.86t-54.8,21.45c-.38,1.32-.82,2.63-1.31,3.95s-.94,2.58-1.32,3.81a6.23,6.23,0,0,1-2.28,2.47,6.38,6.38,0,0,1-3.42.91,3.9,3.9,0,0,1-3.42-1.9,14,14,0,0,1-1.71-6c-.61-.65-1.1-.94-1.48-.84l-6.5,2.11c-.84-.56-1.62-1.05-2.34-1.48s-1.47-.87-2.23-1.34a6.57,6.57,0,0,1-1.82-2,5.14,5.14,0,0,1-.68-2.61,2.82,2.82,0,0,1,.74-2A19.58,19.58,0,0,1,1014.25,704.19Zm35-66.91c-1.21,0-2.26,1.3-3.13,3.88a56.35,56.35,0,0,0-2.11,11.51q-.46,7.07-.92,14.19c-.3,4.76-.6,9.48-.91,14.19-.45,2.35-.84,4.85-1.14,7.48l.23,1.41.91.57q4.56-1.56,10.15-3.25c2.59,0,4.13-.3,4.62-.92s6.63-4.16,18.42-10.66a54.12,54.12,0,0,0,11.29-7.41c2.51-2.3,3.76-4.31,3.76-6a5,5,0,0,0-1-3,15.19,15.19,0,0,0-3.08-3,79,79,0,0,0-11.86-7.69,112.62,112.62,0,0,0-14.26-6.29c-.68-.28-1.46-.58-2.34-.91s-1.84-.68-2.91-1.06c-1.67-.94-2.94-1.7-3.82-2.26A4.39,4.39,0,0,0,1049.26,637.28Zm22.13-105.73a25.86,25.86,0,0,0-7,.78,6.57,6.57,0,0,0-3.82,2.46,14,14,0,0,0-1.88,4.37q-1,3.24-2.11,8.88-.45,3.11-.63,6.9t0,8.32a41.1,41.1,0,0,1-2.63,6.2l.57,3.66q-1.36,7.05-1.93,11.28a50.33,50.33,0,0,0-.57,5.63,4.84,4.84,0,0,0,.68,3,2.36,2.36,0,0,0,1.94.84c.76,0,2.56-1,5.42-3.1s6.78-5.17,11.8-9.3q8.33-6.77,12.72-10.36t5.07-4q1.48-2.25,2.91-4.44t2.79-4.29a30.33,30.33,0,0,0,2.85-5.29,11.52,11.52,0,0,0,.92-4.16,11,11,0,0,0-1.71-6,14.65,14.65,0,0,0-5.14-4.66c-.76-.37-2.11-.93-4-1.69a62.77,62.77,0,0,0-7.47-2.25c-2.5-.85-4.48-1.5-5.93-2A12.84,12.84,0,0,0,1071.39,531.55Z"/><path class="cls-30" d="M1157.82,674.15q0-7.9.51-13.33a72.34,72.34,0,0,1,1.2-8.53c-.16-1.6-.34-3.25-.57-4.94q0-3,.57-9.87t1.71-18.06q1-10.71,1.77-16.57c.49-3.9.85-6.28,1.08-7.12q-.22-2.4-.51-5.22c-.19-1.88-.52-4-1-6.21L1160.1,582l-.57-1.69q.23-3.95.4-8t.74-8.11a51.34,51.34,0,0,1,1.08-8.88q.86-3.81,1.77-6.63a15.33,15.33,0,0,0,.74-2,21.46,21.46,0,0,1,1.08-2.68q1-5.07,2.06-10.15t2.16-9.87a19.06,19.06,0,0,1,4.91-7.76,15.14,15.14,0,0,1,7.75-3.81,42.13,42.13,0,0,1,5.48-3.17,9.24,9.24,0,0,1,3.65-1.06,2.79,2.79,0,0,1,2.5,1.55,8.66,8.66,0,0,1,.92,4.37c0,.76-.31,3.36-.92,7.83s-1.55,10.65-2.85,18.55c-.22,2.63-.61,5.76-1.14,9.38s-1.25,7.92-2.16,12.9q-1.71,8.32-3.37,18.27t-3,21.93c-.38,3.39-.8,6.72-1.25,10s-.88,6.63-1.26,10q-.67,5.79-1.2,10.93t-.51,9.24a25.49,25.49,0,0,0,.17,3,21.08,21.08,0,0,1,.17,2.68,17.13,17.13,0,0,1,0,4.09c-.19,1.69-.4,3.72-.63,6.06s-.57,4.31-.8,6.14a36.1,36.1,0,0,0-.34,4.16q0,7.2.28,11.64a42.18,42.18,0,0,0,.63,5.85q.8,3.81,1.6,8.18,0,2.4-5.14,7.12t-7.41,4.73a3.24,3.24,0,0,1-2.45-1.2,15.29,15.29,0,0,1-2.22-3.6,40.63,40.63,0,0,1-1.26-4.09,14.25,14.25,0,0,1-.45-3.38,12.64,12.64,0,0,1,.45-2.68,12.93,12.93,0,0,0,.46-2.68,43.85,43.85,0,0,0-2.06-7c-.15.94-.22.75-.22-.57Z"/><path class="cls-30" d="M1319.86,663.43l4.33,13a42.82,42.82,0,0,1-3,3q-1.77,1.62-4.16,3.45a61.36,61.36,0,0,0-5.76,2.82l-7.7,4.23a59.12,59.12,0,0,1-5.42,3.81,7.33,7.33,0,0,1-2.91,1.27,18.51,18.51,0,0,0-5.41,1.55q-3.94,1.56-10.32,4.66-3.42,1.54-7.25,3.17a80.63,80.63,0,0,1-7.92,2.89l-7.07-1.83-4.34,2.4c-1.44,0-2.9,0-4.39-.07a40.93,40.93,0,0,1-4.27-.36,10.84,10.84,0,0,1-5-1.12,3.11,3.11,0,0,1-1.66-2.83l.69-5.36-.69-1c-2.58,0-4.31-.43-5.19-1.27s-1.31-2.82-1.31-5.93q0-2.12.17-7.05t.52-12.83a12.39,12.39,0,0,1,.74-3,12.17,12.17,0,0,0,.74-3.24,10.24,10.24,0,0,1-.69-2.26,12.67,12.67,0,0,1-.11-1.55q.23-5.49,1-13.54t1.88-19q1.37-6.63,2.28-15-.23-6.21-.45-12.69,4.21-23.42,8.66-47.11a28.19,28.19,0,0,1,2.57-8,47.11,47.11,0,0,1,4.5-7.34,7.64,7.64,0,0,0,1.49-1.55c.38-.84.87-1.9,1.48-3.17s1.33-2.7,2.17-4.3c.45-.38,1.19-.94,2.22-1.7s2.41-1.78,4.16-3.1c.76-.75,1.64-1.64,2.63-2.68s2.12-2.26,3.42-3.67a81.71,81.71,0,0,0,8-6.84,16.54,16.54,0,0,1,9.29-4.44c1.75-.09,3.5-.21,5.25-.35s3.42-.31,5-.5a25.91,25.91,0,0,1,4-.7c.76-.19,1.42-.38,2-.57a5.25,5.25,0,0,1,1.54-.28,11.44,11.44,0,0,1,1.88.21c.8.14,1.89.36,3.25.64,1.07.09,2,.14,2.74.14a16.72,16.72,0,0,0,2.17-.14,13.35,13.35,0,0,1,6.73,4.94,13.64,13.64,0,0,1,2.16,7.75q0,9.74-1.54,14.46c-1,3.15-2.64,4.73-4.84,4.73q-2.52,0-5.7-3.18t-17.23-3.17l-11.51,2.82a4.81,4.81,0,0,1-1.32,1.69,8.12,8.12,0,0,1-1.31.85l-4-1.84c-1.22.57-2.58,2.12-4.1,4.66a66.2,66.2,0,0,0-4.79,10.44,14.27,14.27,0,0,0-.86,3.52,37.59,37.59,0,0,0-.28,4.94q-2.05,10.15-4.11,19.6-1.93,10.15-3.14,15.38c-.79,3.48-1.27,5.59-1.42,6.34-.23,1-.42,1.84-.57,2.68a13.71,13.71,0,0,0-.23,2.54,5.66,5.66,0,0,0,.57,2.82,1.85,1.85,0,0,0,1.71,1c.68,0,2.34-1.55,5-4.65s4.58-4.85,5.87-5.22q2.4-.85,4.85-1.84a48.73,48.73,0,0,0,5.08-2.39,34.06,34.06,0,0,1,5.41-1.13q4.39-.7,12.26-1.69l3.2,1.12,6-1.41,3.19,1.84a17,17,0,0,1,2.11,3.45,38.91,38.91,0,0,1,1.77,4.45q0,8.46-1.48,12.83c-1,2.92-2.47,4.37-4.45,4.37l-6.27-3.1q-7.76,1-15.34,1.91t-15.45,1.76q-9.58,2.4-14.71,7.76t-5.71,14.1a52.19,52.19,0,0,1-.8,5.64q-.68,3.81-1.59,9.45l.8,4.23c-.69,4.05-1.22,7.85-1.6,11.43a91.61,91.61,0,0,0-.57,9.59,4.49,4.49,0,0,0,.34,2c.23.43.5.55.8.36q5.48-.57,8.78-.85a29,29,0,0,1,4.68-.14c2,.19,4,.38,6,.56l7.19-.7a31.79,31.79,0,0,0,5-2.26,15.32,15.32,0,0,1,6.9-2,27.48,27.48,0,0,0,6.67-.85,36.11,36.11,0,0,0,6.44-2.26c2.06-.93,4.09-1.9,6.1-2.89s4.05-2,6.11-2.89a20.32,20.32,0,0,0,3-1.55C1316.72,665.64,1318.19,664.65,1319.86,663.43Z"/><line class="cls-31" x1="530.5" y1="472.15" x2="1389.5" y2="472.15"/><path class="cls-4" d="M666.24,651.58c.46,1.22,1,2.63,1.54,4.23s1.23,3.43,2,5.5a8.42,8.42,0,0,1,.8,1.76,5.4,5.4,0,0,1,.23,1.48,135.67,135.67,0,0,1-14.37,7.2q-7.53,3.24-15.85,6.06-2.18.72-5.19,1.48t-6.9,2.05q-3.07,1.41-7.58,3.31t-10.44,3.88q-3.76,1.28-7.58,2.4t-7.59,2.12a76.42,76.42,0,0,1-8.61,2.11,38.82,38.82,0,0,1-6.67.71q-7.18,0-10.78-3.39t-3.59-10.15a43.26,43.26,0,0,1,2-13.19,41.58,41.58,0,0,1,6.1-11.92,52.22,52.22,0,0,1,3-5.08q1.89-2.82,4.39-6.34a55,55,0,0,0,4.45-5.29q2.73-3.6,6.61-10,2.63-3.94,5.42-8.32t5.42-8.6c.83-1.32,1.88-3.06,3.13-5.22s2.68-4.66,4.28-7.48q1.49-1.68,3.37-4.23t4.16-6.06q3.19-5.08,6.78-11.64t7.59-14.46q6.38-12.12,9.52-19.81T645,533.81a5.53,5.53,0,0,0-1.83-3.74,22,22,0,0,0-5.59-3.88,48.88,48.88,0,0,0-5.64-2.61,16.45,16.45,0,0,0-4.16-1.06l-8.67-.42c-1-.37-2-.78-3.08-1.2s-2.24-.82-3.54-1.2L606.94,522a29.49,29.49,0,0,0-3.94-1.27,15,15,0,0,0-3.48-.42q-6.84.56-12.66,1.41l-3.08-1.41a4.21,4.21,0,0,1-.85-2.19c-.19-1.08-.48-2.51-.86-4.3l2.06-4.73c.83-1.92,1.75-4.11,2.73-6.56a26.11,26.11,0,0,0,.57-3,14.27,14.27,0,0,1,4.62-7.54q3.26-2.61,8.84-2.61a39.22,39.22,0,0,1,5,.28c1.48.19,2.83.38,4,.56l1.6,1.55a37.81,37.81,0,0,0,3.76-1.33,6.31,6.31,0,0,1,2.28-.64L631.11,493c1.3.1,2.89.31,4.79.64s4.07.77,6.5,1.34a33.43,33.43,0,0,0,4.05,2.68q2.46,1.41,5.76,3.24a24.66,24.66,0,0,1,7.64,5.43,27.79,27.79,0,0,1,5.25,7.69,33.58,33.58,0,0,1,2.62,7,27,27,0,0,1,.8,6.28,38.07,38.07,0,0,1-.91,8.6,27,27,0,0,1-2.74,7.2l-1.48,5.5a17,17,0,0,1-1.09,3.1,28.1,28.1,0,0,1-2.11,3.95q-1.94,3.24-4.21,6.63a17.05,17.05,0,0,1-2.06,3.88,36.43,36.43,0,0,1-3.76,4.58,4,4,0,0,0-1.08,1.27,14.87,14.87,0,0,0-1.2,2.4A51.37,51.37,0,0,1,644,582q-2.62,4.38-6.5,10.16-5.13,7.34-8,11.78t-4.05,6.27c-.91.94-1.82,1.93-2.74,3s-1.9,2.26-3,3.67l-1.48,4.23a41.58,41.58,0,0,1-4,7.27q-3.42,5.43-9.58,14.6a131.83,131.83,0,0,0-8.89,13.82c-1.9,3.57-2.85,6-2.85,7.33a1.44,1.44,0,0,0,.91,1.41l4.45-1c1.06.29,2.09.52,3.08.71a41.1,41.1,0,0,1,5.7-.71l4,1.42a33.27,33.27,0,0,1,5.65-1.77,21.49,21.49,0,0,1,4.16-.49,55.88,55.88,0,0,0,10.83-1,36,36,0,0,0,9.24-3.1,44,44,0,0,0,5.7-1.2c2.28-.61,4.91-1.39,7.87-2.33a24.57,24.57,0,0,1,2.63-1.27,23.43,23.43,0,0,0,2.85-1.41c1.21-.28,2.37-.56,3.47-.84A14.54,14.54,0,0,0,666.24,651.58Z"/><path class="cls-4" d="M703.74,600.52a14.07,14.07,0,0,1,.86-4.37,39.16,39.16,0,0,1,2.57-5.78c1.59-2.83,2.79-5,3.59-6.63a15.23,15.23,0,0,0,1.31-3.11c.38-1,.89-2.39,1.54-4.09s1.38-3.62,2.22-5.78c.76-1,1.64-3.27,2.63-6.7s2.12-8,3.42-13.61q.9-2.25,1.94-5.43c.68-2.12,1.52-4.63,2.5-7.55a57.39,57.39,0,0,1,1.72-7.61q1.25-4.38,3.19-9.74,2.4-5.07,5-10a16.56,16.56,0,0,1,7.52-7.33,14,14,0,0,1,3,3.1,5.44,5.44,0,0,1,1,3q0,3.53-2.56,9.38t-2.57,8a3,3,0,0,0,1,2.12,20.39,20.39,0,0,0,3.31-3.39q2.38-2.82,6.27-7.62a72.82,72.82,0,0,1,5.76-6,11.59,11.59,0,0,1,4.85-2.89,20.22,20.22,0,0,1,3.76-1.27,32.26,32.26,0,0,0,5.13-1.83,13.32,13.32,0,0,0,2.4-2,8.81,8.81,0,0,1,2.5-1.69l1.72.42q1,1.28,5.7,2.61A29.83,29.83,0,0,0,791,506a13.9,13.9,0,0,1,2.39,2.26,33.74,33.74,0,0,0,3.54,3.38,33.76,33.76,0,0,1,8.49,9.95,80.39,80.39,0,0,1,7.13,16.29,132.1,132.1,0,0,1,4.51,16.92,83,83,0,0,1,1.54,15.52q0,23.55-4.79,40.9t-14.49,28.49l-2.22,2.75c-.88,1.08-2,2.38-3.25,3.88v1.55a7.81,7.81,0,0,1-1.31,3,32.58,32.58,0,0,1-3,3.74q-4.23,4.8-8.56,9.66t-8.89,9.52a68.74,68.74,0,0,1-10.84,9.6,35.36,35.36,0,0,1-9.92,4.93,13.43,13.43,0,0,1-5.07,3.46,20,20,0,0,1-7.36,1.2A41.91,41.91,0,0,1,728.49,692a11.24,11.24,0,0,1-5.7-3,23.4,23.4,0,0,0-2.4-2.54q-1.36-1.27-3.19-3.25t-3.65-6.7a81.81,81.81,0,0,1-3.08-12.62q-.91-5.77-1.42-11.21t-.52-10.09a30.73,30.73,0,0,1,.57-4.65,22.74,22.74,0,0,0,.46-4.94c0-2.16-.08-4-.23-5.64a40.73,40.73,0,0,1,1.26-8,42.06,42.06,0,0,0,1.25-8.74,5.63,5.63,0,0,0-.68-2.12,20.51,20.51,0,0,0-2.63,4.65,5.86,5.86,0,0,1-1.59,2.12,2.86,2.86,0,0,1-1.71.7,2.23,2.23,0,0,1-2-1.27,7.62,7.62,0,0,1-.74-3.8,30.58,30.58,0,0,1,.63-5.08A31.66,31.66,0,0,0,703.74,600.52Zm68.43-69a19.42,19.42,0,0,0-5.59.85,32.29,32.29,0,0,0-5.81,2.39l-11.07,6.07a12.78,12.78,0,0,0-2.56,2.26,30.52,30.52,0,0,0-3.14,4.23l-5.24,8q-2.52,3.66-4.45,13.4a255.66,255.66,0,0,0-3.42,25.38q-1.14,12-1.6,22.36t-.46,19.11q0,17.91,4.45,26.73t13.46,8.81a20.65,20.65,0,0,0,9.46-2.75A55.83,55.83,0,0,0,767.61,660a95,95,0,0,0,9.24-9.66,57,57,0,0,0,6.61-9.94,72.15,72.15,0,0,0,3.59-8.33q2.46-6.35,6.79-17.34a113.65,113.65,0,0,0,4.45-16.29,89.74,89.74,0,0,0,1.59-17c-.45-2.82-1-5.59-1.48-8.32l.8-6.07c-.76-1.13-1.41-2.16-1.94-3.1q-.35-1.12-.57-1.83-3.54-15.24-9.58-22.92T772.17,531.55Z"/><path class="cls-4" d="M868.86,553.83c-.22-1.87-.49-3.85-.79-5.92,0,.85.11.19.34-2s.53-5.88.91-11.15a14.79,14.79,0,0,0,1.31-2.75c.27-.79.51-1.52.74-2.18a27.14,27.14,0,0,1-1.54-2.61,4.28,4.28,0,0,1-.51-1.77q.91-8.6,1.71-16.36a9.58,9.58,0,0,1,2-4.79,38,38,0,0,1,5.19-5.79,40.81,40.81,0,0,1,5.13-4.51,32.91,32.91,0,0,1,4.79-3c2.05-.85,3.27-1.55,3.65-2.12a1.56,1.56,0,0,1,1.25-.84c1.22,0,2.15.75,2.8,2.25a18.23,18.23,0,0,1,1,6.77,32,32,0,0,1-1,6.63,31,31,0,0,0-1,6.21c0,.56,0,2.73.17,6.49s.28,9.17.51,16.22a92.29,92.29,0,0,0,1.77,16.22q1.65,8.6,4.28,17.91,3.54,12.13,7.65,18.13t9,6q3.88,0,10.27-6.21t15.07-18.61q6.61-9.6,11.81-17.92A140.08,140.08,0,0,0,963.79,533a56.17,56.17,0,0,1,7-11.14,59.56,59.56,0,0,1,9.13-9c1.07-.75,1.94-1.36,2.63-1.83a3.21,3.21,0,0,1,1.6-.71q2,0,3.09,3.81a44.73,44.73,0,0,1,1.07,11.28q-.69,6.92-1.14,13.68-1,10.59-3,22t-5.18,23.69q-1.59,6.21-2.73,10.86t-1.6,7.9c-.15,1.23-.36,2.75-.62,4.59s-.56,4-.86,6.41q-1.14,3.54-2.5,7.06a35.41,35.41,0,0,0-1.88,6.77c-.5,2.63-.93,5.69-1.31,9.16,0,.66,0,1.51-.12,2.54s-.15,2.12-.22,3.25q-2.62,14.38-5.36,27.92a17.21,17.21,0,0,1-1,3.25,10.45,10.45,0,0,0-3.36,2.4,28.35,28.35,0,0,0-3.93,5.07,33.86,33.86,0,0,1-3.42,4.16c-.91.9-1.59,1.34-2,1.34a1.81,1.81,0,0,1-1.48-.7,3.88,3.88,0,0,1-.57-2.4,9.54,9.54,0,0,1,.34-1.83,79.07,79.07,0,0,0,2.8-13.82q1.2-9,2.22-22.29.12-2.82,1.83-15.23t5-34.42q.46-3.53,1.2-8.67t1.88-11.78q.8-3.39,1.31-5.85a19.54,19.54,0,0,0,.52-3.6,4,4,0,0,0-.4-2,1.32,1.32,0,0,0-1.2-.64c-.46,0-1.29.73-2.51,2.19a62.51,62.51,0,0,0-4.57,6.56c-1.06,1.6-2.15,3.29-3.25,5.07s-2.27,3.53-3.48,5.22q-3.09,4-5.71,7.48l-8.44,10.43c-.77.57-1.7,1.27-2.8,2.12s-2.42,1.83-3.94,3a19,19,0,0,1-6.91,7.27,16.48,16.48,0,0,1-8.73,3,14,14,0,0,1-9.18-3.74q-4.39-3.74-8.5-11.49-1.83-3.81-3.6-7.62T886,586l-.57.14q-.57.86-2.11,11.43t-3.93,31q-2.62,21-4,33T874,677.11a20.73,20.73,0,0,1-1.43,7.4,4.88,4.88,0,0,1-3.71,3,24.25,24.25,0,0,0-3.53.77c-1.52.42-3.35,1-5.48,1.62a2.54,2.54,0,0,1-1-.49,1.24,1.24,0,0,1-.46-1.06l.69-5.22-1.14-5.36c.45-2.91.91-5.73,1.36-8.46q.47-8.46.8-15.94a48.65,48.65,0,0,1,.86-5.22,30.8,30.8,0,0,0,.74-5.5,18.83,18.83,0,0,0-.34-2.89,17.77,17.77,0,0,1-.35-2.89,193.63,193.63,0,0,1,2-23,193.81,193.81,0,0,0,2-23.13c-.23-2.16-.5-4.33-.8-6.49.38-3.38,1-7.62,1.82-12.69S867.8,560.61,868.86,553.83Z"/><path class="cls-4" d="M1021.33,692.34c.68-.75,1.65-1.76,2.9-3s2.87-2.8,4.85-4.59a14.47,14.47,0,0,0,3.31-3.52,6.76,6.76,0,0,0,1-3.53q0-6.64-.05-8.47c0-1.23-.06-2.17-.06-2.83q0-13.54.57-21.17t1.48-9.46l-.23-4.24-.68-1c0-1,0-2,.06-2.75s0-1.48,0-2q0-7.76-5.53-9.88t-5.53-8.61q0-2,3.2-4.86a81.24,81.24,0,0,1,9.35-7q.8-6.9,1.71-15.08t2.16-18c-.3-1.22-.53-2.23-.68-3a11.81,11.81,0,0,1-.23-2.18,42,42,0,0,1,.91-9,43.1,43.1,0,0,1,2.51-7.75,42.45,42.45,0,0,1,2.63-4.3q1.59-2.33,3.87-5.14a23.93,23.93,0,0,0,2.74-3.74,5.76,5.76,0,0,0,.91-2.6,2.4,2.4,0,0,0-.74-1.84,2.94,2.94,0,0,0-2.11-.7q-4.21,0-12.43,3.31T1025,528.59a3.56,3.56,0,0,1-2-.43,1.57,1.57,0,0,1-.63-1.41,47.08,47.08,0,0,1,.23-4.93,12.18,12.18,0,0,1,.57-3,19.51,19.51,0,0,0,3-3.53,6.28,6.28,0,0,0,1.09-3.39c0-.46.39-1.08,1.19-1.83a10.13,10.13,0,0,1,3.82-2q10.5-3.67,16-5.65l6.33-2.25a86.55,86.55,0,0,1,12.2-2.89,70,70,0,0,1,10.83-.92,14.82,14.82,0,0,1,2.28.35,4.12,4.12,0,0,0,2.29.07c1.52-.28,3.11-.61,4.79-1a29.21,29.21,0,0,1,4,.77l9.23,2.19c.84-.19,1.75-.43,2.74-.71a11,11,0,0,1,5.53,1.27,9.06,9.06,0,0,1,3.48,3.52,11.66,11.66,0,0,0,3.08.43,8.29,8.29,0,0,1,5.42,2,17,17,0,0,1,4.27,5.85,46.71,46.71,0,0,1,2.51,7.26,29.89,29.89,0,0,1,.92,7.4,39.21,39.21,0,0,1-2.57,14.16,40.57,40.57,0,0,1-7.7,12.48q-.57.42-5.53,5T1098,570.29a22.2,22.2,0,0,0-2.39,2.39,35.44,35.44,0,0,1-3.31,3.25q-9.35,6.9-18,13.25a106.59,106.59,0,0,0-11.06,8.31c-2.51,2.26-3.76,3.85-3.76,4.79a7.31,7.31,0,0,0,1.93,5,16.4,16.4,0,0,0,5.94,3.89q5.81,2.54,13.11,5.78t15.62,7.77a8.55,8.55,0,0,1,2,1.13c.8.56,1.69,1.17,2.68,1.83q9.81,4.51,14.54,11.08a25.26,25.26,0,0,1,4.73,15.17q0,12.57-18.3,23.86t-54.8,21.45c-.38,1.32-.82,2.63-1.31,4s-.93,2.59-1.31,3.81a6.23,6.23,0,0,1-2.28,2.47,6.38,6.38,0,0,1-3.42.91,3.91,3.91,0,0,1-3.43-1.9,14.25,14.25,0,0,1-1.71-6c-.61-.66-1.1-1-1.48-.85l-6.5,2.12c-.84-.57-1.62-1.06-2.34-1.49s-1.46-.87-2.22-1.34a6.6,6.6,0,0,1-1.83-2,5.24,5.24,0,0,1-.68-2.61,2.82,2.82,0,0,1,.74-2A19.62,19.62,0,0,1,1021.33,692.34Zm35-66.91q-1.83,0-3.14,3.89a56.93,56.93,0,0,0-2.11,11.5q-.45,7.06-.91,14.19t-.91,14.19c-.46,2.35-.84,4.85-1.14,7.48l.22,1.42.92.56q4.56-1.56,10.15-3.25c2.58,0,4.12-.3,4.62-.91s6.63-4.17,18.41-10.67a54.12,54.12,0,0,0,11.29-7.41q3.77-3.45,3.77-6a4.93,4.93,0,0,0-1-3,14.92,14.92,0,0,0-3.08-3,79.28,79.28,0,0,0-11.86-7.69,113.91,113.91,0,0,0-14.25-6.29c-.69-.28-1.47-.58-2.34-.91l-2.91-1.06c-1.67-.94-3-1.69-3.82-2.26A4.44,4.44,0,0,0,1056.34,625.43Zm22.12-105.73a25.73,25.73,0,0,0-7,.78,6.58,6.58,0,0,0-3.82,2.46,13.86,13.86,0,0,0-1.88,4.37q-1,3.24-2.11,8.88a66.25,66.25,0,0,0-.63,6.91c-.12,2.53-.13,5.3-.06,8.31a42.21,42.21,0,0,1-2.62,6.2l.57,3.67q-1.37,7-1.94,11.27a53.09,53.09,0,0,0-.57,5.64,4.88,4.88,0,0,0,.68,3,2.37,2.37,0,0,0,1.94.84q1.14,0,5.42-3.1t11.8-9.3q8.32-6.76,12.72-10.36t5.07-4l2.91-4.43,2.8-4.3a29.64,29.64,0,0,0,2.85-5.29,11.48,11.48,0,0,0,.91-4.15,11,11,0,0,0-1.71-6.06,14.53,14.53,0,0,0-5.13-4.66q-1.14-.55-4.05-1.68a61.31,61.31,0,0,0-7.47-2.26c-2.51-.85-4.49-1.5-5.93-2A13,13,0,0,0,1078.46,519.7Z"/><path class="cls-4" d="M1164.89,662.3q0-7.9.51-13.33a77.22,77.22,0,0,1,1.2-8.53c-.15-1.6-.34-3.25-.57-4.94,0-2,.19-5.27.57-9.87s1-10.63,1.71-18.06q1-10.71,1.77-16.57c.49-3.9.86-6.28,1.08-7.12q-.23-2.4-.51-5.22t-1-6.21l-2.51-2.25-.57-1.7c.15-2.63.29-5.29.4-8s.36-5.38.74-8.11a51.26,51.26,0,0,1,1.09-8.88c.57-2.54,1.15-4.75,1.76-6.63a14,14,0,0,0,.74-2,20.72,20.72,0,0,1,1.09-2.68q1-5.07,2-10.15t2.17-9.87a19,19,0,0,1,4.9-7.76,15.22,15.22,0,0,1,7.76-3.81,42.11,42.11,0,0,1,5.47-3.17,9.29,9.29,0,0,1,3.65-1.06,2.81,2.81,0,0,1,2.51,1.55,8.67,8.67,0,0,1,.91,4.37q0,1.14-.91,7.83t-2.85,18.55q-.35,3.94-1.14,9.38t-2.17,12.9q-1.71,8.32-3.36,18.27t-3,21.93c-.38,3.39-.79,6.73-1.25,10s-.88,6.62-1.25,10q-.69,5.79-1.2,10.93t-.51,9.24a23.35,23.35,0,0,0,.17,3,23.24,23.24,0,0,1,.17,2.68,16.7,16.7,0,0,1-.06,4.09c-.19,1.69-.4,3.72-.63,6.07s-.57,4.3-.8,6.13a38.74,38.74,0,0,0-.34,4.16q0,7.2.29,11.64a44.47,44.47,0,0,0,.62,5.85q.81,3.81,1.6,8.18,0,2.4-5.13,7.13t-7.41,4.72a3.26,3.26,0,0,1-2.46-1.2,15.19,15.19,0,0,1-2.22-3.59c-.53-1.51-1-2.87-1.25-4.1a13.73,13.73,0,0,1-.46-3.38,12.27,12.27,0,0,1,.46-2.68,12.74,12.74,0,0,0,.45-2.68,43.94,43.94,0,0,0-2.05-7c-.15.94-.23.75-.23-.57Z"/><path class="cls-4" d="M1326.93,651.58l4.34,13a41.09,41.09,0,0,1-3,3c-1.18,1.08-2.56,2.23-4.16,3.45a61.36,61.36,0,0,0-5.76,2.82l-7.7,4.24a60.81,60.81,0,0,1-5.41,3.8,7.38,7.38,0,0,1-2.91,1.27,18.47,18.47,0,0,0-5.42,1.55q-3.93,1.56-10.32,4.66c-2.28,1-4.69,2.09-7.24,3.17a81.78,81.78,0,0,1-7.93,2.89l-7.07-1.83L1260,696c-1.45,0-2.91,0-4.39-.07a41.13,41.13,0,0,1-4.28-.36,10.84,10.84,0,0,1-5-1.12,3.12,3.12,0,0,1-1.65-2.82l.68-5.36-.68-1q-3.89,0-5.19-1.27c-.88-.85-1.31-2.82-1.31-5.92,0-1.42,0-3.76.17-7.06s.28-7.56.51-12.83a12.77,12.77,0,0,1,.74-3,12.3,12.3,0,0,0,.74-3.25,9.69,9.69,0,0,1-.68-2.25,11.19,11.19,0,0,1-.12-1.56q.24-5.49,1-13.54t1.89-19q1.36-6.63,2.28-15c-.16-4.13-.31-8.37-.46-12.69q4.21-23.41,8.67-47.11a28.17,28.17,0,0,1,2.56-8,48.44,48.44,0,0,1,4.51-7.34,7.52,7.52,0,0,0,1.48-1.55c.38-.84.87-1.9,1.48-3.17s1.33-2.7,2.17-4.3c.46-.38,1.2-.94,2.22-1.69s2.42-1.79,4.17-3.11c.76-.75,1.63-1.64,2.62-2.68s2.13-2.25,3.42-3.66a83.18,83.18,0,0,0,8-6.85,16.6,16.6,0,0,1,9.3-4.44c1.74-.09,3.49-.21,5.24-.35s3.42-.3,5-.49a24.89,24.89,0,0,1,4-.71c.76-.19,1.43-.37,2-.56a4.93,4.93,0,0,1,1.54-.29,10.82,10.82,0,0,1,1.88.22c.8.14,1.88.35,3.25.63,1.06.09,2,.14,2.74.14a16.56,16.56,0,0,0,2.16-.14,13.3,13.3,0,0,1,6.73,4.94,13.67,13.67,0,0,1,2.17,7.75q0,9.73-1.54,14.46c-1,3.15-2.64,4.73-4.85,4.73q-2.51,0-5.7-3.18T1302.3,518l-11.52,2.82a4.8,4.8,0,0,1-1.31,1.69,8.58,8.58,0,0,1-1.31.85l-4-1.83q-1.83.84-4.11,4.65a67.12,67.12,0,0,0-4.79,10.44,14.73,14.73,0,0,0-.86,3.52,37.59,37.59,0,0,0-.28,4.94q-2.06,10.15-4.11,19.61-1.93,10.15-3.13,15.37t-1.43,6.35c-.23.94-.42,1.83-.57,2.68a14.43,14.43,0,0,0-.23,2.53,5.73,5.73,0,0,0,.57,2.83,1.86,1.86,0,0,0,1.71,1c.69,0,2.34-1.55,5-4.65s4.58-4.84,5.87-5.22c1.6-.56,3.21-1.17,4.85-1.83a52,52,0,0,0,5.07-2.4,34.3,34.3,0,0,1,5.42-1.13q4.38-.71,12.26-1.69l3.19,1.13,6-1.41,3.19,1.83a17.23,17.23,0,0,1,2.11,3.46,41.9,41.9,0,0,1,1.77,4.44q0,8.46-1.49,12.83c-1,2.92-2.47,4.37-4.44,4.37l-6.28-3.1q-7.76,1-15.34,1.91t-15.45,1.76q-9.59,2.4-14.71,7.76t-5.7,14.1a54.89,54.89,0,0,1-.8,5.64q-.69,3.81-1.6,9.45l.8,4.23q-1,6.08-1.6,11.43a91.61,91.61,0,0,0-.57,9.59,4.55,4.55,0,0,0,.35,2c.22.42.49.54.79.35q5.47-.57,8.79-.85a28.9,28.9,0,0,1,4.67-.14l6.05.57,7.18-.71a31.79,31.79,0,0,0,5-2.26,15.39,15.39,0,0,1,6.9-2,26.94,26.94,0,0,0,6.67-.85,37.28,37.28,0,0,0,6.45-2.25q3.08-1.41,6.1-2.9c2-1,4-2,6.1-2.89a19.39,19.39,0,0,0,3-1.55Q1324.43,653.42,1326.93,651.58Z"/><rect class="cls-32" x="1466.93" y="240.77" width="54.55" height="187.41" rx="12" transform="translate(1184.53 -1165.06) rotate(65.71)"/><path class="cls-33" d="M1368.83,419.44l-2.78-6.16,6.71-3,20.62-9.3a18.31,18.31,0,0,0,9.17-9.44,16,16,0,0,0-.13-12.67l-2.21-4.89c-3.72-8.23-13.87-11.77-22.56-7.85l-20.5,9.25-6.83,3.09-2.78-6.17c-2.53-5.61.24-12.38,6.16-15l23.55-10.62c12.7-5.74,27.55-.57,33,11.48L1421,381.83c5.44,12.05-.51,26.6-13.22,32.33l-23.55,10.63C1378.27,427.46,1371.36,425.05,1368.83,419.44Z"/><path class="cls-34" d="M1381.12,419.77l23.55-10.62c12.71-5.74,18.66-20.29,13.22-32.33l-10.63-23.55a22.39,22.39,0,0,1,3,4.81L1421,381.83c5.44,12.05-.51,26.6-13.22,32.33l-23.55,10.63c-5.91,2.67-12.82.26-15.35-5.35l-.83-1.83A11.81,11.81,0,0,0,1381.12,419.77Z"/><path class="cls-34" d="M1354.09,370.34l20.5-9.25c8.69-3.92,18.84-.39,22.56,7.85l.47,1.05a17.3,17.3,0,0,0-20-3.89l-20.5,9.25-6.83,3.09-2.4-5.32Z"/><path class="cls-34" d="M1407.34,369.3,1383.39,379a11.66,11.66,0,0,0-7.22,13.23l-.13.06L1373.5,386c-2.31-5.7.73-12.36,6.74-14.8l24-9.69c12.93-5.23,27.56.52,32.51,12.77l3.15,7.78C1434.89,369.82,1420.26,364.07,1407.34,369.3Z"/><rect class="cls-35" x="1494.27" y="260.32" width="54.55" height="187.41" rx="12" transform="translate(1279.01 -1189.22) rotate(67.97)"/><path class="cls-32" d="M1455.82,397.61l143.26-58a16.48,16.48,0,0,0,9.07-21.4l4.32,10.68a16.48,16.48,0,0,1-9.07,21.4l-143.26,58a16.48,16.48,0,0,1-21.4-9.07l-4.32-10.68A16.48,16.48,0,0,0,1455.82,397.61Z"/><path class="cls-33" d="M1392.91,434l-2.53-6.27,6.83-2.76,21-8.48a18.34,18.34,0,0,0,9.54-9.07,16,16,0,0,0,.36-12.67l-2-5c-3.39-8.38-13.39-12.31-22.23-8.73L1383,389.47l-6.94,2.81L1373.5,386c-2.31-5.7.73-12.36,6.74-14.8l24-9.69c12.93-5.23,27.56.52,32.51,12.77l9.78,24.16c5,12.25-1.56,26.56-14.48,31.79l-24,9.69C1402,442.36,1395.22,439.69,1392.91,434Z"/><rect class="cls-34" x="1538.62" y="247.38" width="33.14" height="59.79" transform="translate(3129.92 151.81) rotate(165.34)"/><path class="cls-34" d="M1509.6,155.12h59.75a43,43,0,0,1,43,43v68.34a12.79,12.79,0,0,1-12.79,12.79H1479.34a12.79,12.79,0,0,1-12.79-12.79V198.17a43,43,0,0,1,43-43Z" transform="translate(3083.79 37.61) rotate(165.34)"/><path class="cls-33" d="M1500.61,162.94h39.59A32.09,32.09,0,0,1,1572.29,195V282.5a1.84,1.84,0,0,1-1.84,1.84h-100.1a1.84,1.84,0,0,1-1.84-1.84V195a32.09,32.09,0,0,1,32.09-32.09Z" transform="translate(3047.89 55.08) rotate(165.34)"/><path class="cls-11" d="M1503.53,272.26c-2.29-2.69,2.84-17.35,13.81-24.83,13.39-9.14,32.39-5.43,33.6-1.88.73,2.16-5.41,3.42-23,13.39C1510.21,269.06,1505.2,274.22,1503.53,272.26Z"/><path class="cls-19" d="M1506.14,265.36c-1.66-1.28,3.84-11.17,13.25-17,10.83-6.71,24.3-6.46,24.58-4.32.16,1.3-4.59,2.76-18.38,10.56C1511.44,262.61,1507.29,266.25,1506.14,265.36Z"/><path class="cls-11" d="M1436.12,160c-9.6-1.16-16.18-4.41-17.52-9.53-2.77-10.58,17.77-25.11,45.87-32.47.23-.06.47-.11.7-.18,11.47-7,26.36-13.24,43.12-17.62a187.42,187.42,0,0,1,19-4c.49-.13,1-.28,1.45-.4,34.15-8.94,67.07,3.82,73.53,28.51s-16,51.93-50.14,60.87c-22.95,6-45.33,2.19-59.51-8.44l-1,.88c-22.2,18.78-45.89,27.21-52.89,18.83-2-2.45-2.43-6.08-1.41-10.44-3.92-.56-6.84-2.07-8.35-4.6C1425.93,176.52,1428.93,168.61,1436.12,160Z"/><path class="cls-36" d="M1539.39,197.62c-8.47,9.42-21.43,11.58-29,4.82l30.68-34.12C1548.64,175.08,1547.86,188.2,1539.39,197.62Z"/><circle class="cls-11" cx="1526.52" cy="195.34" r="2.48"/><path class="cls-36" d="M1472.18,224.76c12.66-.66,22.49-9.38,22-19.48l-45.82,2.39C1448.85,217.76,1459.53,225.42,1472.18,224.76Z"/><circle class="cls-11" cx="1465.24" cy="212.6" r="2.48"/><path class="cls-34" d="M1661.65,160.11h59.75a43,43,0,0,1,43,43V271.5a12.79,12.79,0,0,1-12.79,12.79H1631.39a12.79,12.79,0,0,1-12.79-12.79V203.16a43,43,0,0,1,43-43Z" transform="translate(3379.13 472.45) rotate(-179.05)"/><path class="cls-33" d="M1651.63,162.56h39.59a32.09,32.09,0,0,1,32.09,32.09v87.47a1.84,1.84,0,0,1-1.84,1.84h-100.1a1.84,1.84,0,0,1-1.84-1.84V194.65a32.09,32.09,0,0,1,32.09-32.09Z" transform="translate(3338.92 474.23) rotate(-179.05)"/><path class="cls-11" d="M1647.67,255.26c-.67-3.46,11-13.72,24.22-14.86,16.15-1.38,30.89,11.17,30.2,14.86-.42,2.24-6.39.32-26.57.41C1655.06,255.75,1648.17,257.79,1647.67,255.26Z"/><path class="cls-19" d="M1653.34,250.53c-.82-1.93,8.83-7.84,19.88-8.3,12.72-.53,24.34,6.3,23.53,8.3-.49,1.21-5.35.16-21.19.18C1659.3,250.74,1653.9,251.87,1653.34,250.53Z"/><path class="cls-11" d="M1607.38,139.32c-8.94-3.7-14.4-8.6-14.31-13.9.18-10.93,23.87-19.4,52.91-18.92l.73,0c12.92-3.64,28.94-5.66,46.26-5.37a189,189,0,0,1,19.35,1.3c.51,0,1,0,1.51,0,35.29.59,63.56,21.74,63.14,47.25s-29.38,45.72-64.67,45.13c-23.72-.39-44.26-10.09-55-24.15l-1.22.58c-26.44,12.1-51.52,13.85-56,3.89-1.31-2.91-.71-6.5,1.45-10.43-3.63-1.6-6-3.83-6.81-6.68C1593.13,152.45,1598.15,145.64,1607.38,139.32Z"/><path class="cls-36" d="M1696.72,203.31c-10.69,6.8-23.76,5.39-29.18-3.15l38.73-24.6C1711.69,184.09,1707.42,196.52,1696.72,203.31Z"/><circle class="cls-11" cx="1684.94" cy="197.66" r="2.48"/><path class="cls-36" d="M1624.69,211.36c12.36,2.77,24.18-3,26.39-12.85l-44.77-10C1604.09,198.34,1612.32,208.58,1624.69,211.36Z"/><circle class="cls-11" cx="1621.27" cy="197.78" r="2.48"/><rect class="cls-32" x="1583.93" y="413.77" width="54.55" height="187.41" rx="12" transform="translate(1411.1 -1169.86) rotate(65.71)"/><path class="cls-33" d="M1485.83,592.44l-2.78-6.16,6.71-3,20.62-9.3a18.31,18.31,0,0,0,9.17-9.44,16,16,0,0,0-.13-12.67l-2.21-4.89c-3.72-8.23-13.87-11.77-22.56-7.85l-20.5,9.25-6.83,3.09-2.78-6.17c-2.53-5.61.24-12.38,6.16-15l23.55-10.62c12.7-5.74,27.55-.57,33,11.48L1538,554.83c5.44,12-.51,26.6-13.22,32.33l-23.55,10.63C1495.27,600.46,1488.36,598.05,1485.83,592.44Z"/><path class="cls-34" d="M1498.12,592.77l23.55-10.62c12.71-5.74,18.66-20.29,13.22-32.33l-10.63-23.55a22.39,22.39,0,0,1,3,4.81L1538,554.83c5.44,12-.51,26.6-13.22,32.33l-23.55,10.63c-5.91,2.67-12.82.26-15.35-5.35l-.83-1.83A11.81,11.81,0,0,0,1498.12,592.77Z"/><path class="cls-34" d="M1471.09,543.34l20.5-9.25c8.69-3.92,18.84-.39,22.56,7.85l.47,1a17.3,17.3,0,0,0-20-3.89l-20.5,9.25-6.83,3.09-2.4-5.32Z"/><path class="cls-34" d="M1524.34,542.3,1500.39,552a11.66,11.66,0,0,0-7.22,13.23l-.13.06L1490.5,559c-2.31-5.7.73-12.36,6.74-14.8l24-9.69c12.93-5.23,27.56.52,32.51,12.77l3.15,7.78C1551.89,542.82,1537.26,537.07,1524.34,542.3Z"/><rect class="cls-35" x="1611.27" y="433.32" width="54.55" height="187.41" rx="12" transform="translate(1512.5 -1189.57) rotate(67.97)"/><path class="cls-32" d="M1572.82,570.61l143.26-58a16.48,16.48,0,0,0,9.07-21.4l4.32,10.68a16.48,16.48,0,0,1-9.07,21.4l-143.26,58a16.48,16.48,0,0,1-21.4-9.07l-4.32-10.68A16.48,16.48,0,0,0,1572.82,570.61Z"/><path class="cls-33" d="M1509.91,607l-2.53-6.27,6.83-2.76,21-8.48a18.34,18.34,0,0,0,9.54-9.07,16,16,0,0,0,.36-12.67l-2-5c-3.39-8.38-13.39-12.31-22.23-8.73L1500,562.47l-6.94,2.81L1490.5,559c-2.31-5.7.73-12.36,6.74-14.8l24-9.69c12.93-5.23,27.56.52,32.51,12.77l9.78,24.16c5,12.25-1.56,26.56-14.48,31.79l-24,9.69C1519,615.36,1512.22,612.69,1509.91,607Z"/><rect class="cls-34" x="1655.62" y="420.38" width="33.14" height="59.79" transform="translate(3403.91 462.55) rotate(165.34)"/><path class="cls-34" d="M1626.6,328.12h59.75a43,43,0,0,1,43,43v68.34a12.79,12.79,0,0,1-12.79,12.79H1596.34a12.79,12.79,0,0,1-12.79-12.79V371.17A43,43,0,0,1,1626.6,328.12Z" transform="matrix(-0.97, 0.25, -0.25, -0.97, 3357.78, 348.35)"/><path class="cls-33" d="M1617.61,335.94h39.59A32.09,32.09,0,0,1,1689.29,368V455.5a1.84,1.84,0,0,1-1.84,1.84h-100.1a1.84,1.84,0,0,1-1.84-1.84V368a32.09,32.09,0,0,1,32.09-32.09Z" transform="translate(3321.88 365.83) rotate(165.34)"/><path class="cls-11" d="M1613.77,436.59c4.92,7.34,19.21,6.77,28.19,3.58,9.86-3.49,23.71-13.81,21.41-26-2.06-10.91-16.12-17.8-27.08-16.26C1618.16,400.51,1606.89,426.34,1613.77,436.59Z"/><path class="cls-19" d="M1620.88,438.58c4.83,5.79,19.83.05,21.54-.62s18.86-7.61,18-17.24c-.7-8.08-13.74-15.23-24.06-12.77C1622.23,411.33,1615.54,432.18,1620.88,438.58Z"/><path class="cls-11" d="M1553.12,333c-9.6-1.16-16.18-4.41-17.52-9.53-2.77-10.58,17.77-25.11,45.87-32.47.23-.06.47-.11.7-.18,11.47-7,26.36-13.24,43.12-17.62a187.42,187.42,0,0,1,19-4c.49-.13,1-.28,1.45-.4,34.15-8.94,67.07,3.82,73.53,28.51s-16,51.93-50.14,60.87c-22.95,6-45.33,2.19-59.51-8.44l-1,.88c-22.2,18.78-45.89,27.21-52.89,18.83-2-2.45-2.43-6.08-1.41-10.44-3.92-.56-6.84-2.07-8.35-4.6C1542.93,349.52,1545.93,341.61,1553.12,333Z"/><path class="cls-36" d="M1656.39,370.62c-8.47,9.42-21.43,11.58-29,4.82l30.68-34.12C1665.64,348.08,1664.86,361.2,1656.39,370.62Z"/><circle class="cls-11" cx="1643.52" cy="368.34" r="2.48"/><path class="cls-36" d="M1589.18,397.76c12.66-.66,22.49-9.38,22-19.48l-45.82,2.39C1565.85,390.76,1576.53,398.42,1589.18,397.76Z"/><circle class="cls-11" cx="1582.24" cy="385.6" r="2.48"/><path class="cls-4" d="M79,347a11.88,11.88,0,0,0,2.27,7H79Z"/><path class="cls-4" d="M79,347a11.88,11.88,0,0,0,2.27,7H79Z"/><path class="cls-4" d="M111,347v20.9a12,12,0,0,1-7-10A12,12,0,0,0,111,347Z"/><path class="cls-4" d="M111,347v20.9a12,12,0,0,1-7-10A12,12,0,0,0,111,347Z"/><path class="cls-4" d="M240-87V290a12,12,0,0,1-12,12h-8a12,12,0,0,1-12-12V212a12,12,0,0,1-12,12h-8a11.8,11.8,0,0,1-4-.69V235a12,12,0,0,1-12,12h-4v50a12,12,0,0,1-12,12h-8a12,12,0,0,1-12-12v60a12,12,0,0,1-12,12h-8a11.8,11.8,0,0,1-5-1.1V347a12,12,0,0,1-7,10.88,12,12,0,0,0,7,10V574a12,12,0,0,1-12,12H91a12,12,0,0,1-12-12V354h2.27A11.88,11.88,0,0,1,79,347v7H75a12,12,0,0,1-12-12v71a12,12,0,0,1-12,12H47v35a12,12,0,0,1-12,12H27a12,12,0,0,1-12-12V376a8.27,8.27,0,0,1-1,.05H6A12,12,0,0,1-6,364V-13A12,12,0,0,1,6-25h8a8.27,8.27,0,0,1,1,.05V-65A12,12,0,0,1,27-77h8A12,12,0,0,1,47-65v10A12,12,0,0,1,59-67h8A12,12,0,0,1,79-55v25A12,12,0,0,1,91-42h8a12,12,0,0,1,12,11.12A11.81,11.81,0,0,1,116-32h8a12,12,0,0,1,12,12V-80a12,12,0,0,1,12-12h4v-50a12,12,0,0,1,12-12h8a11.8,11.8,0,0,1,4,.69V-165a12,12,0,0,1,12-12h8a12,12,0,0,1,12,12v78a12,12,0,0,1,12-12h8A12,12,0,0,1,240-87Z"/><path class="cls-3" d="M41,371a11.88,11.88,0,0,0,2.27,7H41Z"/><path class="cls-3" d="M41,371a11.88,11.88,0,0,0,2.27,7H41Z"/><path class="cls-3" d="M73,371v20.9a12,12,0,0,1-7-10A12,12,0,0,0,73,371Z"/><path class="cls-3" d="M73,371v20.9a12,12,0,0,1-7-10A12,12,0,0,0,73,371Z"/><path class="cls-3" d="M202-63V314a12,12,0,0,1-12,12h-8a12,12,0,0,1-12-12V236a12,12,0,0,1-12,12h-8a11.8,11.8,0,0,1-4-.69V259a12,12,0,0,1-12,12h-4v50a12,12,0,0,1-12,12h-8a12,12,0,0,1-12-12v60a12,12,0,0,1-12,12H78a11.8,11.8,0,0,1-5-1.1V371a12,12,0,0,1-7,10.88,12,12,0,0,0,7,10V598a12,12,0,0,1-12,12H53a12,12,0,0,1-12-12V378h2.27A11.88,11.88,0,0,1,41,371v7H37a12,12,0,0,1-12-12v71a12,12,0,0,1-12,12H9v35A12,12,0,0,1-3,496h-8a12,12,0,0,1-12-12V400a8.27,8.27,0,0,1-1,.05h-8a12,12,0,0,1-12-12V11A12,12,0,0,1-32-1h8a8.27,8.27,0,0,1,1,.05V-41A12,12,0,0,1-11-53h8A12,12,0,0,1,9-41v10A12,12,0,0,1,21-43h8A12,12,0,0,1,41-31V-6A12,12,0,0,1,53-18h8A12,12,0,0,1,73-6.88,11.81,11.81,0,0,1,78-8h8A12,12,0,0,1,98,4V-56a12,12,0,0,1,12-12h4v-50a12,12,0,0,1,12-12h8a11.8,11.8,0,0,1,4,.69V-141a12,12,0,0,1,12-12h8a12,12,0,0,1,12,12v78a12,12,0,0,1,12-12h8A12,12,0,0,1,202-63Z"/><path class="cls-3" d="M217,185a11.88,11.88,0,0,1-2.27,7H217Z"/><path class="cls-3" d="M217,185a11.88,11.88,0,0,1-2.27,7H217Z"/><path class="cls-3" d="M185,185v20.9a12,12,0,0,0,7-10A12,12,0,0,1,185,185Z"/><path class="cls-3" d="M185,185v20.9a12,12,0,0,0,7-10A12,12,0,0,1,185,185Z"/><path class="cls-3" d="M56-249V128a12,12,0,0,0,12,12h8a12,12,0,0,0,12-12V50a12,12,0,0,0,12,12h8a11.8,11.8,0,0,0,4-.69V73a12,12,0,0,0,12,12h4v50a12,12,0,0,0,12,12h8a12,12,0,0,0,12-12v60a12,12,0,0,0,12,12h8a11.8,11.8,0,0,0,5-1.1V185a12,12,0,0,0,7,10.88,12,12,0,0,1-7,10V412a12,12,0,0,0,12,12h8a12,12,0,0,0,12-12V192h-2.27a11.88,11.88,0,0,0,2.27-7v7h4a12,12,0,0,0,12-12v71a12,12,0,0,0,12,12h4v35a12,12,0,0,0,12,12h8a12,12,0,0,0,12-12V214a8.27,8.27,0,0,0,1,.05h8a12,12,0,0,0,12-12V-175a12,12,0,0,0-12-12h-8a8.27,8.27,0,0,0-1,.05V-227a12,12,0,0,0-12-12h-8a12,12,0,0,0-12,12v10a12,12,0,0,0-12-12h-8a12,12,0,0,0-12,12v25a12,12,0,0,0-12-12h-8a12,12,0,0,0-12,11.12,11.81,11.81,0,0,0-5-1.12h-8a12,12,0,0,0-12,12v-60a12,12,0,0,0-12-12h-4v-50a12,12,0,0,0-12-12h-8a11.8,11.8,0,0,0-4,.69V-327a12,12,0,0,0-12-12h-8a12,12,0,0,0-12,12v78a12,12,0,0,0-12-12H68A12,12,0,0,0,56-249Z"/></g></g></svg>