<svg id="Layer_2" data-name="Layer 2" xmlns="http://www.w3.org/2000/svg" width="314.04" height="553.02" viewBox="0 0 314.04 553.02"><defs><style>.cls-1{fill:#2b2728;}.cls-2{fill:#231f20;}.cls-3{fill:#423c3d;}.cls-4{fill:#353132;}.cls-5{fill:#e48225;}.cls-6{fill:#f7941d;}.cls-7{fill:#ffdfb4;}.cls-8{fill:#f7d2a6;}</style></defs><path class="cls-1" d="M188.57,269.12l-5.91-1.19c-5.43-1.1-.62-15.8.57-21.86l6.89-34.93c.66-3.38,3.66-5.63,6.7-5l8.78,5.22c3,.61,9.3,1.29,8.63,4.67l-7.84,39.78C204.63,264.75,196.61,270.75,188.57,269.12Z"/><path class="cls-2" d="M286.44,213.27l-92.32-3.88a16.84,16.84,0,0,0-17.22,14.25,6.92,6.92,0,0,0,6.51,5.91l102.17,4.29a6.94,6.94,0,0,0,7.17-6.71l.28-6.57A7,7,0,0,0,286.44,213.27Z"/><path class="cls-1" d="M186.73,214.45h99.81a4.73,4.73,0,0,1,4.73,4.73v17.24a2.06,2.06,0,0,1-2.06,2.06H180a4.73,4.73,0,0,1-4.73-4.73V226A11.5,11.5,0,0,1,186.73,214.45Z" transform="translate(9.71 -9.59) rotate(2.41)"/><rect class="cls-3" x="213.94" y="216.77" width="48.6" height="17.15" rx="5.79" transform="translate(9.67 -9.8) rotate(2.41)"/><path class="cls-4" d="M222.35,221l31.71,1.33a8.49,8.49,0,0,1,7.81,6.45,9.39,9.39,0,0,0,.84-2.42c.2-4.72-.52-8.61-5.15-8.8L220.3,216c-4.64-.19-6.33,3.6-6.52,8.31a8.44,8.44,0,0,0,.25,2.47A8.48,8.48,0,0,1,222.35,221Z"/><path class="cls-5" d="M85.23,248.63h0c-3.54,3.81-3.16,8.1,1.07,9.47L192,292.25c9.1,2.94,18.78-.36,21-7.16l4.84-15c1.86-5.77-3.67-11.78-11.87-13.52l-89-18.91C106.76,235.51,93,240.26,85.23,248.63Z"/><rect class="cls-6" x="89.25" y="182.63" width="39.83" height="136.85" rx="12" transform="translate(371.28 172.06) rotate(96.73)"/><rect class="cls-7" x="172.49" y="237.74" width="48.85" height="40.75" rx="12" transform="translate(5.46 -4.08) rotate(1.2)"/><path class="cls-8" d="M217.47,263.44l-24.85-.52a12,12,0,0,1-11.74-12.25l.27-13a12,12,0,0,0-8.47,11.21l-.36,16.74a12,12,0,0,0,11.75,12.25l24.84.52a12,12,0,0,0,12.25-11.74l.08-3.78A11.78,11.78,0,0,1,217.47,263.44Z"/></svg>