<svg id="Layer_1" data-name="Layer 1" xmlns="http://www.w3.org/2000/svg" width="323.23" height="585.04" viewBox="0 0 323.23 585.04"><defs><style>.cls-1{fill:#f7d2a6;}.cls-2{fill:#ffdfb4;}.cls-3{fill:#e9c61d;}.cls-4{fill:#ffde17;}.cls-5{fill:#231f20;}.cls-6{fill:#fff;}.cls-7{fill:#808285;}.cls-8{fill:#afaeaf;}.cls-9{fill:#bcbec0;}.cls-10{fill:#e0dae0;}.cls-11{fill:#4c4c44;}.cls-12{fill:#e38226;}.cls-13{fill:#ffdfb3;}.cls-14{fill:#f8d2a6;}.cls-15{fill:#4e7739;}.cls-16{fill:#3c2415;}.cls-17{fill:#22130c;}.cls-18{fill:#f79520;}</style></defs><rect class="cls-1" x="184.8" y="164.66" width="24.2" height="62.94" transform="translate(367.03 415.87) rotate(-172.64)"/><path class="cls-1" d="M181.84,114.19h42.32a32.09,32.09,0,0,1,32.09,32.09V203a1.84,1.84,0,0,1-1.84,1.84H151.59a1.84,1.84,0,0,1-1.84-1.84V146.28A32.09,32.09,0,0,1,181.84,114.19Z" transform="translate(383.88 343.77) rotate(-172.64)"/><path class="cls-2" d="M182.51,114.66h16.71a32.09,32.09,0,0,1,32.09,32.09v54.72a1.84,1.84,0,0,1-1.84,1.84H152.26a1.84,1.84,0,0,1-1.84-1.84V146.75a32.09,32.09,0,0,1,32.09-32.09Z" transform="translate(359.78 341.13) rotate(-172.64)"/><path class="cls-3" d="M158.44,47.71H262a3,3,0,0,1,3,3V79.75a45.84,45.84,0,0,1-45.84,45.84H204.27a45.84,45.84,0,0,1-45.84-45.84v-32a0,0,0,0,1,0,0Z" transform="matrix(-0.99, -0.13, 0.13, -0.99, 410.52, 199.72)"/><path class="cls-4" d="M158.8,48.16h88.69a3,3,0,0,1,3,3V71.88a45.84,45.84,0,0,1-45.84,45.84h0A45.84,45.84,0,0,1,158.8,71.88V48.16A0,0,0,0,1,158.8,48.16Z" transform="translate(396.96 191.43) rotate(-172.64)"/><rect class="cls-3" x="138.58" y="113.81" width="137.26" height="15" rx="7.5" transform="translate(397.16 268.17) rotate(-172.64)"/><path class="cls-4" d="M145.46,120.85l88,11.37a6.29,6.29,0,0,0,6.91-5.54h0a6.28,6.28,0,0,0-5.28-7.11l-88-11.37a6.29,6.29,0,0,0-6.91,5.54h0A6.27,6.27,0,0,0,145.46,120.85Z"/><path class="cls-5" d="M190.4,140.43c.27.59,3.21-2.08,8.8-2.23,5.09-.14,8.55,1.9,8.61,1.3s-4.32-4.48-8.95-4.52C193.6,134.93,190.08,139.73,190.4,140.43Z"/><path class="cls-5" d="M190,140.33c.09.65,3.68-1.06,9.08.41,4.91,1.33,7.63,4.29,7.86,3.73s-2.84-5.53-7.26-6.91C194.65,136,189.91,139.57,190,140.33Z"/><path class="cls-5" d="M156,133c0,.65,4.31-.45,10.21,1.9,5.36,2.13,8,5.5,8.35,5s-2.42-5.94-7.22-8C161.9,129.48,156,132.24,156,133Z"/><path class="cls-5" d="M154.9,141.41c.29.59,3.69-2.28,10-2.74,5.76-.41,9.61,1.48,9.69.86s-4.76-4.3-10-4.09C158.66,135.67,154.56,140.72,154.9,141.41Z"/><path class="cls-5" d="M158.8,182.39c-.11-4.9,9.5-18.64,19.25-19.48,11.91-1,21.28,17.42,20.37,22.55-.55,3.13-4.69.09-19.39-.93C164.13,183.5,158.89,186,158.8,182.39Z"/><path class="cls-6" d="M162.52,180.61c-.38-2.75,7.28-10.51,15.38-10.53,9.32,0,17,10.22,16.23,13-.49,1.68-3.91-.08-15.45-.94C166.84,181.24,162.79,182.52,162.52,180.61Z"/><ellipse class="cls-3" cx="192.27" cy="61.59" rx="13.03" ry="7.68" transform="translate(106.54 244.38) rotate(-82.64)"/><ellipse class="cls-3" cx="192.27" cy="61.59" rx="6.44" ry="3.8" transform="translate(106.54 244.38) rotate(-82.64)"/><ellipse class="cls-7" cx="186.6" cy="47.88" rx="11.89" ry="22.63"/><ellipse class="cls-8" cx="187.19" cy="50.09" rx="5.88" ry="11.19"/><ellipse class="cls-9" cx="186.6" cy="47.88" rx="5.88" ry="11.19"/><ellipse class="cls-10" cx="186.6" cy="47.88" rx="2.25" ry="4.28"/><ellipse class="cls-11" cx="177.98" cy="563.29" rx="124.28" ry="13.94"/><rect class="cls-12" x="105.72" y="213.4" width="39.83" height="136.85" rx="12" transform="translate(402.29 145.19) rotate(87.74)"/><path class="cls-13" d="M17.49,305l-.19-4.93,5.37-.21,16.51-.65A13.41,13.41,0,0,0,48,295.32a11.67,11.67,0,0,0,3.38-8.61l-.15-3.91C50.94,276.2,45,271,38.08,271.3L21.66,272l-5.46.22-.2-4.94a8.44,8.44,0,0,1,8.29-8.5L43.14,258c10.18-.4,18.81,7.16,19.19,16.8l.75,19c.38,9.64-7.63,17.86-17.8,18.26l-18.86.75A8.44,8.44,0,0,1,17.49,305Z"/><path class="cls-14" d="M25.72,308.58l18.86-.74c10.17-.4,18.18-8.62,17.8-18.26l-.74-18.85a17,17,0,0,1,.69,4.06l.75,19c.38,9.64-7.63,17.86-17.8,18.26l-18.86.75A8.44,8.44,0,0,1,17.49,305l-.06-1.46A8.64,8.64,0,0,0,25.72,308.58Z"/><path class="cls-14" d="M21,267.72l16.42-.65c6.95-.27,12.86,4.9,13.12,11.49l0,.84a12.65,12.65,0,0,0-12.45-8.1L21.66,272l-5.46.22c-.06-1.42-.11-2.84-.17-4.26Z"/><path class="cls-15" d="M57.3,281.6H38.43a8.5,8.5,0,0,0-8.51,7h-.11v-4.94a8.43,8.43,0,0,1,8.62-8.17H57.3c10.18,0,18.5,7.9,18.5,17.55v6.13C75.8,289.5,67.48,281.6,57.3,281.6Z"/><rect class="cls-16" x="131.58" y="386.19" width="53" height="150.28" rx="12" transform="translate(212.2 945.97) rotate(-167.46)"/><path class="cls-17" d="M142.23,531.84a12,12,0,0,0,14.32-9.11L184,399.47a12.06,12.06,0,0,0-6.4-13.35L188,388.44a12,12,0,0,1,9.1,14.32L169.7,526a12,12,0,0,1-14.32,9.1l-28.31-6.29a12.32,12.32,0,0,1-2.71-1Z"/><rect x="82.35" y="526.59" width="89.89" height="27.07" rx="3.53" transform="translate(134.25 1095) rotate(-167.46)"/><path class="cls-16" d="M230.9,542.15l28.43-5.68a12,12,0,0,0,9.42-14.12L240.68,378.71a12,12,0,0,0-14.12-9.42L198.12,375a12,12,0,0,0-9.42,14.12l28.08,143.64A12,12,0,0,0,230.9,542.15Z"/><path class="cls-17" d="M244.4,536.52a12,12,0,0,0,9.42-14.12L226.29,381.51a12,12,0,0,0-11.24-9.62l10.48-2.1a12,12,0,0,1,14.12,9.42l27.53,140.9a12,12,0,0,1-9.42,14.11l-28.44,5.68a12.19,12.19,0,0,1-2.87.21Z"/><rect x="183.78" y="535.82" width="89.89" height="27.07" rx="3.53" transform="translate(560.6 1043.29) rotate(168.71)"/><path class="cls-18" d="M145.71,213h97.23a0,0,0,0,1,0,0V343.75A48.28,48.28,0,0,1,194.66,392H194a48.28,48.28,0,0,1-48.28-48.28V213a0,0,0,0,1,0,0Z" transform="translate(388.65 605.07) rotate(180)"/><path class="cls-12" d="M185.68,213.74a49.32,49.32,0,0,1,8.2-.7h.67a48.27,48.27,0,0,1,48.28,48.28V392H225.76V261.32A48.29,48.29,0,0,0,185.68,213.74Z"/><rect class="cls-18" x="118.87" y="234.11" width="39.83" height="136.85" rx="12" transform="translate(441.32 163.75) rotate(90)"/><path class="cls-18" d="M82.36,314H195.21a12,12,0,0,0,12-12v8.41a12,12,0,0,1-12,12H82.36a12,12,0,0,1-12-12V302A12,12,0,0,0,82.36,314Z"/><path class="cls-13" d="M29.81,321.43v-4.94h21.9A13.36,13.36,0,0,0,60.65,313a11.69,11.69,0,0,0,3.71-8.48v-3.91c0-6.6-5.69-12-12.65-12H29.81v-4.94a8.43,8.43,0,0,1,8.62-8.17H57.3c10.18,0,18.5,7.9,18.5,17.55v19c0,9.65-8.32,17.55-18.5,17.55H38.43A8.43,8.43,0,0,1,29.81,321.43Z"/></svg>