<svg xmlns="http://www.w3.org/2000/svg" xmlns:xlink="http://www.w3.org/1999/xlink" width="614" height="316" viewBox="0 0 614 316"><defs><style>.cls-1{fill:none;}.cls-2{clip-path:url(#clip-path);}.cls-3{fill:url(#linear-gradient);}.cls-4{fill:#2d1e13;}.cls-5{fill:#633d1e;}.cls-6{fill:#4c2e17;}.cls-7{fill:#331809;}.cls-8{fill:#0a0a09;}.cls-9{fill:#774406;}.cls-10{fill:#663908;}.cls-11{fill:#5b5753;}.cls-12{fill:#3f3d3b;}.cls-13{fill:#19cad8;}.cls-14{fill:#1fbbbf;}.cls-15{fill:#fff;}.cls-16{fill:#261106;}.cls-17{fill:#331406;}</style><clipPath id="clip-path"><rect class="cls-1" x="-1985" y="-763" width="1920" height="1079"/></clipPath><linearGradient id="linear-gradient" x1="-2302.65" y1="134.79" x2="166.5" y2="134.79" gradientUnits="userSpaceOnUse"><stop offset="0" stop-color="#a57244"/><stop offset="1" stop-color="#42210b"/></linearGradient></defs><g id="Layer_2" data-name="Layer 2"><g class="cls-2"><path class="cls-3" d="M166.5,97.86C168.11,332.75-495.27,589.74-1068,594.92c-659.22,6-1245.32-313.91-1234.5-497.06,6.59-111.6,238.9-240.61,215-296.54-4.85-11.36-16.86-11.74-17-18.12-.88-41,426-79.73,426-79.73,321.53,0,688.26-46.23,1217-21.74,0,0,468.59,21.71,471,87,.44,12-15.66,14.17-19,35-9.19,57.4,109.06,91.51,157,227.09C158,60.42,166.39,81.46,166.5,97.86Z"/></g><ellipse class="cls-4" cx="456.98" cy="213.3" rx="141.5" ry="19.5"/><polygon class="cls-5" points="283.98 139.3 314.98 200.3 362.35 213.3 599.8 213.3 556.9 176.3 540.05 139.3 505.98 99.3 441.89 109.86 394.98 57.3 337.98 42.3 283.98 10.29 211.04 94.04 283.98 139.3"/><polygon class="cls-6" points="553.72 169.8 408.35 169.8 360.98 156.8 329.98 95.8 257.05 50.54 289.05 13.79 283.98 10.79 211.04 94.54 283.98 139.8 314.98 200.8 362.35 213.8 599.8 213.8 556.9 176.8 553.72 169.8"/><polygon class="cls-7" points="374.35 199.8 326.98 186.8 295.98 125.8 223.17 80.61 211.04 94.54 283.98 139.8 314.98 200.8 362.35 213.8 599.8 213.8 583.57 199.8 374.35 199.8"/><ellipse class="cls-6" cx="432.98" cy="123.3" rx="3.5" ry="13.5" transform="translate(170.38 488.97) rotate(-70.21)"/><ellipse class="cls-8" cx="453.48" cy="276.3" rx="63" ry="10.5"/><path class="cls-9" d="M364,249.12l2-76.36a20.87,20.87,0,0,1,21.33-20.27l16.57.43,103.77,2.65a20.86,20.86,0,0,1,20.27,21.33l-2,76.36a20.87,20.87,0,0,1-21.33,20.27L402.5,270.92l-18.28-.47A20.87,20.87,0,0,1,364,249.12Z"/><path class="cls-10" d="M372.53,170.89l16.57.42L492.87,174a20.87,20.87,0,0,1,20.27,21.34l-1.95,76.36c0,.56-.07,1.11-.12,1.66A20.88,20.88,0,0,0,525.65,254l2-76.36a20.87,20.87,0,0,0-20.27-21.33l-103.77-2.65L387,153.25a20.87,20.87,0,0,0-21.21,18.61A20.7,20.7,0,0,1,372.53,170.89Z"/><path class="cls-11" d="M398,152.77,394,270.7c6.59,1.55,12.36,1.66,17.35.45l4-117.94C409.43,151.15,403.63,150.85,398,152.77Z"/><circle cx="406.17" cy="162.98" r="3"/><circle cx="405.74" cy="179.97" r="3"/><circle cx="405.3" cy="196.97" r="3"/><circle cx="404.92" cy="211.96" r="3"/><circle cx="404.53" cy="226.96" r="3"/><circle cx="404.15" cy="241.95" r="3"/><circle cx="403.82" cy="254.95" r="3"/><circle cx="403.51" cy="266.95" r="3"/><path class="cls-11" d="M483,154.94l-4,117.94c6.59,1.54,12.36,1.66,17.36.44l4-117.94C494.4,153.32,488.6,153,483,154.94Z"/><circle cx="491.14" cy="165.15" r="3"/><circle cx="490.71" cy="182.15" r="3"/><circle cx="490.27" cy="199.14" r="3"/><circle cx="489.89" cy="214.14" r="3"/><circle cx="489.51" cy="229.13" r="3"/><circle cx="489.12" cy="244.13" r="3"/><circle cx="488.79" cy="257.12" r="3"/><circle cx="488.48" cy="269.12" r="3"/><path class="cls-12" d="M486.64,274.05a47.48,47.48,0,0,1-7.68-1.17l4-117.94a23.37,23.37,0,0,1,6.83-1.25,23.83,23.83,0,0,0-9.83,1.17L476,272.8A43.89,43.89,0,0,0,486.64,274.05Z"/><path class="cls-12" d="M403.66,271.93a46.51,46.51,0,0,1-7.67-1.18l4-117.93a23.49,23.49,0,0,1,6.83-1.25,23.87,23.87,0,0,0-9.83,1.17l-4,117.94A43.87,43.87,0,0,0,403.66,271.93Z"/><path class="cls-13" d="M425.45,117.92s-10.17-39.19-8.11-38.13,13.59-26.58,13.59-26.58l17,21.23-5.16,40.26-5,9.61Z"/><path class="cls-14" d="M423.4,79c1.48.77,7.89-13.39,11.35-21.35l-4-5s-11.54,27.65-13.6,26.58,8.12,38.13,8.12,38.13l12.35,6.39,1.42-2.75-7.55-3.9S421.34,78,423.4,79Z"/><path class="cls-14" d="M436.08,86.44c2,20.14,1.83,38,1.21,38-.34,0-.7-5.14-3.65-36.68-2.69-28.82-3.33-34.55-3-34.59C431.24,53.12,434.32,68.81,436.08,86.44Z"/><path class="cls-13" d="M428.57,110.14s14.69-48.79,16.22-46.38S477,43.1,477,43.1l4.5,33.42-32,40.64-11.69,7.43Z"/><path class="cls-14" d="M451.86,66.58c1.1,1.74,17.34-9.76,26.31-16.32l-1.05-7.83S446.48,65.5,445,63.09s-16.22,46.39-16.22,46.39l9.19,14.44,3.33-2.12L435.64,113S450.33,64.18,451.86,66.58Z"/><path class="cls-14" d="M460.72,82.37c-11,23.11-23,42.43-23.64,42.08-.37-.18,2.62-6,20.12-42.1,16-33,19.06-39.59,19.47-39.43C477.35,43.19,470.39,62.12,460.72,82.37Z"/><path class="cls-13" d="M437.4,110.78s29.09-28.16,29.18-25.84,29.84-1.27,29.84-1.27l-10.1,25.27-37.58,15.33-10.81.41Z"/><path class="cls-14" d="M470.25,89.83c.06,1.67,15.54.27,24.17-.64l2.37-5.92S467,86.85,467,84.54s-29.18,25.84-29.18,25.84l.53,13.9,3.09-.12-.32-8.49S470.16,87.51,470.25,89.83Z"/><path class="cls-14" d="M470,104.53c-16.54,11.66-32.17,20.3-32.5,19.78-.18-.28,4.13-3.14,30.12-21.24,23.76-16.54,28.43-19.92,28.64-19.64C496.65,83.9,484.51,94.3,470,104.53Z"/><path class="cls-15" d="M491.32,90.81l-10,10.17,6.95-1.41Q489.79,95.19,491.32,90.81Z"/><path class="cls-15" d="M476.47,62,472,80.76l6.52-6.19Q477.48,68.26,476.47,62Z"/><polygon class="cls-16" points="0.48 0.01 62.98 0.3 93.98 50.3 134.98 40.3 223.98 81.3 278.98 118.3 309.98 179.3 357.35 192.3 369.98 225.3 415.98 251.3 421.69 320.8 0.48 320.8 0.48 0.01"/><polygon class="cls-17" points="105.7 188.3 151.84 178.3 251.99 219.3 313.88 256.3 348.77 317.3 371.32 322.8 421.69 322.8 415.98 253.3 369.98 227.3 357.35 194.3 309.98 181.3 278.98 120.3 223.98 83.3 134.98 42.3 93.98 52.3 62.98 2.3 0.48 2.01 0.48 138.01 70.81 138.3 105.7 188.3"/></g></svg>