<svg xmlns="http://www.w3.org/2000/svg" width="1440" height="910.96" viewBox="0 0 1440 910.96"><defs><style>.cls-1{fill:#161715;}.cls-2{fill:#f9ed32;}.cls-3{fill:#231f20;}.cls-4{fill:#afaeaf;}.cls-5{fill:#bcbec0;}.cls-6{fill:#e0dae0;}.cls-7{fill:#4c4c44;}.cls-8{fill:#3c2415;}.cls-9{fill:#22130c;}.cls-10{fill:#4e7739;}.cls-11{fill:#5c9b45;}.cls-12{fill:#f7941d;}.cls-13{fill:#e9c61d;}.cls-14{fill:#ffde17;}.cls-15{fill:#808285;}.cls-16{fill:#e48225;}.cls-17{fill:#d7df23;}.cls-18{fill:#b2b335;}.cls-19{fill:#282626;}.cls-20{fill:#3f3d3e;}.cls-21{fill:#fff;}.cls-22{fill:#c82127;}</style></defs><g id="Layer_3" data-name="Layer 3"><rect class="cls-1" x="0.77" y="-1.48" width="1438.47" height="910.96"/></g><g id="Layer_1" data-name="Layer 1"><path class="cls-2" d="M295.54,403c110.55,39.59,225.77.17,257.37-88.05L152.59,171.57C121,259.78,185,363.39,295.54,403Z"/><circle class="cls-3" cx="489.93" cy="339.92" r="22.96"/><path class="cls-2" d="M1157.47,398.51c-111,38.33-220.12,13.94-243.74-54.48l401.92-138.81C1339.28,273.64,1268.46,360.17,1157.47,398.51Z"/><ellipse class="cls-3" cx="976.56" cy="353.68" rx="22.96" ry="17.73" transform="translate(-61.96 338.17) rotate(-19.05)"/><circle class="cls-4" cx="727.95" cy="407.15" r="11.23"/><circle class="cls-5" cx="729.35" cy="405.1" r="11.23"/><circle class="cls-6" cx="729.35" cy="405.1" r="4.3"/><ellipse class="cls-7" cx="723.08" cy="584.36" rx="115.63" ry="12.97"/><path class="cls-8" d="M838.61,655.88l-28,13.39c-7.23,3.45-16.39,2.77-20-1.67l-69.67-84.88c-3.64-4.44,1.23-9,10.4-10.06l35.6-4.17c7.17-.84,15.29,1.52,18.32,5.21l58,70.65C846.23,648,844.26,653.18,838.61,655.88Z"/><path class="cls-9" d="M824,660.42c-6.54,3.06-15,2.24-18.4-2l-66-80.4c-2.93-3.58-.26-7.18,5.74-8.74l-13.9,1.56c-9.14,1-14,5.52-10.36,9.94l69.39,84.52c3.62,4.42,12.75,5.14,19.95,1.76l28-13.13a13.44,13.44,0,0,0,2.3-1.37Z"/><path d="M841.77,662.86l-48.43,10.77a2.82,2.82,0,0,1-3.48-3.07l.89-46a4.2,4.2,0,0,1,3.5-4l46.86-5.73a2.69,2.69,0,0,1,2.86,2.9l.64,41.08A4.12,4.12,0,0,1,841.77,662.86Z"/><path class="cls-8" d="M649.66,669.33l-43.25-6.92c-6.44-1-8.51-5.7-4.7-10.33l64.81-78.69c3-3.65,10.28-6.19,16.21-5.66l39.68,3.54c6.3.56,9.25,4.13,6.47,8l-60.13,83.11C665.19,667.28,656.55,670.43,649.66,669.33Z"/><path class="cls-9" d="M610,655.18l64.44-79.65c3-3.7,11.58-6.14,19.19-5.45l33.53,3a18.45,18.45,0,0,0-7.47-2.06l-33.89-3c-7.5-.67-16,1.75-19,5.41L602,652.12c-3.81,4.63-.37,9.52,7.78,10.82l.82.14C608.13,660.91,607.74,658,610,655.18Z"/><path d="M656.46,670.46l-55.66-9.14a3.41,3.41,0,0,1-2.75-3l-2.66-39.44a2.53,2.53,0,0,1,2.49-2.8h58.35a3.79,3.79,0,0,1,4,3.47V668C660.26,669.69,658.55,670.8,656.46,670.46Z"/><rect class="cls-10" x="713.77" y="384.42" width="22.52" height="40.62"/><path class="cls-10" d="M677.31,320.36h95.41a1.84,1.84,0,0,1,1.84,1.84v50.44a32.09,32.09,0,0,1-32.09,32.09h-34.9a32.09,32.09,0,0,1-32.09-32.09V322.2a1.84,1.84,0,0,1,1.84-1.84Z"/><path class="cls-11" d="M686.84,322.25h85.24a1.84,1.84,0,0,1,1.84,1.84v48.55a32.09,32.09,0,0,1-32.09,32.09H717.09A32.09,32.09,0,0,1,685,372.64V324.09a1.84,1.84,0,0,1,1.84-1.84Z"/><path class="cls-12" d="M708.69,414.43h32.72a48.28,48.28,0,0,1,48.28,48.28V581a0,0,0,0,1,0,0H660.41a0,0,0,0,1,0,0V462.71a48.28,48.28,0,0,1,48.28-48.28Z"/><path class="cls-13" d="M722,258h7.42a45.84,45.84,0,0,1,45.84,45.84V327.5a3,3,0,0,1-3,3h-96.1a0,0,0,0,1,0,0V303.87A45.84,45.84,0,0,1,722,258Z"/><path class="cls-14" d="M728.86,256.75h0A44.25,44.25,0,0,1,773.11,301v17.58a2.88,2.88,0,0,1-2.88,2.88H684.6a0,0,0,0,1,0,0V301A44.25,44.25,0,0,1,728.86,256.75Z"/><rect class="cls-13" x="661.84" y="319.8" width="127.7" height="13.96" rx="6.98"/><path class="cls-14" d="M781,333.7l-108.07,0c-4.11,0-7.48-2.67-7.48-5.93h0c0-3.27,3.37-5.94,7.48-5.94l108.07,0c4.11,0,7.48,2.67,7.48,5.93h0C788.43,331,785.07,333.7,781,333.7Z"/><circle class="cls-13" cx="723.09" cy="262.65" r="18.55"/><circle class="cls-13" cx="723.09" cy="262.65" r="9.17"/><circle class="cls-15" cx="725.67" cy="258.03" r="21.14"/><path class="cls-16" d="M670.1,458.84a44.91,44.91,0,0,1,37.25-44.26h-2.18a44.92,44.92,0,0,0-44.91,44.93l0,121.62h9.84Z"/><rect class="cls-3" x="660.26" y="564.91" width="129.45" height="16.77"/><path class="cls-17" d="M685.68,419c-2.2,21.71-3.89,44.71-4.84,68.9-1.05,26.8-1.08,52.24-.4,76.14h18.1a609.07,609.07,0,0,1,1.77-149.26,43.41,43.41,0,0,0-7.79,1.57A44.72,44.72,0,0,0,685.68,419Z"/><path class="cls-18" d="M683.58,560.91c-.69-23.9-.65-49.34.4-76.14.92-23.52,2.55-45.9,4.66-67.07-1.08.43-2.08.88-3,1.32-2.2,21.7-3.89,44.7-4.84,68.9-1.06,26.8-1.09,52.23-.4,76.13h18.1c-.12-1-.23-2.09-.34-3.14Z"/><path class="cls-17" d="M749,414.62c1.43,20.5,2.31,42.24,2.4,65.09.13,30-1.13,58.18-3.25,84.26h13.74c1.77-28.16,2.64-58.16,2.21-89.81q-.4-29.09-2.11-56.11a37.58,37.58,0,0,0-13-3.43Z"/><path class="cls-17" d="M751.35,479.71c-.31,4-56.49-1.2-56.23-3.2l-.31,15.23c19.27,3.64,38.14,5.12,56.48,3.81Z"/><path class="cls-3" d="M712.42,479.44c0,2.41.06,5,.25,7.73s.44,5.12.77,7.44A116.49,116.49,0,0,0,725.71,496c4.22.23,8.14.22,11.69.06a73.13,73.13,0,0,0,0-8c-.14-2.5-.39-4.81-.71-6.91-3.82-.13-7.76-.33-11.79-.61C720.61,480.22,716.45,479.85,712.42,479.44Z"/><path class="cls-19" d="M715.19,481.23c0,1.91,0,3.95.2,6.11s.35,4,.61,5.87a91.05,91.05,0,0,0,9.69,1.07,89.83,89.83,0,0,0,9.25.05,57.81,57.81,0,0,0,0-6.32c-.11-2-.31-3.79-.56-5.45q-4.53-.17-9.32-.48Q720,481.72,715.19,481.23Z"/><path class="cls-3" d="M717.79,483c0,1.4,0,2.91.15,4.5s.26,3,.45,4.32a66,66,0,0,0,7.13.79,64.8,64.8,0,0,0,6.81,0,42.34,42.34,0,0,0,0-4.65c-.08-1.45-.22-2.79-.41-4q-3.33-.12-6.86-.36Q721.31,483.36,717.79,483Z"/><circle class="cls-20" cx="693.24" cy="429.81" r="3.21"/><circle class="cls-3" cx="693.94" cy="429.06" r="3.21"/><circle class="cls-20" cx="756.48" cy="432.38" r="3.21"/><circle class="cls-3" cx="757.17" cy="431.63" r="3.21"/><circle class="cls-20" cx="755.72" cy="556.65" r="3.21"/><circle class="cls-3" cx="756.41" cy="555.91" r="3.21"/><circle class="cls-20" cx="689" cy="556.77" r="3.21"/><circle class="cls-3" cx="689.7" cy="556.02" r="3.21"/><circle class="cls-20" cx="689.22" cy="483.69" r="3.21"/><circle class="cls-3" cx="689.92" cy="482.94" r="3.21"/><circle class="cls-20" cx="758.7" cy="488.03" r="3.21"/><circle class="cls-3" cx="759.4" cy="487.28" r="3.21"/><path class="cls-12" d="M777.94,445.8l38.1-18A18.57,18.57,0,0,1,840.92,436h0a18.57,18.57,0,0,1-8.21,24.88L788,482.21"/><path class="cls-12" d="M662.71,446.42l-37-6.86c-8.9-1.92-17.94,4.67-20.08,14.63h0c-2.15,10,3.38,19.68,12.28,21.6L661.33,484"/><path class="cls-16" d="M614.09,457.91l12.68,7.5a11.18,11.18,0,0,0,15.29-3.93L678.3,402.6a11.21,11.21,0,0,0-3.93-15.29l-12.68-7.5a11.19,11.19,0,0,0-15.29,3.93l-36.23,58.88A11.2,11.2,0,0,0,614.09,457.91Z"/><path class="cls-11" d="M702.37,360l-4-2.34L695.86,362,688,375.24a12.47,12.47,0,0,1-7.06,5.49,10.88,10.88,0,0,1-8.54-1l-3.14-1.86c-5.28-3.12-6.91-10.24-3.61-15.82l7.78-13.15,2.59-4.38-3.95-2.34a7.85,7.85,0,0,0-10.63,3l-8.94,15.11c-4.82,8.15-2.44,18.56,5.29,23.13l15.24,9c7.73,4.57,18,1.64,22.82-6.51l8.94-15.11A7.85,7.85,0,0,0,702.37,360Z"/><path class="cls-10" d="M670.31,346.42l-7.78,13.15c-3.3,5.58-1.67,12.69,3.61,15.82l.68.4A11.75,11.75,0,0,1,665.69,362l7.78-13.15,2.59-4.38c-1.14-.67-2.28-1.34-3.41-2Z"/><path class="cls-10" d="M701.67,368.37l-8.94,15.11c-4.82,8.15-15.09,11.08-22.82,6.51l-15.1-8.94a14.94,14.94,0,0,0,3,2.36l15.24,9c7.73,4.57,18,1.64,22.82-6.51l8.94-15.11A7.85,7.85,0,0,0,702.37,360l-1.18-.69A8,8,0,0,1,701.67,368.37Z"/><path class="cls-12" d="M615.07,470.73h0a18.58,18.58,0,0,0,25.38-6.52L669.18,418a18.58,18.58,0,0,0-6.51-25.38l-15.45-9.14a.59.59,0,0,0-.8.21l-37.87,61.65A18.59,18.59,0,0,0,615.07,470.73Z"/><path class="cls-16" d="M822.37,455.05l12.44-7.89a11.19,11.19,0,0,0,3.46-15.4l-31.36-47.43a11.19,11.19,0,0,0-15.41-3.45l-12.44,7.88a11.21,11.21,0,0,0-3.45,15.41L807,451.6A11.19,11.19,0,0,0,822.37,455.05Z"/><path class="cls-12" d="M834,459.7h0a18.59,18.59,0,0,0,5.73-25.57l-27.41-41.21A11.21,11.21,0,0,0,797,389.47l-6.22,3.94A18.58,18.58,0,0,0,785,419l23.47,35A18.6,18.6,0,0,0,834,459.7Z"/><path class="cls-11" d="M779.93,343.55,776.05,346l2.68,4.23,8.23,13a12.43,12.43,0,0,1,1.68,8.78,10.85,10.85,0,0,1-4.8,7.15l-3.08,1.95c-5.19,3.29-12.27,1.5-15.73-4l-8.19-12.91-2.72-4.3-3.88,2.46a7.84,7.84,0,0,0-2.13,10.84l9.4,14.83c5.07,8,15.42,10.61,23,5.8l15-9.48c7.59-4.81,9.64-15.28,4.57-23.28l-9.39-14.83A7.85,7.85,0,0,0,779.93,343.55Z"/><path class="cls-10" d="M787,363.21a12.43,12.43,0,0,1,1.68,8.78,10.94,10.94,0,0,1-2.76,5.43l.33-.2a10.9,10.9,0,0,0,4.81-7.15,12.48,12.48,0,0,0-1.68-8.78q-4.12-6.48-8.23-13l-2.49-3.94L776.05,346q1.35,2.12,2.68,4.23Q782.86,356.72,787,363.21Z"/><path class="cls-10" d="M797.85,382.44l-15,9.48c-7.58,4.81-17.93,2.2-23-5.8l-9.4-14.83a8,8,0,0,1,.44-9.36l-.69.44a7.84,7.84,0,0,0-2.13,10.84l9.4,14.83c5.07,8,15.42,10.61,23,5.8l15-9.48a15.45,15.45,0,0,0,2.63-2.1Z"/><path class="cls-3" d="M745.79,393.16c.46-2.36-7.47-9.33-16.46-10.09-11-.94-21,7.59-20.51,10.1.29,1.52,4.34.21,18,.27C740.77,393.49,745.45,394.87,745.79,393.16Z"/><path class="cls-21" d="M741.94,389.94c.56-1.3-6-5.32-13.51-5.63-8.64-.36-16.54,4.28-16,5.64.33.82,3.63.11,14.4.12C737.89,390.09,741.56,390.85,741.94,389.94Z"/><path class="cls-2" d="M703.45,355.87c8.1,2.9,16.55,0,18.87-6.45L693,338.9C690.65,345.37,695.34,353,703.45,355.87Z"/><circle class="cls-3" cx="717.7" cy="351.25" r="1.68"/><path class="cls-2" d="M754.68,357c-8.14,2.81-16.14,1-17.87-4l29.46-10.18C768,347.83,762.81,354.17,754.68,357Z"/><ellipse class="cls-3" cx="741.42" cy="353.7" rx="1.68" ry="1.3" transform="translate(-74.85 261.41) rotate(-19.05)"/></g><g id="Layer_2" data-name="Layer 2"><path class="cls-10" d="M492,215.25l.19,3,.48,1.79-.4,1.53-1,1.27-1.85-.12-2.26-2-1.1-2.64-1.68-1-1.11-3.44-2.87-4.69-3.08-2.82-3-3.56-2-3.21-3.05-4.64-1.46-4-3-2.44-2.8-1.38-2.5,2.38-2.28,2.43-7.47,3.81-3.12.43-3.55.74-7.44-.64-5-.8-.83-1.6L426,193l-1.35-2.07-2-1.17-2.3-3.33-1.42-3.06-1.12-3.44-1.64-5.42-1.35-5.81-.15-5.11L413.55,161l-2-4.42-1.63-5.33-1-5.2.67-4.32,1.12-6.06,1.36-5.11,1.54-3.34.71-3,2.69-5.06,1.62-4.17,2-3.47,1.86-3.63,2.33-2.24,3.78-.6,2.9-2.39,6.18-2.25,2.15-2.9,4.55-3,4.26-.33,3.09.59,3,1.73,1.78,2.16,1.8,1.44,1.08,2.54.19,1.46-.59,1.58-2,2.66-2.53,1.88-5.09,1.36-3.27-.14-3.77-.11-3.41,2L434.79,117l-3.14,3.77-3.47,4-.25,2.49-2.3,2.74L424,134.22l-1.79,5-1.08,3.52-.44,5.17-.62,4.91.77,5.16,1.08,4.05.24,4.69.5,6,.93,5,2.95,5.38,3.53,3.4,3.47,2,4.22.29,5.39.89,5.63-.49,3.72-1.6,2-.53,1.18-1.63,2.07-4,1.39-3.51-1.71-6.41-.51-4.21-.67-4.78v-4.55l.77-2.42-1.7-4.1.09-1.94.69-1.6.75-1.72,1.31-1.16,3-.59,3.64,1.16,2.11,3.37,2.23,4.57,1.74,3.88,2.2,2.95,2.64,3.84,1.33,5,1.37,4.39.48,4.82,1.46,5.48,1,4.67,1.69,6.32,1.6,5.24,2.85,5.4,2,5.44,1.1,2.64Z"/><path class="cls-10" d="M548,194.22l0,1.38-1.09,1.68-1.44.26-1.83-1.36-1.22-2.36-1.61-1.8-1.27-2.65-.9-.63-1,.78-1.45,1.35-1.35,2.43-2.49,2.13-1.43,2-2.7,2.07-3.14,1.86-2.71,1.47-2.46,1.24-1.78,1.11L516,205l-2.85.11-3.51-.76-3.31-1.29-2.24-2-1.81-2.36-.93-4.1-.5-2.78,0-3.18,1.26-3.5,1.2-3.29,2-2.55,2.18-2.27,3.26-1.18,2.91-.92,3.23-1.37,2.55-2.34,3.41-2.6,1.69-1.09,1.81-.92.41-2.16-2-2.51-2.27-2.18L518,156.93l-4.15-.45-3.21.37-1.11.4-2,.36-2.2,1.59-1.87,1.72-2.53.85-2.88.52-3.21,1.47-3,.53-2.63-.82-2-1.42-.62-2.37.19-2.22,1.59-2.76,1.62-3.17,2.21-2.58,2.61-2,2.71-3.16,2.74-1.88,5.29-2,4.64-1.23,3.54.36,3,.94,3.16.43,3.76,1.61,2,1.42,2.23,2.47,1.88,3.34,1.58,3.29,2.18,4.37,1.86,3.24.73,2.94.48,3.78,1.74,4.16,1.38,4.41,3.14,7.58,1.59,2.79,1.45,2.52,1.37,3.22Zm-17-18.09-1-1-2.93-.27-2.37.62-1.94,1.34-2.27,1.2-2.25,1.79-2.34.82L514,182.05l-1.59,1.68-.84,1.93-1,2.47,0,2-.44,2,.41,2.31,1.33,1.84,2.73.31,2.79-.5,2.93-1.32,1.17-1.8,1.84-.82,4-3.89,2-1.84,1.09-2.77,1.27-2.31-.29-2.73Zm8.66,19-.66.71-1.74-.28.27-1.24,1-.88Zm4.73-17.91-1,1-1.12-.19-.21-1.15,1.67-1.2Z"/><path class="cls-10" d="M636.62,177.5v2.06l-.54,2.51-1.77.58-.4-3.78-.79-2L632,174.26l-.77-3.55-1-3.54-1-2.15-.89-3.05-2.06-8.52-1.49-2-2-1.86L621,149.4l-1.59-.16-2.64.12-2.33.24-2.47-.13-2.7,2.34L607.71,153l-.69,2.81-.77,1.95-.46,3.08-.72,3.41-.7,2.72-.22,3.45L604,173l.56,3.46v1.86l.48,4.56-.28,2.87v2l-1,2.17-1.75.19-1.47-.92-.63-1.31-.56-5.33-.11-3.81-.78-7.36-.17-3.42-.57-3.56-.33-3.1-.59-2.78-.73-7-.91-2.94L593.71,146l-1.85-.79-2.77.69-2.33,1.23-1.58,1.73-1.65,2-1.85,2.94-1.47,2.8L578.89,160l-1,3.73-1.19,4.54-.1,4.62v3.62l-.18,3.85.37,3.49.73,3.15.46,4.36-1.06,3L575,197l-2.27.83-2.23.23-1.48-.92-1.11-1.26-1.92-4.21-1.07-4.51-1.19-3.9-.49-4.56-.67-4.54-1.07-4.51-.66-4.35-1.27-3.69-.4-3.79.19-2.87-.74-2.28L557.3,150l-1.46-2.69-2.93-4.5.4-2.7,1-1.87.85-1.27,3.05-1.79,2.25-1,3.44,0,3.68.4,2.73.79,3.06,1.05,2,1.55,1.32,1.34,1.15,1.64,2.58-.66,2.7-1.47,2.44-1,1.71-1.46,3.51-1.16,2.63.71,2.37,1,1.93,1.57,1.23,2.32.2,1.94,1,2.75.46,2.5,1.18-1.89,1.45-1.13,1.59-2.63,1.54-2.12,1.91-1.48,1.77-1.76,2.16-1,1.9-.59,2.06,0,2.06,1,2.92.67,2.53,1.6,1.87,2,1.39,1.92,1.19,2,.67,2.58.3,2.82.67,2.68.26,2.43,1,2.93.76,3.46,1.24,2.52.84,2.37.45,2.31.31,3,.48,2.6.4,1.92Zm-6.52-46.74L627.58,132l-1.13-1.45.73-2.34,2.16.85Z"/><path class="cls-10" d="M704,145.59l-1.65,2.71L699.53,150l-3.35,1.61L692,153.11l-4.57.58-4.16,1.15-2.86,1.58-3.37,1.31-2.8.9-4.58.38-3.62-.24-2.44.29-2.11.87-.88,2.28.56,4.18,1.26,2.2,2.36,2.64,4.38,4.42,2.23,2,4.28,2,2.29,1,2.78,1.06,3.22-.13,3-.9,2.52-.5,2.79-1.18,2.81-.71,1.75-.07.23.78-.93,1.11-1.71,1.24-3,1.69-3.16,1.79-3,1.29-2.9.9-4.4,0-4.43-.79L670,184.41l-4.31-2.56-3.94-3.06-2.7-1.65-2-1.78-1.75-2.27-1.21-.83-2.68-5.85L649,161.32l-1.54-4.14-.62-3.2.15-3.62.62-3.84.65-3.25.89-2.19.88-2.47.83-1.21,1.69-1.63,1.36-.26,2.3-3.51,2.73-2.56,2.86-1.68,3.59-.73,4.58-.19,3.8-.35,5.2.38,4.24,1L695,133.15l3.1,1.73,2.93,2.42,1.64,2,1.12,3.37Zm-18.77-4.94-1.73-1.71-2.59-1.18L678,136.69l-3.24-.27-3.12.13-2.8.91-2.78,1.3-2.46,2-1.43.85-1.49,1.84.64,1.26,1.36-.25,2.25.11,3.8-.16L672,145l3.31-.14,3.61-.34,3.18-.91,2.8-.91Zm10,35-1.13,1-1.12-.93.54-1.29,1.46-.06Z"/><path class="cls-10" d="M852.4,140l-2,9.06-4.21,9.13-2.89,5.29-2.65,3.16-3.47,3.79-4,3.56-4.64,2.15-6.65,1.52-7.09.62L808.13,177l-6-1.56-4.6-2.94-8.62-5.93-4.85-5.31-2.44-3-3.15-4.41-1.79-5.5-1.12-5.46-.41-5.7,1.05-4.14-.63-5.42-.92-4.07,1.68-4.69.15-2.44,1.47-1.47.24-3.8,1.43-2.35,2.3-2.4,1.8-5.07,3-4.5L790,93.69,792.4,90l2.66-.22,3.18-2.24,2.21-.84,2.91-1.18,3-2.06,3.19-1,3.22-2.83,3-3.22,1-.92,2.51-1,3.76,1,3.35,2.56,2.8,3.61.84,5.24-.82,3.57-4,3.55L820.1,96l-6.75,0-4.77,5.66-3.21,5.86-3.5,4.18-3.32,7.42-1.26,7.45-2,6.72,2.28,7.19.44,6.79,3.34,4.42,3,8.22,2.59.75,1.27,1.55,3.17,1,4.35.87,5.25-1,5.17-1.33,3.29-2.33.64-7,2.33-1.22.17-5.67,1.61-3.61.84-4,1.48-3.33L836,131.1l-.16-5.2-1.72-3.73-2.51-2L829.87,116l-3.11-4.8.83-3.77,1.38-3.23,2.33-1.32,3.22.21,4,2.9,3.86,2.4,1.7,3.93,2.48,2.6.52,4,1.3,4.09,1.06,3.3,1.94,3.26.25,5.3ZM779,105l-1.64,1.07-1.6.68-.07-2,1.1-2,1.76.11Zm34.08-27.75-1.85,1.35-.49-1.5.71-1.91,1.73.5Z"/><path class="cls-10" d="M913.55,142.17l-1.37,2.29-1.73,1.15-2,2-1.53,2L905,152l-1.93,2-.17,1.35L901.72,157l-1.36,2.88-1.54,2.86-1.89,3.2-1.31,2.59-1.3,2.49-1.62,3.44-1.94,3.59-.87,3.73-1.41,3.37-.75,2.76-.86,2.15.39,1.62-.29,2.23-.41,1.72-1.5,1.58-1.75,1.26-2,.13L879,197.52l-.81-1.39-.91-2.28-.27-3.28.16-2.83-.79-3.06-.66-2.54-1-3.39-.55-3.41-1.17-3.2-.53-3.52L870,155.81l-1.11-4.37,0-6.49-.89-2.28L866.48,140l-.87-2.47L865,134.6,863.45,132l-1.07-2.4,0-1.77.53-2.59,2-2.2,2.76-.82,3.76.67,3.31,1,2.85,1.65,2.49,2.09,1.72,2.68,2,2.62,3.52,2.51.92,2.09-.07,2.85.45,2.61-.62,1.79-1.46,1.39L886,148.4l0,3-.34,2.61.52,2.92,0,3.25.26,2.79v3.25l-.16,2.83-1.48,2-.21,1.65.65,1.46,1.09-.85,1.47-2.27,2.7-4.87.92-1.07,2.54-4.4,2-2.5.31-2.42,1.88-2.33,1.37-2.28,2-2,1.26-2.2,2.28-1.58,1.77-1.54,2.06-2.2,1.48-1.59.9-.87,1.17.15,1.28,1.54Z"/><path class="cls-10" d="M974.62,170.35l-2.22,2.26-3.08,1-3.63.8-4.38.56-4.58-.48-4.31.18-3.15.89-3.58.51-2.93.24-4.54-.67-3.48-1.06-2.43-.27-2.26.37-1.38,2-.4,4.2.73,2.43,1.69,3.1,3.27,5.3,1.72,2.41,3.73,2.9,2,1.48,2.47,1.66,3.16.6,3.12-.2,2.57.09,3-.52,2.9-.05,1.72.33,0,.81-1.16.87-2,.82-3.26,1-3.48,1-3.19.58-3,.22-4.28-1-4.13-1.78-3.2-2.5L929.08,197l-3.14-3.88-2.26-2.22-1.57-2.19-1.19-2.61-1-1.08-1.28-6.31-1.14-5.49L917,168.8l.12-3.25,1-3.5,1.48-3.59,1.37-3,1.36-1.93,1.42-2.22,1.08-1,2-1.21,1.38.07,3-2.91,3.24-1.86,3.17-1,3.66.1,4.51.86,3.77.52,5,1.55,3.9,1.93,10.34,7.84,2.63,2.39,2.3,3,1.15,2.31.32,3.54Zm-17.16-9.08-1.3-2.06-2.25-1.74-2.56-1.69-3.1-1-3.07-.59-2.93.25-3,.63-2.85,1.37-1.58.51L933,158.41l.33,1.38,1.38.06,2.17.61,3.74.72,3,1.37,3.27.62,3.58.48,3.31-.16,2.93-.25Zm1.81,36.38-1.33.73-.87-1.16.81-1.13,1.44.27Z"/><path class="cls-10" d="M1030.68,175l-1.42,0-1.74-.68-1.7-.46-2.65-.31-3.59.95-2.07,1.67-3.47.48-1.75,1.24-3.16,1.58-1.77,2.05-1.34,2-.76,2.83-1.34,2-1.46,2-1.45,2.34-.92,2.68-1.66,6.13-.93,2.68L996,206.73l-.9,2.59-1.17,2.82-.74,2.74L991,217.32l-2.13,1.15-2.75.06-1.8-.08-1.4-.78-1-1.89-.27-2-.24-2.09.77-2.12.65-3.16L984,202l.37-2.12.83-2.31,1-3.06.71-2.64,1.22-3,1-3.06.76-3.54.76-2.82L991,177l.4-2.22-.89-3.08-.74-2.52-.14-2.47.5-2.59,1-2.26,1.4-1.44,1.91-.7,2.89-.23,3.31-.62,2.44,1.06,2.82,2.28-.13,2,.73,2.93-1,3.86.83,1.44,1.08.5,1.7.05,2.29-1,3-.91,3.28-.53,2.83-.75,3,.41,3.31.09,1.7.46,2.15,1.39.38,1.62Z"/><path class="cls-22" d="M492,207.7l.19,3,.48,1.79-.4,1.52-1,1.27-1.85-.11-2.26-2-1.1-2.63-1.68-1-1.11-3.44-2.87-4.7-3.08-2.81-3-3.56-2-3.21-3.05-4.65-1.46-4-3-2.45-2.8-1.37-2.5,2.38-2.28,2.43L449.86,188l-3.12.43-3.55.74-7.44-.65-5-.79-.83-1.6-3.92-.68-1.35-2.06-2-1.18-2.3-3.33-1.42-3-1.12-3.44L416.16,167l-1.35-5.8-.15-5.12-1.11-2.63-2-4.43-1.63-5.32-1-5.2.67-4.32,1.12-6.06,1.36-5.11,1.54-3.34.71-3,2.69-5.07,1.62-4.17,2-3.46,1.86-3.63L424.87,98l3.78-.6,2.9-2.39,6.18-2.25,2.15-2.9,4.55-3,4.26-.32,3.09.59,3,1.73L456.55,91l1.8,1.44L459.43,95l.19,1.47L459,98l-2,2.66-2.53,1.89-5.09,1.36-3.27-.14-3.77-.11-3.41,2-4.15,3.74-3.14,3.76-3.47,4.06-.25,2.49-2.3,2.74L424,126.67l-1.79,5-1.08,3.53-.44,5.17-.62,4.91.77,5.15,1.08,4.06.24,4.69.5,6,.93,5,2.95,5.37,3.53,3.41,3.47,2,4.22.29,5.39.88,5.63-.49,3.72-1.59,2-.53,1.18-1.63,2.07-4,1.39-3.5-1.71-6.42-.51-4.21-.67-4.77v-4.55l.77-2.43-1.7-4.09.09-1.95.69-1.59.75-1.72,1.31-1.16,3-.59,3.64,1.15,2.11,3.38,2.23,4.56,1.74,3.88,2.2,2.95,2.64,3.85,1.33,5,1.37,4.38.48,4.83,1.46,5.47,1,4.68,1.69,6.32,1.6,5.23,2.85,5.41,2,5.44,1.1,2.63Z"/><path class="cls-22" d="M548,186.66l0,1.38-1.09,1.69-1.44.25-1.83-1.36-1.22-2.36-1.61-1.79-1.27-2.65-.9-.63-1,.78-1.45,1.35-1.35,2.43-2.49,2.13-1.43,2-2.7,2.07-3.14,1.85-2.71,1.48-2.46,1.23-1.78,1.12-2.13-.22-2.85.12-3.51-.76-3.31-1.3-2.24-2-1.81-2.35-.93-4.1-.5-2.79,0-3.18,1.26-3.5,1.2-3.29,2-2.54,2.18-2.27,3.26-1.18,2.91-.92L516.9,166l2.55-2.35,3.41-2.59,1.69-1.1,1.81-.92.41-2.15-2-2.52-2.27-2.17L518,149.37l-4.15-.44-3.21.37-1.11.4-2,.36-2.2,1.59-1.87,1.72-2.53.85-2.88.52-3.21,1.46-3,.54-2.63-.82-2-1.42-.62-2.37.19-2.22,1.59-2.76,1.62-3.17,2.21-2.58,2.61-2.05,2.71-3.17,2.74-1.88,5.29-2,4.64-1.22,3.54.35,3,1,3.16.42,3.76,1.61,2,1.42,2.23,2.48,1.88,3.33,1.58,3.29,2.18,4.38,1.86,3.23.73,2.95.48,3.78,1.74,4.15,1.38,4.42,3.14,7.57,1.59,2.79,1.45,2.52,1.37,3.23Zm-17-18.08-1-1-2.93-.27-2.37.63-1.94,1.34-2.27,1.2-2.25,1.79-2.34.82L514,174.5l-1.59,1.67-.84,1.94-1,2.47,0,2-.44,2,.41,2.3,1.33,1.85,2.73.3,2.79-.5,2.93-1.32,1.17-1.79,1.84-.83,4-3.88,2-1.84,1.09-2.78,1.27-2.31-.29-2.72Zm8.66,19-.66.71L537.2,188l.27-1.24,1-.88Zm4.73-17.92-1,1-1.12-.19-.21-1.16,1.67-1.19Z"/><path class="cls-22" d="M636.62,170V172l-.54,2.51-1.77.58-.4-3.79-.79-2L632,166.71l-.77-3.56-1-3.53-1-2.15-.89-3.05-2.06-8.52-1.49-2-2-1.85-1.89-.19-1.59-.16-2.64.11-2.33.25-2.47-.13-2.7,2.34-1.54,1.15-.69,2.81-.77,1.94-.46,3.09-.72,3.41-.7,2.71-.22,3.46-.11,2.65.56,3.47v1.86l.48,4.55-.28,2.87v2l-1,2.17-1.75.19-1.47-.93-.63-1.3-.56-5.33-.11-3.81-.78-7.37-.17-3.41-.57-3.57-.33-3.1L596.8,151l-.73-7-.91-2.94-1.45-2.59-1.85-.79-2.77.69-2.33,1.22-1.58,1.74-1.65,2-1.85,2.93-1.47,2.81-1.32,3.37-1,3.73-1.19,4.54-.1,4.61V169l-.18,3.84.37,3.49.73,3.16.46,4.36-1.06,3-2,2.66-2.27.82-2.23.24-1.48-.92-1.11-1.26-1.92-4.22-1.07-4.5-1.19-3.9-.49-4.56-.67-4.55-1.07-4.5-.66-4.35-1.27-3.69-.4-3.79.19-2.87-.74-2.28-1.27-2.71-1.46-2.7-2.93-4.5.4-2.69,1-1.87.85-1.27,3.05-1.8,2.25-1,3.44,0,3.68.4,2.73.79,3.06,1,2,1.55,1.32,1.33,1.15,1.65,2.58-.67,2.7-1.46,2.44-1,1.71-1.46,3.51-1.16,2.63.7,2.37,1,1.93,1.56,1.23,2.33.2,1.94,1,2.75.46,2.5,1.18-1.89,1.45-1.14,1.59-2.62,1.54-2.13,1.91-1.48,1.77-1.75,2.16-1,1.9-.59,2.06,0,2.06,1,2.92.67,2.53,1.6,1.87,2,1.39,1.92,1.19,2,.67,2.58.3,2.82.67,2.67.26,2.43,1,2.94.76,3.46,1.24,2.52.84,2.36.45,2.31.31,3,.48,2.6.4,1.93Zm-6.52-46.74-2.52,1.24L626.45,123l.73-2.33,2.16.85Z"/><path class="cls-22" d="M704,138l-1.65,2.7-2.77,1.68-3.35,1.6L692,145.56l-4.57.58-4.16,1.15-2.86,1.58-3.37,1.31-2.8.89-4.58.39-3.62-.25-2.44.3-2.11.87-.88,2.28.56,4.18,1.26,2.2,2.36,2.64,4.38,4.41,2.23,2,4.28,2,2.29,1,2.78,1.06,3.22-.13,3-.91,2.52-.49,2.79-1.19,2.81-.7,1.75-.07.23.77-.93,1.12-1.71,1.24-3,1.68-3.16,1.79-3,1.3-2.9.9-4.4,0-4.43-.79L670,176.86l-4.31-2.56-3.94-3.07-2.7-1.65-2-1.77-1.75-2.27-1.21-.83-2.68-5.86L649,153.77l-1.54-4.14-.62-3.2.15-3.62.62-3.84.65-3.25.89-2.19.88-2.48.83-1.21,1.69-1.63,1.36-.25,2.3-3.51,2.73-2.56,2.86-1.68,3.59-.73,4.58-.19,3.8-.35,5.2.38,4.24,1L695,125.6l3.1,1.73,2.93,2.42,1.64,2,1.12,3.38Zm-18.77-4.94-1.73-1.71-2.59-1.19L678,129.13l-3.24-.26-3.12.13-2.8.9L666,131.2l-2.46,2-1.43.85-1.49,1.84.64,1.26,1.36-.25,2.25.1,3.8-.15,3.26.65,3.31-.14,3.61-.34,3.18-.92,2.8-.9Zm10,35-1.13,1L693,168.2l.54-1.29,1.46-.06Z"/><path class="cls-22" d="M852.4,132.44l-2,9.06-4.21,9.12-2.89,5.3-2.65,3.15-3.47,3.79-4,3.56-4.64,2.15-6.65,1.53-7.09.62-6.67-1.31-6-1.56-4.6-2.94L788.94,159l-4.85-5.3-2.44-3-3.15-4.41-1.79-5.49-1.12-5.46-.41-5.7,1.05-4.14-.63-5.42-.92-4.08,1.68-4.68.15-2.44,1.47-1.47.24-3.8,1.43-2.36,2.3-2.39,1.8-5.07,3-4.5L790,86.14l2.39-3.66,2.66-.23L798.24,80l2.21-.83L803.36,78l3-2.06,3.19-1,3.22-2.83,3-3.23,1-.91,2.51-1,3.76,1,3.35,2.57,2.8,3.6.84,5.24L829.26,83l-4,3.56-5.12,1.92-6.75,0-4.77,5.66L805.37,100l-3.5,4.18-3.32,7.41L797.29,119l-2,6.72,2.28,7.19.44,6.78,3.34,4.43,3,8.21,2.59.76,1.27,1.55,3.17,1,4.35.87,5.25-1,5.17-1.33,3.29-2.33.64-7,2.33-1.22.17-5.66,1.61-3.62.84-3.95L836.5,127l-.55-3.46-.16-5.2-1.72-3.73-2.51-2-1.69-4.13-3.11-4.8.83-3.76L829,96.67l2.33-1.31,3.22.2,4,2.9,3.86,2.41,1.7,3.92,2.48,2.61.52,4,1.3,4.1,1.06,3.3,1.94,3.26.25,5.3ZM779,97.46l-1.64,1.07-1.6.68-.07-2,1.1-2,1.76.11Zm34.08-27.74-1.85,1.35-.49-1.5.71-1.91,1.73.5Z"/><path class="cls-22" d="M913.55,134.62l-1.37,2.28-1.73,1.16-2,2-1.53,2L905,144.46l-1.93,2-.17,1.36-1.19,1.62-1.36,2.88-1.54,2.85-1.89,3.21L895.62,161l-1.3,2.49-1.62,3.44-1.94,3.59-.87,3.73-1.41,3.36-.75,2.76-.86,2.16.39,1.62-.29,2.23-.41,1.72-1.5,1.58-1.75,1.25-2,.14L879,190l-.81-1.39-.91-2.28L877,183l.16-2.84-.79-3.05-.66-2.55-1-3.38-.55-3.42-1.17-3.2-.53-3.51L870,148.26l-1.11-4.38,0-6.49-.89-2.28-1.53-2.65-.87-2.48-.61-2.93-1.55-2.56-1.07-2.4,0-1.77.53-2.59,2-2.2,2.76-.83,3.76.68,3.31,1,2.85,1.64,2.49,2.09,1.72,2.68,2,2.62,3.52,2.52.92,2.09-.07,2.84.45,2.62-.62,1.79-1.46,1.39-.67,2.18,0,3-.34,2.62.52,2.92,0,3.25.26,2.79v3.25l-.16,2.83-1.48,2-.21,1.64.65,1.46,1.09-.84,1.47-2.27,2.7-4.88.92-1.06,2.54-4.4,2-2.51.31-2.42,1.88-2.32,1.37-2.28,2-2,1.26-2.2,2.28-1.58,1.77-1.55,2.06-2.2,1.48-1.58.9-.87,1.17.15,1.28,1.54Z"/><path class="cls-22" d="M974.62,162.79l-2.22,2.26-3.08,1-3.63.8-4.38.56-4.58-.48-4.31.17-3.15.89-3.58.52-2.93.23-4.54-.66L934.74,167l-2.43-.26-2.26.37-1.38,2-.4,4.2.73,2.42,1.69,3.11,3.27,5.29,1.72,2.42,3.73,2.9,2,1.47,2.47,1.67,3.16.6,3.12-.2,2.57.09,3-.53,2.9,0,1.72.33,0,.8-1.16.87-2,.83-3.26,1-3.48,1-3.19.59-3,.22-4.28-1-4.13-1.78-3.2-2.5-3.62-3.47-3.14-3.88-2.26-2.22-1.57-2.19-1.19-2.61-1-1.08-1.28-6.31-1.14-5.49-.56-4.38.12-3.26,1-3.49,1.48-3.6,1.37-3,1.36-1.92,1.42-2.22,1.08-1,2-1.2,1.38.06,3-2.9,3.24-1.87,3.17-1,3.66.1,4.51.86,3.77.52,5,1.54,3.9,1.94,10.34,7.83,2.63,2.39,2.3,3,1.15,2.31.32,3.54Zm-17.16-9.07-1.3-2.06-2.25-1.74-2.56-1.7-3.1-1-3.07-.58-2.93.25-3,.63-2.85,1.37-1.58.5L933,150.86l.33,1.37,1.38.06,2.17.62,3.74.71,3,1.37,3.27.62,3.58.49,3.31-.17,2.93-.24Zm1.81,36.37-1.33.74-.87-1.16.81-1.14,1.44.28Z"/><path class="cls-22" d="M1030.68,167.48l-1.42,0-1.74-.67-1.7-.46-2.65-.31-3.59.95-2.07,1.67-3.47.47-1.75,1.25-3.16,1.58-1.77,2.05-1.34,2-.76,2.83-1.34,2-1.46,2-1.45,2.34-.92,2.68L998.43,194l-.93,2.68L996,199.18l-.9,2.59-1.17,2.82-.74,2.73L991,209.77l-2.13,1.14-2.75.07-1.8-.08-1.4-.79-1-1.89-.27-2-.24-2.09.77-2.12.65-3.16,1.2-4.43.37-2.13.83-2.3,1-3.06.71-2.64,1.22-3,1-3.06.76-3.54.76-2.83.26-2.46.4-2.22-.89-3.07-.74-2.52-.14-2.47.5-2.6,1-2.25,1.4-1.44,1.91-.7,2.89-.23,3.31-.63,2.44,1.07,2.82,2.28-.13,2,.73,2.93-1,3.86.83,1.44,1.08.49,1.7.06,2.29-1,3-.91,3.28-.53,2.83-.76,3,.42,3.31.08,1.7.46,2.15,1.39.38,1.62Z"/></g></svg>