<svg id="Layer_1" data-name="Layer 1" xmlns="http://www.w3.org/2000/svg" width="323.23" height="585.04" viewBox="0 0 323.23 585.04"><defs><style>.cls-1{fill:#dcdad9;}.cls-2{fill:#f4f3f2;}.cls-3{fill:#231f20;}.cls-4{fill:#efdf15;}.cls-5{fill:#fff;}</style></defs><path class="cls-1" d="M160.22,263.06l-42.32.16a32.17,32.17,0,0,1-32.21-32l0-56.72c.07-.59.13-1.17.19-1.76a42.29,42.29,0,0,1,12.88-18c10.18-8.05,21.76-8.26,44.5-8.32,17.24-.06,26,0,33.71,5.27,9.52,6.49,13.38,16.52,15,21.95,0,.18,0,.32.06.42l.21,56.75A32.18,32.18,0,0,1,160.22,263.06Z"/><path class="cls-2" d="M112.38,174.45H189.6a1.84,1.84,0,0,1,1.84,1.84V231a32.09,32.09,0,0,1-32.09,32.09H142.64A32.09,32.09,0,0,1,110.54,231V176.28a1.84,1.84,0,0,1,1.84-1.84Z" transform="translate(-0.84 0.58) rotate(-0.22)"/><path class="cls-3" d="M168.27,200.74c-5.86,6.55-12.9,12.89-13.4,12.41s5.53-7.87,11.14-13.71c4.12-4.29,9.77-9.57,10.22-9.16S172.16,196.39,168.27,200.74Z"/><path class="cls-3" d="M165.12,198.89c5.16,7.11,9.87,15.32,9.29,15.72s-6.52-7.07-11-13.79c-3.32-4.94-7.28-11.58-6.78-11.93S161.69,194.16,165.12,198.89Z"/><path class="cls-3" d="M119.25,199.29c-5.86,6.55-12.89,12.89-13.4,12.41S111.39,203.83,117,198c4.12-4.29,9.77-9.57,10.22-9.16S123.15,194.94,119.25,199.29Z"/><path class="cls-3" d="M116.11,197.44c5.16,7.11,9.87,15.32,9.29,15.72s-6.52-7.07-11-13.79c-3.32-4.94-7.29-11.58-6.78-11.93S112.68,192.71,116.11,197.44Z"/><ellipse class="cls-3" cx="140.17" cy="234.74" rx="7.49" ry="9.53"/><path class="cls-4" d="M139.54,99.57c-31.6,0-57.22,5.94-57.22,13.27s25.62,13.28,57.22,13.28,57.21-6,57.21-13.28S171.13,99.57,139.54,99.57Zm0,23.63c-27.82,0-50.37-4.64-50.37-10.36s22.55-10.35,50.37-10.35,50.36,4.63,50.36,10.35S167.35,123.2,139.54,123.2Z"/><path class="cls-2" d="M192.18,291.93c0-4.06-4.15-7.78-11.05-10.67a32.48,32.48,0,0,0-3.12-3.75c5.27-1.88,8.38-4.19,8.38-6.68,0-6.35-20.07-11.49-44.81-11.49-12.39,0-23.6,1.29-31.72,3.37h-.32c-12,0-21.79,7.45-21.79,16.64,0,5.57,3.59,10.5,9.09,13.51a8.89,8.89,0,0,0,3.09,5c-5.36,2.7-8.69,6.5-8.69,10.71,0,3.34,2.09,6.42,5.61,8.9a34.29,34.29,0,0,0,8.5,20.25,47.87,47.87,0,0,0-3.3,17.83c0,16.38,7.59,30.07,17.76,33.53a47.34,47.34,0,0,0-.4,6.13c0,1.08,0,2.15.11,3.2-7.82,1.39-13.7,7.35-13.7,14.5a14.12,14.12,0,0,0,6.28,11.45,11.42,11.42,0,0,0-4.57,9.32c0,6.11,4.42,11.06,9.86,11.06a8.42,8.42,0,0,0,2.14-.27,5.84,5.84,0,0,0-.12,1.13c0,2.16,1.22,3.91,2.72,3.91s2.72-1.75,2.72-3.91a4.5,4.5,0,0,0-1.27-3.31,11.62,11.62,0,0,0,3.67-8.61,12.07,12.07,0,0,0-1.66-6.14,19,19,0,0,0,6.58-2.12,20.41,20.41,0,0,0,12.77,4.69c14.1,0,25.53-15.63,25.53-34.9A44.8,44.8,0,0,0,167,377.8c5.55-6.26,9.22-17.07,9.22-29.36a53.3,53.3,0,0,0-4.08-21.06,32.41,32.41,0,0,0,1.86-6.87c6.82-5.17,11.35-12.4,12.19-20.51C190,297.61,192.18,294.86,192.18,291.93Z"/><path class="cls-1" d="M125.92,438.47a11.84,11.84,0,0,1,.62-18.16,14.08,14.08,0,0,1-6.27-11.44c0-7.15,5.88-13.12,13.7-14.5-.07-1.06-.12-2.12-.12-3.2a47.21,47.21,0,0,1,.41-6.13c-10.17-3.47-17.77-17.16-17.77-33.53a47.92,47.92,0,0,1,3.31-17.84,34.2,34.2,0,0,1-8.5-20.25c-3.53-2.48-5.62-5.56-5.62-8.89,0-4.21,3.34-8,8.69-10.71a9,9,0,0,1-3.08-5.05c-5.5-3-9.1-7.95-9.1-13.52,0-5,3-9.56,7.59-12.61l-.28.07h-.33c-12,0-21.78,7.45-21.78,16.64,0,5.57,3.59,10.5,9.09,13.51a8.93,8.93,0,0,0,3.08,5c-5.35,2.7-8.68,6.5-8.68,10.71,0,3.34,2.09,6.42,5.61,8.9a34.23,34.23,0,0,0,8.5,20.25,47.87,47.87,0,0,0-3.31,17.83c0,16.38,7.6,30.07,17.77,33.53a47.34,47.34,0,0,0-.4,6.13c0,1.08,0,2.15.11,3.2-7.82,1.39-13.7,7.35-13.7,14.5a14.12,14.12,0,0,0,6.28,11.45,11.39,11.39,0,0,0-4.57,9.32c0,6.11,4.41,11.06,9.86,11.06a8.42,8.42,0,0,0,2.14-.27,5.84,5.84,0,0,0-.12,1.13c0,2.16,1.22,3.91,2.72,3.91s2.72-1.75,2.72-3.91a4.47,4.47,0,0,0-1.28-3.31A10.79,10.79,0,0,0,125.92,438.47Z"/><path class="cls-1" d="M146.61,421.38a18.7,18.7,0,0,1-6.58,2.11,12,12,0,0,1,1.66,6.15c0,.09,0,.18,0,.27a19.9,19.9,0,0,0,2.9.24,20.35,20.35,0,0,0,12.25-4.28A21.12,21.12,0,0,1,146.61,421.38Z"/><path class="cls-5" d="M183.78,47.44v5.2H164v-5.2Z"/><path class="cls-5" d="M205.06,26.24h-.16l-9,4.88-1.36-5.36,11.36-6.08h6v52h-6.8Z"/><path class="cls-5" d="M265.38,45.12c0,17.68-6.56,27.44-18.08,27.44-10.16,0-17-9.52-17.2-26.72,0-17.44,7.52-27,18.08-27C259.14,18.8,265.38,28.56,265.38,45.12Zm-28.24.8c0,13.52,4.16,21.2,10.56,21.2,7.2,0,10.64-8.4,10.64-21.68,0-12.8-3.28-21.2-10.56-21.2C241.62,24.24,237.14,31.76,237.14,45.92Z"/></svg>