<svg xmlns="http://www.w3.org/2000/svg" width="1920" height="1080" viewBox="0 0 1920 1080"><defs><style>.cls-1{opacity:0.55;}.cls-2{fill:#554da0;}.cls-3{fill:#006838;}.cls-4{fill:#0a7d42;}.cls-5{fill:#afb0ae;}.cls-6{fill:#8c8e8a;}.cls-7{fill:#ed1c24;}.cls-8{fill:#fff;}.cls-9{fill:#ed1c36;}</style></defs><g id="Layer_2" data-name="Layer 2"><rect class="cls-1" width="1920" height="1080"/></g><g id="Layer_1" data-name="Layer 1"><rect class="cls-2" x="656.52" y="364.34" width="606.97" height="385.56" rx="12"/><rect x="672.15" y="376.59" width="575.7" height="361.05" rx="12"/><path class="cls-3" d="M863.11,782.85c-1.17-.22-2.4-.43-3.63-.57a1.93,1.93,0,0,1,1.16-1.13C861.39,781,862.22,781.63,863.11,782.85Z"/><path class="cls-4" d="M1261,788.42c-.89.53-2.44-.82-3.81-2.07-13.39-12.15-16-19.43-21.55-23.21-10.87-7.34-30.52.43-41.28,13.17a47.46,47.46,0,0,0-9.9,21.05c-12.06,9.27-17.72,9-20.66,7.14-6.58-4.13-1-17.07-9.39-27.57a24.72,24.72,0,0,0-12.1-8,110,110,0,0,0-1.74,20.34c.14,6.54.92,10.86-.46,11.47s-4.42-3.43-6.66-6.94a85.58,85.58,0,0,0-5.55-19.32c-1-2.26-2-4.36-3-6.29a38.79,38.79,0,0,0-10.82,4.64c-1,.69-1.86,1.32-2.43,1.77,0,0-4.14,10.29-12,15.32-2.14,1.37-6.14,3.95-8.68,2.3-3.82-2.47.44-11.29-3.8-16.78-1.66-2.15-3.62-2.5-10.62-3.14-5.66.44-13.39,1.12-23.35,2.18-3.2,3.62-6,6.67-8.49,9.21,0,1.58-.07,3.33-.1,5.28-.09,5.57.12,10.2.34,13.46-1.29,2.58-2.8,4.8-4.23,4.6-3-.44-2.84-11.49-4.85-15.18a2.05,2.05,0,0,0-1.25-1.16c-1.25-.28-2.69,1.45-4.26,4.29-5.32,9.56-12.28,31.63-19.46,30.94a3.58,3.58,0,0,1-2.48-1.23c-2.78-3.56,5-11.19,4.6-20.73-.25-6.42-4.07-11-8.07-15.72a47.54,47.54,0,0,0-21.38-14.4c-29.47-9.79-57.32,11.6-63.21,2.21-2.16-3.43,1.38-6.58-.63-10.89a7.2,7.2,0,0,0-.76-1.28,46.34,46.34,0,0,0-13.12,2.3,42.26,42.26,0,0,0-19,12.77c-3.54,4.22-6.93,8.25-7.15,13.94-.32,8.46,6.54,15.22,4.07,18.38a3.15,3.15,0,0,1-2.2,1.09c-7,.68-13.7-22.88-18.55-29.54-.89-1.22-1.72-1.87-2.47-1.7a1.93,1.93,0,0,0-1.16,1.13c-1.72,3.37-1.6,13-4.25,13.36-1.26.18-2.61-1.79-3.75-4.08.15-2.3.3-5.37.32-9a8,8,0,0,0-4,2.39c-5.33,6,1.15,18.55-2.35,21.11-2.56,1.86-9.74-2.13-28-22.81l-6.76-.7-5-.49c-7.57-.73-13.54-1.21-18-1.54-8.44-.62-16.06-1-22.19-7.11a23.76,23.76,0,0,1-4.1-5.48,11,11,0,0,0-3-2.66,19.18,19.18,0,0,0-3.87,3.68c-7.43,9.31-2.5,20.78-8.33,24.45-2.35,1.48-6.64,1.82-15.26-4.11a98.11,98.11,0,0,0-4,15.75c-2.52,4-5.84,8.57-7.51,7.83s-.67-5.56-.51-12.94a125.32,125.32,0,0,0-2-23.15c-1.58-8.33-3.84-11.85-5.65-15.47-9.47-6.7-21.42-9.57-28.8-4.58-5,3.34-7.23,9.8-19.1,20.57-1.22,1.11-2.59,2.31-3.38,1.84-2.51-1.5,3.26-18.2,8.74-32.6A64,64,0,0,0,671.52,723c-1-1.41-1-2.28-.87-2.82.11-.37.4-.86.21-1.3s-.48-.35-.52-.51c-.16-.69,5.19-3.47,12.53-4.77,1.49-.27,2.74-.41,3.6-.5s1.94-.37,3.43-.63a184.22,184.22,0,0,1,62.5.07l1.24.19c30.14-3.81,53.83,2.63,61.5,4.53,9,2.23,44.68-3.91,112.19-2.78,78.45-3.7,118.73,3.82,127.93,1.54,7.8-1.93,34.26-9.14,66.61-1.9,3.39.76,6.5,1.6,9.28,2.44,9.28-.91,17.86-2,25.61-3.23a207.84,207.84,0,0,1,70.49-.08c1.69.3,3.06.56,3.87.71,1,.1,2.38.26,4.07.56,8.28,1.47,14.31,4.61,14.13,5.38,0,.18-.41.16-.59.57s.11,1.06.24,1.47c.18.62.13,1.6-1,3.19a72,72,0,0,0,3.15,26.49C1257.32,767.89,1263.83,786.74,1261,788.42Z"/><path class="cls-4" d="M805.67,782l5,.49C809.24,783.41,807.35,782.87,805.67,782Z"/><path class="cls-4" d="M1035.92,791.88c-2.44,1.9-4.22,2.85-5.51,3.13,1.57-2.84,3-4.57,4.26-4.29A2.05,2.05,0,0,1,1035.92,791.88Z"/><path class="cls-3" d="M867.13,781.14c-.86-1.08-1.65-1.65-2.37-1.5a1.79,1.79,0,0,0-1.12,1,8.92,8.92,0,0,0-.71,2l.18.24c4.85,6.66,11.58,30.22,18.55,29.54a3.15,3.15,0,0,0,2.2-1.09c.79-1,.62-2.39,0-4.08C877.58,805.82,871.54,786.74,867.13,781.14Z"/><path class="cls-3" d="M1003.17,785.94a46.17,46.17,0,0,0-20.5-12.75c-28.26-8.67-55,10.27-60.61,2-2.07-3,1.33-5.83-.6-9.65a6.22,6.22,0,0,0-.73-1.13l-1.36.06a8,8,0,0,1,.41.76c2,4.31-1.53,7.46.63,10.89,5.89,9.39,33.74-12,63.21-2.21a47.54,47.54,0,0,1,21.38,14.4c1.3,1.55,2.58,3.07,3.73,4.65A44.09,44.09,0,0,0,1003.17,785.94Z"/><path class="cls-3" d="M823.31,781.48l-6.48-.62c-1.35.78-3.17.3-4.78-.43-7.26-.65-13-1.08-17.26-1.37-8.09-.55-15.39-.92-21.27-6.29a21.31,21.31,0,0,1-3.93-4.86,10.45,10.45,0,0,0-2.9-2.35,17.55,17.55,0,0,0-3.71,3.26c-.21.24-.42.49-.61.75a23.33,23.33,0,0,0,3.11,3.82c6.13,6.07,13.75,6.49,22.19,7.11,4.46.33,10.43.81,18,1.54l5,.49,6.76.7c18.28,20.68,25.46,24.67,28,22.81,1.06-.77,1.2-2.46,1-4.59C842.48,799.75,835.44,794.16,823.31,781.48Z"/><path class="cls-3" d="M740.36,786.83c-.83,2.26-1.52,4.43-2.09,6.5,3.93,1.5,6.34,1,7.89,0a5.79,5.79,0,0,0,2.22-2.65A32.4,32.4,0,0,1,740.36,786.83Z"/><path class="cls-3" d="M727,775.75c-1.51-7.38-3.68-10.49-5.42-13.7-6.54-4.28-14.31-6.77-20.8-6.19a42.16,42.16,0,0,1,10.53,5.43c1.81,3.62,4.07,7.14,5.65,15.47a125.32,125.32,0,0,1,2,23.15c-.16,7.38-1,12.24.51,12.94s5-3.87,7.51-7.83c.45-2.74,1.08-5.79,1.94-9.07A103.07,103.07,0,0,0,727,775.75Z"/><path class="cls-3" d="M856,788.86c.15-2,.29-4.76.31-8a7.84,7.84,0,0,0-3.85,2.11,6.71,6.71,0,0,0-.64.79c0,3.11-.18,5.76-.31,7.79,1.14,2.29,2.49,4.26,3.75,4.08s1.78-2.07,2.26-4.45A14.91,14.91,0,0,1,856,788.86Z"/><path class="cls-3" d="M1141.8,772a27.55,27.55,0,0,0-7-3.12,90.1,90.1,0,0,0-1.67,18c.07,2.88.28,5.28.33,7,2.23,3.5,5.17,7.56,6.63,6.9s.6-4.93.46-11.47A110.88,110.88,0,0,1,1141.8,772Z"/><path class="cls-3" d="M1184.72,775.35a40.59,40.59,0,0,0-9.49,18.64c-6.39,4.54-10.89,6.48-14.13,7a6.72,6.72,0,0,0,2.7,3.46c2.94,1.85,8.6,2.13,20.66-7.14a47.46,47.46,0,0,1,9.9-21.05,47.94,47.94,0,0,1,23.28-14.93C1207.1,759.93,1193.1,766.19,1184.72,775.35Z"/><path class="cls-3" d="M1251.14,751.65a72,72,0,0,1-3.15-26.49c1.11-1.59,1.16-2.57,1-3.19-.13-.41-.45-1-.24-1.47s.55-.39.59-.57c.18-.77-5.85-3.91-14.13-5.38-1.69-.3-3.1-.46-4.07-.56-.81-.15-2.18-.41-3.87-.71a207.84,207.84,0,0,0-70.49.08c-7.75,1.24-16.33,2.32-25.61,3.23-2.78-.84-5.89-1.68-9.28-2.44-32.35-7.24-58.81,0-66.61,1.9-9.2,2.28-49.48-5.24-127.93-1.54-67.51-1.13-103.15,5-112.19,2.78-7.67-1.9-31.36-8.34-61.5-4.53l-1.24-.19a184.22,184.22,0,0,0-62.5-.07c-1.49.26-2.7.49-3.43.63s-2.11.23-3.6.5c-7.34,1.3-12.69,4.08-12.53,4.77,0,.16.37.14.52.51s-.1.93-.21,1.3c-.16.54-.11,1.41.87,2.82a64,64,0,0,1-2.79,23.49c-5.48,14.4-11.25,31.1-8.74,32.6.79.47,2.16-.73,3.38-1.84a99.47,99.47,0,0,0,11-11.64c1.72-5.07,4.08-11.07,6.39-16.67a52.72,52.72,0,0,0,2.67-20.8c-.94-1.25-1-2-.83-2.5.1-.32.38-.76.2-1.15s-.46-.31-.5-.45c-.15-.61,5-3.07,12-4.22,1.43-.24,2.63-.37,3.46-.45l3.28-.55a190.91,190.91,0,0,1,59.93.06l1.19.17a167.1,167.1,0,0,1,59,4c8.67,2,42.84-3.46,107.57-2.46,75.22-3.28,113.84,3.38,122.66,1.36,7.47-1.71,32.84-8.09,63.86-1.68,3.25.67,6.23,1.41,8.9,2.16,8.9-.81,17.12-1.76,24.55-2.86a215.22,215.22,0,0,1,67.59-.07c1.62.26,2.93.49,3.71.63.93.08,2.28.23,3.9.49,7.94,1.3,13.72,4.08,13.55,4.77,0,.15-.4.14-.57.5s.11.94.23,1.3c.18.55.13,1.42-.94,2.83a59.15,59.15,0,0,0,3,23.45c3.33,8.08,6.76,16.88,8.64,23.31a113.56,113.56,0,0,0,9.39,9.53c1.37,1.25,2.92,2.6,3.81,2.07C1263.83,786.74,1257.32,767.89,1251.14,751.65Z"/><path class="cls-3" d="M1118.15,768.19a38.55,38.55,0,0,0-10.37,4.11c-1,.61-1.78,1.16-2.33,1.56,0,0-4,9.12-11.49,13.57a21.6,21.6,0,0,1-4.49,2.18,3.76,3.76,0,0,0,1.55,2.64c2.54,1.65,6.54-.93,8.68-2.3,7.84-5,12-15.32,12-15.32.57-.45,1.4-1.08,2.43-1.77a38.1,38.1,0,0,1,5.12-2.68C1118.88,769.5,1118.52,768.82,1118.15,768.19Z"/><path class="cls-3" d="M1033.54,791a8,8,0,0,0-.73-1.84,15.18,15.18,0,0,1-5.28,2.77c-5.1,8.47-11.77,28-18.66,27.4l-.14,0c-.88,2.29-1.28,4.13-.26,5.43A3.58,3.58,0,0,0,1011,826c7.18.69,14.14-21.38,19.46-30.94C1031.53,793,1032.58,791.55,1033.54,791Z"/><path class="cls-3" d="M1071.82,771.83c-5.43.39-12.84,1-22.39,1.93-3.07,3.2-5.77,5.9-8.14,8.15,0,1.4-.07,3-.1,4.68-.08,4.93.12,9,.33,11.92-1,1.82-2.11,3.42-3.22,3.91.53,2.5,1.23,4.46,2.47,4.64,1.43.2,2.94-2,4.23-4.6-.22-3.26-.43-7.89-.34-13.46,0-2,.06-3.7.1-5.28,2.47-2.54,5.29-5.59,8.49-9.21,10-1.06,17.69-1.74,23.35-2.18l.47,0C1075.74,772.18,1074.05,772,1071.82,771.83Z"/><path class="cls-5" d="M979.34,352.59H940.69a12,12,0,0,1-12-12v-77.1c0-6.6,5.52-2.86,12.12-2.86h38.66c6.6,0,11.87-3.74,11.87,2.86v77.1A12,12,0,0,1,979.34,352.59Z"/><path class="cls-6" d="M986.26,343.54H947.6a12,12,0,0,1-12-12l.37-70.36c0-.82-.16.78,0,0-4.14,1.9-7.16-3.07-7.16,1.76v77.11a12,12,0,0,0,12,12h38.66a12,12,0,0,0,11.75-9.61A11.77,11.77,0,0,1,986.26,343.54Z"/><polygon class="cls-3" points="949.55 317.53 939.12 344.08 959.99 344.08 949.55 317.53"/><polygon class="cls-3" points="936.02 316.17 925.59 342.72 946.45 342.72 936.02 316.17"/><polygon class="cls-3" points="957.72 317.53 947.29 344.08 968.15 344.08 957.72 317.53"/><polygon class="cls-3" points="971.61 312.08 961.18 338.63 982.04 338.63 971.61 312.08"/><polygon class="cls-3" points="978.59 315.83 968.15 342.38 989.02 342.38 978.59 315.83"/><polygon class="cls-3" points="985.74 320.59 975.3 347.14 996.17 347.14 985.74 320.59"/><rect class="cls-4" x="919.13" y="335.36" width="81.7" height="68.43" rx="12"/><path class="cls-3" d="M997.64,387.22h-57.7a12,12,0,0,1-12-12V335.59a12,12,0,0,0-8.78,11.54v44.43a12,12,0,0,0,12,12h57.71a12,12,0,0,0,12-12v-4.8A11.89,11.89,0,0,1,997.64,387.22Z"/><ellipse class="cls-7" cx="960.08" cy="260.91" rx="31.27" ry="6.88"/><ellipse class="cls-8" cx="960.08" cy="260.91" rx="11.55" ry="2.15"/><path class="cls-9" d="M861,500.65l-.29,3-.44,3.73-.73,2.86-1,2-.58,2.12-1.17,2.42-2,1.32-1,2.12-2.12,2.13-2.13.88-1.75,1.17-7.55.88-3.59-.88h-2.19l-2.86-1.32-.44-.73v-2l.59-.44h1.9l2.13.73,2.27.59,4.17.29,3.59-.29,2.42-.59,1.46-2.12.95-2.2,2.05-2.86.52-2.12,1.32-2,.58-3.29.29-5.64-.73-2.86v-3l-1.17-2.57-2.27-4.39-.59-1.76-1.39-.73-1-2.56-3.15-1.54-2.42-.88-3.88-.44-4.18-.15-4.1.15-1,1,.73,2.27-1,3.29-1,3.44-1.1,3.89-.88,3.95-.44,2.2-.15,3.29-.58,3-.37,4-.73,3v3.3l-.88,3.59-.44,2.71-.44,3.15-1.24,3.44-.44,3.3-1,3.88-.58,3.88-1,4.1-1.17,4.18-3.59,7.17-.14,2.57-1.1,2.27L811,563.2l.15,3.3-.3,2.2-1,2.71.58,3.73,1.32,1.83.44,2-.44.73-1.32.15h-.73l-.66-.88-1-2.56-.3-3.45.44-4.39.59-3.88.29-4v-3l1.1-.74.73-1.83.15-3.59-.59-3.59,1.32-2.41,1.39-6.3.59-3.74.73-3.15-.73-3,.29-2.71.88-5,.29-5.05.81-4.4-.15-4,.88-3.44,1.17-5.12v-3.89l.81-5.56-.81-3.45-.44-3.58-.43-2.27.73-3.45,1.68-1.61,3.15-.8,2.86,1.09h2l3.66-1.83,3.59-.58,3.44.44,3.15-.88,3.59.73,4,1.54,3,2.05,2.71,2.86,2.27,4.32,1,1.39.29,2.42,1.25,2.05.73,2.85.44,2.71-.3,2.42Zm-47,.44-.29.88-1.32.73-1.24-1.46,1.24-.73Z"/><path class="cls-9" d="M868.83,565.69l-.66.3-.73-.3V565l.44-.29.8.14.15.44Zm68,13-.59.73-1.17.44-.44-.73-.8-1.1-1-2-1.46-2-2.12-3.73-1.54-3.58-.58-2.56-1-1.39-1.83-5.19-1.46-1.83-1.17-2.7L920,550.29l-1.31-1.17-3.15-3.43-.66-2L912.35,542l-3.15-.58-3.37.43-3.44.58-2.5,1-2.71,2.41-2.56,1.31-.59,1.23-2,1.46-4.17,2.4-.81.87-.59,3.3v2.12l-1,1.18v2.56L885,565l.44,4.39-.44,3-.87,3.15-1.4,2.49-1.61,2-2.71,2.42-2.56.44-2.42.29-.73-.58h-1.39l-1-1.25-.73-.58v-1.47l-.73-1.1v-3l.73-1.9-.15-1.69.44-1,.88-.44V568.7l1.39-.74.59-1.32.88-1.83,1.24-.58,1.18-2.71.43-3,.74-.43-.3-2,.59-3v-1.9l-1.32-2.86-.88-2.56-.29-2.86-.15-2,.44-.59-.29-1v-.59l2.2-2.71v-.88l1.24-1.39L880,531.2l2-2.86.44-2.05.15-1.54-.15-1.17.73-3.74.59-3.59,1.24-4.54.3-2.56.58-1.17-.14-3.88-.3-3.45.3-3.29,1.17-2.71,1.1-2.13,1.32-1,.43-2,1-1.32.44-1.24-.44-.88.29-2-1.1-2.34.29-2.42-.87-1.1.43-1.9h1l1.61-1.25.88-.14.66-1.18,2.34-.29,2,.88,1.68,2.56.73.44,1.18,2.27,1.39,2.71.58,2.57,1.32,2.93,1.69,2.27.14,1.24,1.18,1.32.73,1.54,1.39,1.9-.15,1.83,1.32,2.71.15,1.18.8,1.46.74,2.56,1.17,2.13.44,3.59.66,2.56.88,3.59V519l.73,2,1,3.44,1,3.15.29,2.56L920,532l2,1.32,2.34.73,2.86-.14h2.71l2.71.58.44.81.58.73-.58.44-.44.73-1.17,1.25-1.54.14-.59.74-2.27.44-2.56,1.17-1,.95v1.76l.44,2.12.95,2.12L926,550l1,3,.73,1.83,1,2.86,1,2.56,1.54,3.15,1,2.64.58,4.1.73.44,1,2.12,1,2.05V576l.73.73Zm-65.41,6.59-.14.58-1-.14-.44-1.1.74-.15h.87Zm6.67-56.4-.15.73-.66.44-.88-.58v-.73l.74-.81.8-.29.15.44Zm31.37,2.35-.66-1.62-1.46-2.71-.29-2.56-.74-1.17-.51-1.54-.88-1.46.15-3.89-1.9-2.56.58-1.1-.73-1.76-.95-5.27-1.17-2.42-.15-1.9-1.68-2.12-.58-1.18-1.47-3.15-3,3,.29,1.9-1.1,1.69v1.75l-.29,1-.59,3-.29,2.64v.8l-.74,1v2.12l-.29,4.18v2l-.81,1.76.51,1.83-.8,2.27,1.24,1.76,3.44,1.54,3.6,1.32,3,1.68,1.69,1.17,2.93.59,2-.44.58-.44Zm-7.13.29-.88.22-.73-.51.15-.59h.73l.44-.29.29.44Zm33.33,4-.15.59-.58.29h-.44v-.44l.14-.58.3-.15ZM937,584c0,.1-.3.2-.74.3l-.44-.15-.14-.44.44-.44.73.15Z"/><path class="cls-9" d="M996.56,504.68l-.29,4.47.15,2.56-.44,4v2.71l-.88,3.15v2.86l-.88,2.12.15,2.27-1.25,2.64.44,1.39-.59,1-.44,2.27-.14,3.73-1.32,2.56-.81,2.71-.58,2.86-1,1.17-1,3-1.54,3.15-2.27,3.14-2.57,2.71-2.78,2.28-3.29,1.17-3.52.73-3.15.44h-3.88l-4-.44-2.71-.73-2.42-1.47-2.41-1.39-1.76-2.27-1.39-2.49-1-2.86-1-2.56-.3-3.15-.44-3-.36-3.15.36-4V535l.3-3.66.73-2.05-.59-1.39v-2l1-2.12.29-3-.15-2.27.59-3.29.81-3.15v-2.86l.73-3V503l-1.54-2.49-.59-2.86-.14-1.54.73-2.71,1.25-1.75,1-.44,2.56-1.25,3-.44,2.85.59,2.35,1.54,1.39,1,.73,1,1.54,1.24.73,1.91-.14,2.71-1.54,2.71-1.61,2.41-1.69,3.15-.58,2.27-.88,4.18-1.69,3.59-1,4-1,3.81-1.1,3.45-1,3.73-.15,4.18-.88,3.29.73,4.4.15,5.34.59,3.66,1.54,2.35,2.19,1.83,1.25,1,1.9.59,3.74.81,2.56.29,2.71-.15,4.84-1,3.73-2.34,2.12-2.27,1.62-2.57,1.68-2.12.15-2,1-1.39,1.32-3.15,1-2.71.59-2.64,1.46-2.56-.14-1.54.14-1.47,1.25-1.53-.44-2.49,1-4.11.44-3.44,1-3-.44-3.44.59-3,.22-3.59-.22-2.85v-2.86l.66-2.27-.81-1,.37-1.62-.37-1.83.15-1.68.22-2.05.29-2.13v-1.17l1.32-.44.44.59-.44,2,.29,3.15v1.68l.44,4Zm6.81,1.47-.36,1.1h-1.32l-.59-1.4.74-1.46,1.17.29Z"/><path class="cls-9" d="M1047.76,499.12l-1.39,1.83h-1.91l-2.27-.81-2.12-1-2.2-1.62-.44-1.39-2.71-.58-1.54-.59-3,.44h-2.56l-2.64.15-3.66,1.32-2.64,1.53-4.25,3.89-.88,2.12-1.39,3,.37,3.44,1.17,2.86,1.17,1.76,3.81,2.71,2.2,1.83,2.56,1.61,2,1.83,2.34,1.76,4.84,2.86,2.41,2.12,1.76,2,1.69,1.17.44,1.68,2.41,3.89,1,2.41.58,2.64,1.1,2.86.88,2.71.15,3.88-.59,3-1.68,3.52-.88,2.78-1.83,2-.88,1.83-2.13,2.2-1.9,1.53-3.15,1.18-4.25.73-2.93.66-3.37-.66-2.34-.15-2.12-.44-1.62-.88h-1.09l-.59-.73.29-1.68.59-.88h1.1v.88l.29.58,1,.66,2.12.88,4.76.29,1.54-.44,2.34.15,3.15-.88,2.86-1.24,3.51-2.42.59-1.76,1.46-2.42.88-2.56,1.1-1.9.15-2.27.73-3.3-.58-2.12-.59-2.86-1.54-2.2-.73-2.71-1.32-2.56-1-2.42-1.76-1-1.39-1.54-2-1.47-1.83-1.83-3.3-1.46-2-2L1022,527l-2.13-1.83-2.71-1.9-1.46-1.25-2.71-.73L1010.4,519l-2.27-2.64-1.31-2.71-1.4-2.86v-5.71l1.25-3.15,1.46-3,1.69-2.56,1.9-2.06,1.83-1.68,2.27-1.83,2.71-1.32,2.35-.88,3.44-.14,3.3-.3,3.29-.8,2.86-1.47,3-.88,1.39-1.1,2.86.44,1.61,1.54.95,2.71,1.17,1.47,1.47,1.54,1,2.34.29,2.27Zm.58,3.29-.14,1.69-2,.44-1.32-.15-1.54-1.39,1.39-1.17,2.13-.15Z"/><path class="cls-9" d="M1122,490.84l-.15,1.39-1.1.44h-1l-2.12-.88-1.9-1h-5.13l-3.44,1.1-3.88.73-4.84,2.42-3.29.58H1093l-2,.88-5.57.15h-4.68l-4.91.44-4.25.8-2.2.74L1068,501l-.58,2.49-.44,3.81-.3,3.73-.73,6.45.15,1.31-.66,4.25.66.44,1.17-.29,1.83-.73,2.49-2.27,2.27-.88h4.84l6.29.14,4,.3.74.58,1.24,1h3.74l1.31.88,1.4-.15,2.85,1,3,.44.14.73-.51.59-1.76,1.25h-1.68l-1.32-.3-5-.14-5.5.88-5.12.58-4.69.73-4.61.3-3.74,1.39-3.59-2.57-.51,4,.22,2.86.29,3.59.88,3.95,1.32,4.32,1.39,3.89,4.18,5.86,2.27,2.56,3.15,2,3.14,1.61,3.89,2,4.68.58,4.91.88,3.74.88,2.41-.15,2.13.66,5.71.88,1.17,1-.29,1.09-.44,1.32-1.68.3-3.59-.44-3.74.14-5.86.3-4-.3-3-1-1.39.14-2-.44-4.1-1.09-2.71-.59-2-1.83-2.27-1.47-2-1.53-2-3.45-2.27-3.59-.44-3.29.44-2.27-1.76-3.3-.51-3.59-1.32-1.9-.3-4.25-.73-2.71.44-2.78-.8-4.1.8-2.71-1.1-1.91.52-.8-.22-2.2.8-2.42-.44-2.41,1.17-2.57-.44-3.44v-2.71l1-1.76-.29-2.56.58-1.47-.29-2.71-1.32-1.53-2.71-2.71-.14-1.47.14-2.56.59-3.3,1-2.42,2.71-1.75,2.42-.81,1.83-.73,3.15.88,3.44,1.68,4.47.15,6.15-.15,8.13-.29h4.76l3.74,1,3.81.3,2.85.44,2.64.8,2,.59h1.32l2.85,1.61,2.42,1.54Zm-48.2,75.37-.29,1-1.32-.15v-1.24l1-.73Z"/></g></svg>