<svg id="Layer_1" data-name="Layer 1" xmlns="http://www.w3.org/2000/svg" width="234" height="260" viewBox="0 0 234 260"><defs><style>.cls-1{fill:#f6d1a5;}.cls-2{fill:#ffdeb3;}.cls-3{fill:#e7c51e;}.cls-4{fill:#fedd10;}.cls-5{fill:#231f20;}.cls-6{fill:#fff;}.cls-7{fill:#808184;}.cls-8{fill:#aeafb0;}.cls-9{fill:#bbbdbf;}.cls-10{fill:#e0d8df;}</style></defs><path class="cls-1" d="M69.79,127.83H172.62a1.84,1.84,0,0,1,1.84,1.84v56.75a32.09,32.09,0,0,1-32.09,32.09H100A32.09,32.09,0,0,1,68,186.42V129.66a1.84,1.84,0,0,1,1.84-1.84Z" transform="translate(-21.2 16.97) rotate(-7.36)"/><path class="cls-2" d="M94.73,128.3H172a1.84,1.84,0,0,1,1.84,1.84v54.72a32.09,32.09,0,0,1-32.09,32.09H125a32.09,32.09,0,0,1-32.09-32.09V130.14a1.84,1.84,0,0,1,1.84-1.84Z" transform="translate(-21.03 18.52) rotate(-7.36)"/><path class="cls-3" d="M105.11,61.35h14.83a45.84,45.84,0,0,1,45.84,45.84v29.05a3,3,0,0,1-3,3H59.27a0,0,0,0,1,0,0v-32a45.84,45.84,0,0,1,45.84-45.84Z" transform="translate(-11.93 15.25) rotate(-7.36)"/><path class="cls-4" d="M119.57,61.8h0a45.84,45.84,0,0,1,45.84,45.84v20.74a3,3,0,0,1-3,3H73.73a0,0,0,0,1,0,0V107.63A45.84,45.84,0,0,1,119.57,61.8Z" transform="translate(-11.39 16.12) rotate(-7.36)"/><rect class="cls-3" x="48.37" y="127.44" width="137.26" height="15" rx="7.5" transform="translate(-16.33 16.11) rotate(-7.36)"/><path class="cls-4" d="M178.74,134.49,90.79,145.86a6.29,6.29,0,0,1-6.91-5.54h0a6.27,6.27,0,0,1,5.27-7.11l88-11.37a6.29,6.29,0,0,1,6.91,5.54h0A6.29,6.29,0,0,1,178.74,134.49Z"/><path class="cls-5" d="M132,160.78c-.19,4.79-2.8,9.51-6.5,10-3.54.5-6.63-3.06-7.58-7.39-1.32-6,1.49-13.41,5.9-14.24S132.28,154.42,132,160.78Z"/><ellipse class="cls-6" cx="125.4" cy="156.26" rx="2.09" ry="3.83"/><path class="cls-5" d="M132.46,150.28c-.09.65-3.68-1.06-9.08.41-4.91,1.33-7.63,4.29-7.86,3.73s2.84-5.53,7.26-6.91C127.81,145.94,132.56,149.53,132.46,150.28Z"/><path class="cls-5" d="M166.77,156.28c-.22,4.78-3.21,9.51-7.43,10-4.05.51-7.57-3.05-8.66-7.38-1.51-6,1.7-13.41,6.73-14.24S167.05,149.92,166.77,156.28Z"/><ellipse class="cls-6" cx="159.19" cy="151.76" rx="2.38" ry="3.83"/><path class="cls-5" d="M167.26,145.78c-.1.65-4.2-1.06-10.37.41-5.62,1.33-8.73,4.29-9,3.72s3.25-5.52,8.3-6.9C161.94,141.44,167.37,145,167.26,145.78Z"/><path class="cls-5" d="M162.63,178c1.37,4.7-4.37,20.46-13.58,23.78-11.24,4.07-25-11.34-25.49-16.54-.27-3.16,4.51-1.29,19-4.1C157.2,178.27,161.63,174.53,162.63,178Z"/><path class="cls-6" d="M159.5,180.65c1.08,2.55-4.33,12-12.15,14.13-9,2.42-19.1-5.48-19-8.36.05-1.74,3.8-.92,15.17-3.07C155.16,181.15,158.74,178.87,159.5,180.65Z"/><ellipse class="cls-3" cx="131.94" cy="75.22" rx="7.68" ry="13.03" transform="translate(-8.55 17.53) rotate(-7.36)"/><ellipse class="cls-3" cx="131.94" cy="75.22" rx="3.8" ry="6.44" transform="matrix(0.99, -0.13, 0.13, 0.99, -8.55, 17.53)"/><ellipse class="cls-7" cx="137.6" cy="61.52" rx="11.89" ry="22.63"/><ellipse class="cls-8" cx="137.02" cy="63.72" rx="5.88" ry="11.19"/><ellipse class="cls-9" cx="137.6" cy="61.52" rx="5.88" ry="11.19"/><ellipse class="cls-10" cx="137.6" cy="61.52" rx="2.25" ry="4.28"/></svg>