<svg id="Layer_1" data-name="Layer 1" xmlns="http://www.w3.org/2000/svg" width="204" height="205" viewBox="0 0 204 205"><defs><style>.cls-1{fill:#231f20;}.cls-2{fill:#4b56a5;}.cls-3{fill:#05cc0e;}</style></defs><path class="cls-1" d="M100.85,8.17a93.25,93.25,0,1,0,93.25,93.25A93.25,93.25,0,0,0,100.85,8.17Zm0,177.37A84.13,84.13,0,1,1,185,101.42,84.13,84.13,0,0,1,100.85,185.54Z"/><circle class="cls-2" cx="100.85" cy="101.42" r="87.39"/><path class="cls-3" d="M102.82,150.11a40.59,40.59,0,0,1-5-80.87V52.72l41.67,24.06-7.62,4.4-3.47,2L97.81,100.84V81.47c-12.49,4.59-21.27,15.42-21.27,28.06,0,16.79,15.5,30.39,34.61,30.39,11.7,0,22-5.1,28.3-12.9A40.59,40.59,0,0,1,102.82,150.11Z"/></svg>