<svg id="Layer_1" data-name="Layer 1" xmlns="http://www.w3.org/2000/svg" width="204" height="205" viewBox="0 0 204 205"><defs><style>.cls-1{fill:#231f20;}.cls-2{fill:#4b56a5;}.cls-3{fill:#05cc0e;}</style></defs><path class="cls-1" d="M102,9.25a93.25,93.25,0,1,0,93.25,93.25A93.25,93.25,0,0,0,102,9.25Zm0,177.38a84.13,84.13,0,1,1,84.13-84.13A84.13,84.13,0,0,1,102,186.63Z"/><circle class="cls-2" cx="102" cy="102.5" r="87.39"/><path class="cls-3" d="M150,77.64l-32.61-2.29-12.65,27.47-7.35,16a12.9,12.9,0,0,1,4.09,7.27c1.58,9.12-7.74,18.34-20.8,20.59s-24.94-3.32-26.51-12.44S61.91,115.89,75,113.64c6.89-1.19,13.45-.2,18.34,2.34l3.47-15.83L105.15,62l1,.33,35.58-4.54Z"/></svg>